<svg width="74" height="74" viewBox="0 0 74 74" fill="none" xmlns="http://www.w3.org/2000/svg">
<circle cx="37" cy="37" r="37" fill="white"/>
<path d="M42.769 25.0526C41.6184 25.2455 40.7581 25.6051 39.845 26.2879C38.4305 27.3407 37.5332 28.9825 37.3801 30.8015L37.3432 31.2341H31.2892C27.3887 31.2341 25.135 31.2549 24.9502 31.2862C24.0002 31.4634 23.2349 32.2192 23.0554 33.1573C22.9815 33.543 22.9815 47.6885 23.0554 48.0742C23.2349 49.0123 24.0002 49.7681 24.9502 49.9453C25.3408 50.0182 46.1048 50.0182 46.4954 49.9453C47.4454 49.7681 48.2107 49.0123 48.3902 48.0742C48.4219 47.8917 48.443 45.588 48.443 41.5852V35.3777L48.7597 34.9607C49.6041 33.8505 50 32.657 50 31.2341C49.9947 30.1239 49.7942 29.2952 49.298 28.357C48.4113 26.6788 46.8279 25.5009 44.933 25.11C44.3683 24.9901 43.3021 24.964 42.769 25.0526ZM44.8803 26.6996C46.184 27.0332 47.3504 27.9766 47.9416 29.1753C48.311 29.9154 48.406 30.3428 48.406 31.2341C48.406 31.8491 48.3849 32.068 48.2899 32.4068C47.931 33.715 46.9915 34.846 45.7775 35.4298C45.0281 35.7946 44.6005 35.8884 43.6927 35.8884C42.7849 35.8884 42.3573 35.7946 41.6079 35.4298C40.3939 34.846 39.4544 33.715 39.0955 32.4068C39.0005 32.068 38.9794 31.8491 38.9794 31.2341C38.9794 30.3428 39.0744 29.9154 39.4438 29.1753C40.0931 27.8567 41.3756 26.8977 42.8324 26.6214C43.3866 26.5172 44.3208 26.5537 44.8803 26.6996ZM37.6493 33.0948C37.776 33.5378 38.1085 34.2102 38.4357 34.7001C39.3541 36.0552 40.7423 36.983 42.4365 37.3686C42.9696 37.4885 44.4052 37.4885 44.9489 37.3686C45.4978 37.2436 46.0626 37.0507 46.4901 36.837L46.8595 36.6546V42.2315C46.8595 47.7197 46.8595 47.8136 46.754 48.0168C46.6854 48.1523 46.5745 48.2618 46.4373 48.3295C46.2315 48.4338 46.147 48.4338 35.7228 48.4338C25.2986 48.4338 25.2142 48.4338 25.0083 48.3295C24.8711 48.2618 24.7602 48.1523 24.6916 48.0168C24.5861 47.8136 24.5861 47.7249 24.5861 40.6157C24.5861 33.5065 24.5861 33.4179 24.6916 33.2147C24.755 33.0896 24.8764 32.9697 24.9978 32.9071C25.1878 32.8029 25.325 32.8029 31.3789 32.7977H37.5649L37.6493 33.0948Z" fill="#5A8EE1"/>
<path d="M45.6979 28.998C45.5976 29.0554 44.9273 29.686 44.2095 30.3897L42.9058 31.6718L42.3622 31.1506C41.7816 30.5877 41.581 30.4522 41.3118 30.4522C40.9318 30.4522 40.5254 30.8535 40.5254 31.2288C40.5254 31.5102 40.6679 31.6979 41.4702 32.5057C42.5891 33.6315 42.8266 33.7462 43.328 33.4283C43.6289 33.2354 46.6638 30.2177 46.7746 29.9987C46.9541 29.6443 46.8063 29.2013 46.4368 28.998C46.1835 28.8573 45.9354 28.8573 45.6979 28.998Z" fill="#5A8EE1"/>
<path d="M29.4418 36.0082C28.0378 36.3053 26.9611 37.6292 26.9611 39.0521C26.9611 39.7244 27.2672 40.5531 27.6895 41.0274L27.8901 41.2568L27.3834 41.7571C26.94 42.1897 26.8397 42.3252 26.6286 42.7526C26.2433 43.524 26.2116 43.7064 26.1852 45.0511C26.1589 46.1717 26.1641 46.2395 26.2697 46.4427C26.3436 46.5887 26.4544 46.6981 26.5917 46.7659C26.7922 46.8649 26.8978 46.8701 30.128 46.8701C33.3581 46.8701 33.4637 46.8649 33.6643 46.7659C33.8015 46.6981 33.9123 46.5887 33.9862 46.4427C34.0918 46.2395 34.0971 46.1717 34.0707 45.0511C34.0443 43.7064 34.0126 43.524 33.6273 42.7526C33.4162 42.3252 33.3159 42.1897 32.8726 41.7571L32.3659 41.2568L32.5664 41.0274C32.9887 40.5531 33.2948 39.7244 33.2948 39.0521C33.2948 37.6136 32.2128 36.3001 30.7877 36.003C30.3338 35.9092 29.8957 35.9092 29.4418 36.0082ZM30.7719 37.6344C31.0833 37.7699 31.4264 38.1087 31.5689 38.4214C31.6533 38.5986 31.685 38.7654 31.685 39.0521C31.685 39.5264 31.5583 39.8287 31.2364 40.1466C30.9144 40.4645 30.6083 40.5896 30.128 40.5896C28.3545 40.5896 27.9481 38.1712 29.6265 37.5771C29.9538 37.4624 30.4341 37.4833 30.7719 37.6344ZM30.5555 42.2314C31.5055 42.4086 32.2709 43.1644 32.4503 44.1025C32.4767 44.2589 32.5031 44.5925 32.5031 44.8426V45.3065H30.128H27.7528V44.8426C27.7528 44.5925 27.7792 44.2589 27.8056 44.1025C28.0484 42.8412 29.2888 41.9969 30.5555 42.2314Z" fill="#5A8EE1"/>
<path d="M37.7691 39.1616C37.5422 39.2762 37.3574 39.5837 37.3574 39.8339C37.3574 39.9225 37.4049 40.0893 37.463 40.1988C37.5844 40.4333 37.8852 40.6157 38.1491 40.6157C38.5503 40.6157 38.9408 40.23 38.9408 39.8339C38.9408 39.5733 38.7561 39.2762 38.5186 39.1564C38.26 39.0261 38.0225 39.0261 37.7691 39.1616Z" fill="#5A8EE1"/>
<path d="M40.9371 39.1616C40.7101 39.2762 40.5254 39.5837 40.5254 39.8339C40.5254 40.0945 40.7101 40.3916 40.9476 40.5115C41.0585 40.5688 41.2274 40.6157 41.3171 40.6157C41.7182 40.6157 42.1088 40.23 42.1088 39.8339C42.1088 39.5733 41.9241 39.2762 41.6866 39.1564C41.4279 39.0261 41.1904 39.0261 40.9371 39.1616Z" fill="#5A8EE1"/>
<path d="M44.1031 39.1616C43.8761 39.2762 43.6914 39.5837 43.6914 39.8339C43.6914 40.0945 43.8761 40.3916 44.1137 40.5115C44.2245 40.5688 44.3934 40.6157 44.4831 40.6157C44.8843 40.6157 45.2748 40.23 45.2748 39.8339C45.2748 39.5733 45.0901 39.2762 44.8526 39.1564C44.594 39.0261 44.3564 39.0261 44.1031 39.1616Z" fill="#5A8EE1"/>
<path d="M37.7691 42.2885C37.5422 42.4032 37.3574 42.7107 37.3574 42.9609C37.3574 43.2215 37.5422 43.5186 37.7797 43.6384C37.9802 43.7375 38.0858 43.7427 41.316 43.7427C44.5462 43.7427 44.6517 43.7375 44.8523 43.6384C45.0898 43.5186 45.2745 43.2215 45.2745 42.9609C45.2745 42.7003 45.0898 42.4032 44.8523 42.2833C44.6517 42.1843 44.5514 42.1791 41.3054 42.1791C38.0858 42.1843 37.9591 42.1895 37.7691 42.2885Z" fill="#5A8EE1"/>
<path d="M37.7691 45.416C37.5422 45.5306 37.3574 45.8381 37.3574 46.0883C37.3574 46.3489 37.5422 46.646 37.7797 46.7659C37.9802 46.8649 38.0858 46.8701 41.316 46.8701C44.5462 46.8701 44.6517 46.8649 44.8523 46.7659C45.0898 46.646 45.2745 46.3489 45.2745 46.0883C45.2745 45.8277 45.0898 45.5306 44.8523 45.4107C44.6517 45.3117 44.5514 45.3065 41.3054 45.3065C38.0858 45.3117 37.9591 45.3169 37.7691 45.416Z" fill="#5A8EE1"/>
</svg>
