<svg width="26" height="30" viewBox="0 0 26 30" fill="none" xmlns="http://www.w3.org/2000/svg">
<path d="M3.44098 0.937725C1.99771 0.937725 0.8125 2.17872 0.8125 3.68428V23.6582C0.8125 25.1638 1.99771 26.4 3.44098 26.4H13.1417C14.3823 28.0211 16.2907 29.0625 18.4266 29.0625C22.1511 29.0625 25.1875 25.897 25.1875 22.0103C25.1875 18.5702 22.8089 15.6893 19.6796 15.0728V7.68134C19.6866 7.52244 19.6495 7.36481 19.5727 7.22734C19.5717 7.22567 19.5707 7.22401 19.5697 7.22234C19.5354 7.16159 19.4938 7.10566 19.4458 7.05592L13.8202 1.18152C13.775 1.13499 13.7245 1.09431 13.67 1.06034C13.6623 1.0553 13.6545 1.0504 13.6466 1.04564C13.5993 1.01833 13.5495 0.996136 13.4979 0.979394C13.476 0.971926 13.4538 0.965459 13.4313 0.96001C13.3829 0.94877 13.3337 0.94228 13.2842 0.940626C13.2754 0.939431 13.2666 0.938389 13.2578 0.9375L3.44098 0.937725ZM3.44098 2.59212H12.4618V5.72482C12.4618 7.23038 13.647 8.47299 15.0902 8.47299H18.0936V14.9597C14.5228 15.1422 11.6656 18.2402 11.6656 22.0103C11.6656 22.9795 11.8541 23.9039 12.1953 24.7456H3.44098C2.84984 24.7456 2.39857 24.2762 2.39857 23.6582V3.68428C2.39857 3.06637 2.84984 2.59212 3.44098 2.59212ZM14.0478 3.76022L15.5115 5.2886L16.9752 6.81698H15.0902C14.4991 6.81698 14.0478 6.34274 14.0478 5.72482V3.76022ZM6.44274 9.87697C6.3386 9.87739 6.23556 9.89921 6.1395 9.94117C6.04344 9.98313 5.95624 10.0444 5.88289 10.1215C5.80954 10.1986 5.75146 10.2901 5.71199 10.3906C5.67251 10.4911 5.6524 10.5988 5.65281 10.7074C5.65362 10.9257 5.73711 11.1348 5.88508 11.2891C6.03304 11.4434 6.23349 11.5305 6.44274 11.5314H14.0478C14.152 11.5318 14.2552 11.5108 14.3515 11.4696C14.4479 11.4285 14.5356 11.3679 14.6095 11.2914C14.6834 11.2149 14.7422 11.1239 14.7824 11.0237C14.8226 10.9235 14.8436 10.816 14.844 10.7074C14.8444 10.5982 14.8241 10.49 14.7842 10.3891C14.7443 10.2882 14.6857 10.1964 14.6117 10.1192C14.5377 10.042 14.4498 9.98089 14.353 9.93931C14.2562 9.89773 14.1525 9.87654 14.0478 9.87697H6.44274ZM6.44274 13.6559C6.3386 13.6563 6.23556 13.6782 6.1395 13.7201C6.04344 13.7621 5.95624 13.8234 5.88289 13.9005C5.80954 13.9776 5.75146 14.069 5.71199 14.1695C5.67251 14.2701 5.6524 14.3777 5.65281 14.4863C5.65321 14.7049 5.73652 14.9144 5.88453 15.0691C6.03254 15.2238 6.23322 15.3111 6.44274 15.3119H14.0478C14.1521 15.3124 14.2554 15.2913 14.3519 15.25C14.4484 15.2088 14.5361 15.148 14.61 15.0714C14.684 14.9947 14.7427 14.9035 14.7829 14.8031C14.823 14.7028 14.8438 14.5951 14.844 14.4863C14.8444 14.3772 14.8241 14.269 14.7842 14.168C14.7443 14.0671 14.6857 13.9754 14.6117 13.8982C14.5377 13.821 14.4498 13.7598 14.353 13.7183C14.2562 13.6767 14.1525 13.6555 14.0478 13.6559H6.44274ZM18.4266 16.606C21.2934 16.606 23.6014 19.0171 23.6014 22.0103C23.6014 25.0035 21.2934 27.4081 18.4266 27.4081C16.7112 27.4081 15.1959 26.5469 14.2554 25.2141C14.2184 25.1337 14.1693 25.06 14.1098 24.996C13.5674 24.1421 13.2517 23.1168 13.2517 22.0103C13.2517 19.0171 15.5597 16.606 18.4266 16.606ZM18.4266 18.4737C18.217 18.4746 18.0164 18.5619 17.8684 18.7165C17.7203 18.8712 17.637 19.0807 17.6366 19.2993V21.1799H15.8337C15.7296 21.1803 15.6265 21.2021 15.5305 21.2441C15.4344 21.286 15.3472 21.3473 15.2739 21.4244C15.2005 21.5015 15.1424 21.593 15.103 21.6935C15.0635 21.794 15.0434 21.9017 15.0438 22.0103C15.0446 22.2286 15.1281 22.4377 15.276 22.592C15.424 22.7463 15.6245 22.8334 15.8337 22.8343H17.6366V24.7149C17.6374 24.9331 17.7209 25.1422 17.8689 25.2965C18.0169 25.4509 18.2173 25.538 18.4266 25.5388C18.5307 25.5392 18.6339 25.5183 18.7303 25.4771C18.8267 25.4359 18.9143 25.3753 18.9882 25.2988C19.0622 25.2223 19.1209 25.1314 19.1611 25.0312C19.2014 24.931 19.2223 24.8235 19.2227 24.7149V22.8343H21.0194C21.1236 22.8347 21.2268 22.8137 21.3231 22.7725C21.4195 22.7314 21.5072 22.6708 21.5811 22.5943C21.655 22.5178 21.7138 22.4268 21.754 22.3266C21.7942 22.2264 21.8151 22.1189 21.8156 22.0103C21.816 21.9011 21.7956 21.7929 21.7558 21.692C21.7159 21.5911 21.6573 21.4993 21.5833 21.4221C21.5093 21.3449 21.4213 21.2838 21.3246 21.2422C21.2278 21.2006 21.1241 21.1794 21.0194 21.1799H19.2227V19.2993C19.2225 19.1905 19.2017 19.0829 19.1616 18.9825C19.1215 18.8821 19.0627 18.7909 18.9888 18.7143C18.9148 18.6376 18.8271 18.5769 18.7306 18.5356C18.6342 18.4943 18.5308 18.4733 18.4266 18.4737Z" fill="black"/>
</svg>
