<svg width="28" height="22" viewBox="0 0 28 22" fill="none" xmlns="http://www.w3.org/2000/svg">
<path d="M1.40854 0C0.60102 0 0 0.668601 0 1.40533V17.3594C0 18.0961 0.601021 18.7647 1.40854 18.7647H14.6829C15.0437 18.7695 15.3756 18.4595 15.3756 18.1176C15.3756 17.7758 15.0437 17.4658 14.6829 17.4706H1.40854C1.40854 17.4706 1.36585 17.4655 1.36585 17.3594V1.40533C1.36585 1.29924 1.40854 1.29412 1.40854 1.29412H23.1768C23.1768 1.29412 23.2195 1.29924 23.2195 1.40533V9.38235C23.2144 9.7242 23.5416 10.0386 23.9024 10.0386C24.2633 10.0386 24.5905 9.7242 24.5854 9.38235V1.40533C24.5854 0.668601 23.9843 0 23.1768 0H1.40854ZM14 2.58824C12.7271 2.58824 11.6714 3.54927 11.6098 4.74173L11.1296 4.13511C11.075 4.06575 11.0056 4.00692 10.9268 3.96324C10.6165 3.79749 10.1752 3.91281 9.99848 4.20588L4.53506 12.9311C4.32662 13.2226 4.4331 13.672 4.75307 13.8511C5.07304 14.0303 5.53985 13.9019 5.70884 13.5882L10.6601 5.6921L14.5335 10.5349L12.7622 12.8906C12.5221 13.1636 12.5854 13.6262 12.8909 13.8322C13.1965 14.0382 13.6785 13.9431 13.872 13.6388L16.7851 9.76654L18.8872 11.9807C17.3775 12.9764 16.3902 14.6324 16.3902 16.5C16.3902 19.5299 18.9973 22 22.1951 22C25.393 22 28 19.5299 28 16.5C28 13.4701 25.393 11 22.1951 11C21.4727 11 20.7855 11.1336 20.1463 11.364L17.2439 8.30055C17.1057 8.15523 16.895 8.07462 16.689 8.08824C16.487 8.10121 16.2934 8.20436 16.1768 8.36121L15.3659 9.4329L13.4665 7.05699C13.6384 7.09468 13.8166 7.11765 14 7.11765C15.312 7.11765 16.3902 6.09604 16.3902 4.85294C16.3902 3.60984 15.312 2.58824 14 2.58824ZM14 3.88235C14.5738 3.88235 15.0244 4.30924 15.0244 4.85294C15.0244 5.39665 14.5738 5.82353 14 5.82353C13.4262 5.82353 12.9756 5.39665 12.9756 4.85294C12.9756 4.30924 13.4262 3.88235 14 3.88235ZM22.1951 12.2941C24.6548 12.2941 26.6341 14.1695 26.6341 16.5C26.6341 18.8305 24.6548 20.7059 22.1951 20.7059C19.7354 20.7059 17.7561 18.8305 17.7561 16.5C17.7561 14.1695 19.7354 12.2941 22.1951 12.2941ZM22.1204 13.5781C21.7849 13.6131 21.5049 13.9155 21.5122 14.2353V15.8529C20.9249 15.8529 20.3229 15.8529 19.7409 15.8529C19.3832 15.8688 19.073 16.1915 19.0898 16.5303C19.1066 16.8692 19.4473 17.163 19.8049 17.1471H21.5122V18.7647C21.5071 19.1066 21.8343 19.421 22.1951 19.421C22.556 19.421 22.8832 19.1066 22.878 18.7647V17.1471H24.5854C24.9462 17.1519 25.278 16.8419 25.278 16.5C25.278 16.1581 24.9462 15.8481 24.5854 15.8529H22.878V14.2353C22.8838 13.8898 22.5491 13.5727 22.1845 13.5781C22.1631 13.5772 22.1418 13.5772 22.1204 13.5781Z" fill="black"/>
</svg>
