<svg width="64" height="64" viewBox="0 0 64 64" fill="none" xmlns="http://www.w3.org/2000/svg">
<path d="M57 10.75H7C5.87364 10.7526 4.79417 11.2013 3.99771 11.9977C3.20126 12.7942 2.75264 13.8736 2.75 15V49C2.75264 50.1264 3.20126 51.2058 3.99771 52.0023C4.79417 52.7987 5.87364 53.2474 7 53.25H57C58.1264 53.2474 59.2058 52.7987 60.0023 52.0023C60.7987 51.2058 61.2474 50.1264 61.25 49V15C61.2474 13.8736 60.7987 12.7942 60.0023 11.9977C59.2058 11.2013 58.1264 10.7526 57 10.75ZM58.75 49C58.7474 49.4633 58.5622 49.9069 58.2345 50.2345C57.9069 50.5622 57.4633 50.7474 57 50.75H7C6.53668 50.7474 6.09309 50.5622 5.76546 50.2345C5.43784 49.9069 5.25263 49.4633 5.25 49V15C5.25263 14.5367 5.43784 14.0931 5.76546 13.7655C6.09309 13.4378 6.53668 13.2526 7 13.25H57C57.4633 13.2526 57.9069 13.4378 58.2345 13.7655C58.5622 14.0931 58.7474 14.5367 58.75 15V49Z" fill="#A1A5C1"/>
<path d="M24.3401 31.6301C25.3906 30.7342 26.1411 29.5378 26.4904 28.2021C26.8398 26.8664 26.7711 25.4557 26.2937 24.1602C25.8163 22.8647 24.9532 21.7468 23.8207 20.9571C22.6881 20.1675 21.3407 19.7441 19.9601 19.7441C18.5794 19.7441 17.232 20.1675 16.0995 20.9571C14.967 21.7468 14.1038 22.8647 13.6264 24.1602C13.149 25.4557 13.0804 26.8664 13.4297 28.2021C13.7791 29.5378 14.5296 30.7342 15.5801 31.6301C13.5067 32.5018 11.7366 33.9659 10.4914 35.839C9.24624 37.7121 8.58138 39.9109 8.58008 42.1601C8.58008 42.4916 8.71177 42.8096 8.94619 43.044C9.18062 43.2784 9.49856 43.4101 9.83008 43.4101C10.1616 43.4101 10.4795 43.2784 10.714 43.044C10.9484 42.8096 11.0801 42.4916 11.0801 42.1601C11.0801 39.797 12.0188 37.5307 13.6898 35.8598C15.3607 34.1888 17.627 33.2501 19.9901 33.2501C22.3532 33.2501 24.6195 34.1888 26.2904 35.8598C27.9613 37.5307 28.9001 39.797 28.9001 42.1601C28.9001 42.4916 29.0318 42.8096 29.2662 43.044C29.5006 43.2784 29.8186 43.4101 30.1501 43.4101C30.4816 43.4101 30.7995 43.2784 31.034 43.044C31.2684 42.8096 31.4001 42.4916 31.4001 42.1601C31.3938 39.9041 30.7201 37.7004 29.4638 35.8266C28.2074 33.9528 26.4247 32.4926 24.3401 31.6301ZM15.7101 26.5001C15.7101 25.6612 15.9584 24.8412 16.4236 24.1431C16.8889 23.4451 17.5503 22.9004 18.3246 22.5776C19.0988 22.2548 19.9513 22.1683 20.7746 22.3291C21.5979 22.4898 22.3552 22.8907 22.9512 23.481C23.5471 24.0714 23.955 24.825 24.1235 25.6467C24.292 26.4685 24.2135 27.3217 23.8979 28.099C23.5824 28.8762 23.0439 29.5427 22.3503 30.0145C21.6566 30.4863 20.8389 30.7422 20.0001 30.7501C19.439 30.7541 18.8826 30.6471 18.3629 30.4354C17.8433 30.2237 17.3706 29.9115 16.9719 29.5166C16.5733 29.1216 16.2566 28.6519 16.0401 28.1342C15.8235 27.6166 15.7114 27.0612 15.7101 26.5001Z" fill="#A1A5C1"/>
<path d="M35.7109 21.21H40.5409C40.8725 21.21 41.1904 21.0783 41.4248 20.8438C41.6592 20.6094 41.7909 20.2915 41.7909 19.96C41.7909 19.6284 41.6592 19.3105 41.4248 19.0761C41.1904 18.8417 40.8725 18.71 40.5409 18.71H35.7109C35.3794 18.71 35.0615 18.8417 34.8271 19.0761C34.5926 19.3105 34.4609 19.6284 34.4609 19.96C34.4609 20.2915 34.5926 20.6094 34.8271 20.8438C35.0615 21.0783 35.3794 21.21 35.7109 21.21Z" fill="#A1A5C1"/>
<path d="M53.1809 25.6099H35.7109C35.3794 25.6099 35.0615 25.7416 34.8271 25.976C34.5926 26.2104 34.4609 26.5283 34.4609 26.8599C34.4609 27.1914 34.5926 27.5093 34.8271 27.7437C35.0615 27.9782 35.3794 28.1099 35.7109 28.1099H53.1809C53.5125 28.1099 53.8304 27.9782 54.0648 27.7437C54.2992 27.5093 54.4309 27.1914 54.4309 26.8599C54.4309 26.5283 54.2992 26.2104 54.0648 25.976C53.8304 25.7416 53.5125 25.6099 53.1809 25.6099Z" fill="#A1A5C1"/>
<path d="M53.1809 32.5H35.7109C35.3794 32.5 35.0615 32.6317 34.8271 32.8661C34.5926 33.1005 34.4609 33.4185 34.4609 33.75C34.4609 34.0815 34.5926 34.3995 34.8271 34.6339C35.0615 34.8683 35.3794 35 35.7109 35H53.1809C53.5125 35 53.8304 34.8683 54.0648 34.6339C54.2992 34.3995 54.4309 34.0815 54.4309 33.75C54.4309 33.4185 54.2992 33.1005 54.0648 32.8661C53.8304 32.6317 53.5125 32.5 53.1809 32.5Z" fill="#A1A5C1"/>
<path d="M53.1809 39.3901H35.7109C35.3794 39.3901 35.0615 39.5218 34.8271 39.7563C34.5926 39.9907 34.4609 40.3086 34.4609 40.6401C34.4609 40.9717 34.5926 41.2896 34.8271 41.524C35.0615 41.7584 35.3794 41.8901 35.7109 41.8901H53.1809C53.5125 41.8901 53.8304 41.7584 54.0648 41.524C54.2992 41.2896 54.4309 40.9717 54.4309 40.6401C54.4309 40.3086 54.2992 39.9907 54.0648 39.7563C53.8304 39.5218 53.5125 39.3901 53.1809 39.3901Z" fill="#A1A5C1"/>
<path d="M53.1803 46.29H48.5703C48.2388 46.29 47.9208 46.4217 47.6864 46.6562C47.452 46.8906 47.3203 47.2085 47.3203 47.54C47.3203 47.8716 47.452 48.1895 47.6864 48.4239C47.9208 48.6583 48.2388 48.79 48.5703 48.79H53.1803C53.5118 48.79 53.8298 48.6583 54.0642 48.4239C54.2986 48.1895 54.4303 47.8716 54.4303 47.54C54.4303 47.2085 54.2986 46.8906 54.0642 46.6562C53.8298 46.4217 53.5118 46.29 53.1803 46.29Z" fill="#A1A5C1"/>
</svg>
