<svg width="24" height="24" viewBox="0 0 24 24" fill="none" xmlns="http://www.w3.org/2000/svg">
<path d="M6.96007 1.43994C5.50581 1.43994 4.32007 2.62569 4.32007 4.07994V19.9199C4.32007 21.3742 5.50581 22.5599 6.96007 22.5599H17.0401C18.4943 22.5599 19.6801 21.3742 19.6801 19.9199V4.07994C19.6801 2.62569 18.4943 1.43994 17.0401 1.43994H6.96007ZM6.96007 2.39994H17.0401C17.9791 2.39994 18.7201 3.14092 18.7201 4.07994V19.9199C18.7201 20.859 17.9791 21.5999 17.0401 21.5999H6.96007C6.02105 21.5999 5.28007 20.859 5.28007 19.9199V4.07994C5.28007 3.14092 6.02105 2.39994 6.96007 2.39994ZM7.20007 5.51994C6.93497 5.51994 6.72007 5.73484 6.72007 5.99994C6.72007 6.26505 6.93497 6.47994 7.20007 6.47994H16.8001C17.0652 6.47994 17.2801 6.26505 17.2801 5.99994C17.2801 5.73484 17.0652 5.51994 16.8001 5.51994H7.20007ZM7.20007 9.35994C6.93497 9.35994 6.72007 9.57484 6.72007 9.83994C6.72007 10.105 6.93497 10.3199 7.20007 10.3199H16.8001C17.0652 10.3199 17.2801 10.105 17.2801 9.83994C17.2801 9.57484 17.0652 9.35994 16.8001 9.35994H7.20007ZM7.20007 13.6799C6.93497 13.6799 6.72007 13.8948 6.72007 14.1599C6.72007 14.425 6.93497 14.6399 7.20007 14.6399H16.8001C17.0652 14.6399 17.2801 14.425 17.2801 14.1599C17.2801 13.8948 17.0652 13.6799 16.8001 13.6799H7.20007ZM12.6826 16.0799C12.5947 16.0868 12.5105 16.1178 12.439 16.1694C12.3676 16.2209 12.3117 16.2912 12.2776 16.3724L11.1676 19.0349L10.4401 19.2149C10.379 19.2307 10.3216 19.2583 10.2713 19.2963C10.2209 19.3342 10.1784 19.3817 10.1464 19.436C10.1144 19.4903 10.0934 19.5504 10.0845 19.6129C10.0757 19.6753 10.0793 19.7389 10.0951 19.7999C10.1108 19.861 10.1385 19.9184 10.1764 19.9688C10.2143 20.0191 10.2618 20.0616 10.3161 20.0936C10.3704 20.1256 10.4305 20.1467 10.493 20.1555C10.5554 20.1643 10.619 20.1607 10.6801 20.1449L11.6401 19.9049C11.7123 19.8858 11.7791 19.8501 11.835 19.8006C11.891 19.7511 11.9347 19.6893 11.9626 19.6199L12.6901 17.8724L13.2301 19.3574C13.261 19.4441 13.3161 19.52 13.389 19.5762C13.4618 19.6324 13.5493 19.6665 13.641 19.6744C13.7326 19.6823 13.8246 19.6637 13.906 19.6208C13.9874 19.5779 14.0548 19.5125 14.1001 19.4324L14.8351 18.1124L15.4051 19.3949C15.4511 19.498 15.5319 19.5816 15.6334 19.631C15.7349 19.6803 15.8506 19.6924 15.9601 19.6649L16.9201 19.4249C17.0434 19.3931 17.149 19.3136 17.2137 19.2039C17.2784 19.0942 17.2969 18.9633 17.2651 18.8399C17.2332 18.7166 17.1537 18.611 17.044 18.5463C16.9343 18.4816 16.8034 18.4631 16.6801 18.4949L16.1101 18.6374L15.3151 16.8449C15.2784 16.7643 15.2201 16.6953 15.1467 16.6457C15.0733 16.5962 14.9876 16.5679 14.8991 16.564C14.8106 16.5601 14.7227 16.5808 14.6452 16.6238C14.5677 16.6667 14.5036 16.7303 14.4601 16.8074L13.7701 18.0449L13.1701 16.3949C13.1343 16.2964 13.0673 16.2123 12.9793 16.1554C12.8913 16.0985 12.7871 16.072 12.6826 16.0799Z" fill="black"/>
</svg>
