<svg width="34" height="24" viewBox="0 0 34 24" fill="none" xmlns="http://www.w3.org/2000/svg">
<g clip-path="url(#clip0_343_2722)">
<path d="M23.8624 8.19892C22.962 8.63956 22.1551 9.20911 21.3782 9.83654L20.0414 8.32191C21.0249 7.41826 22.1717 6.71125 23.4042 6.19169C20.91 1.81549 14.8777 0.671133 10.8999 3.73065C9.4556 4.83818 8.35923 6.49553 7.93755 8.69086L7.80474 9.37682L7.11411 9.49783C6.43743 9.6149 5.83314 9.77669 5.30321 9.98189C1.99618 11.2492 1.06782 14.8947 3.09122 17.6629C3.95716 18.8408 5.06083 20.0417 6.50915 20.2417H8.53388C8.51993 20.439 8.51263 20.6376 8.51263 20.8382C8.51263 21.3209 8.5538 21.7938 8.63349 22.2542H6.47661L6.34911 22.243C4.32173 21.9878 2.6556 20.4929 1.45165 18.8415C-1.35534 15.0138 0.0265732 9.8543 4.57739 8.10619C5.0522 7.92269 5.56021 7.76946 6.09544 7.64647C6.70306 5.25647 7.99798 3.41628 9.66278 2.13907C14.7887 -1.7945 22.4838 -0.118081 25.4197 5.6616C25.8613 5.59254 26.3035 5.55768 26.7425 5.56294C33.31 5.61096 35.9072 13.9286 32.4992 18.4094C31.1333 20.2042 29.0381 21.7313 26.8806 22.2272L26.6542 22.2542H25.3386C25.4529 21.5897 25.4863 20.914 25.4383 20.2417H26.5413C28.145 19.8596 29.8556 18.5527 30.8729 17.2058C33.2941 14.0121 31.5755 7.60043 26.7285 7.57018C25.7816 7.56229 24.7954 7.78919 23.8624 8.19892ZM15.5875 24.0003H18.4138C19.0745 24.0003 19.6164 23.4636 19.6164 22.8092V18.9526H21.6777C22.112 18.9342 22.4201 18.7921 22.5987 18.5238C23.0815 17.8063 22.4221 17.098 21.9645 16.5988C20.6663 15.1874 18.4304 13.098 17.7896 12.3508C17.3035 11.8194 16.6129 11.8194 16.1268 12.3508C15.4647 13.1164 13.1491 15.361 11.9146 16.7336C11.4863 17.2117 10.957 17.8628 11.402 18.5238C11.5852 18.7921 11.89 18.9342 12.3243 18.9526H14.3856V22.8092C14.3856 23.4564 14.9268 24.0003 15.5875 24.0003Z" fill="#FE464B"/>
</g>
<defs>
<clipPath id="clip0_343_2722">
<rect width="34" height="24" fill="white"/>
</clipPath>
</defs>
</svg>
