<svg width="510" height="638" viewBox="0 0 510 638" fill="none" xmlns="http://www.w3.org/2000/svg">
<g clip-path="url(#clip0_2912_10218)">
<path d="M465.497 351.411V158.99C465.497 135.675 446.545 116.698 423.238 116.698H86.7605C63.4638 116.698 44.502 135.665 44.502 158.99V351.411C44.502 374.726 63.4535 393.703 86.7605 393.703H423.238C446.535 393.692 465.497 374.726 465.497 351.411ZM445.097 351.411C445.097 363.477 435.295 373.287 423.238 373.287H86.7605C74.7041 373.287 64.902 363.477 64.902 351.411V158.99C64.902 146.924 74.7041 137.114 86.7605 137.114H423.238C435.295 137.114 445.097 146.924 445.097 158.99V351.411Z" fill="black"/>
<path d="M198.349 228.455C205.254 221.187 209.559 211.428 209.559 200.628C209.559 178.293 191.413 160.133 169.095 160.133C146.778 160.133 128.622 178.293 128.622 200.628C128.622 211.428 132.926 221.187 139.831 228.455C121.747 238.704 109.486 258.109 109.486 280.352V340.049C109.486 345.694 114.056 350.257 119.686 350.257H218.494C224.124 350.257 228.694 345.694 228.694 340.049V280.352C228.694 258.119 216.444 238.714 198.349 228.455ZM149.022 200.628C149.022 189.562 158.028 180.549 169.095 180.549C180.152 180.549 189.159 189.552 189.159 200.628C189.159 211.704 180.162 220.717 169.095 220.717C158.028 220.717 149.022 211.704 149.022 200.628ZM169.095 241.133C190.709 241.133 208.294 258.732 208.294 280.363V329.851H194.871V285.487C194.871 279.842 190.301 275.279 184.671 275.279C179.04 275.279 174.471 279.842 174.471 285.487V329.851H163.72V285.487C163.72 279.842 159.15 275.279 153.52 275.279C147.889 275.279 143.32 279.842 143.32 285.487V329.851H129.897V280.363C129.886 258.732 147.471 241.133 169.095 241.133Z" fill="black"/>
<path d="M390.313 166.043H288.833C283.192 166.043 278.633 170.616 278.633 176.251C278.633 181.886 283.192 186.459 288.833 186.459H390.313C395.953 186.459 400.513 181.886 400.513 176.251C400.513 170.616 395.943 166.043 390.313 166.043Z" fill="black"/>
<path d="M390.314 218.676H322.647C317.007 218.676 312.447 223.249 312.447 228.884C312.447 234.519 317.007 239.092 322.647 239.092H390.314C395.955 239.092 400.514 234.519 400.514 228.884C400.514 223.249 395.944 218.676 390.314 218.676Z" fill="black"/>
<path d="M390.314 271.298H303.073C297.432 271.298 292.873 275.861 292.873 281.506C292.873 287.151 297.432 291.714 303.073 291.714H390.314C395.954 291.714 400.514 287.151 400.514 281.506C400.514 275.861 395.944 271.298 390.314 271.298Z" fill="black"/>
<path d="M390.313 323.931H288.833C283.192 323.931 278.633 328.494 278.633 334.139C278.633 339.784 283.192 344.347 288.833 344.347H390.313C395.953 344.347 400.513 339.784 400.513 334.139C400.513 328.494 395.943 323.931 390.313 323.931Z" fill="black"/>
<path d="M10.2 162.512C15.8304 162.512 20.4 157.939 20.4 152.304V98.375H74.2866C79.917 98.375 84.4866 93.8018 84.4866 88.167C84.4866 82.5322 79.917 77.959 74.2866 77.959H10.2C4.5696 77.959 0 82.5322 0 88.167V152.304C0 157.939 4.5696 162.512 10.2 162.512Z" fill="black"/>
<path d="M499.8 77.959H435.714C430.073 77.959 425.514 82.5322 425.514 88.167C425.514 93.8018 430.073 98.375 435.714 98.375H489.6V152.304C489.6 157.939 494.16 162.512 499.8 162.512C505.441 162.512 510 157.939 510 152.304V88.167C510 82.522 505.441 77.959 499.8 77.959Z" fill="black"/>
<path d="M74.2866 412.026H20.4V358.097C20.4 352.452 15.8304 347.889 10.2 347.889C4.5696 347.889 0 352.452 0 358.097V422.234C0 427.879 4.5696 432.442 10.2 432.442H74.2866C79.917 432.442 84.4866 427.879 84.4866 422.234C84.4866 416.588 79.917 412.026 74.2866 412.026Z" fill="black"/>
<path d="M499.8 347.889C494.16 347.889 489.6 352.452 489.6 358.097V412.026H435.714C430.073 412.026 425.514 416.588 425.514 422.234C425.514 427.879 430.073 432.442 435.714 432.442H499.8C505.441 432.442 510 427.879 510 422.234V358.097C510 352.452 505.441 347.889 499.8 347.889Z" fill="black"/>
</g>
<defs>
<clipPath id="clip0_2912_10218">
<rect width="510" height="638" fill="white"/>
</clipPath>
</defs>
</svg>
