<svg width="74" height="74" viewBox="0 0 74 74" fill="none" xmlns="http://www.w3.org/2000/svg">
<circle cx="37" cy="37" r="37" fill="white"/>
<path d="M42.834 33.5002C42.834 38.0152 38.914 41.6668 34.084 41.6668L32.999 42.9735L32.3573 43.7435C31.809 44.3969 30.759 44.2568 30.3973 43.4751L28.834 40.0335C26.7107 38.5401 25.334 36.1718 25.334 33.5002C25.334 28.9852 29.254 25.3335 34.084 25.3335C37.6073 25.3335 40.6523 27.2818 42.0173 30.0818C42.5423 31.1202 42.834 32.2752 42.834 33.5002Z" stroke="#58BFF3" stroke-width="2" stroke-linecap="round" stroke-linejoin="round"/>
<path d="M48.6664 38.0032C48.6664 40.6749 47.2897 43.0432 45.1664 44.5366L43.603 47.9782C43.2414 48.7598 42.1914 48.9116 41.643 48.2466L39.9164 46.1699C37.093 46.1699 34.573 44.9215 32.998 42.9732L34.083 41.6665C38.913 41.6665 42.833 38.0149 42.833 33.4999C42.833 32.2749 42.5414 31.1199 42.0164 30.0815C45.8314 30.9565 48.6664 34.1765 48.6664 38.0032Z" stroke="#58BFF3" stroke-width="2" stroke-linecap="round" stroke-linejoin="round"/>
<path d="M31.166 33.5H36.9993" stroke="#58BFF3" stroke-width="2" stroke-linecap="round" stroke-linejoin="round"/>
</svg>
