<svg width="14" height="14" viewBox="0 0 14 14" fill="none" xmlns="http://www.w3.org/2000/svg">
<g clip-path="url(#clip0_709_7947)">
<path d="M11.8402 3.10678H9.81212V1.83956C9.81212 1.26728 9.34178 0.801758 8.76365 0.801758H5.23637C4.65824 0.801758 4.18791 1.26734 4.18791 1.83956V3.10678H2.15982C0.968896 3.10678 0 4.07567 0 5.2666V11.4344C0 12.4072 0.791409 13.1987 1.76422 13.1987H12.2358C13.2086 13.1987 14 12.4072 14 11.4344V5.2666C14 4.07567 13.0311 3.10678 11.8402 3.10678ZM5.0107 1.83956C5.0107 1.71698 5.10772 1.62456 5.23637 1.62456H8.76363C8.89228 1.62456 8.9893 1.71698 8.9893 1.83956V3.10678H5.0107V1.83956ZM13.1771 11.4344C13.1772 11.9535 12.7549 12.3759 12.2358 12.3759H1.76422C1.2451 12.3759 0.822799 11.9535 0.822799 11.4344V7.59161C0.954079 7.67403 1.09557 7.73894 1.24367 7.78468C1.25155 7.78709 1.25948 7.7893 1.26746 7.79127L5.45876 8.81559V9.15394C5.45876 9.68518 5.89095 10.1174 6.42219 10.1174H7.57779C8.10902 10.1174 8.54121 9.68518 8.54121 9.15394V8.81559L12.7325 7.79127C12.7405 7.78933 12.7485 7.78714 12.7563 7.78468C12.9044 7.73893 13.0459 7.67402 13.1772 7.59161V11.4344H13.1771ZM6.28159 9.15394V7.99315C6.28163 7.95587 6.29646 7.92012 6.32282 7.89376C6.34919 7.8674 6.38493 7.85256 6.42221 7.85252H7.57781C7.6151 7.85256 7.65085 7.86739 7.67721 7.89375C7.70358 7.92012 7.71841 7.95586 7.71844 7.99315V9.15394C7.7184 9.19123 7.70357 9.22697 7.67721 9.25334C7.65084 9.2797 7.6151 9.29453 7.57781 9.29457H6.42221C6.38493 9.29452 6.34919 9.27969 6.32283 9.25333C6.29647 9.22697 6.28164 9.19123 6.28159 9.15394ZM13.1772 6.09569C13.1772 6.50929 12.9153 6.86932 12.5242 6.99516L8.54064 7.96868C8.5276 7.44871 8.10087 7.02967 7.57781 7.02967H6.42221C5.89918 7.02967 5.47246 7.44874 5.45939 7.96868L1.47585 6.99519C1.08475 6.86932 0.822799 6.50929 0.822799 6.09569V5.2666C0.822799 4.52936 1.42258 3.92958 2.15982 3.92958H11.8402C12.5774 3.92958 13.1772 4.52936 13.1772 5.2666V6.09569H13.1772Z" fill="white"/>
</g>
<defs>
<clipPath id="clip0_709_7947">
<rect width="14" height="14" fill="white"/>
</clipPath>
</defs>
</svg>
