<svg width="169" height="214" viewBox="0 0 169 214" fill="none" xmlns="http://www.w3.org/2000/svg">
<circle opacity="0.2" cx="84.5" cy="153.5" r="60.5" fill="#A1A5C1"/>
<mask id="mask0_70_884" style="mask-type:alpha" maskUnits="userSpaceOnUse" x="0" y="0" width="169" height="214">
<ellipse cx="84.5" cy="107" rx="84.5" ry="107" fill="#A1A5C1"/>
</mask>
<g mask="url(#mask0_70_884)">
<path d="M82.9663 179.94C81.6717 179.94 80.6758 178.944 80.6758 177.65V90.7076C80.6758 89.5125 81.6717 88.5166 82.9663 88.5166C84.1614 88.5166 85.1573 89.5125 85.1573 90.7076V177.65C85.1573 178.944 84.1614 179.94 82.9663 179.94Z" fill="#FAAB16"/>
<path d="M99.9967 179.94H99.5984C98.3037 179.641 97.507 178.546 97.7062 177.251C102.686 149.864 124.496 147.971 124.795 147.971C125.99 147.872 127.085 148.768 127.185 150.063C127.284 151.258 126.388 152.353 125.093 152.453C124.297 152.453 106.47 154.246 102.188 178.048C101.989 179.143 101.092 179.94 99.9967 179.94Z" fill="#5A8EE1"/>
<path d="M94.718 179.94H94.4193C93.2242 179.84 92.3279 178.645 92.4275 177.45C97.0086 134.527 124.894 126.759 126.089 126.46C127.284 126.062 128.479 126.858 128.778 128.054C129.077 129.249 128.379 130.444 127.184 130.742C126.089 131.041 101.092 138.212 96.909 177.948C96.8094 179.044 95.8135 179.94 94.718 179.94Z" fill="#23AF6F"/>
<path d="M89.8387 179.94C88.6436 179.94 87.6477 178.944 87.6477 177.749C85.8551 113.812 116.828 105.945 118.122 105.646C119.317 105.347 120.612 106.144 120.811 107.339C121.11 108.534 120.413 109.829 119.118 110.028C118.819 110.128 90.5358 117.696 92.1292 177.65C92.1292 178.845 91.2329 179.94 89.9383 179.94H89.8387ZM65.9371 179.94C64.8416 179.94 63.8457 179.143 63.6465 178.048C59.3642 154.246 41.5376 152.453 40.7408 152.453C39.5458 152.354 38.5499 151.258 38.6495 149.964C38.749 148.768 39.8445 147.872 41.1392 147.872C41.3384 147.972 63.2482 149.864 68.1281 177.251C68.3273 178.546 67.5305 179.641 66.3355 179.94H65.9371Z" fill="#FE464B"/>
<path d="M71.2147 179.94C70.0196 179.94 69.0237 179.044 68.9241 177.948C64.7413 138.013 38.9475 130.842 38.6488 130.742C37.4537 130.444 36.7566 129.249 37.0553 128.054C37.3541 126.858 38.6488 126.062 39.8439 126.46C41.0389 126.759 68.9241 134.527 73.4057 177.45C73.6048 178.645 72.7085 179.84 71.4139 179.94H71.2147Z" fill="#5A8EE1"/>
<path d="M75.9964 179.94H75.8968C74.7017 179.94 73.7058 178.845 73.7058 177.65C75.2993 117.696 47.0157 110.128 46.717 110.028C45.5219 109.829 44.7252 108.534 45.0239 107.339C45.3227 106.144 46.5178 105.347 47.7129 105.646C49.0075 105.945 79.98 113.812 78.287 177.749C78.1874 178.944 77.1915 179.94 75.9964 179.94Z" fill="#23AF6F" stroke="#23AF6F" stroke-width="0.899824"/>
<path d="M145.608 111.323C145.21 111.323 144.911 111.223 144.512 111.024L137.939 107.339L131.267 111.024C130.47 111.422 129.574 111.422 128.877 110.924C128.18 110.327 127.781 109.53 127.98 108.634L129.375 101.164L123.897 95.9858C123.2 95.3882 123.001 94.4919 123.2 93.6952C123.499 92.7989 124.196 92.2013 125.092 92.1017L132.661 91.2054L135.848 84.3337C136.246 83.537 137.043 83.0391 137.939 83.0391C138.736 83.0391 139.533 83.537 139.931 84.3337L143.218 91.2054L150.687 92.1017C151.583 92.2013 152.28 92.7989 152.579 93.6952C152.878 94.4919 152.579 95.3882 151.982 95.9858L146.405 101.164L147.898 108.634C147.998 109.53 147.699 110.327 147.002 110.924C146.604 111.123 146.106 111.323 145.608 111.323Z" fill="#23AF6F"/>
<path d="M35.3628 113.414C34.9645 113.414 34.5661 113.315 34.2673 113.116L27.5948 109.53L20.9223 113.116C20.2252 113.514 19.2293 113.514 18.5321 113.016C17.835 112.518 17.5362 111.622 17.6358 110.725L19.0301 103.256L13.5526 98.0776C12.9551 97.48 12.6563 96.5837 12.9551 95.787C13.2539 94.8907 13.951 94.2931 14.8473 94.1936L22.3166 93.2972L25.603 86.4255C25.9018 85.6288 26.6985 85.1309 27.5948 85.1309C28.4911 85.1309 29.2878 85.6288 29.6862 86.4255L32.8731 93.2972L40.4419 94.1936C41.2386 94.2931 42.0354 94.8907 42.2345 95.787C42.5333 96.5837 42.3341 97.48 41.637 98.0776L36.1596 103.256L37.5538 110.725C37.753 111.622 37.3546 112.518 36.6575 113.016C36.2591 113.315 35.7612 113.414 35.3628 113.414ZM106.868 92.2018C102.188 92.2018 98.4033 88.3177 98.4033 83.637C98.4033 78.9563 102.188 75.1719 106.868 75.1719C111.549 75.1719 115.334 78.9563 115.334 83.637C115.334 88.3177 111.549 92.2018 106.868 92.2018Z" fill="#FE464B"/>
<path d="M61.0569 98.3766C56.3762 98.3766 52.5918 94.5922 52.5918 89.9114C52.5918 85.2307 56.3762 81.4463 61.0569 81.4463C65.7377 81.4463 69.6217 85.2307 69.6217 89.9114C69.6217 94.5922 65.7377 98.3766 61.0569 98.3766ZM139.733 169.484C135.052 169.484 131.268 165.699 131.268 161.019C131.268 156.338 135.052 152.454 139.733 152.454C144.414 152.454 148.298 156.338 148.298 161.019C148.298 165.699 144.414 169.484 139.733 169.484Z" fill="#5A8EE1"/>
<path d="M21.3206 141.001C16.6399 141.001 12.7559 137.216 12.7559 132.535C12.7559 127.855 16.6399 124.07 21.3206 124.07C26.0013 124.07 29.7857 127.855 29.7857 132.535C29.7857 137.216 26.0013 141.001 21.3206 141.001Z" fill="#FAAB16"/>
<path d="M150.091 146.478C149.393 146.478 148.696 146.179 148.298 145.582L139.434 134.229C138.837 133.432 138.837 132.237 139.434 131.44L148.298 120.087C148.696 119.589 149.393 119.19 150.091 119.19C150.788 119.19 151.385 119.589 151.883 120.087L160.647 131.44C161.344 132.237 161.344 133.432 160.647 134.229L151.883 145.582C151.385 146.179 150.788 146.478 150.091 146.478Z" fill="#FE464B"/>
<path d="M25.9012 172.073C25.204 172.073 24.5069 171.774 24.1085 171.176L15.245 159.823C14.6475 159.026 14.6475 157.831 15.245 157.035L24.1085 145.681C25.0048 144.586 26.7975 144.586 27.6938 145.681L36.5573 157.035C37.1548 157.831 37.1548 159.026 36.5573 159.823L27.6938 171.176C27.2954 171.774 26.5983 172.073 25.9012 172.073ZM74.999 72.2835C74.6006 72.2835 74.1027 72.184 73.7043 71.8852C73.0072 71.3872 72.6088 70.4909 72.808 69.5946L74.2023 62.225L68.7248 57.0463C68.0277 56.4487 67.8285 55.4528 68.1273 54.6561C68.426 53.8594 69.1232 53.2619 70.0195 53.0627L77.4887 52.1664L80.6756 45.2947C81.074 44.4979 81.8707 44 82.767 44C83.6633 44 84.46 44.4979 84.8584 45.2947L88.0453 52.1664L95.5145 53.0627C96.4108 53.2619 97.1079 53.8594 97.4067 54.6561C97.7055 55.4528 97.5063 56.4487 96.8092 57.0463L91.3317 62.225L92.726 69.5946C92.9252 70.4909 92.5268 71.3872 91.8297 71.8852C91.1326 72.3831 90.1367 72.4827 89.4395 72.0844L82.767 68.3995L76.0945 71.9848C75.7957 72.184 75.3973 72.2835 74.999 72.2835Z" fill="#23AF6F"/>
<path d="M127.483 77.4627C126.786 77.4627 126.089 77.1639 125.691 76.5663L118.222 67.0057C117.624 66.209 117.624 65.0139 118.222 64.2172L125.691 54.557C126.587 53.4615 128.38 53.4615 129.276 54.557L136.745 64.2172C137.343 65.0139 137.343 66.209 136.745 67.0057L129.276 76.5663C128.878 77.1639 128.181 77.4627 127.483 77.4627Z" fill="#FAAB16"/>
<path d="M43.628 77.2634C42.9309 77.2634 42.2337 76.9647 41.8354 76.3671L34.3661 66.8065C33.7686 65.9102 33.7686 64.8147 34.3661 64.018L41.8354 54.3577C42.7317 53.2623 44.5243 53.2623 45.4206 54.3577L52.8899 64.018C53.4874 64.8147 53.4874 65.9102 52.8899 66.8065L45.4206 76.3671C44.9227 76.9647 44.3251 77.2634 43.628 77.2634Z" fill="#23AF6F"/>
<path d="M99.9968 214H65.9371C64.6424 214 63.6465 212.905 63.6465 211.71V177.65C63.6465 176.455 64.6424 175.459 65.9371 175.459H99.9968C101.192 175.459 102.188 176.455 102.188 177.65V211.71C102.188 212.905 101.192 214 99.9968 214Z" fill="#FDC70E"/>
<path d="M82.9663 204.738C81.6717 204.738 80.6758 203.742 80.6758 202.547V186.912C80.6758 185.617 81.6717 184.621 82.9663 184.621C84.1614 184.621 85.1573 185.617 85.1573 186.912V202.547C85.1573 203.742 84.1614 204.738 82.9663 204.738Z" fill="#FE464B"/>
</g>
</svg>
