<svg width="18" height="24" viewBox="0 0 18 24" fill="none" xmlns="http://www.w3.org/2000/svg">
<path d="M9.5016 21.9206C10.6313 21.2026 11.6465 20.3325 12.5309 19.3621C14.452 17.2585 15.7482 14.6875 16.2674 12.1649C16.783 9.67448 16.5395 7.23421 15.3991 5.35075C15.075 4.81006 14.6686 4.31592 14.1852 3.87191C12.7994 2.6097 11.2132 2.00814 9.61618 1.99203C7.93861 1.97949 6.23776 2.6097 4.73386 3.80746C4.09291 4.3195 3.56475 4.90853 3.15475 5.55843C2.09844 7.21989 1.77796 9.28239 2.12708 11.4398C2.47979 13.6294 3.51999 15.9193 5.17787 17.9943C6.33086 19.4409 7.78106 20.7837 9.50697 21.917L9.5016 21.9206ZM9.25811 4.78858C10.5203 4.78858 11.6661 5.30062 12.4915 6.12956C13.3204 6.9585 13.8325 8.09896 13.8325 9.36296C13.8325 10.6252 13.3204 11.771 12.4915 12.5964C11.6626 13.4253 10.5221 13.9373 9.25811 13.9373C7.9959 13.9373 6.85007 13.4253 6.02471 12.5964C5.19577 11.7674 4.68373 10.627 4.68373 9.36296C4.68373 8.10075 5.19577 6.95492 6.02471 6.12956C6.85365 5.30062 7.99411 4.78858 9.25811 4.78858ZM11.8327 6.78841C11.1756 6.13135 10.2607 5.71956 9.25811 5.71956C8.25013 5.71956 7.34063 6.12598 6.68356 6.78841C6.0265 7.44548 5.61472 8.36035 5.61472 9.36296C5.61472 10.3709 6.02113 11.2804 6.68356 11.9375C7.34063 12.5946 8.2555 13.0063 9.25811 13.0063C10.2661 13.0063 11.1756 12.5999 11.8327 11.9375C12.4897 11.2804 12.9015 10.3656 12.9015 9.36296C12.8997 8.35498 12.4951 7.44548 11.8327 6.78841ZM13.2667 20.0264C12.2641 21.1221 11.1022 22.105 9.78984 22.9017C9.63229 23.0199 9.4085 23.036 9.22946 22.9214C7.29587 21.6914 5.67559 20.2126 4.39727 18.6084C2.63734 16.4009 1.52552 13.9517 1.14776 11.592C0.762827 9.20003 1.12269 6.90121 2.31328 5.0249C2.78415 4.28548 3.38213 3.61231 4.11618 3.03044C5.79375 1.69483 7.71481 0.987631 9.62334 1.00016C11.4638 1.01628 13.2793 1.69841 14.8548 3.13607C15.408 3.63916 15.8699 4.2085 16.2477 4.83333C17.5278 6.94059 17.8035 9.6333 17.2431 12.3547C16.6863 15.0474 15.3095 17.7848 13.2721 20.0174L13.2667 20.0264Z" fill="#1A1B1E" stroke="#1A1B1E" stroke-width="0.5"/>
</svg>
