<svg width="24" height="24" viewBox="0 0 24 24" fill="none" xmlns="http://www.w3.org/2000/svg">
<g clip-path="url(#clip0_398_3064)">
<path d="M9.96086 19.0002V14.0002H13.9453V19.0002C13.9453 19.5502 14.3935 20.0002 14.9414 20.0002H17.9297C18.4776 20.0002 18.9258 19.5502 18.9258 19.0002V12.0002H20.6192C21.0774 12.0002 21.2966 11.4302 20.9479 11.1302L12.6205 3.60021C12.242 3.26021 11.6642 3.26021 11.2857 3.60021L2.95821 11.1302C2.61954 11.4302 2.82872 12.0002 3.28693 12.0002H4.98032V19.0002C4.98032 19.5502 5.42856 20.0002 5.97642 20.0002H8.96475C9.51261 20.0002 9.96086 19.5502 9.96086 19.0002Z" fill="#FE464B"/>
</g>
<defs>
<clipPath id="clip0_398_3064">
<rect width="23.9066" height="24" fill="white"/>
</clipPath>
</defs>
</svg>
