<svg width="16" height="16" viewBox="0 0 16 16" fill="none" xmlns="http://www.w3.org/2000/svg">
<path d="M5.33333 4.66667H10.6667M14 4.66667H10.6667H14ZM2 4.66667H5.33333H2ZM5.33333 4.66667V2.4C5.33333 2.29391 5.37548 2.19217 5.45049 2.11716C5.5255 2.04214 5.62725 2 5.73333 2H10.2667C10.3728 2 10.4745 2.04214 10.5495 2.11716C10.6245 2.19217 10.6667 2.29391 10.6667 2.4V4.66667H5.33333Z" stroke="#E8E8F0" stroke-width="1.6" stroke-linecap="round" stroke-linejoin="round"/>
<path d="M12.6663 4.7998V13.5998C12.6663 13.7059 12.6242 13.8076 12.5492 13.8827C12.4742 13.9577 10.9057 13.9998 10.7997 13.9998H5.59966C5.49357 13.9998 3.52518 13.9577 3.45017 13.8827C3.37515 13.8076 3.33301 13.7059 3.33301 13.5998V4.7998" stroke="#E8E8F0" stroke-width="1.6" stroke-linecap="round" stroke-linejoin="round"/>
</svg>
