<?xml version="1.0" standalone="no"?>
<!DOCTYPE svg PUBLIC "-//W3C//DTD SVG 20010904//EN"
 "http://www.w3.org/TR/2001/REC-SVG-20010904/DTD/svg10.dtd">
<svg version="1.0" xmlns="http://www.w3.org/2000/svg"
 width="512.000000pt" height="512.000000pt" viewBox="0 0 512.000000 512.000000"
 preserveAspectRatio="xMidYMid meet">

<g transform="translate(0.000000,512.000000) scale(0.100000,-0.100000)"
fill="#000000" stroke="none">
<path d="M2035 4581 c-355 -47 -633 -291 -727 -640 -16 -59 -21 -106 -21 -211
0 -117 4 -146 27 -223 47 -157 124 -284 233 -389 427 -406 1115 -273 1362 264
148 320 83 693 -164 943 -91 92 -166 145 -275 192 -128 55 -304 81 -435 64z"/>
<path d="M1530 2445 c-8 -2 -49 -9 -90 -15 -225 -36 -429 -140 -583 -297 -84
-85 -134 -155 -186 -260 -93 -186 -134 -366 -134 -593 0 -388 145 -614 456
-709 117 -36 259 -42 860 -39 549 3 569 4 583 22 11 16 14 63 14 221 0 218 11
290 54 355 13 19 224 238 468 485 244 248 447 457 450 466 24 63 -228 241
-442 314 -154 53 -194 55 -839 54 -328 -1 -603 -3 -611 -4z"/>
<path d="M4194 2341 c-52 -13 -94 -45 -204 -156 l-105 -105 270 -270 270 -270
113 113 c64 62 122 130 133 152 23 49 24 123 4 173 -19 45 -284 315 -337 342
-44 23 -102 32 -144 21z"/>
<path d="M3248 1436 l-478 -483 0 -262 0 -261 273 0 272 0 480 480 480 480
-265 265 c-146 146 -269 265 -275 264 -5 0 -225 -218 -487 -483z"/>
</g>
</svg>
