<svg width="24" height="20" viewBox="0 0 24 20" fill="none" xmlns="http://www.w3.org/2000/svg">
<g clip-path="url(#clip0_430_3076)">
<path fill-rule="evenodd" clip-rule="evenodd" d="M16.615 16.4434L17.0994 14.7656L16.8631 14.5059C16.7556 14.3496 16.7322 14.2129 16.7928 14.0957C16.9217 13.8418 17.1873 13.8887 17.4353 13.8887C17.6951 13.8887 18.0154 13.8399 18.0974 14.1641C18.1248 14.2735 18.0896 14.3867 18.0135 14.5039L17.7771 14.7637L18.2615 16.4414L17.4392 17.0899L16.615 16.4434ZM6.62869 12.7832C6.22244 12.3203 6.18728 11.8359 6.62869 11.3242C7.13846 11.4531 7.60525 11.6738 8.03494 11.9727C8.12869 11.9317 8.23611 11.916 8.34158 11.9219C8.78885 11.6055 9.35916 11.4766 9.85721 11.2383C10.4529 11.8184 10.3885 12.3516 9.80252 12.8477C9.47635 12.7734 9.16385 12.6563 8.86697 12.5059C8.85916 12.582 8.83963 12.666 8.80252 12.7578L8.95486 14.0235H7.74002L7.89236 12.7578C7.79666 12.5977 7.7615 12.461 7.76541 12.3457C7.41385 12.5567 7.02908 12.6934 6.62869 12.7832ZM5.0076 6.02345C4.82986 6.03126 4.69314 6.06837 4.60135 6.12892C4.54861 6.16407 4.50955 6.209 4.48416 6.26368C4.45682 6.32423 4.44314 6.3965 4.4451 6.48048C4.45291 6.72658 4.57986 7.04689 4.82986 7.41603L4.83377 7.42189L5.64041 8.70314C5.96463 9.21681 6.30252 9.74025 6.72439 10.127C7.12869 10.4981 7.62088 10.7481 8.26932 10.75C8.97244 10.752 9.48807 10.4922 9.90603 10.0996C10.3396 9.69337 10.6834 9.13478 11.0213 8.58009L11.9295 7.084C12.0994 6.69728 12.1599 6.43947 12.1209 6.28712C12.0974 6.19728 11.9978 6.15236 11.8279 6.14454C11.7928 6.14259 11.7556 6.14259 11.7166 6.14259C11.6756 6.14454 11.6346 6.1465 11.5896 6.1504C11.5662 6.15236 11.5428 6.1504 11.5193 6.1465C11.4392 6.1504 11.3553 6.14454 11.2693 6.13282L11.5799 4.75587C9.27322 5.11915 7.54666 3.40626 5.10721 4.41407L5.28299 6.03712C5.18728 6.03908 5.09353 6.03712 5.0076 6.02345ZM6.07791 11.7461C6.06228 11.7676 6.04275 11.7871 6.02127 11.8027C6.09744 12.418 6.20486 13.207 6.33181 14.0235H1.53494C1.19119 14.0235 0.911893 14.3457 0.964627 14.7383L1.63064 19.7871H1.02127C0.460721 19.7442 0.175565 19.4551 0.126737 18.9512C0.15408 16.6953 -0.703342 13.9668 1.67361 12.6426C2.54275 12.1563 4.78689 11.9922 5.76541 11.3516C5.90799 11.082 6.06619 10.6113 6.1658 10.3067C6.15799 10.3281 6.18533 10.2461 6.17947 10.2656L6.18924 10.2363C5.82986 9.84962 5.53494 9.39454 5.25369 8.94533L4.44705 7.66408C4.15213 7.22462 3.99978 6.82228 3.99002 6.4922C3.98611 6.3379 4.0115 6.19533 4.0701 6.07228C4.13064 5.94337 4.22244 5.834 4.34744 5.75001C4.40603 5.71095 4.47049 5.67775 4.54275 5.6504C4.49002 4.95509 4.47049 4.07814 4.50564 3.34572C4.52322 3.17189 4.55642 2.99806 4.60525 2.82423C4.90017 1.76954 5.80642 1.00978 6.84158 0.652357C7.34353 0.478528 7.15017 0.0644659 7.65799 0.0937627C8.86111 0.160169 10.7185 0.93556 11.4314 1.75783C12.4314 2.91017 12.1736 4.33009 12.1404 5.73634C12.3631 5.8047 12.5076 5.94532 12.5662 6.17579C12.6306 6.4297 12.5603 6.78908 12.3455 7.27736C12.3416 7.28712 12.3377 7.29493 12.3318 7.30275L11.4138 8.81642C11.0603 9.4004 10.701 9.98439 10.2205 10.4336L10.1971 10.4551C10.242 10.5215 10.2928 10.5938 10.3455 10.6699C10.5056 10.9043 10.6873 11.1699 10.8553 11.3789C11.8533 12 14.0506 12.166 14.908 12.6465C15.1131 12.7617 15.2928 12.8906 15.449 13.0332C15.5818 12.916 15.7088 12.8027 15.8103 12.709C15.7635 12.6563 15.7166 12.6016 15.6697 12.5488L15.2283 12.0352L14.9002 12.043L14.2752 12.0586C13.7381 11.4414 13.7713 10.1133 13.824 9.34767C14.074 7.80861 14.6697 6.69923 15.6385 6.05861C16.2947 5.62501 16.6873 5.59962 17.4549 5.59962C18.1248 5.59962 18.5349 5.584 19.1072 5.96095C20.9685 7.18751 21.5467 10.0801 20.6365 12.0293H19.9861L19.9451 12.0781L19.8865 12.1465L19.6033 12.4863C19.49 12.6211 19.3767 12.7578 19.2537 12.8848C19.4099 13.0371 19.6209 13.2227 19.8142 13.3926C19.906 13.4727 19.9939 13.5488 20.0721 13.6192C22.9842 14.7793 23.6248 15.4551 23.9803 19.211C24.0467 19.9043 24.0388 19.8731 23.3748 19.8867C20.9158 19.9356 17.781 19.8867 14.9451 19.875L14.9568 19.7871L15.6228 14.7383C15.6756 14.3457 15.3963 14.0235 15.0525 14.0235H14.8025H13.8181H10.3631C10.4783 13.1973 10.5623 12.4102 10.6033 11.8145C10.3846 11.5723 10.1502 11.2285 9.95096 10.9336C9.90603 10.8692 9.86307 10.8047 9.82205 10.7461C9.40018 11.0293 8.89822 11.2031 8.26932 11.2031C7.56814 11.2012 7.02322 10.961 6.5701 10.5938C6.44314 10.9746 6.2576 11.4961 6.07791 11.7461ZM15.6424 13.2324C16.6287 14.3555 16.4744 16.127 16.4353 17.7285L17.4373 19.3926L19.8787 15.3418L20.9392 15.3672C20.6931 14.8711 20.4002 14.4277 20.0721 14.0117C19.9842 13.9219 19.8103 13.7695 19.6228 13.6055C19.4217 13.4297 19.2049 13.2383 19.0428 13.0801C18.9763 13.1367 18.908 13.1914 18.8338 13.2402C18.5174 13.457 18.1248 13.6016 17.5916 13.5996C17.0916 13.5996 16.7166 13.459 16.408 13.2539C16.2556 13.1524 16.1209 13.0352 15.9978 12.9121C15.8924 13.0098 15.7693 13.1192 15.6424 13.2324ZM8.22439 16.6914C8.699 16.6914 9.08182 17.0762 9.08182 17.5488C9.08182 18.0235 8.69705 18.4063 8.22439 18.4063C7.74978 18.4063 7.36697 18.0215 7.36697 17.5488C7.36697 17.0762 7.74978 16.6914 8.22439 16.6914ZM15.3455 11.8047C14.826 10.0254 15.0701 8.39064 16.4705 6.9922C16.7185 7.79298 17.2732 8.45314 18.2166 8.94142C18.6678 9.27736 19.1033 9.68165 19.5271 10.1465C19.6013 9.8379 19.3162 9.4629 18.9705 9.07619C19.2908 9.23439 19.5857 9.45509 19.7947 9.88283C20.0369 10.377 20.033 10.7949 19.9529 11.332C19.9275 11.4981 19.8924 11.6543 19.8474 11.8047C19.8338 11.8125 19.8201 11.8223 19.8103 11.834C19.7713 11.8809 19.7342 11.9258 19.699 11.9668C19.6853 11.9824 19.6736 11.9961 19.6404 12.0371L19.3553 12.377C19.1385 12.6367 18.9197 12.8985 18.6404 13.0879C18.3728 13.2715 18.0428 13.3926 17.5896 13.3926C17.1736 13.3926 16.8572 13.2735 16.5974 13.1016C16.3279 12.9219 16.1111 12.6758 15.9041 12.4356L15.3885 11.836C15.3767 11.8242 15.3611 11.8125 15.3455 11.8047Z" fill="#1A1B1E"/>
</g>
<defs>
<clipPath id="clip0_430_3076">
<rect width="24" height="19.8164" fill="white" transform="translate(0 0.0917969)"/>
</clipPath>
</defs>
</svg>
