<?xml version="1.0" standalone="no"?>
<!DOCTYPE svg PUBLIC "-//W3C//DTD SVG 20010904//EN"
 "http://www.w3.org/TR/2001/REC-SVG-20010904/DTD/svg10.dtd">
<svg version="1.0" xmlns="http://www.w3.org/2000/svg"
 width="512.000000pt" height="512.000000pt" viewBox="0 0 512.000000 512.000000"
 preserveAspectRatio="xMidYMid meet">

<g transform="translate(0.000000,512.000000) scale(0.100000,-0.100000)"
fill="#000000" stroke="none">
<path d="M159 5110 c-45 -13 -79 -42 -107 -89 -27 -46 -27 -48 -30 -262 -3
-214 -3 -217 20 -243 30 -36 83 -39 110 -6 16 20 18 43 18 219 0 162 3 200 16
219 l15 22 515 0 514 0 0 -2410 0 -2410 -514 0 -515 0 -15 22 c-14 20 -16 231
-16 2049 l0 2028 -26 20 c-15 12 -33 21 -40 21 -27 0 -63 -24 -73 -49 -8 -18
-10 -620 -9 -2061 l3 -2035 27 -47 c15 -25 45 -57 65 -70 l38 -23 1785 -3
c1267 -2 1796 0 1823 8 47 14 106 65 123 107 11 26 14 138 14 552 l0 521 23 5
c12 2 247 36 522 75 275 39 518 76 539 81 49 13 91 54 105 103 15 58 -117 960
-147 1004 -24 33 -77 62 -116 62 -14 0 -227 -29 -473 -65 -246 -36 -449 -65
-450 -65 -2 0 -3 580 -3 1289 0 887 -3 1298 -11 1318 -15 40 -57 82 -104 104
-38 18 -108 19 -1820 18 -979 0 -1792 -4 -1806 -9z m3579 -152 c9 -9 12 -311
12 -1299 l0 -1287 -22 -5 c-13 -3 -340 -51 -728 -106 -786 -113 -773 -110
-811 -188 l-21 -44 66 -462 c37 -254 71 -474 77 -488 15 -39 62 -79 101 -88
24 -6 125 5 323 33 263 38 289 44 306 65 41 50 7 121 -59 121 -18 0 -144 -16
-279 -36 -135 -19 -247 -34 -249 -31 -6 6 -127 857 -122 862 6 6 2370 346
2374 342 5 -4 54 -343 54 -365 0 -10 -9 1 -19 23 -36 79 -96 130 -175 149 -16
4 -70 2 -118 -5 -112 -15 -138 -33 -138 -92 0 -62 56 -421 69 -446 7 -11 23
-24 38 -27 34 -9 178 13 218 33 78 40 124 111 133 212 7 65 8 62 36 -136 16
-112 27 -205 24 -208 -3 -3 -348 -55 -768 -115 -683 -99 -767 -113 -787 -132
-14 -13 -23 -33 -23 -50 0 -33 39 -78 69 -78 18 0 327 43 399 55 l32 6 0 -499
c0 -374 -3 -501 -12 -510 -9 -9 -286 -12 -1185 -12 l-1173 0 0 2410 0 2410
1173 0 c899 0 1176 -3 1185 -12z m836 -2981 c50 -50 52 -177 3 -212 -18 -12
-66 -21 -67 -12 -1 1 -9 55 -19 119 -10 65 -16 120 -13 123 15 15 75 3 96 -18z"/>
<path d="M2065 4556 c-11 -8 -54 -64 -95 -125 -41 -61 -78 -111 -81 -111 -3 0
-20 20 -39 45 -18 24 -45 48 -59 53 -55 19 -111 -28 -97 -81 8 -32 141 -199
173 -215 48 -26 72 -4 197 181 66 97 116 182 116 195 0 30 -43 72 -72 72 -13
0 -32 -6 -43 -14z"/>
<path d="M2346 4548 c-21 -30 -20 -71 3 -99 18 -23 25 -24 135 -24 106 0 117
2 137 22 27 27 29 75 4 103 -16 18 -31 20 -141 20 -116 0 -124 -1 -138 -22z"/>
<path d="M2356 4239 c-34 -27 -36 -77 -3 -107 23 -22 23 -22 533 -22 500 0
511 0 532 20 32 30 30 82 -4 109 -26 21 -36 21 -529 21 -493 0 -503 0 -529
-21z"/>
<path d="M2069 3770 c-9 -5 -51 -61 -94 -125 -44 -63 -81 -115 -84 -115 -3 0
-25 23 -49 50 -36 42 -49 50 -77 50 -38 0 -75 -37 -75 -75 0 -30 155 -223 185
-231 53 -13 59 -7 219 229 52 77 86 137 86 153 0 51 -67 90 -111 64z"/>
<path d="M2350 3760 c-30 -30 -27 -83 6 -109 23 -18 41 -21 131 -21 103 0 105
0 135 30 24 25 29 36 24 58 -13 53 -37 62 -162 62 -101 0 -116 -2 -134 -20z"/>
<path d="M2356 3449 c-33 -26 -36 -79 -6 -109 19 -19 33 -20 535 -20 502 0
516 1 535 20 30 30 27 83 -6 109 -26 21 -36 21 -529 21 -493 0 -503 0 -529
-21z"/>
<path d="M2073 2977 c-13 -7 -54 -60 -93 -117 -39 -58 -76 -109 -81 -115 -6
-5 -27 10 -57 43 -56 60 -88 67 -127 27 -40 -40 -33 -65 55 -174 86 -108 114
-125 158 -100 32 18 252 337 252 366 0 35 -11 53 -41 68 -33 18 -37 18 -66 2z"/>
<path d="M2352 2967 c-31 -33 -29 -80 4 -106 23 -18 41 -21 130 -21 56 0 110
3 119 6 8 4 23 20 31 36 13 25 13 35 3 59 -6 17 -20 34 -30 39 -10 6 -67 10
-127 10 -101 0 -110 -2 -130 -23z"/>
<path d="M2350 2650 c-25 -25 -26 -71 -1 -101 l19 -24 515 0 c492 0 516 1 536
19 25 23 28 72 5 104 l-15 22 -520 0 c-506 0 -520 -1 -539 -20z"/>
<path d="M1715 2105 c-14 -13 -25 -36 -25 -50 0 -14 11 -37 25 -50 23 -24 31
-25 135 -25 104 0 112 1 135 25 14 13 25 36 25 50 0 14 -11 37 -25 50 -23 24
-31 25 -135 25 -104 0 -112 -1 -135 -25z"/>
<path d="M3995 2094 c-105 -16 -131 -27 -143 -63 -12 -33 49 -463 68 -486 27
-32 48 -36 133 -25 117 17 155 28 167 50 17 31 12 78 -11 101 -19 19 -29 21
-90 16 -55 -5 -68 -3 -73 9 -11 29 -6 33 46 40 88 12 126 77 79 135 -17 21
-27 24 -82 22 -62 -3 -78 5 -79 33 0 7 24 15 54 19 73 9 106 35 106 84 0 71
-40 86 -175 65z"/>
<path d="M3439 2016 c-75 -13 -95 -26 -103 -64 -3 -15 9 -128 28 -251 30 -198
36 -227 56 -243 32 -26 76 -23 107 8 21 21 25 32 20 65 -5 37 4 51 18 29 16
-26 109 -90 130 -90 39 0 75 37 75 77 0 31 -8 43 -57 88 l-57 53 26 31 c82 97
53 229 -62 289 -49 24 -82 26 -181 8z m126 -176 c0 -19 -6 -26 -24 -28 -25 -4
-41 12 -41 41 0 15 7 18 33 15 27 -2 32 -7 32 -28z"/>
<path d="M3076 1949 c-33 -26 -33 -46 -1 -271 34 -237 34 -237 56 -259 41 -41
129 -7 129 51 0 50 -59 440 -70 460 -23 43 -73 51 -114 19z"/>
<path d="M2785 1905 c-27 -26 -30 -53 -16 -138 4 -26 5 -49 2 -52 -4 -2 -34
-7 -68 -10 l-61 -7 -7 68 c-6 56 -13 73 -36 96 -30 31 -45 34 -83 17 -49 -23
-50 -47 -16 -284 17 -119 36 -228 42 -241 20 -44 98 -46 130 -4 17 23 18 32 7
104 -9 62 -9 80 1 86 12 7 111 22 116 17 2 -2 8 -36 15 -77 8 -48 19 -83 32
-97 34 -38 109 -26 126 20 5 14 -4 107 -25 252 -31 216 -34 231 -59 252 -34
30 -70 29 -100 -2z"/>
<path d="M1711 1784 c-34 -43 -24 -86 26 -112 32 -17 198 -15 232 3 46 23 55
76 21 113 -19 20 -30 22 -140 22 -116 0 -119 -1 -139 -26z"/>
<path d="M1715 1475 c-14 -13 -25 -36 -25 -50 0 -14 11 -37 25 -50 23 -24 30
-25 139 -25 112 0 115 1 135 26 28 35 26 69 -4 99 -23 24 -31 25 -135 25 -104
0 -112 -1 -135 -25z"/>
<path d="M1711 1154 c-26 -34 -27 -68 -1 -94 29 -29 53 -32 210 -28 135 3 143
4 161 27 25 30 24 62 -2 95 l-20 26 -164 0 -164 0 -20 -26z"/>
<path d="M1733 860 c-45 -18 -55 -72 -22 -114 l20 -26 230 0 c216 0 230 1 249
20 30 30 27 83 -6 109 -25 20 -39 21 -238 20 -116 0 -221 -4 -233 -9z"/>
<path d="M1711 524 c-28 -35 -26 -69 4 -99 l24 -25 824 0 c819 0 824 0 851 21
33 26 36 79 6 109 -20 20 -33 20 -854 20 l-835 0 -20 -26z"/>
<path d="M476 1479 c-34 -27 -36 -77 -3 -107 20 -18 35 -22 96 -22 40 0 81 5
92 11 29 15 42 57 29 90 -15 36 -49 49 -124 49 -49 0 -69 -5 -90 -21z"/>
<path d="M470 1160 c-28 -28 -26 -75 5 -105 21 -22 33 -25 94 -25 59 0 74 4
97 23 35 31 38 82 5 109 -35 27 -173 26 -201 -2z"/>
<path d="M475 845 c-31 -30 -33 -77 -5 -105 19 -19 33 -20 229 -20 229 0 243
3 257 62 5 22 0 33 -24 58 l-30 30 -202 0 c-200 0 -201 0 -225 -25z"/>
<path d="M472 527 c-29 -31 -28 -72 3 -102 24 -25 25 -25 219 -25 124 0 204 4
220 11 51 23 55 103 7 128 -12 7 -99 11 -224 11 -200 0 -204 0 -225 -23z"/>
</g>
</svg>
