<svg width="12" height="12" viewBox="0 0 12 12" fill="none" xmlns="http://www.w3.org/2000/svg">
<g clip-path="url(#clip0_1887_176216)">
<path d="M5.40242 8.71171L5.36492 8.70703C5.18914 8.68593 5.05554 8.53593 5.05554 8.35781C5.05554 8.16328 5.21257 8.00625 5.4071 8.00625H5.64851V5.76093H5.40945C5.21492 5.76093 5.05789 5.6039 5.05789 5.40937C5.05789 5.21484 5.21492 5.05781 5.40945 5.05781H5.99773C6.19226 5.05781 6.34929 5.21484 6.34929 5.40937V8.00859H6.58836C6.78289 8.00859 6.93992 8.16562 6.93992 8.36015C6.93992 8.55468 6.78289 8.71171 6.58836 8.71171H5.40242Z" fill="#777777"/>
<path d="M5.99769 4.55391C5.65785 4.55391 5.38129 4.27735 5.38129 3.9375C5.38129 3.59766 5.65785 3.3211 5.99769 3.3211C6.33754 3.3211 6.6141 3.59766 6.6141 3.9375C6.6141 4.10391 6.55316 4.25391 6.43597 4.36875C6.31879 4.48829 6.16176 4.55391 5.99769 4.55391Z" fill="#777777"/>
<path d="M6 0C2.69531 0 0 2.69531 0 6C0 9.30469 2.69531 12 6 12C9.30469 12 12 9.30469 12 6C12 2.69531 9.30469 0 6 0ZM6 11.2969C3.07969 11.2969 0.703125 8.92031 0.703125 6C0.703125 3.07969 3.07969 0.703125 6 0.703125C8.92031 0.703125 11.2969 3.07969 11.2969 6C11.2969 8.92031 8.92031 11.2969 6 11.2969Z" fill="#777777"/>
</g>
<defs>
<clipPath id="clip0_1887_176216">
<rect width="12" height="12" fill="white"/>
</clipPath>
</defs>
</svg>
