<svg width="24" height="25" viewBox="0 0 24 25" fill="none" xmlns="http://www.w3.org/2000/svg">
<path d="M18.1401 22.4183C17.2601 22.6783 16.2201 22.7983 15.0001 22.7983H9.00011C7.78011 22.7983 6.74011 22.6783 5.86011 22.4183C6.08011 19.8183 8.75011 17.7683 12.0001 17.7683C15.2501 17.7683 17.9201 19.8183 18.1401 22.4183Z" stroke="#1A1B1E" stroke-width="1.5" stroke-linecap="round" stroke-linejoin="round"/>
<path d="M15 2.79834H9C4 2.79834 2 4.79834 2 9.79834V15.7983C2 19.5783 3.14 21.6483 5.86 22.4183C6.08 19.8183 8.75 17.7683 12 17.7683C15.25 17.7683 17.92 19.8183 18.14 22.4183C20.86 21.6483 22 19.5783 22 15.7983V9.79834C22 4.79834 20 2.79834 15 2.79834ZM12 14.9683C10.02 14.9683 8.42 13.3584 8.42 11.3784C8.42 9.39836 10.02 7.79834 12 7.79834C13.98 7.79834 15.58 9.39836 15.58 11.3784C15.58 13.3584 13.98 14.9683 12 14.9683Z" stroke="#1A1B1E" stroke-width="1.5" stroke-linecap="round" stroke-linejoin="round"/>
<path d="M15.5799 11.3784C15.5799 13.3584 13.9799 14.9683 11.9999 14.9683C10.0199 14.9683 8.41992 13.3584 8.41992 11.3784C8.41992 9.39836 10.0199 7.79834 11.9999 7.79834C13.9799 7.79834 15.5799 9.39836 15.5799 11.3784Z" stroke="#1A1B1E" stroke-width="1.5" stroke-linecap="round" stroke-linejoin="round"/>
</svg>
