<svg width="24" height="25" viewBox="0 0 24 25" fill="none" xmlns="http://www.w3.org/2000/svg">
<path d="M9.5625 12.7983C6.14438 12.7983 3.375 15.5677 3.375 18.9858V21.2358C3.375 22.161 4.13737 22.9233 5.0625 22.9233H11.8125C11.9617 22.9233 12.1048 22.8641 12.2102 22.7586C12.3157 22.6531 12.375 22.51 12.375 22.3608C12.375 22.2117 12.3157 22.0686 12.2102 21.9631C12.1048 21.8576 11.9617 21.7983 11.8125 21.7983H5.0625C4.74112 21.7983 4.5 21.5572 4.5 21.2358V18.9858C4.5 16.1715 6.74813 13.9233 9.5625 13.9233H14.4375C14.9419 13.9233 15.4267 13.9961 15.8839 14.1315C15.9549 14.1529 16.0294 14.1602 16.1032 14.1527C16.177 14.1453 16.2486 14.1233 16.3139 14.0881C16.3791 14.0528 16.4368 14.005 16.4835 13.9474C16.5303 13.8898 16.5651 13.8236 16.5862 13.7524C16.6072 13.6813 16.6139 13.6067 16.606 13.533C16.5981 13.4592 16.5756 13.3878 16.54 13.3227C16.5043 13.2577 16.4562 13.2003 16.3983 13.154C16.3404 13.1076 16.2739 13.0731 16.2026 13.0526C15.6295 12.8835 15.035 12.7979 14.4375 12.7983H9.5625ZM12 2.67334C9.52125 2.67334 7.5 4.69459 7.5 7.17334C7.5 9.65209 9.52125 11.6733 12 11.6733C14.4788 11.6733 16.5 9.65209 16.5 7.17334C16.5 4.69459 14.4788 2.67334 12 2.67334ZM12 3.79834C13.8705 3.79834 15.375 5.30284 15.375 7.17334C15.375 9.04384 13.8705 10.5483 12 10.5483C10.1295 10.5483 8.625 9.04384 8.625 7.17334C8.625 5.30284 10.1295 3.79834 12 3.79834Z" fill="black"/>
<path d="M16.875 14.6733C14.3963 14.6733 12.375 16.6946 12.375 19.1733C12.375 21.6521 14.3963 23.6733 16.875 23.6733C17.6973 23.6735 18.5038 23.4483 19.2071 23.0223C19.3348 22.945 19.4265 22.8201 19.4621 22.6752C19.4977 22.5303 19.4742 22.3771 19.3969 22.2495C19.3195 22.1218 19.1947 22.0301 19.0497 21.9945C18.9048 21.9589 18.7517 21.9824 18.624 22.0597C18.0966 22.3793 17.4917 22.5483 16.875 22.5483C15.0045 22.5483 13.5 21.0438 13.5 19.1733C13.5 17.3028 15.0045 15.7983 16.875 15.7983C18.7455 15.7983 20.25 17.3028 20.25 19.1733C20.25 19.7898 20.0812 20.3951 19.7614 20.9223C19.684 21.05 19.6606 21.2031 19.6962 21.3481C19.7318 21.493 19.8235 21.6179 19.9511 21.6952C20.0788 21.7725 20.2319 21.796 20.3769 21.7604C20.5218 21.7248 20.6467 21.6331 20.724 21.5055C21.1499 20.8021 21.3751 19.9956 21.375 19.1733C21.375 16.6946 19.3538 14.6733 16.875 14.6733Z" fill="black"/>
<path d="M16.875 17.2983C16.5634 17.2983 16.3125 17.5492 16.3125 17.8608V18.6108H15.5625C15.2509 18.6108 15 18.8617 15 19.1733C15 19.485 15.2509 19.7358 15.5625 19.7358H16.3125V20.4858C16.3125 20.7971 16.5634 21.0483 16.875 21.0483C17.1866 21.0483 17.4375 20.7971 17.4375 20.4858V19.7358H18.1875C18.4991 19.7358 18.75 19.4846 18.75 19.1733C18.75 18.8621 18.4991 18.6108 18.1875 18.6108H17.4375V17.8608C17.4375 17.5492 17.1866 17.2983 16.875 17.2983Z" fill="black"/>
</svg>
