<svg width="74" height="74" viewBox="0 0 74 74" fill="none" xmlns="http://www.w3.org/2000/svg">
<circle cx="37" cy="37" r="37" fill="white"/>
<path d="M28.2509 40.9538V41.1691C28.2509 41.569 28.4123 41.9525 28.6994 42.2352C28.9866 42.518 29.3761 42.6768 29.7822 42.6768H35.4697C35.8758 42.6768 36.2653 42.518 36.5524 42.2352C36.8396 41.9525 37.0009 41.569 37.0009 41.1691V40.9538C37.0185 40.2104 36.7848 39.4824 36.3366 38.884C35.8884 38.2856 35.2511 37.8507 34.5247 37.6476C34.9532 37.2692 35.255 36.7717 35.3901 36.2208C35.5253 35.6699 35.4875 35.0916 35.2818 34.5623C35.076 34.033 34.712 33.5776 34.2378 33.2564C33.7636 32.9352 33.2015 32.7632 32.6259 32.7632C32.0503 32.7632 31.4883 32.9352 31.0141 33.2564C30.5399 33.5776 30.1758 34.033 29.9701 34.5623C29.7643 35.0916 29.7265 35.6699 29.8617 36.2208C29.9969 36.7717 30.2987 37.2692 30.7272 37.6476C30.0007 37.8507 29.3634 38.2856 28.9152 38.884C28.467 39.4824 28.2334 40.2104 28.2509 40.9538ZM32.6259 33.6307C33.0153 33.6307 33.3959 33.7444 33.7197 33.9574C34.0435 34.1704 34.2958 34.4731 34.4448 34.8273C34.5938 35.1815 34.6328 35.5713 34.5568 35.9473C34.4809 36.3233 34.2934 36.6687 34.018 36.9398C33.7427 37.2109 33.3919 37.3956 33.01 37.4704C32.6281 37.5452 32.2323 37.5068 31.8725 37.3601C31.5128 37.2133 31.2053 36.9649 30.989 36.6461C30.7726 36.3273 30.6572 35.9525 30.6572 35.5691C30.6572 35.055 30.8646 34.562 31.2338 34.1984C31.603 33.8349 32.1038 33.6307 32.6259 33.6307ZM31.7509 38.3691H33.5009C33.8478 38.3615 34.1926 38.4231 34.5146 38.5503C34.8366 38.6775 35.1291 38.8676 35.3744 39.1091C35.6197 39.3507 35.8128 39.6387 35.9419 39.9557C36.0711 40.2727 36.1337 40.6123 36.1259 40.9538V41.1691C36.1259 41.3405 36.0568 41.5049 35.9337 41.626C35.8106 41.7472 35.6437 41.8153 35.4697 41.8153H29.7822C29.6081 41.8153 29.4412 41.7472 29.3181 41.626C29.1951 41.5049 29.1259 41.3405 29.1259 41.1691V40.9538C29.1182 40.6123 29.1807 40.2727 29.3099 39.9557C29.4391 39.6387 29.6321 39.3507 29.8775 39.1091C30.1228 38.8676 30.4153 38.6775 30.7373 38.5503C31.0593 38.4231 31.4041 38.3615 31.7509 38.3691Z" fill="#45B956" stroke="#45B956" stroke-width="0.3"/>
<path d="M46.1875 37.9385C46.0715 37.9385 45.9602 37.9839 45.8781 38.0647C45.7961 38.1455 45.75 38.255 45.75 38.3693V43.7539C45.75 43.9253 45.6809 44.0896 45.5578 44.2108C45.4347 44.332 45.2678 44.4001 45.0938 44.4001H27.1562C26.9822 44.4001 26.8153 44.332 26.6922 44.2108C26.5691 44.0896 26.5 43.9253 26.5 43.7539V31.2616C26.5 31.0902 26.5691 30.9259 26.6922 30.8047C26.8153 30.6835 26.9822 30.6154 27.1562 30.6154H36.7812C36.8973 30.6154 37.0086 30.5701 37.0906 30.4893C37.1727 30.4085 37.2188 30.2989 37.2188 30.1847C37.2188 30.0704 37.1727 29.9609 37.0906 29.8801C37.0086 29.7993 36.8973 29.7539 36.7812 29.7539H27.1562C26.7501 29.7539 26.3607 29.9128 26.0735 30.1955C25.7863 30.4782 25.625 30.8617 25.625 31.2616V43.7539C25.625 44.1538 25.7863 44.5373 26.0735 44.82C26.3607 45.1028 26.7501 45.2616 27.1562 45.2616H45.0938C45.4999 45.2616 45.8893 45.1028 46.1765 44.82C46.4637 44.5373 46.625 44.1538 46.625 43.7539V38.3693C46.625 38.255 46.5789 38.1455 46.4969 38.0647C46.4148 37.9839 46.3035 37.9385 46.1875 37.9385Z" fill="#45B956" stroke="#45B956" stroke-width="0.3"/>
<path d="M45.8039 29.8811L43.052 32.5907L41.3195 30.8848C41.2374 30.804 41.1261 30.7586 41.01 30.7586C40.8939 30.7586 40.7826 30.804 40.7005 30.8848C40.6184 30.9656 40.5723 31.0753 40.5723 31.1896C40.5723 31.3039 40.6184 31.4135 40.7005 31.4943L42.7414 33.5039C42.7821 33.5442 42.8305 33.5762 42.8838 33.598C42.9371 33.6198 42.9943 33.631 43.052 33.631C43.1679 33.6305 43.2788 33.5848 43.3605 33.5039L46.423 30.4885C46.4982 30.4064 46.5386 30.299 46.5356 30.1885C46.5326 30.0779 46.4866 29.9727 46.4071 29.8947C46.3275 29.8166 46.2205 29.7717 46.1082 29.7692C45.996 29.7666 45.887 29.8067 45.8039 29.8811Z" fill="#45B956" stroke="#45B956" stroke-width="0.3"/>
<path d="M48.8738 27.4861C48.863 27.3866 48.8173 27.2939 48.7447 27.2239C48.672 27.154 48.5769 27.1111 48.4756 27.1027C47.6412 26.9964 46.8264 26.773 46.0563 26.4393C45.2608 26.1131 44.5197 25.6709 43.8578 25.1276C43.7772 25.0549 43.6718 25.0146 43.5625 25.0146C43.4532 25.0146 43.3479 25.0549 43.2672 25.1276C42.6056 25.6712 41.8644 26.1134 41.0688 26.4393C40.3027 26.7716 39.4925 26.995 38.6625 27.1027C38.5609 27.1106 38.4653 27.1533 38.3922 27.2233C38.3191 27.2933 38.2731 27.3862 38.2622 27.4861C38.2425 27.6691 37.805 31.9704 38.8857 34.0941C40.1785 36.6313 43.2606 38.055 43.3897 38.1153C43.4473 38.1415 43.51 38.1551 43.5735 38.1551C43.6369 38.1551 43.6996 38.1415 43.7572 38.1153C43.8863 38.055 46.9685 36.6313 48.2613 34.0941C49.331 31.9704 48.8935 27.6691 48.8738 27.4861ZM47.4672 33.7085C46.485 35.6405 44.2188 36.9048 43.5625 37.243C42.9063 36.9048 40.64 35.6405 39.6578 33.7085C38.8528 32.1233 39.0147 28.9507 39.0935 27.9125C39.8908 27.7757 40.669 27.5473 41.4122 27.2319C42.1783 26.9129 42.9008 26.5004 43.5625 26.0042C44.2243 26.5004 44.9467 26.9129 45.7128 27.2319C46.4561 27.5473 47.2343 27.7757 48.0316 27.9125C48.1125 28.9507 48.2744 32.1233 47.4672 33.7085Z" fill="#45B956" stroke="#45B956" stroke-width="0.3"/>
<path d="M39.1875 42.677H43.5625C43.6785 42.677 43.7898 42.6316 43.8719 42.5508C43.9539 42.47 44 42.3604 44 42.2462C44 42.132 43.9539 42.0224 43.8719 41.9416C43.7898 41.8608 43.6785 41.8154 43.5625 41.8154H39.1875C39.0715 41.8154 38.9602 41.8608 38.8781 41.9416C38.7961 42.0224 38.75 42.132 38.75 42.2462C38.75 42.3604 38.7961 42.47 38.8781 42.5508C38.9602 42.6316 39.0715 42.677 39.1875 42.677Z" fill="#45B956" stroke="#45B956" stroke-width="0.3"/>
<path d="M39.1875 40.0925H41.8125C41.9285 40.0925 42.0398 40.0471 42.1219 39.9663C42.2039 39.8855 42.25 39.776 42.25 39.6617C42.25 39.5475 42.2039 39.4379 42.1219 39.3571C42.0398 39.2763 41.9285 39.231 41.8125 39.231H39.1875C39.0715 39.231 38.9602 39.2763 38.8781 39.3571C38.7961 39.4379 38.75 39.5475 38.75 39.6617C38.75 39.776 38.7961 39.8855 38.8781 39.9663C38.9602 40.0471 39.0715 40.0925 39.1875 40.0925Z" fill="#45B956" stroke="#45B956" stroke-width="0.3"/>
</svg>
