<svg width="512" height="512" viewBox="0 0 512 512" fill="none" xmlns="http://www.w3.org/2000/svg">
<rect width="512" height="512" rx="254" fill="#F34235"/>
<mask id="mask0_1502_7400" style="mask-type:alpha" maskUnits="userSpaceOnUse" x="0" y="0" width="512" height="512">
<rect width="512" height="512" rx="254" fill="#F34235"/>
</mask>
<g mask="url(#mask0_1502_7400)">
<path d="M273.277 130.309L608.699 362.193L444.884 599.151L124.269 377.502C116.092 371.849 114.046 360.637 119.699 352.46L273.277 130.309Z" fill="#A70000"/>
</g>
<path d="M116 232C116 220.402 125.402 211 137 211H193V361C193 372.598 183.598 382 172 382H137C125.402 382 116 372.598 116 361V232Z" fill="#3478ED"/>
<mask id="mask1_1502_7400" style="mask-type:alpha" maskUnits="userSpaceOnUse" x="116" y="211" width="77" height="171">
<path d="M116 232C116 220.402 125.402 211 137 211H193V361C193 372.598 183.598 382 172 382H137C125.402 382 116 372.598 116 361V232Z" fill="#3478ED"/>
</mask>
<g mask="url(#mask1_1502_7400)">
<rect x="116" y="225" width="64" height="157" fill="#4B8AF8"/>
</g>
<path d="M227.5 126.486L193 210.986V365.488L231.5 381.988H330.5C354.5 381.988 366.5 360.5 371.5 347.988C377.833 323.155 390.9 271.788 392.5 264.988C394.1 258.188 395.167 251.821 395.5 249.488C394.7 223.488 366.5 211.488 352 210.986H271.5C277.5 191 287.135 163 284 148.5C280 130 262.658 121.047 247.5 115.997C235.5 112 229.333 121.32 227.5 126.486Z" fill="#FFC5A6"/>
<mask id="mask2_1502_7400" style="mask-type:alpha" maskUnits="userSpaceOnUse" x="193" y="115" width="203" height="267">
<path d="M227.5 126.486L193 210.986V365.488L231.5 381.988H330.5C354.5 381.988 366.5 360.5 371.5 347.988C377.833 323.155 390.9 271.788 392.5 264.988C394.1 258.188 395.167 251.821 395.5 249.488C394.7 223.488 366.5 211.488 352 210.986H271.5C277.5 191 287.135 163 284 148.5C280 130 262.658 121.047 247.5 115.997C235.5 112 229.333 121.32 227.5 126.486Z" fill="#FFE0CC"/>
</mask>
<g mask="url(#mask2_1502_7400)">
<path d="M236.5 130.988C231 128.5 228.5 127.989 227 127.988H217.5L196.5 170.5L179 214.5L175 350.5L196.5 381L277 395.5C296.5 393.667 337.2 387.9 344 379.5C350.8 371.1 357.5 350.667 360 341.5C365.167 321 375.9 278.3 377.5 271.5C379.1 264.7 378.833 259.667 378.5 258C376 248.5 373 241 361 232.5C351.664 225.887 341.167 223.667 337 223.5L255.5 222.5L267 176.99C267.833 172.656 269.196 161.183 264 151.99C257.501 140.491 242.62 133.758 236.502 130.989L236.5 130.988Z" fill="#FFE0CC"/>
</g>
</svg>
