<svg width="11" height="14" viewBox="0 0 11 14" fill="none" xmlns="http://www.w3.org/2000/svg">
<path d="M5.63737 12.4116C6.2536 12.02 6.80733 11.5453 7.28977 11.016C8.33765 9.86852 9.0447 8.46614 9.32791 7.09012C9.60917 5.73168 9.47636 4.40058 8.85427 3.37321C8.6775 3.07828 8.45582 2.80874 8.19214 2.56654C7.43626 1.87805 6.571 1.54991 5.69988 1.54112C4.78481 1.53429 3.85705 1.87805 3.03671 2.53139C2.68709 2.81069 2.399 3.13199 2.17536 3.48649C1.59917 4.39277 1.42436 5.5178 1.61479 6.6946C1.80718 7.88897 2.37458 9.13803 3.2789 10.2699C3.90783 11.059 4.69887 11.7914 5.6403 12.4096L5.63737 12.4116ZM5.50456 3.06656C6.19305 3.06656 6.81807 3.34586 7.26828 3.79803C7.72044 4.25019 7.99975 4.87228 7.99975 5.56175C7.99975 6.25025 7.72044 6.87527 7.26828 7.32548C6.81612 7.77764 6.19403 8.05694 5.50456 8.05694C4.81606 8.05694 4.19104 7.77764 3.74083 7.32548C3.28867 6.87331 3.00937 6.25122 3.00937 5.56175C3.00937 4.87325 3.28867 4.24823 3.74083 3.79803C4.19299 3.34586 4.81508 3.06656 5.50456 3.06656ZM6.9089 4.15741C6.55049 3.799 6.05145 3.57439 5.50456 3.57439C4.95474 3.57439 4.45863 3.79607 4.10022 4.15741C3.74181 4.51582 3.51719 5.01486 3.51719 5.56175C3.51719 6.11157 3.73888 6.60768 4.10022 6.96609C4.45863 7.3245 4.95767 7.54912 5.50456 7.54912C6.05438 7.54912 6.55049 7.32743 6.9089 6.96609C7.26731 6.60768 7.49192 6.10864 7.49192 5.56175C7.49095 5.01193 7.27024 4.51582 6.9089 4.15741ZM7.69115 11.3783C7.14425 11.976 6.51045 12.5122 5.79461 12.9467C5.70866 13.0112 5.58659 13.02 5.48893 12.9575C4.43421 12.2866 3.5504 11.4799 2.85311 10.6049C1.89312 9.40073 1.28666 8.06476 1.0806 6.77761C0.870629 5.47288 1.06692 4.21894 1.71636 3.19547C1.9732 2.79214 2.29938 2.42494 2.69979 2.10754C3.61485 1.37901 4.66273 0.993253 5.70378 1.00009C6.70772 1.00888 7.69798 1.38096 8.55738 2.16516C8.85915 2.43959 9.11111 2.75014 9.31717 3.09097C10.0154 4.24042 10.1658 5.70922 9.86016 7.19364C9.55644 8.66243 8.80544 10.1556 7.69408 11.3734L7.69115 11.3783Z" fill="#FE464B" stroke="#FE464B" stroke-width="0.5"/>
</svg>
