<svg width="74" height="74" viewBox="0 0 74 74" fill="none" xmlns="http://www.w3.org/2000/svg">
<circle cx="37" cy="37" r="37" fill="white"/>
<path d="M45.6798 25.2402H29.7198C29.4118 25.2402 29.1598 25.4922 29.1598 25.8002V28.0402H28.3198C28.0118 28.0402 27.7598 28.2922 27.7598 28.6002C27.7598 28.9082 28.0118 29.1602 28.3198 29.1602H29.1598V30.8402H28.3198C28.0118 30.8402 27.7598 31.0922 27.7598 31.4002C27.7598 31.7082 28.0118 31.9602 28.3198 31.9602H29.1598V33.6402H28.3198C28.0118 33.6402 27.7598 33.8922 27.7598 34.2002C27.7598 34.5082 28.0118 34.7602 28.3198 34.7602H29.1598V36.4402H28.3198C28.0118 36.4402 27.7598 36.6922 27.7598 37.0002C27.7598 37.3082 28.0118 37.5602 28.3198 37.5602H29.1598V39.2402H28.3198C28.0118 39.2402 27.7598 39.4922 27.7598 39.8002C27.7598 40.1082 28.0118 40.3602 28.3198 40.3602H29.1598V42.0402H28.3198C28.0118 42.0402 27.7598 42.2922 27.7598 42.6002C27.7598 42.9082 28.0118 43.1602 28.3198 43.1602H29.1598V44.8402H28.3198C28.0118 44.8402 27.7598 45.0922 27.7598 45.4002C27.7598 45.7082 28.0118 45.9602 28.3198 45.9602H29.1598V48.2002C29.1598 48.5082 29.4118 48.7602 29.7198 48.7602H45.6798C45.9878 48.7602 46.2398 48.5082 46.2398 48.2002V25.8002C46.2398 25.4922 45.9878 25.2402 45.6798 25.2402ZM45.1198 47.6402H30.2798V45.9602H31.1198C31.4278 45.9602 31.6798 45.7082 31.6798 45.4002C31.6798 45.0922 31.4278 44.8402 31.1198 44.8402H30.2798V43.1602H31.1198C31.4278 43.1602 31.6798 42.9082 31.6798 42.6002C31.6798 42.2922 31.4278 42.0402 31.1198 42.0402H30.2798V40.3602H31.1198C31.4278 40.3602 31.6798 40.1082 31.6798 39.8002C31.6798 39.4922 31.4278 39.2402 31.1198 39.2402H30.2798V37.5602H31.1198C31.4278 37.5602 31.6798 37.3082 31.6798 37.0002C31.6798 36.6922 31.4278 36.4402 31.1198 36.4402H30.2798V34.7602H31.1198C31.4278 34.7602 31.6798 34.5082 31.6798 34.2002C31.6798 33.8922 31.4278 33.6402 31.1198 33.6402H30.2798V31.9602H31.1198C31.4278 31.9602 31.6798 31.7082 31.6798 31.4002C31.6798 31.0922 31.4278 30.8402 31.1198 30.8402H30.2798V29.1602H31.1198C31.4278 29.1602 31.6798 28.9082 31.6798 28.6002C31.6798 28.2922 31.4278 28.0402 31.1198 28.0402H30.2798V26.3602H45.1198V47.6402ZM33.9198 34.2002H42.8798C43.1878 34.2002 43.4398 33.9482 43.4398 33.6402V28.6002C43.4398 28.2922 43.1878 28.0402 42.8798 28.0402H33.9198C33.6118 28.0402 33.3598 28.2922 33.3598 28.6002V33.6402C33.3598 33.9482 33.6118 34.2002 33.9198 34.2002ZM34.4798 29.1602H42.3198V33.0802H34.4798V29.1602ZM41.7598 36.4402C41.7598 36.7482 41.5078 37.0002 41.1998 37.0002H35.5998C35.2918 37.0002 35.0398 36.7482 35.0398 36.4402C35.0398 36.1322 35.2918 35.8802 35.5998 35.8802H41.1998C41.5078 35.8802 41.7598 36.1322 41.7598 36.4402ZM41.7598 39.2402C41.7598 39.5482 41.5078 39.8002 41.1998 39.8002H35.5998C35.2918 39.8002 35.0398 39.5482 35.0398 39.2402C35.0398 38.9322 35.2918 38.6802 35.5998 38.6802H41.1998C41.5078 38.6802 41.7598 38.9322 41.7598 39.2402Z" fill="#00AF98" stroke="#00AF98" stroke-width="0.3"/>
</svg>
