<svg width="16" height="16" viewBox="0 0 16 16" fill="none" xmlns="http://www.w3.org/2000/svg">
<path d="M5.66732 12.6663H5.33398C2.66732 12.6663 1.33398 11.9997 1.33398 8.66634V5.33301C1.33398 2.66634 2.66732 1.33301 5.33398 1.33301H10.6673C13.334 1.33301 14.6673 2.66634 14.6673 5.33301V8.66634C14.6673 11.333 13.334 12.6663 10.6673 12.6663H10.334C10.1273 12.6663 9.92732 12.7663 9.80065 12.933L8.80065 14.2663C8.36065 14.853 7.64065 14.853 7.20065 14.2663L6.20065 12.933C6.09398 12.7863 5.84732 12.6663 5.66732 12.6663Z" stroke="#58BFF3" stroke-width="1.5" stroke-miterlimit="10" stroke-linecap="round" stroke-linejoin="round"/>
<path d="M10.6637 7.33333H10.6696" stroke="#58BFF3" stroke-width="2" stroke-linecap="round" stroke-linejoin="round"/>
<path d="M7.99764 7.33333H8.00363" stroke="#58BFF3" stroke-width="2" stroke-linecap="round" stroke-linejoin="round"/>
<path d="M5.32967 7.33333H5.33566" stroke="#58BFF3" stroke-width="2" stroke-linecap="round" stroke-linejoin="round"/>
</svg>
