<svg width="500" height="535" viewBox="0 0 500 535" fill="none" xmlns="http://www.w3.org/2000/svg">
<path d="M142.066 513.48H145.036V528.264H144.046L135.642 519.288V528H132.672V513.216H133.64L142.066 522.148V513.48ZM148.094 522.544C148.028 519.442 150.734 516.802 153.924 516.868C157.114 516.824 159.842 519.442 159.776 522.544C159.842 525.646 157.092 528.308 153.902 528.242C150.712 528.308 148.028 525.646 148.094 522.544ZM156.74 522.566C156.74 520.872 155.53 519.574 153.924 519.574C152.274 519.574 151.108 520.828 151.108 522.566C151.108 524.26 152.274 525.514 153.924 525.514C155.53 525.514 156.74 524.26 156.74 522.566ZM179.173 513.48H182.143V528.264H181.153L172.749 519.288V528H169.779V513.216H170.747L179.173 522.148V513.48ZM185.201 522.544C185.135 519.442 187.841 516.802 191.031 516.868C194.221 516.824 196.949 519.442 196.883 522.544C196.949 525.646 194.199 528.308 191.009 528.242C187.819 528.308 185.135 525.646 185.201 522.544ZM193.847 522.566C193.847 520.872 192.637 519.574 191.031 519.574C189.381 519.574 188.215 520.828 188.215 522.566C188.215 524.26 189.381 525.514 191.031 525.514C192.637 525.514 193.847 524.26 193.847 522.566ZM216.648 521.246V528H213.678V521.664C213.678 520.366 212.908 519.552 211.742 519.552C210.576 519.552 209.74 520.388 209.74 521.598V528H206.77V521.664C206.77 520.366 206 519.552 204.834 519.552C203.624 519.552 202.832 520.366 202.832 521.664V528H199.862V517.11H202.59V518.078C203.316 517.308 204.416 516.868 205.67 516.868C207.1 516.868 208.178 517.396 208.904 518.43C209.762 517.462 211.038 516.868 212.534 516.868C215.086 516.868 216.648 518.606 216.648 521.246ZM220.137 528V517.11H223.107V528H220.137ZM219.719 513.15C219.719 512.094 220.555 511.302 221.611 511.302C222.667 511.302 223.525 512.094 223.525 513.15C223.525 514.184 222.667 514.976 221.611 514.976C220.555 514.976 219.719 514.184 219.719 513.15ZM236.715 521.246V528H233.767V521.642C233.767 520.388 232.953 519.53 231.743 519.53C230.533 519.53 229.675 520.388 229.675 521.642V528H226.705V517.11H229.433V518.1C230.203 517.33 231.325 516.868 232.623 516.868C235.153 516.868 236.715 518.606 236.715 521.246ZM249.364 521.532V528H246.636V526.944C245.844 527.758 244.7 528.264 243.314 528.264C241.004 528.264 239.552 526.922 239.552 525.008C239.552 523.05 241.136 521.84 243.666 521.84H246.394V521.356C246.394 520.146 245.69 519.442 244.37 519.442C243.248 519.442 242.456 519.904 241.488 520.938L239.948 519.112C241.202 517.616 242.786 516.868 244.7 516.868C247.538 516.868 249.364 518.518 249.364 521.532ZM246.394 523.93V523.798H244.062C243.094 523.798 242.544 524.172 242.544 524.898C242.544 525.624 243.16 526.086 244.106 526.086C245.404 526.086 246.394 525.184 246.394 523.93ZM259.879 525.514V528C259.175 528.176 258.493 528.264 257.833 528.264C255.083 528.264 253.477 526.9 253.477 524.172V519.618H251.761V517.11H253.477V514.36H256.447V517.11H259.527V519.618H256.447V523.908C256.447 525.14 257.063 525.602 258.471 525.602C258.647 525.602 259.109 525.58 259.879 525.514ZM262.695 528V517.11H265.665V528H262.695ZM262.277 513.15C262.277 512.094 263.113 511.302 264.169 511.302C265.225 511.302 266.083 512.094 266.083 513.15C266.083 514.184 265.225 514.976 264.169 514.976C263.113 514.976 262.277 514.184 262.277 513.15ZM268.647 522.544C268.581 519.442 271.287 516.802 274.477 516.868C277.667 516.824 280.395 519.442 280.329 522.544C280.395 525.646 277.645 528.308 274.455 528.242C271.265 528.308 268.581 525.646 268.647 522.544ZM277.293 522.566C277.293 520.872 276.083 519.574 274.477 519.574C272.827 519.574 271.661 520.828 271.661 522.566C271.661 524.26 272.827 525.514 274.477 525.514C276.083 525.514 277.293 524.26 277.293 522.566ZM293.318 521.246V528H290.37V521.642C290.37 520.388 289.556 519.53 288.346 519.53C287.136 519.53 286.278 520.388 286.278 521.642V528H283.308V517.11H286.036V518.1C286.806 517.33 287.928 516.868 289.226 516.868C291.756 516.868 293.318 518.606 293.318 521.246ZM303.861 528V513.48H313.409V516.164H306.831V519.794H312.221V522.478H306.831V528H303.861ZM314.944 522.544C314.878 519.442 317.584 516.802 320.774 516.868C323.964 516.824 326.692 519.442 326.626 522.544C326.692 525.646 323.942 528.308 320.752 528.242C317.562 528.308 314.878 525.646 314.944 522.544ZM323.59 522.566C323.59 520.872 322.38 519.574 320.774 519.574C319.124 519.574 317.958 520.828 317.958 522.566C317.958 524.26 319.124 525.514 320.774 525.514C322.38 525.514 323.59 524.26 323.59 522.566ZM329.494 523.204V517.11H332.464V523.446C332.464 524.7 333.322 525.536 334.532 525.536C335.676 525.536 336.556 524.7 336.556 523.446V517.11H339.526V523.204C339.526 526.24 337.37 528.264 334.532 528.264C331.628 528.264 329.494 526.24 329.494 523.204ZM353.036 521.246V528H350.088V521.642C350.088 520.388 349.274 519.53 348.064 519.53C346.854 519.53 345.996 520.388 345.996 521.642V528H343.026V517.11H345.754V518.1C346.524 517.33 347.646 516.868 348.944 516.868C351.474 516.868 353.036 518.606 353.036 521.246ZM364.475 511.5H367.445V528H364.717V526.658C363.991 527.692 362.715 528.264 361.219 528.264C358.183 528.264 355.939 525.844 355.939 522.566C355.939 519.288 358.183 516.868 361.219 516.868C362.605 516.868 363.683 517.308 364.475 518.166V511.5ZM364.519 522.566C364.519 520.63 363.265 519.552 361.769 519.552C360.185 519.552 358.953 520.762 358.953 522.544C358.953 524.37 360.163 525.558 361.769 525.558C363.265 525.558 364.519 524.524 364.519 522.566Z" fill="#1A1B1E"/>
<path d="M264.75 59.3401V87.8601C258.28 94.2101 234.9 117.79 234.9 117.79H264.75V140.24C264.753 144.057 266.261 147.719 268.948 150.43C271.635 153.142 275.283 154.683 279.1 154.72L444.58 156.28C446.493 156.299 448.391 155.938 450.163 155.218C451.936 154.499 453.548 153.435 454.906 152.088C456.265 150.742 457.343 149.139 458.079 147.373C458.814 145.607 459.192 143.713 459.19 141.8V59.3401C459.19 55.4998 457.665 51.8167 454.949 49.1012C452.234 46.3857 448.551 44.8601 444.71 44.8601H279.23C277.329 44.8601 275.446 45.2346 273.689 45.9623C271.932 46.69 270.336 47.7566 268.991 49.1012C267.647 50.4458 266.58 52.0421 265.853 53.7989C265.125 55.5556 264.75 57.4386 264.75 59.3401Z" fill="#F4F6FA"/>
<path d="M264.751 59.3401C264.751 59.3401 264.751 58.7901 264.811 57.7201C264.986 56.1341 265.418 54.5871 266.091 53.1401C266.58 52.0689 267.198 51.0614 267.931 50.1401C268.834 49.0421 269.884 48.0731 271.051 47.2601C272.424 46.3267 273.946 45.6335 275.551 45.2101C277.385 44.7845 279.27 44.6162 281.151 44.7101L348.391 44.6101H394.821H420.691H444.601C445.191 44.6101 445.791 44.6101 446.381 44.7101C446.977 44.7737 447.568 44.8772 448.151 45.0201C450.519 45.5852 452.711 46.7273 454.531 48.3447C456.35 49.9621 457.742 52.0046 458.581 54.2901C459.009 55.4442 459.295 56.6465 459.431 57.8701C459.511 59.1101 459.511 60.3201 459.501 61.5401C459.501 63.9734 459.501 66.4168 459.501 68.8701V98.8801C459.501 109.093 459.501 119.477 459.501 130.03V142C459.479 143.354 459.277 144.699 458.901 146C458.119 148.647 456.608 151.021 454.541 152.85C453.523 153.782 452.37 154.554 451.121 155.14C449.874 155.745 448.547 156.169 447.181 156.4C445.887 156.591 444.578 156.658 443.271 156.6H439.421L431.741 156.52L416.541 156.38L386.791 156.09L330.381 155.54L279.081 155.03C277.056 155.006 275.057 154.566 273.21 153.736C271.362 152.907 269.705 151.707 268.341 150.21C265.697 147.286 264.31 143.439 264.481 139.5C264.481 131.987 264.481 124.763 264.481 117.83L264.721 118.07H234.871H234.381L234.731 117.72L264.631 87.8301V87.9301C264.631 78.6701 264.681 71.5401 264.691 66.7201C264.691 64.3201 264.691 62.5001 264.691 61.2601C264.691 60.0201 264.691 59.4101 264.691 59.4101C264.691 59.4101 264.691 60.0301 264.691 61.2601C264.691 62.4901 264.691 64.3201 264.691 66.7201C264.691 71.5401 264.691 78.6701 264.761 87.9301L234.961 117.93L234.811 117.58H264.661H265.001V117.82C265.001 124.747 265.001 131.97 265.001 139.49C264.836 143.298 266.18 147.017 268.741 149.84C270.057 151.28 271.654 152.434 273.435 153.23C275.215 154.027 277.14 154.449 279.091 154.47L330.391 154.93L386.791 155.44L416.551 155.72L431.751 155.86L439.421 155.93H443.281C444.551 155.99 445.824 155.923 447.081 155.73C449.684 155.278 452.111 154.11 454.087 152.356C456.064 150.602 457.513 148.332 458.271 145.8C458.638 144.546 458.833 143.247 458.851 141.94C458.851 140.61 458.851 139.28 458.851 137.94V98.8801C458.851 88.6734 458.851 78.6534 458.851 68.8201C458.851 66.3601 458.851 63.9168 458.851 61.4901C458.851 60.2701 458.851 59.0601 458.771 57.8901C458.641 56.7159 458.372 55.5613 457.971 54.4501C457.165 52.2593 455.831 50.3014 454.086 48.7505C452.342 47.1995 450.241 46.1036 447.971 45.5601C445.741 44.9701 443.401 45.2001 441.081 45.1501H394.781H348.351L281.151 45.0001C279.288 44.8949 277.42 45.0531 275.601 45.4701C274.018 45.8804 272.517 46.5567 271.161 47.4701C270.003 48.2628 268.959 49.2118 268.061 50.2901C267.325 51.1898 266.704 52.1774 266.211 53.2301C265.31 55.1448 264.813 57.2248 264.751 59.3401Z" fill="#1A1B1E"/>
<path d="M307.91 96.5C307.91 88.63 314.04 82.8 322.4 82.8C330.76 82.8 336.9 88.59 336.9 96.5C336.9 104.41 330.73 110.2 322.4 110.2C314.07 110.2 307.91 104.37 307.91 96.5ZM330.69 96.5C330.649 94.87 330.128 93.2884 329.192 91.953C328.256 90.6176 326.948 89.5878 325.43 88.9924C323.912 88.3971 322.252 88.2626 320.658 88.6058C319.064 88.9489 317.607 89.7546 316.468 90.9219C315.33 92.0892 314.561 93.5663 314.257 95.1684C313.954 96.7705 314.13 98.4265 314.763 99.9291C315.396 101.432 316.459 102.714 317.817 103.616C319.175 104.518 320.77 105 322.4 105C323.515 105.029 324.623 104.827 325.656 104.408C326.689 103.988 327.624 103.359 328.402 102.561C329.181 101.763 329.786 100.813 330.179 99.7697C330.573 98.7266 330.747 97.6135 330.69 96.5Z" fill="#1A1B1E"/>
<path d="M339.58 99.5601C339.58 93.4301 344.31 89.0801 350.78 89.0801C357.25 89.0801 361.94 93.4301 361.94 99.5601C361.94 105.69 357.25 110 350.78 110C344.31 110 339.58 105.69 339.58 99.5601ZM355.96 99.5601C355.96 96.0501 353.73 93.9301 350.78 93.9301C347.83 93.9301 345.55 96.0501 345.55 99.5601C345.55 103.07 347.82 105.2 350.78 105.2C353.74 105.2 356 103.08 356 99.5601H355.96Z" fill="#1A1B1E"/>
<path d="M388.001 99.5602C388.001 106 383.611 110 377.901 110C376.763 110.057 375.627 109.867 374.569 109.444C373.511 109.021 372.557 108.375 371.771 107.55V117.04H365.871V89.3902H371.511V91.7302C372.305 90.8321 373.293 90.1267 374.4 89.6675C375.507 89.2084 376.705 89.0075 377.901 89.0802C383.611 89.0802 388.001 93.1702 388.001 99.5602ZM382.001 99.5602C382.001 96.0502 379.771 93.9302 376.821 93.9302C373.871 93.9302 371.641 96.0502 371.641 99.5602C371.641 103.07 373.871 105.2 376.821 105.2C379.771 105.2 382.061 103.08 382.061 99.5602H382.001Z" fill="#1A1B1E"/>
<path d="M390 107.85L392 103.61C394.137 104.901 396.583 105.592 399.08 105.61C401.8 105.61 402.82 104.89 402.82 103.76C402.82 100.43 390.53 103.83 390.53 95.7001C390.53 91.8401 394.01 89.1101 399.95 89.1101C402.666 89.0614 405.352 89.6722 407.78 90.8901L405.78 95.0901C403.993 94.0825 401.972 93.5618 399.92 93.5801C397.27 93.5801 396.13 94.4101 396.13 95.4701C396.13 98.9501 408.43 95.5801 408.43 103.6C408.43 107.39 404.91 110.07 398.82 110.07C395.736 110.12 392.693 109.354 390 107.85Z" fill="#1A1B1E"/>
<path d="M411.191 106.6C411.259 105.684 411.671 104.827 412.345 104.202C413.018 103.577 413.903 103.23 414.821 103.23C415.74 103.23 416.625 103.577 417.298 104.202C417.971 104.827 418.383 105.684 418.451 106.6C418.383 107.516 417.971 108.373 417.298 108.998C416.625 109.623 415.74 109.97 414.821 109.97C413.903 109.97 413.018 109.623 412.345 108.998C411.671 108.373 411.259 107.516 411.191 106.6ZM411.301 83.26H418.301L417.131 100.55H412.441L411.301 83.26Z" fill="#1A1B1E"/>
<path d="M166.91 55.1101L167.847 54.1801C170.473 51.5736 174.026 50.1169 177.726 50.1305C181.426 50.144 184.969 51.6268 187.575 54.2525L190.231 56.928C192.838 59.5537 194.294 63.1073 194.281 66.8071C194.267 70.5068 192.785 74.0496 190.159 76.6562L189.222 77.5861L166.91 55.1101Z" fill="#455A64"/>
<path d="M189.221 77.5999L166.891 55.0999L167.821 54.1699C169.115 52.8787 170.651 51.8554 172.341 51.1587C174.031 50.4621 175.842 50.1056 177.671 50.1099H177.721C179.556 50.1114 181.373 50.4762 183.067 51.1834C184.761 51.8905 186.299 52.9259 187.591 54.2299L190.251 56.9099C192.858 59.5435 194.315 63.1034 194.302 66.8094C194.289 70.5153 192.807 74.0649 190.181 76.6799L189.221 77.5999ZM166.941 55.0899L189.221 77.5299L190.141 76.6199C192.759 74.0172 194.238 70.4814 194.251 66.7894C194.264 63.0974 192.811 59.5511 190.211 56.9299L187.551 54.2499C186.266 52.948 184.735 51.9143 183.048 51.2087C181.36 50.5032 179.55 50.1399 177.721 50.1399H177.671C175.853 50.1292 174.051 50.477 172.367 51.1633C170.684 51.8497 169.153 52.8612 167.861 54.1399L166.941 55.0899Z" fill="#1A1B1E"/>
<path d="M121.844 143.62L120.874 144.515C118.155 147.024 114.55 148.35 110.853 148.202C107.157 148.054 103.67 146.443 101.161 143.724L98.6046 140.953C96.0866 138.224 94.7557 134.607 94.9047 130.897C95.0537 127.187 96.6704 123.688 99.3992 121.17L100.333 120.309L121.844 143.62Z" fill="#455A64"/>
<path d="M111.429 148.25H110.849C109.015 148.181 107.213 147.749 105.547 146.98C103.88 146.211 102.382 145.12 101.139 143.77L98.5894 141C96.081 138.273 94.7557 134.664 94.9038 130.962C95.0519 127.26 96.6613 123.767 99.3794 121.25L100.379 120.34L121.869 143.63L120.869 144.53C118.306 146.918 114.933 148.248 111.429 148.25ZM99.4294 121.25C98.074 122.49 96.9772 123.986 96.2023 125.652C95.4275 127.318 94.9898 129.121 94.9145 130.956C94.8392 132.792 95.1278 134.624 95.7637 136.348C96.3995 138.072 97.3701 139.653 98.6195 141L101.179 143.77C102.418 145.118 103.911 146.206 105.572 146.974C107.234 147.741 109.031 148.171 110.859 148.24H111.429C114.926 148.246 118.296 146.928 120.859 144.55L121.859 143.67L100.419 120.43L99.4294 121.25Z" fill="#1A1B1E"/>
<path d="M87.1731 92.4089L85.6035 94.3547L101.708 107.344L103.277 105.399L87.1731 92.4089Z" fill="#455A64"/>
<path d="M88.2198 88.2999C89.0053 88.9328 89.5854 89.7845 89.8869 90.7471C90.1883 91.7098 90.1975 92.7402 89.9133 93.7081C89.6291 94.676 89.0642 95.5379 88.2901 96.1847C87.516 96.8315 86.5675 97.2343 85.5645 97.342C84.5615 97.4497 83.5491 97.2576 82.6553 96.7898C81.7615 96.3221 81.0265 95.5999 80.5433 94.7144C80.06 93.8289 79.8502 92.82 79.9403 91.8153C80.0305 90.8106 80.4166 89.8552 81.0498 89.0699C81.9017 88.0218 83.1333 87.3527 84.4762 87.2085C85.8192 87.0643 87.1648 87.4566 88.2198 88.2999Z" fill="#1A1B1E"/>
<path d="M149.185 58.4796L102.225 105.112C95.7594 111.533 95.7229 121.981 102.144 128.447L131.626 158.135C138.047 164.601 148.494 164.638 154.96 158.217L201.92 111.584C208.386 105.163 208.422 94.7156 202.001 88.2495L172.519 58.5611C166.098 52.095 155.651 52.0585 149.185 58.4796Z" fill="#FE464B"/>
<path d="M150.501 57.1799L148.291 48.7499L142.541 49.6999L140.881 43.6099L142.761 43.1799L144.071 47.6099L149.811 46.8299L152.211 55.4799L150.501 57.1799Z" fill="#455A64"/>
<path d="M153.875 69.5658L113.281 109.878C107.81 115.311 107.779 124.149 113.212 129.62L115.079 131.501C120.512 136.971 129.351 137.002 134.821 131.569L175.416 91.2574C180.887 85.8247 180.917 76.9858 175.485 71.5151L173.617 69.6347C168.185 64.164 159.346 64.1331 153.875 69.5658Z" fill="#1A1B1E"/>
<path d="M177.661 95C177.661 95 177.781 94.84 178.031 94.55C178.423 94.1284 178.791 93.6843 179.131 93.22C180.483 91.4743 181.479 89.4798 182.061 87.35C182.481 85.8176 182.706 84.2386 182.731 82.65C182.716 80.7617 182.412 78.8868 181.831 77.09C181.157 75.0268 180.098 73.1099 178.711 71.44L177.531 70.14L176.251 68.86C175.391 67.9562 174.469 67.1141 173.491 66.34C171.37 64.6923 168.9 63.5501 166.271 63C163.419 62.4699 160.482 62.6415 157.711 63.5C156.26 63.9582 154.875 64.6036 153.591 65.42C152.278 66.2841 151.064 67.2902 149.971 68.42L142.921 75.42L111.491 106.65C108.749 109.372 106.99 112.929 106.491 116.76C106.26 118.621 106.321 120.507 106.671 122.35C107.231 125.052 108.408 127.589 110.111 129.76C110.701 130.45 111.281 131.12 111.941 131.76C113.145 133.081 114.464 134.292 115.881 135.38C118.619 137.359 121.876 138.496 125.251 138.651C128.626 138.805 131.973 137.971 134.881 136.25C135.576 135.85 136.244 135.406 136.881 134.92C137.481 134.41 138.071 133.92 138.621 133.35L141.911 130.1L153.911 118.25L171.281 101.12L176.001 96.55L177.241 95.35C177.521 95.09 177.681 94.96 177.681 94.96C177.681 94.96 177.551 95.11 177.281 95.39L176.071 96.63L171.401 101.33L154.141 118.58L142.211 130.48L138.941 133.74C138.381 134.29 137.771 134.82 137.171 135.34C136.533 135.84 135.865 136.301 135.171 136.72C132.186 138.491 128.75 139.353 125.283 139.2C121.816 139.047 118.469 137.886 115.651 135.86C114.217 134.751 112.879 133.523 111.651 132.19C111.001 131.56 110.391 130.85 109.781 130.19C109.209 129.45 108.687 128.671 108.221 127.86C107.273 126.213 106.598 124.423 106.221 122.56C105.858 120.662 105.793 118.718 106.031 116.8C106.531 112.862 108.329 109.202 111.141 106.4L142.601 75.19L149.671 68.19C150.789 67.0346 152.029 66.0051 153.371 65.12C156.448 63.1606 160.054 62.1985 163.698 62.3649C167.342 62.5313 170.846 63.8183 173.731 66.05C174.721 66.8391 175.654 67.6979 176.521 68.62L177.791 69.91L179.001 71.18C180.395 72.9066 181.451 74.8813 182.111 77C182.694 78.8261 182.985 80.7331 182.971 82.65C182.934 84.2601 182.696 85.8592 182.261 87.41C181.659 89.5487 180.639 91.5471 179.261 93.29C178.908 93.7461 178.524 94.1771 178.111 94.58L177.661 95Z" fill="#1A1B1E"/>
<path d="M125.76 126.43C125.457 123.44 125.327 120.435 125.37 117.43C125.238 114.43 125.285 111.424 125.51 108.43C125.805 111.42 125.932 114.425 125.89 117.43C126.017 120.43 125.973 123.435 125.76 126.43Z" fill="white"/>
<path d="M134.471 116.72C131.487 117.124 128.481 117.348 125.471 117.39C122.476 117.606 119.471 117.657 116.471 117.54C119.455 117.137 122.46 116.913 125.471 116.87C128.466 116.653 131.47 116.603 134.471 116.72Z" fill="white"/>
<path d="M161.401 90.1099C161.099 87.1198 160.969 84.1148 161.011 81.1099C160.878 78.1098 160.925 75.1044 161.151 72.1099C161.446 75.1004 161.573 78.1051 161.531 81.1099C161.658 84.1099 161.614 87.1147 161.401 90.1099Z" fill="white"/>
<path d="M170.109 80.4C167.124 80.7921 164.12 81.0158 161.109 81.07C158.115 81.2923 155.11 81.3391 152.109 81.21C155.094 80.8191 158.099 80.5988 161.109 80.55C164.104 80.3272 167.109 80.2771 170.109 80.4Z" fill="white"/>
<path d="M140.723 45.07C143.539 45.0262 145.787 42.7077 145.743 39.8914C145.699 37.0751 143.381 34.8275 140.564 34.8712C137.748 34.915 135.5 37.2335 135.544 40.0498C135.588 42.8661 137.906 45.1137 140.723 45.07Z" fill="#1A1B1E"/>
<path d="M156.509 156.68C156.189 156.47 155.894 156.226 155.629 155.95C155.079 155.46 154.309 154.73 153.359 153.83C151.469 152.03 148.869 149.5 146.039 146.69C143.209 143.88 140.659 141.31 138.839 139.42C137.803 138.452 136.863 137.387 136.029 136.24C136.322 136.482 136.603 136.739 136.869 137.01L139.099 139.16C141.099 141.07 143.599 143.57 146.399 146.32C149.199 149.07 151.789 151.7 153.619 153.57L155.769 155.81C156.05 156.069 156.299 156.361 156.509 156.68Z" fill="#1A1B1E"/>
<path d="M199.82 113.05C199.498 112.843 199.203 112.597 198.94 112.32C198.4 111.83 197.63 111.11 196.68 110.21C194.78 108.4 192.19 105.88 189.35 103.07C186.51 100.26 183.97 97.6799 182.16 95.7899C181.126 94.8235 180.185 93.7622 179.35 92.6199C179.648 92.8525 179.928 93.1065 180.19 93.3799L182.42 95.5299L189.72 102.7C192.56 105.51 195.11 108.07 196.94 109.94L199.09 112.18C199.371 112.436 199.616 112.728 199.82 113.05Z" fill="#1A1B1E"/>
<path d="M179.125 98.8537L142.547 136.024L146.624 140.036L183.202 102.866L179.125 98.8537Z" fill="#1A1B1E"/>
<path d="M137.6 142.82C137.593 143.04 137.52 143.253 137.391 143.432C137.261 143.61 137.081 143.745 136.874 143.82C136.667 143.895 136.442 143.906 136.228 143.851C136.015 143.797 135.823 143.68 135.677 143.515C135.531 143.35 135.438 143.144 135.409 142.926C135.381 142.707 135.419 142.485 135.519 142.289C135.618 142.092 135.775 141.93 135.967 141.823C136.16 141.717 136.38 141.67 136.6 141.69C136.88 141.713 137.141 141.843 137.327 142.054C137.513 142.265 137.611 142.539 137.6 142.82Z" fill="#1A1B1E"/>
<path d="M145.94 151.63C145.905 151.903 145.769 152.153 145.559 152.331C145.348 152.509 145.079 152.601 144.804 152.59C144.529 152.578 144.268 152.464 144.073 152.27C143.878 152.076 143.762 151.815 143.75 151.54C143.785 151.267 143.921 151.017 144.131 150.839C144.342 150.661 144.611 150.569 144.886 150.581C145.161 150.592 145.422 150.706 145.617 150.9C145.812 151.095 145.928 151.355 145.94 151.63Z" fill="#1A1B1E"/>
<path d="M186.62 92.9101C186.594 93.1912 186.462 93.4518 186.249 93.6379C186.037 93.824 185.762 93.9215 185.48 93.9101C185.327 93.9169 185.175 93.8921 185.033 93.8371C184.891 93.7821 184.762 93.6981 184.654 93.5905C184.546 93.483 184.461 93.3541 184.406 93.2122C184.35 93.0703 184.325 92.9183 184.331 92.766C184.337 92.6137 184.375 92.4644 184.442 92.3275C184.509 92.1906 184.604 92.0691 184.72 91.9708C184.837 91.8724 184.972 91.7993 185.119 91.7562C185.265 91.713 185.418 91.7007 185.57 91.7201C185.719 91.7234 185.865 91.7576 186.001 91.8205C186.136 91.8833 186.256 91.9735 186.355 92.0852C186.454 92.197 186.528 92.328 186.574 92.47C186.619 92.6119 186.635 92.7618 186.62 92.9101Z" fill="#1A1B1E"/>
<path d="M194.999 101.72C194.993 101.863 194.959 102.004 194.899 102.134C194.839 102.264 194.754 102.38 194.648 102.477C194.543 102.575 194.419 102.65 194.285 102.699C194.15 102.748 194.007 102.771 193.864 102.765C193.721 102.759 193.581 102.725 193.451 102.665C193.321 102.604 193.204 102.519 193.107 102.414C193.01 102.308 192.934 102.185 192.885 102.05C192.836 101.916 192.813 101.773 192.819 101.63C192.825 101.487 192.859 101.346 192.919 101.216C192.98 101.086 193.065 100.969 193.17 100.872C193.276 100.775 193.399 100.7 193.534 100.651C193.668 100.601 193.811 100.579 193.954 100.585C194.097 100.591 194.238 100.625 194.368 100.685C194.498 100.745 194.615 100.831 194.712 100.936C194.809 101.041 194.884 101.165 194.934 101.299C194.983 101.434 195.005 101.577 194.999 101.72Z" fill="#1A1B1E"/>
<path d="M105.45 144C104.72 143.273 103.948 142.589 103.14 141.95C102.39 141.36 101.44 140.72 100.47 139.86C99.4047 138.931 98.5404 137.795 97.9302 136.52C96.8204 134.19 96.5416 131.55 97.1402 129.04C97.3192 128.291 97.5948 127.568 97.9602 126.89C98.2402 126.42 98.4002 126.17 98.4302 126.19C98.0549 127.145 97.7442 128.123 97.5002 129.12C97.0248 131.545 97.3403 134.058 98.4002 136.29C99.6002 138.95 101.93 140.41 103.4 141.66C104.25 142.276 104.951 143.076 105.45 144Z" fill="white"/>
<path d="M148.92 63.53C149.02 63.63 138.51 74.01 125.45 86.7C112.39 99.39 101.7 109.61 101.6 109.51C101.5 109.41 112 99 125.08 86.33C138.16 73.66 148.82 63.43 148.92 63.53Z" fill="white"/>
<path d="M83.9193 95.8701C83.9193 95.9301 83.3993 95.87 82.7293 95.42C81.8381 94.8278 81.2137 93.9106 80.9895 92.8643C80.7653 91.818 80.959 90.7255 81.5293 89.8201C81.9693 89.1301 82.4093 88.87 82.4493 88.92C82.4893 88.97 82.1693 89.33 81.8593 89.99C81.4473 90.8479 81.3211 91.8152 81.4993 92.7501C81.7254 93.6862 82.2523 94.5222 82.9993 95.13C83.5093 95.61 83.9993 95.7901 83.9193 95.8701Z" fill="white"/>
<path d="M139.459 43.6901C139.459 43.7501 138.889 43.6901 138.179 43.1801C137.721 42.8476 137.335 42.4249 137.045 41.9379C136.756 41.451 136.569 40.91 136.496 40.3482C136.423 39.7865 136.465 39.2157 136.62 38.6709C136.776 38.1261 137.041 37.6188 137.399 37.1801C137.959 36.5101 138.479 36.3001 138.509 36.3501C138.539 36.4001 138.139 36.7301 137.699 37.3501C137.111 38.1993 136.858 39.2365 136.989 40.2614C137.12 41.2863 137.626 42.2263 138.409 42.9001C138.999 43.4201 139.489 43.6101 139.459 43.6901Z" fill="white"/>
<path d="M177.32 51.7099C175.924 51.8944 174.548 52.2091 173.21 52.6499C171.938 53.248 170.723 53.9609 169.58 54.7799C170.394 53.5476 171.598 52.6247 173 52.1599C174.35 51.5336 175.87 51.3753 177.32 51.7099Z" fill="white"/>
<path d="M135.811 158.46C133.198 156.138 130.705 153.685 128.341 151.11C124.341 146.95 121.151 143.5 121.261 143.4C121.371 143.3 124.701 146.59 128.721 150.75C132.741 154.91 135.911 158.36 135.811 158.46Z" fill="white"/>
<path d="M251.229 398.62H208.439V459.27H251.229V398.62Z" fill="#FE464B"/>
<path d="M208.771 458.23H250.911C252.422 458.23 253.872 458.831 254.941 459.899C256.01 460.968 256.611 462.418 256.611 463.93V464.47H203.061V463.93C203.061 463.181 203.208 462.439 203.495 461.746C203.782 461.054 204.203 460.425 204.734 459.896C205.264 459.367 205.893 458.947 206.586 458.661C207.279 458.375 208.021 458.229 208.771 458.23Z" fill="#1A1B1E"/>
<path d="M263.17 464.47H198.18V474.35H263.17V464.47Z" fill="#FE464B"/>
<path d="M251.001 452.61C251.001 452.75 241.521 452.87 229.821 452.87C218.121 452.87 208.631 452.75 208.631 452.61C208.631 452.47 218.111 452.35 229.821 452.35C241.531 452.35 251.001 452.46 251.001 452.61Z" fill="#1A1B1E"/>
<path d="M251.001 445.39C251.001 445.54 241.521 445.65 229.821 445.65C218.121 445.65 208.631 445.54 208.631 445.39C208.631 445.24 218.111 445.13 229.821 445.13C241.531 445.13 251.001 445.25 251.001 445.39Z" fill="#1A1B1E"/>
<path d="M251.001 438.31C251.001 438.45 241.521 438.57 229.821 438.57C218.121 438.57 208.631 438.45 208.631 438.31C208.631 438.17 218.111 438.05 229.821 438.05C241.531 438.05 251.001 438.17 251.001 438.31Z" fill="#1A1B1E"/>
<path d="M251.001 431.1C251.001 431.24 241.521 431.36 229.821 431.36C218.121 431.36 208.631 431.24 208.631 431.1C208.631 430.96 218.111 430.84 229.821 430.84C241.531 430.84 251.001 431 251.001 431.1Z" fill="#1A1B1E"/>
<path d="M251.001 424C251.001 424.15 241.521 424.26 229.821 424.26C218.121 424.26 208.631 424.15 208.631 424C208.631 423.85 218.111 423.74 229.821 423.74C241.531 423.74 251.001 423.87 251.001 424Z" fill="#1A1B1E"/>
<path d="M251.001 416.8C251.001 416.95 241.521 417.06 229.821 417.06C218.121 417.06 208.631 416.95 208.631 416.8C208.631 416.65 218.111 416.54 229.821 416.54C241.531 416.54 251.001 416.66 251.001 416.8Z" fill="#1A1B1E"/>
<path d="M251.001 409.72C251.001 409.86 241.521 409.98 229.821 409.98C218.121 409.98 208.631 409.86 208.631 409.72C208.631 409.58 218.111 409.46 229.821 409.46C241.531 409.46 251.001 409.57 251.001 409.72Z" fill="#1A1B1E"/>
<path d="M251.001 402.51C251.001 402.65 241.521 402.77 229.821 402.77C218.121 402.77 208.631 402.65 208.631 402.51C208.631 402.37 218.111 402.25 229.821 402.25C241.531 402.25 251.001 402.36 251.001 402.51Z" fill="#1A1B1E"/>
<g opacity="0.3">
<path d="M208.441 407.07L251.021 405.89V399.71H208.061L208.441 407.07Z" fill="#1A1B1E"/>
</g>
<path d="M318.251 398.62H275.461V459.27H318.251V398.62Z" fill="#FE464B"/>
<path d="M275.79 458.23H317.93C319.442 458.23 320.892 458.831 321.961 459.899C323.03 460.968 323.63 462.418 323.63 463.93V464.47H270.08V463.93C270.08 463.181 270.228 462.439 270.515 461.746C270.802 461.054 271.223 460.425 271.753 459.896C272.283 459.367 272.913 458.947 273.606 458.661C274.298 458.375 275.041 458.229 275.79 458.23Z" fill="#1A1B1E"/>
<path d="M330.191 464.47H265.201V474.35H330.191V464.47Z" fill="#FE464B"/>
<path d="M318.001 452.61C318.001 452.75 308.521 452.87 296.821 452.87C285.121 452.87 275.631 452.75 275.631 452.61C275.631 452.47 285.111 452.35 296.821 452.35C308.531 452.35 318.001 452.46 318.001 452.61Z" fill="#1A1B1E"/>
<path d="M318.001 445.39C318.001 445.54 308.521 445.65 296.821 445.65C285.121 445.65 275.631 445.54 275.631 445.39C275.631 445.24 285.111 445.13 296.821 445.13C308.531 445.13 318.001 445.25 318.001 445.39Z" fill="#1A1B1E"/>
<path d="M318.001 438.31C318.001 438.45 308.521 438.57 296.821 438.57C285.121 438.57 275.631 438.45 275.631 438.31C275.631 438.17 285.111 438.05 296.821 438.05C308.531 438.05 318.001 438.17 318.001 438.31Z" fill="#1A1B1E"/>
<path d="M318.001 431.1C318.001 431.24 308.521 431.36 296.821 431.36C285.121 431.36 275.631 431.24 275.631 431.1C275.631 430.96 285.111 430.84 296.821 430.84C308.531 430.84 318.001 431 318.001 431.1Z" fill="#1A1B1E"/>
<path d="M318.001 424C318.001 424.15 308.521 424.26 296.821 424.26C285.121 424.26 275.631 424.15 275.631 424C275.631 423.85 285.111 423.74 296.821 423.74C308.531 423.74 318.001 423.87 318.001 424Z" fill="#1A1B1E"/>
<path d="M318.001 416.8C318.001 416.95 308.521 417.06 296.821 417.06C285.121 417.06 275.631 416.95 275.631 416.8C275.631 416.65 285.111 416.54 296.821 416.54C308.531 416.54 318.001 416.66 318.001 416.8Z" fill="#1A1B1E"/>
<path d="M318.001 409.72C318.001 409.86 308.521 409.98 296.821 409.98C285.121 409.98 275.631 409.86 275.631 409.72C275.631 409.58 285.111 409.46 296.821 409.46C308.531 409.46 318.001 409.57 318.001 409.72Z" fill="#1A1B1E"/>
<path d="M318.001 402.51C318.001 402.65 308.521 402.77 296.821 402.77C285.121 402.77 275.631 402.65 275.631 402.51C275.631 402.37 285.111 402.25 296.821 402.25C308.531 402.25 318.001 402.36 318.001 402.51Z" fill="#1A1B1E"/>
<g opacity="0.3">
<path d="M275.46 407.07L318.04 405.89V399.71H275.08L275.46 407.07Z" fill="#1A1B1E"/>
</g>
<path d="M320.342 233.114L321.399 228.926C321.518 228.455 321.819 228.051 322.236 227.803C322.652 227.554 323.151 227.481 323.621 227.6L340.763 231.928L338.805 239.684L321.673 235.359C321.202 235.24 320.798 234.939 320.549 234.522C320.301 234.105 320.228 233.607 320.346 233.136L320.342 233.114Z" fill="#FE464B"/>
<g opacity="0.3">
<path d="M320.342 233.114L321.399 228.926C321.518 228.455 321.819 228.051 322.236 227.803C322.652 227.554 323.151 227.481 323.621 227.6L340.763 231.928L338.805 239.684L321.673 235.359C321.202 235.24 320.798 234.939 320.549 234.522C320.301 234.105 320.228 233.607 320.346 233.136L320.342 233.114Z" fill="#1A1B1E"/>
</g>
<path d="M316.609 247.941L318.063 242.182C318.258 241.411 318.751 240.748 319.434 240.341C320.118 239.933 320.935 239.813 321.706 240.008L337.675 244.04L334.738 255.675L318.808 251.653C318.416 251.559 318.047 251.388 317.723 251.15C317.399 250.911 317.127 250.609 316.921 250.263C316.716 249.917 316.583 249.533 316.529 249.134C316.476 248.735 316.503 248.33 316.609 247.941Z" fill="#FE464B"/>
<path d="M333.308 230.041L328.316 249.811L335.782 251.696L340.774 231.926L333.308 230.041Z" fill="#FE464B"/>
<path d="M345.68 310.42C345.68 310.42 377.63 309.12 374.99 278.5C372.99 255.05 338.08 254.84 338.08 254.84L347 235.35C347 235.35 387.76 238.9 395.81 268.58C404.9 302.12 383.88 329.47 345.68 328.83V310.42Z" fill="#FE464B"/>
<path d="M349.616 232.597L337.469 229.913L331.497 256.941L343.644 259.625L349.616 232.597Z" fill="#1A1B1E"/>
<path d="M344.159 256.78C344.159 257.01 341.399 256.54 338.109 255.78C336.096 255.404 334.118 254.856 332.199 254.14C334.226 254.354 336.233 254.732 338.199 255.27C339.849 255.65 341.339 256.01 342.409 256.27L343.679 256.61C343.845 256.647 344.007 256.704 344.159 256.78Z" fill="#455A64"/>
<path d="M345.229 251.91C345.229 252.14 342.479 251.67 339.179 250.91C337.168 250.541 335.193 249.992 333.279 249.27C335.306 249.486 337.313 249.864 339.279 250.4C340.929 250.78 342.409 251.14 343.489 251.4L344.749 251.74C344.917 251.772 345.079 251.83 345.229 251.91Z" fill="#455A64"/>
<path d="M346.519 247C346.519 247.24 343.759 246.77 340.519 246C338.506 245.624 336.529 245.076 334.609 244.36C336.636 244.575 338.643 244.953 340.609 245.49C342.249 245.86 343.739 246.22 344.809 246.49L346.079 246.82L346.519 247Z" fill="#455A64"/>
<path d="M347.381 242.18C347.381 242.41 344.631 241.94 341.381 241.18C339.366 240.81 337.388 240.261 335.471 239.54C337.498 239.755 339.504 240.133 341.471 240.67C343.121 241.05 344.601 241.41 345.681 241.67L346.941 242.01C347.095 242.046 347.243 242.103 347.381 242.18Z" fill="#455A64"/>
<path d="M348.631 237.62C348.631 237.86 345.881 237.39 342.631 236.62C340.617 236.244 338.64 235.696 336.721 234.98C338.748 235.195 340.754 235.573 342.721 236.11C344.371 236.48 345.861 236.84 346.931 237.11L348.201 237.44C348.348 237.491 348.491 237.551 348.631 237.62Z" fill="#455A64"/>
<path d="M352.66 328.63C352.356 327.753 352.138 326.849 352.01 325.93C351.69 324.25 351.31 321.93 351.01 319.32C350.71 316.71 350.56 314.32 350.5 312.65C350.406 311.726 350.406 310.794 350.5 309.87C350.701 310.774 350.814 311.694 350.84 312.62C350.99 314.32 351.2 316.67 351.5 319.26C351.8 321.85 352.11 324.18 352.34 325.87C352.528 326.779 352.635 327.702 352.66 328.63Z" fill="#1A1B1E"/>
<path d="M362.59 327.08C361.45 323.954 360.479 320.77 359.68 317.54C358.707 314.354 357.902 311.12 357.27 307.85C358.405 310.981 359.376 314.168 360.18 317.4C361.147 320.583 361.952 323.814 362.59 327.08Z" fill="#1A1B1E"/>
<path d="M375.941 322.3C375.297 321.466 374.725 320.58 374.231 319.65C373.151 317.85 371.821 315.65 370.341 313.13L366.421 306.63C365.837 305.754 365.322 304.835 364.881 303.88C365.573 304.672 366.192 305.526 366.731 306.43C367.811 308.05 369.261 310.32 370.731 312.86C372.201 315.4 373.581 317.75 374.501 319.47C375.06 320.371 375.541 321.318 375.941 322.3Z" fill="#1A1B1E"/>
<path d="M387.17 313.3C387.07 313.41 383.1 310.3 378.29 306.3C373.48 302.3 369.65 298.98 369.74 298.87C369.83 298.76 373.81 301.87 378.62 305.87C383.43 309.87 387.26 313.18 387.17 313.3Z" fill="#1A1B1E"/>
<path d="M394.4 301C394.34 301.14 389.64 299.3 383.89 296.91C378.14 294.52 373.53 292.47 373.59 292.34C373.65 292.21 378.35 294.04 384.09 296.43C389.83 298.82 394.45 300.82 394.4 301Z" fill="#1A1B1E"/>
<path d="M397.941 287.63C396.811 287.602 395.685 287.495 394.571 287.31L386.491 286.31L378.401 285.31C377.275 285.231 376.158 285.06 375.061 284.8C376.189 284.755 377.32 284.802 378.441 284.94C380.521 285.1 383.391 285.38 386.551 285.77C389.711 286.16 392.551 286.57 394.631 286.92C395.752 287.063 396.859 287.3 397.941 287.63Z" fill="#1A1B1E"/>
<path d="M396.29 273.81C395.323 274.233 394.318 274.568 393.29 274.81C391.4 275.36 388.76 276.04 385.82 276.66C382.88 277.28 380.19 277.72 378.24 277.98C377.194 278.167 376.133 278.258 375.07 278.25C376.094 277.964 377.137 277.75 378.19 277.61C380.12 277.26 382.78 276.77 385.71 276.15C388.64 275.53 391.28 274.91 393.19 274.45C394.207 274.163 395.243 273.949 396.29 273.81Z" fill="#1A1B1E"/>
<path d="M392.269 260.55C392.329 260.68 388.05 262.97 382.7 265.67C377.35 268.37 372.96 270.45 372.89 270.32C372.82 270.19 377.109 267.9 382.459 265.2C387.809 262.5 392.199 260.43 392.269 260.55Z" fill="#1A1B1E"/>
<path d="M384.001 249.8C384.091 249.91 380.531 253.13 376.001 257C371.471 260.87 367.801 263.91 367.711 263.8C367.621 263.69 371.171 260.47 375.711 256.6C380.251 252.73 383.941 249.69 384.001 249.8Z" fill="#1A1B1E"/>
<path d="M370.131 241.82C370.251 241.89 368.001 245.82 365.131 250.65C363.456 253.601 361.626 256.461 359.651 259.22C359.531 259.15 361.781 255.22 364.651 250.38C366.331 247.436 368.16 244.579 370.131 241.82Z" fill="#1A1B1E"/>
<path d="M357.681 236.82C356.848 240.155 355.846 243.446 354.681 246.68C352.901 252.08 351.341 256.42 351.211 256.38C352.038 253.04 353.039 249.745 354.211 246.51C355.2 243.223 356.358 239.988 357.681 236.82Z" fill="#1A1B1E"/>
<g opacity="0.3">
<path d="M372.68 294.18C370.31 299.36 366.217 303.558 361.1 306.06C358.613 307.379 355.982 308.406 353.26 309.12C359.37 312.38 367.35 310.43 372.69 306.02C378.03 301.61 380.85 294.61 381.04 287.68C381.198 284.39 380.606 281.107 379.31 278.08C377.95 275.08 375.7 271.96 372.73 270.58C373.612 272.226 374.239 273.996 374.59 275.83C375.851 281.998 375.184 288.404 372.68 294.18Z" fill="#1A1B1E"/>
</g>
<path d="M137.83 348.12C138.195 348.46 138.53 348.832 138.83 349.23C139.45 349.96 140.29 351.05 141.29 352.44C143.853 356.076 146.067 359.946 147.9 364C149.736 368.061 151.173 372.291 152.19 376.63C152.58 378.29 152.84 379.63 152.98 380.63C153.076 381.118 153.133 381.613 153.15 382.11C152.979 381.643 152.855 381.161 152.78 380.67C152.58 379.74 152.26 378.4 151.84 376.76C150.71 372.478 149.235 368.294 147.43 364.25C145.607 360.214 143.456 356.335 141 352.65C140.05 351.24 139.26 350.12 138.69 349.35C138.363 348.969 138.075 348.557 137.83 348.12Z" fill="#1A1B1E"/>
<path d="M133.58 344.58C133.68 344.47 134.15 344.73 134.64 345.17C135.13 345.61 135.44 346.04 135.35 346.17C135.26 346.3 134.78 346.02 134.29 345.58C133.8 345.14 133.49 344.68 133.58 344.58Z" fill="#1A1B1E"/>
<path d="M134.56 341.64C134.68 341.57 135.17 342.16 135.66 342.98C136.15 343.8 136.44 344.51 136.32 344.58C136.2 344.65 135.7 344.06 135.21 343.24C134.72 342.42 134.43 341.71 134.56 341.64Z" fill="#1A1B1E"/>
<path d="M153.061 382.72C153.09 382.45 153.14 382.182 153.211 381.92C153.351 381.353 153.531 380.593 153.751 379.64C154.221 377.64 154.891 374.8 155.661 371.25C157.201 364.15 159.071 354.25 160.441 343.25C161.181 337.77 161.441 332.45 162.721 327.76C163.303 325.538 164.206 323.412 165.401 321.45C168.073 317.272 172.284 314.316 177.121 313.22C177.884 313.043 178.659 312.926 179.441 312.87C179.713 312.845 179.988 312.845 180.261 312.87C179.994 312.928 179.723 312.968 179.451 312.99C178.68 313.095 177.915 313.242 177.161 313.43C174.394 314.148 171.82 315.465 169.621 317.29C168.113 318.544 166.813 320.029 165.771 321.69C164.61 323.626 163.737 325.722 163.181 327.91C161.941 332.53 161.691 337.84 160.961 343.34C159.581 354.34 157.651 364.23 156.021 371.34C155.201 374.89 154.471 377.74 153.951 379.7C153.684 380.64 153.474 381.39 153.321 381.95C153.255 382.213 153.168 382.471 153.061 382.72Z" fill="#455A64"/>
<path d="M154.25 303.42C154.92 304.774 155.779 306.027 156.8 307.14C159.409 309.704 162.783 311.347 166.41 311.82C170.052 312.218 173.734 312.063 177.33 311.36L180.62 310.78C181.021 310.689 181.429 310.636 181.84 310.62C181.462 310.786 181.066 310.907 180.66 310.98C179.89 311.17 178.78 311.44 177.39 311.72C173.784 312.54 170.065 312.746 166.39 312.33C162.651 311.853 159.189 310.11 156.58 307.39C155.81 306.558 155.175 305.61 154.7 304.58C154.49 304.219 154.339 303.828 154.25 303.42Z" fill="#1A1B1E"/>
<path d="M150.45 300.26C150.55 300.16 151.03 300.47 151.51 300.96C151.99 301.45 152.31 301.96 152.21 302.02C152.11 302.08 151.63 301.81 151.15 301.33C150.67 300.85 150.35 300.36 150.45 300.26Z" fill="#1A1B1E"/>
<path d="M151.581 298.52C151.711 298.44 152.161 298.95 152.581 299.65C153.001 300.35 153.271 300.99 153.141 301.06C153.011 301.13 152.571 300.63 152.141 299.93C151.711 299.23 151.461 298.59 151.581 298.52Z" fill="#1A1B1E"/>
<path d="M154.71 298.29C154.86 298.29 154.88 298.9 154.77 299.61C154.66 300.32 154.45 300.86 154.31 300.84C154.17 300.82 154.14 300.23 154.25 299.52C154.36 298.81 154.57 298.27 154.71 298.29Z" fill="#1A1B1E"/>
<path d="M164.13 337.34C164.154 337.934 164.127 338.53 164.05 339.12C163.96 340.27 163.79 341.92 163.55 343.95C163.08 348.03 162.25 353.63 161 359.76C159.75 365.89 158.31 371.38 157.16 375.32C156.58 377.32 156.08 378.87 155.72 379.95C155.552 380.52 155.345 381.078 155.1 381.62C155.201 381.034 155.341 380.456 155.52 379.89C155.85 378.71 156.28 377.13 156.8 375.22C157.86 371.22 159.24 365.78 160.49 359.66C161.74 353.54 162.62 347.96 163.19 343.91C163.46 341.91 163.68 340.32 163.84 339.1C163.901 338.508 163.998 337.92 164.13 337.34Z" fill="#455A64"/>
<path d="M181.86 314.19C181.86 314.29 180.43 314.3 178.22 314.88C175.337 315.626 172.683 317.073 170.495 319.094C168.307 321.114 166.653 323.645 165.68 326.46C164.92 328.61 164.8 330.05 164.68 330.03C164.62 329.699 164.62 329.36 164.68 329.03C164.791 328.121 164.985 327.224 165.26 326.35C166.164 323.427 167.823 320.795 170.071 318.719C172.318 316.643 175.074 315.198 178.06 314.53C178.954 314.326 179.864 314.202 180.78 314.16C181.139 314.114 181.504 314.124 181.86 314.19Z" fill="#455A64"/>
<path d="M157.801 382.51C157.783 382.26 157.783 382.01 157.801 381.76C157.801 381.27 157.921 380.54 158.051 379.61C158.327 376.954 159.133 374.38 160.421 372.04C161.261 370.57 162.421 369.13 163.361 367.43C163.834 366.56 164.172 365.622 164.361 364.65C164.533 363.605 164.56 362.542 164.441 361.49C164.281 359.32 163.651 356.98 164.141 354.49C164.416 353.255 164.963 352.097 165.741 351.1C166.471 350.1 167.321 349.1 167.991 348.1C168.684 347.094 169.072 345.911 169.111 344.69C169.096 343.485 168.935 342.286 168.631 341.12C168.048 338.835 167.852 336.469 168.051 334.12C168.337 330.801 169.452 327.607 171.293 324.83C173.135 322.054 175.644 319.785 178.591 318.23C179.238 317.895 179.906 317.601 180.591 317.35C180.823 317.252 181.064 317.175 181.311 317.12C181.095 317.248 180.867 317.356 180.631 317.44C180.181 317.65 179.521 317.95 178.711 318.44C176.419 319.735 174.399 321.46 172.761 323.52C170.33 326.581 168.865 330.294 168.551 334.19C168.373 336.481 168.576 338.785 169.151 341.01C169.467 342.215 169.635 343.454 169.651 344.7C169.609 346.017 169.189 347.295 168.441 348.38C167.741 349.49 166.891 350.43 166.181 351.43C165.437 352.363 164.918 353.455 164.661 354.62C164.191 356.93 164.781 359.24 164.941 361.46C165.055 362.556 165.018 363.663 164.831 364.75C164.611 365.767 164.236 366.745 163.721 367.65C162.721 369.39 161.561 370.81 160.721 372.24C159.432 374.534 158.59 377.052 158.241 379.66C158.091 380.54 157.981 381.25 157.891 381.78C157.884 382.026 157.854 382.27 157.801 382.51Z" fill="#455A64"/>
<path d="M183 324.55C182.168 324.558 181.341 324.675 180.54 324.9C178.389 325.633 176.561 327.094 175.37 329.03C173.77 331.42 173.06 334.85 172.68 338.63C172.297 342.781 171.699 346.91 170.89 351C169.303 358.38 167.299 365.665 164.89 372.82C163.99 375.57 163.24 377.82 162.7 379.31C162.45 380.03 162.24 380.61 162.08 381.06C162.02 381.27 161.933 381.472 161.82 381.66C161.862 381.435 161.923 381.215 162 381C162.13 380.54 162.31 379.95 162.53 379.22L164.53 372.68C166.22 367.15 168.53 359.5 170.33 350.86C171.21 346.55 171.79 342.4 172.19 338.59C172.59 334.78 173.36 331.29 175.06 328.85C176.313 326.869 178.237 325.407 180.48 324.73C181.085 324.56 181.712 324.483 182.34 324.5C182.561 324.499 182.782 324.516 183 324.55Z" fill="#A1A5C1"/>
<path d="M146.291 378.93H165.661C165.661 378.93 153.911 472.22 89.0508 471.93L89.8808 453.74C89.8808 453.74 134.001 451 146.291 378.93Z" fill="#FE464B"/>
<path d="M63.0686 454.301L63.1444 450.002C63.1529 449.517 63.3539 449.055 63.7031 448.718C64.0522 448.381 64.521 448.196 65.0063 448.205L82.6336 448.515L82.4926 456.514L64.8653 456.203C64.6216 456.199 64.3812 456.146 64.1583 456.048C63.9353 455.949 63.7342 455.808 63.5668 455.63C63.3995 455.453 63.2692 455.244 63.1836 455.016C63.0981 454.788 63.0589 454.545 63.0686 454.301Z" fill="#FE464B"/>
<g opacity="0.3">
<path d="M63.0686 454.301L63.1444 450.002C63.1529 449.517 63.3539 449.055 63.7031 448.718C64.0522 448.381 64.521 448.196 65.0063 448.205L82.6336 448.515L82.4926 456.514L64.8653 456.203C64.6216 456.199 64.3812 456.146 64.1583 456.048C63.9353 455.949 63.7342 455.808 63.5668 455.63C63.3995 455.453 63.2692 455.244 63.1836 455.016C63.0981 454.788 63.0589 454.545 63.0686 454.301Z" fill="#1A1B1E"/>
</g>
<path d="M63.013 470.67L63.1318 464.73C63.1477 463.934 63.4791 463.177 64.0529 462.626C64.6268 462.075 65.3961 461.774 66.1918 461.79L82.6618 462.119L82.4218 474.119L66.0118 473.791C65.6075 473.791 65.2074 473.71 64.8355 473.551C64.4636 473.393 64.1275 473.161 63.8474 472.869C63.5674 472.578 63.3491 472.233 63.2057 471.855C63.0623 471.477 62.9967 471.074 63.013 470.67Z" fill="#FE464B"/>
<path d="M74.9864 448.36L74.627 468.746L82.3258 468.882L82.6852 448.495L74.9864 448.36Z" fill="#FE464B"/>
<path d="M91.4469 447.127L79.0078 447.279L79.346 474.957L91.7851 474.805L91.4469 447.127Z" fill="#1A1B1E"/>
<path d="M91.6404 471.9C91.6404 472.13 88.9004 472.3 85.5304 472.32C83.4834 472.416 81.4319 472.329 79.4004 472.06C81.43 471.808 83.4765 471.718 85.5204 471.79C87.2104 471.79 88.7404 471.79 89.8504 471.79H91.1604C91.3237 471.81 91.4845 471.847 91.6404 471.9Z" fill="#455A64"/>
<path d="M91.5798 466.92C91.5798 467.15 88.8398 467.31 85.4698 467.33C83.4231 467.426 81.3719 467.342 79.3398 467.08C81.3695 466.828 83.4159 466.738 85.4598 466.81C87.1498 466.81 88.6798 466.81 89.7898 466.81H91.0998C91.2642 466.824 91.4258 466.861 91.5798 466.92Z" fill="#455A64"/>
<path d="M91.7202 461.89C91.7202 462.12 88.9902 462.28 85.6102 462.3C83.5669 462.396 81.519 462.312 79.4902 462.05C81.5199 461.798 83.5663 461.708 85.6102 461.78C87.3002 461.78 88.8302 461.78 89.9302 461.78H91.2402C91.4042 461.797 91.5654 461.834 91.7202 461.89Z" fill="#455A64"/>
<path d="M91.4607 457C91.4607 457.23 88.7207 457.4 85.3407 457.42C83.297 457.516 81.2489 457.429 79.2207 457.16C81.2504 456.908 83.2968 456.818 85.3407 456.89C87.0307 456.89 88.5607 456.89 89.6707 456.89H90.9807C91.1439 456.911 91.3046 456.948 91.4607 457Z" fill="#455A64"/>
<path d="M91.6404 452.23C91.6404 452.46 88.9004 452.63 85.5304 452.65C83.4837 452.74 81.433 452.657 79.4004 452.4C81.429 452.136 83.4764 452.046 85.5204 452.13C87.2104 452.13 88.7404 452.13 89.8504 452.13H91.1604C91.3233 452.147 91.4842 452.181 91.6404 452.23Z" fill="#455A64"/>
<path d="M98.4402 471C98.4402 471 98.4402 471.16 98.5002 471.5V472.08L98.3302 471.52C97.5222 468.505 96.8845 465.447 96.4202 462.36C95.9902 459.67 95.7002 457.23 95.5302 455.45C95.3917 454.493 95.3481 453.525 95.4002 452.56C95.6395 453.496 95.8066 454.449 95.9002 455.41C96.1502 457.17 96.5002 459.6 96.9002 462.28C97.5902 466.62 98.3002 470.28 98.4502 471.48H98.2902C98.3802 471.14 98.4102 471 98.4402 471Z" fill="#1A1B1E"/>
<path d="M107.639 469.21C106.398 466.13 105.324 462.985 104.419 459.79C103.339 456.651 102.428 453.456 101.689 450.22C102.93 453.3 104.005 456.445 104.909 459.64C105.99 462.779 106.901 465.973 107.639 469.21Z" fill="#1A1B1E"/>
<path d="M118.51 464.62C116.761 461.685 115.166 458.661 113.73 455.56C111.23 450.48 109.3 446.32 109.43 446.26C111.174 449.2 112.766 452.227 114.2 455.33C116.71 460.4 118.63 464.56 118.51 464.62Z" fill="#1A1B1E"/>
<path d="M128.139 457.42C125.937 454.898 123.874 452.257 121.959 449.51C119.897 446.867 117.972 444.12 116.189 441.28C118.389 443.811 120.455 446.454 122.379 449.2C125.669 453.66 128.249 457.34 128.139 457.42Z" fill="#1A1B1E"/>
<path d="M136.549 449.44C134.03 447.286 131.626 444.999 129.349 442.59C126.953 440.302 124.677 437.892 122.529 435.37C125.044 437.526 127.444 439.812 129.719 442.22C132.117 444.509 134.397 446.919 136.549 449.44Z" fill="#1A1B1E"/>
<path d="M143.48 439.86C142.602 439.496 141.762 439.047 140.97 438.52L135.05 435.06L129.14 431.61C128.292 431.175 127.485 430.663 126.73 430.08C127.627 430.401 128.491 430.806 129.31 431.29C130.87 432.1 133 433.29 135.31 434.61C137.62 435.93 139.68 437.25 141.15 438.21C141.976 438.688 142.755 439.24 143.48 439.86Z" fill="#1A1B1E"/>
<path d="M148.171 430.16C147.327 429.876 146.514 429.511 145.741 429.07C144.271 428.35 142.231 427.36 139.971 426.31C137.711 425.26 135.631 424.36 134.131 423.7C133.296 423.39 132.49 423.009 131.721 422.56C132.595 422.731 133.447 422.999 134.261 423.36C135.801 423.93 137.911 424.79 140.191 425.84C142.471 426.89 144.481 427.94 145.911 428.74C146.71 429.136 147.467 429.612 148.171 430.16Z" fill="#1A1B1E"/>
<path d="M153.771 420.78C152.834 420.72 151.906 420.566 151.001 420.32C149.301 419.95 147.001 419.38 144.431 418.64C141.861 417.9 139.611 417.13 137.981 416.53C137.083 416.253 136.216 415.888 135.391 415.44C136.314 415.608 137.22 415.855 138.101 416.18C139.751 416.69 142.041 417.4 144.571 418.18C147.101 418.96 149.411 419.54 151.081 420C151.998 420.181 152.898 420.442 153.771 420.78Z" fill="#1A1B1E"/>
<path d="M156.76 411.32C153.662 411.184 150.574 410.877 147.51 410.4C144.426 410.092 141.362 409.615 138.33 408.97C141.428 409.106 144.516 409.413 147.58 409.89C150.665 410.186 153.731 410.664 156.76 411.32Z" fill="#1A1B1E"/>
<path d="M159.94 402.07C159.043 402.139 158.141 402.112 157.25 401.99C155.59 401.87 153.3 401.67 150.78 401.42C148.26 401.17 145.97 400.91 144.33 400.69C143.431 400.627 142.54 400.476 141.67 400.24C142.571 400.184 143.475 400.215 144.37 400.33C146.03 400.45 148.31 400.65 150.83 400.9C153.35 401.15 155.63 401.41 157.28 401.62C158.178 401.689 159.069 401.839 159.94 402.07Z" fill="#1A1B1E"/>
<path d="M162.39 393.11C159.188 393.465 155.971 393.652 152.75 393.67C149.535 393.85 146.314 393.85 143.1 393.67C146.301 393.315 149.519 393.128 152.74 393.11C155.954 392.936 159.175 392.936 162.39 393.11Z" fill="#1A1B1E"/>
<path d="M163.4 385.79C162.536 386.016 161.651 386.153 160.76 386.2C159.12 386.37 156.85 386.51 154.34 386.52C151.83 386.53 149.55 386.41 147.91 386.26C147.019 386.225 146.134 386.098 145.27 385.88C146.154 385.801 147.045 385.801 147.93 385.88C149.57 385.94 151.83 386.01 154.33 385.99C156.83 385.97 159.1 385.89 160.73 385.82C161.617 385.731 162.51 385.72 163.4 385.79Z" fill="#1A1B1E"/>
<path d="M147.131 381.7C147.145 381.783 147.145 381.867 147.131 381.95V382.69C147.131 383.34 147.131 384.3 147.061 385.53C146.897 389.018 146.485 392.49 145.831 395.92C144.877 401.015 143.42 406.003 141.481 410.81C136.776 422.659 129.22 433.163 119.481 441.39C115.528 444.746 111.254 447.703 106.721 450.22C103.675 451.928 100.51 453.415 97.2509 454.67C96.1109 455.13 95.1909 455.41 94.5809 455.67L93.8809 455.9C93.8013 455.933 93.7169 455.954 93.6309 455.96C93.7001 455.909 93.7781 455.872 93.8609 455.85L94.5409 455.57C95.1409 455.32 96.0509 455.01 97.1809 454.57C100.395 453.243 103.521 451.713 106.541 449.99C116.544 444.325 125.207 436.568 131.937 427.248C138.668 417.929 143.308 407.267 145.541 395.99C146.224 392.58 146.688 389.129 146.931 385.66C147.041 384.44 147.041 383.48 147.091 382.83C147.091 382.53 147.091 382.29 147.091 382.09C147.074 381.959 147.088 381.825 147.131 381.7Z" fill="white"/>
<path d="M236.921 273C236.921 273 226.201 258.49 201.391 260.64C201.391 260.64 226.641 241.24 211.781 221.31C211.781 221.31 243.671 230.73 244.031 190.87C244.031 190.87 249.831 227.87 279.911 217.33C279.911 217.33 282.051 246.69 302.861 241.26C292.791 251.16 283.001 259.89 285.001 272.55" fill="#FE464B"/>
<g opacity="0.8">
<path d="M236.921 273C236.921 273 226.201 258.49 201.391 260.64C201.391 260.64 226.641 241.24 211.781 221.31C211.781 221.31 243.671 230.73 244.031 190.87C244.031 190.87 249.831 227.87 279.911 217.33C279.911 217.33 282.051 246.69 302.861 241.26C292.791 251.16 283.001 259.89 285.001 272.55" fill="white"/>
</g>
<path d="M236.92 273C236.92 273 236.67 256.08 216.74 257.81C216.74 257.81 235.27 247.12 223.34 231.11C223.34 231.11 248.96 238.68 249.25 206.66C249.25 206.66 253.9 236.35 278.07 227.91C278.07 227.91 275.18 249.45 291.91 245.08C283.82 253.08 280.54 262.08 282.14 272.28" fill="#FE464B"/>
<g opacity="0.6">
<path d="M236.92 273C236.92 273 236.67 256.08 216.74 257.81C216.74 257.81 235.27 247.12 223.34 231.11C223.34 231.11 248.96 238.68 249.25 206.66C249.25 206.66 253.9 236.35 278.07 227.91C278.07 227.91 275.18 249.45 291.91 245.08C283.82 253.08 280.54 262.08 282.14 272.28" fill="white"/>
</g>
<path d="M269.651 160.76C269.585 160.975 269.505 161.186 269.411 161.39L268.621 163.15C268.271 163.91 267.851 164.84 267.401 165.95C266.951 167.06 266.401 168.28 265.891 169.69C265.381 171.1 264.761 172.62 264.211 174.29C263.661 175.96 263.091 177.75 262.511 179.64C261.421 183.44 260.381 187.64 259.561 192.16C258.741 196.68 258.261 200.98 257.961 204.92C257.841 206.92 257.711 208.77 257.691 210.53C257.671 212.29 257.641 213.93 257.691 215.42C257.741 216.91 257.771 218.27 257.811 219.42C257.851 220.57 257.911 221.63 257.981 222.42C258.051 223.21 258.071 223.85 258.101 224.34C258.127 224.566 258.127 224.794 258.101 225.02C258.05 224.799 258.013 224.575 257.991 224.35C257.944 223.857 257.874 223.217 257.781 222.43C257.681 221.6 257.581 220.58 257.521 219.43C257.461 218.28 257.341 216.88 257.331 215.43C257.321 213.98 257.251 212.29 257.331 210.52C257.411 208.75 257.451 206.87 257.551 204.89C258.101 196.28 259.635 187.762 262.121 179.5C262.711 177.61 263.261 175.8 263.871 174.15C264.481 172.5 265.051 170.95 265.611 169.56C266.171 168.17 266.731 166.92 267.211 165.83C267.691 164.74 268.131 163.83 268.511 163.06L269.381 161.34C269.45 161.138 269.54 160.943 269.651 160.76Z" fill="#FE464B"/>
<path d="M198.07 153.89C196.247 152.17 194.234 150.664 192.07 149.4C189.819 148.297 187.451 147.451 185.01 146.88C185.76 146.829 186.514 146.904 187.24 147.1C189.014 147.462 190.725 148.082 192.32 148.94C193.913 149.797 195.374 150.878 196.66 152.15C197.226 152.645 197.703 153.233 198.07 153.89Z" fill="#FE464B"/>
<path d="M205.75 197.42C205.906 197.535 206.047 197.67 206.17 197.82L207.28 199.01C208.28 200.01 209.59 201.6 211.19 203.57C212.79 205.54 214.62 207.94 216.55 210.68C218.48 213.42 220.47 216.54 222.41 219.88C224.35 223.22 226.03 226.52 227.47 229.55C228.91 232.58 230.07 235.37 230.97 237.74C231.87 240.11 232.56 242.05 232.97 243.4C233.157 244.027 233.317 244.547 233.45 244.96C233.517 245.14 233.561 245.328 233.58 245.52C233.481 245.354 233.404 245.176 233.35 244.99L232.77 243.47C232.3 242.14 231.57 240.22 230.62 237.88C229.67 235.54 228.46 232.78 227.03 229.76C225.6 226.74 223.88 223.49 221.95 220.14C220.02 216.79 218.03 213.72 216.15 210.96C214.27 208.2 212.46 205.78 210.89 203.8C209.32 201.82 208.04 200.22 207.12 199.14L206.12 197.89C205.978 197.749 205.854 197.591 205.75 197.42Z" fill="#FE464B"/>
<path d="M274.511 202.53C274.464 202.693 274.393 202.848 274.301 202.99L273.631 204.24C273.321 204.78 272.961 205.44 272.571 206.24C272.181 207.04 271.701 207.9 271.251 208.91C270.251 210.91 269.251 213.33 268.251 216.07C266.12 222.035 264.723 228.237 264.091 234.54C263.821 237.44 263.701 240.07 263.711 242.28C263.711 243.38 263.711 244.38 263.761 245.28C263.811 246.18 263.821 246.91 263.861 247.53C263.901 248.15 263.911 248.53 263.931 248.95C263.961 249.115 263.961 249.285 263.931 249.45C263.883 249.291 263.852 249.126 263.841 248.96C263.791 248.58 263.741 248.11 263.671 247.54C263.601 246.97 263.521 246.17 263.481 245.29C263.441 244.41 263.351 243.41 263.351 242.29C263.301 239.69 263.395 237.09 263.631 234.5C264.204 228.15 265.609 221.903 267.811 215.92C268.708 213.478 269.739 211.088 270.901 208.76C271.371 207.76 271.901 206.89 272.301 206.11C272.701 205.33 273.101 204.68 273.431 204.11C273.761 203.54 273.991 203.23 274.191 202.9C274.282 202.764 274.389 202.64 274.511 202.53Z" fill="#FE464B"/>
<path d="M294.151 206.41C294.201 206.47 293.321 207.12 291.991 208.28C288.508 211.283 285.618 214.913 283.471 218.98C283.067 219.847 282.617 220.692 282.121 221.51C282.339 220.571 282.675 219.664 283.121 218.81C284.122 216.711 285.357 214.732 286.801 212.91C288.249 211.088 289.904 209.441 291.731 208C292.465 207.366 293.278 206.832 294.151 206.41Z" fill="#FE464B"/>
<path d="M210.65 231.91C211.523 232.32 212.342 232.833 213.09 233.44C214.963 234.822 216.692 236.39 218.25 238.12C219.813 239.843 221.194 241.723 222.37 243.73C222.899 244.537 223.326 245.407 223.64 246.32C223.073 245.548 222.545 244.747 222.06 243.92C220.802 241.995 219.398 240.17 217.86 238.46C216.315 236.759 214.644 235.178 212.86 233.73C212.086 233.171 211.348 232.563 210.65 231.91Z" fill="#FE464B"/>
<path d="M205.579 222.61C205.499 222.75 203.459 221.61 200.699 220.91C197.939 220.21 195.609 220.2 195.609 220.04C199.145 219.641 202.704 220.555 205.609 222.61H205.579Z" fill="#FE464B"/>
<path fill-rule="evenodd" clip-rule="evenodd" d="M185.001 191.31C185.148 190.73 185.37 190.172 185.661 189.65L184.751 188.27L186.651 186.27L188.061 187.12C188.576 186.817 189.127 186.578 189.701 186.41L190.041 184.8L192.771 184.75L193.161 186.36C193.74 186.505 194.298 186.723 194.821 187.01L196.201 186.11L198.201 188.01L197.341 189.42C197.654 189.93 197.893 190.482 198.051 191.06L199.671 191.39V194.13L198.071 194.52C197.924 195.097 197.703 195.651 197.411 196.17L198.321 197.56L196.421 199.56L195.001 198.7C194.494 199.013 193.945 199.252 193.371 199.41L193.001 201H190.271L189.881 199.4C189.301 199.253 188.743 199.032 188.221 198.74L186.841 199.64L184.841 197.74L185.701 196.33C185.388 195.823 185.149 195.274 184.991 194.7L183.371 194.36V191.63L184.971 191.24L185.001 191.31ZM188.601 192.86C188.615 193.438 188.8 194 189.132 194.473C189.465 194.947 189.93 195.311 190.469 195.521C191.009 195.73 191.598 195.775 192.163 195.65C192.728 195.526 193.243 195.236 193.644 194.819C194.045 194.401 194.313 193.875 194.415 193.305C194.516 192.735 194.447 192.149 194.216 191.618C193.985 191.088 193.601 190.638 193.115 190.325C192.628 190.012 192.06 189.85 191.481 189.86C191.095 189.868 190.715 189.952 190.362 190.107C190.009 190.262 189.69 190.485 189.423 190.764C189.156 191.043 188.947 191.371 188.808 191.731C188.669 192.091 188.602 192.474 188.611 192.86H188.601Z" fill="#FE464B"/>
<path fill-rule="evenodd" clip-rule="evenodd" d="M299.57 265.2C299.677 264.775 299.839 264.365 300.05 263.98L299.38 262.98L300.79 261.53L301.79 262.16C302.166 261.936 302.569 261.761 302.99 261.64L303.24 260.45H305.24L305.53 261.64C305.957 261.743 306.367 261.905 306.75 262.12L307.75 261.45L309.2 262.86L308.57 263.86C308.795 264.235 308.97 264.639 309.09 265.06L310.28 265.31V267.31L309.09 267.6C308.982 268.025 308.821 268.435 308.61 268.82L309.27 269.82L307.87 271.27L306.87 270.64C306.491 270.866 306.084 271.041 305.66 271.16L305.42 272.35H303.42L303.13 271.17C302.705 271.062 302.295 270.901 301.91 270.69L300.91 271.35L299.5 270L300.13 269C299.904 268.621 299.729 268.214 299.61 267.79L298.42 267.54V265.54L299.61 265.25L299.57 265.2ZM302.23 266.34C302.235 266.624 302.295 266.904 302.408 267.164C302.521 267.424 302.683 267.66 302.887 267.857C303.091 268.054 303.332 268.21 303.596 268.314C303.859 268.418 304.141 268.47 304.425 268.465C304.709 268.46 304.989 268.4 305.249 268.287C305.509 268.174 305.745 268.011 305.942 267.808C306.139 267.604 306.295 267.363 306.399 267.099C306.503 266.835 306.554 266.554 306.55 266.27C306.541 265.697 306.304 265.151 305.893 264.753C305.481 264.354 304.928 264.136 304.355 264.145C303.782 264.154 303.236 264.391 302.838 264.802C302.439 265.214 302.221 265.767 302.23 266.34Z" fill="#455A64"/>
<path d="M279.499 178.731L275.023 188.152L279.287 190.177L283.762 180.756L279.499 178.731Z" fill="#A1A5C1"/>
<path d="M275 188.16C275.42 188.298 275.83 188.461 276.23 188.65C276.99 188.97 278.06 189.43 279.34 190.01L279.09 190.1C280.21 187.65 281.76 184.31 283.5 180.65C283.39 180.34 283.65 181.08 283.62 181H283.56H283.49L283.35 180.94L283.07 180.8L282.51 180.54L281.43 180.02L279.37 179.02L279.7 178.91C278.41 181.59 277.25 183.91 276.42 185.55C276.02 186.31 275.69 186.96 275.42 187.5C275.305 187.752 275.168 187.993 275.01 188.22C275.07 187.984 275.157 187.756 275.27 187.54C275.5 187 275.79 186.35 276.12 185.59C276.87 183.9 277.95 181.49 279.26 178.7L279.37 178.47L279.59 178.58L281.66 179.58L282.75 180.09L283.3 180.35L283.58 180.49L283.72 180.55H283.79H283.86C283.86 180.47 284.09 181.21 283.98 180.9C282.24 184.56 280.64 187.9 279.44 190.29L279.36 190.46L279.19 190.37C277.85 189.71 276.78 189.16 276.07 188.78C275.697 188.602 275.339 188.395 275 188.16Z" fill="#1A1B1E"/>
<path d="M283.351 175.75C282.835 175.504 282.277 175.363 281.706 175.333C281.136 175.304 280.566 175.387 280.028 175.579C279.49 175.77 278.995 176.066 278.572 176.449C278.149 176.831 277.805 177.294 277.561 177.81L285.421 181.55C285.666 181.033 285.807 180.473 285.836 179.902C285.865 179.331 285.781 178.759 285.589 178.221C285.396 177.682 285.1 177.186 284.716 176.762C284.332 176.339 283.868 175.994 283.351 175.75Z" fill="#A1A5C1"/>
<path d="M283.35 175.75C283.525 175.773 283.692 175.835 283.84 175.93C284.262 176.164 284.641 176.468 284.96 176.83C285.465 177.396 285.81 178.086 285.96 178.83C286.167 179.783 286.054 180.777 285.64 181.66L285.55 181.88L285.32 181.78L281.39 179.93L277.45 178L277.23 177.9L277.34 177.68C277.777 176.817 278.478 176.117 279.34 175.68C280.011 175.337 280.758 175.172 281.51 175.2C281.992 175.212 282.467 175.313 282.91 175.5C283.22 175.64 283.37 175.74 283.35 175.76C282.749 175.602 282.132 175.512 281.51 175.49C280.808 175.504 280.121 175.693 279.51 176.04C278.738 176.467 278.122 177.129 277.75 177.93L277.64 177.61L281.58 179.46L285.5 181.34L285.18 181.46C285.567 180.666 285.693 179.77 285.54 178.9C285.418 178.216 285.133 177.571 284.71 177.02C284.308 176.545 283.852 176.119 283.35 175.75Z" fill="#1A1B1E"/>
<path d="M283.45 178.24C283.586 177.74 283.578 177.211 283.425 176.715C283.273 176.22 282.983 175.777 282.59 175.44" fill="#A1A5C1"/>
<path d="M282.591 175.44C282.661 175.31 283.391 175.71 283.671 176.64C283.951 177.57 283.581 178.3 283.451 178.24C283.321 178.18 283.451 177.53 283.181 176.79C282.911 176.05 282.501 175.56 282.591 175.44Z" fill="#1A1B1E"/>
<path d="M278.65 180.07C279.449 180.277 280.216 180.594 280.93 181.01C281.719 181.271 282.469 181.637 283.16 182.1C282.305 182.12 281.461 181.906 280.72 181.48C279.44 180.91 278.57 180.18 278.65 180.07Z" fill="#1A1B1E"/>
<path d="M278.12 181.17C278.923 181.403 279.693 181.739 280.41 182.17C281.195 182.428 281.942 182.792 282.63 183.25C281.775 183.282 280.929 183.07 280.19 182.64C278.92 182 278 181.29 278.12 181.17Z" fill="#1A1B1E"/>
<path d="M277.601 182.28C278.4 182.487 279.168 182.804 279.881 183.22C280.669 183.483 281.419 183.85 282.111 184.31C281.257 184.331 280.414 184.12 279.671 183.7C278.391 183.12 277.521 182.39 277.601 182.28Z" fill="#1A1B1E"/>
<path d="M277.07 183.38C277.874 183.613 278.643 183.949 279.36 184.38C280.146 184.638 280.892 185.001 281.58 185.46C280.726 185.491 279.88 185.28 279.14 184.85C277.87 184.23 277 183.5 277.07 183.38Z" fill="#1A1B1E"/>
<path d="M276.541 184.49C277.343 184.699 278.113 185.016 278.831 185.43C279.617 185.698 280.367 186.064 281.061 186.52C279.364 186.412 277.762 185.703 276.541 184.52V184.49Z" fill="#1A1B1E"/>
<path d="M276 185.6C276.803 185.806 277.574 186.123 278.29 186.54C279.076 186.802 279.822 187.168 280.51 187.63C278.819 187.513 277.222 186.805 276 185.63V185.6Z" fill="#1A1B1E"/>
<path d="M275.489 186.7C276.293 186.931 277.063 187.268 277.779 187.7C278.565 187.958 279.311 188.322 279.999 188.78C279.148 188.812 278.305 188.6 277.569 188.17C276.289 187.55 275.409 186.82 275.489 186.7Z" fill="#1A1B1E"/>
<path d="M180.832 259.952L171.334 264.26L173.284 268.559L182.782 264.25L180.832 259.952Z" fill="#A1A5C1"/>
<path d="M182.77 264.25C182.54 263.872 182.333 263.482 182.15 263.08C181.78 262.35 181.26 261.31 180.65 260.08L180.9 260.17C178.46 261.32 175.12 262.87 171.44 264.54C171.32 264.85 171.59 264.12 171.57 264.2V264.27L171.63 264.41L171.76 264.69L172.01 265.25C172.18 265.62 172.34 265.98 172.51 266.34L173.44 268.43L173.11 268.31C175.84 267.09 178.2 266.08 179.91 265.31L181.91 264.47C182.161 264.352 182.422 264.255 182.69 264.18C182.495 264.325 182.283 264.446 182.06 264.54L180.15 265.48C178.49 266.28 176.15 267.43 173.3 268.72L173.07 268.82L172.97 268.59C172.66 267.93 172.35 267.23 171.97 266.52C171.8 266.16 171.64 265.79 171.47 265.42L171.22 264.87L171.09 264.58L171.02 264.44V264.37V264.32L171.15 263.98C174.84 262.3 178.2 260.81 180.68 259.74L180.85 259.66L180.93 259.83C181.52 261.21 181.98 262.32 182.28 263.07C182.485 263.444 182.649 263.84 182.77 264.25Z" fill="#1A1B1E"/>
<path d="M168.411 268.36C168.646 268.881 168.982 269.35 169.399 269.741C169.816 270.132 170.306 270.437 170.841 270.639C171.376 270.84 171.945 270.934 172.517 270.916C173.088 270.897 173.65 270.766 174.171 270.53L170.571 262.6C170.05 262.835 169.581 263.171 169.19 263.588C168.799 264.006 168.495 264.496 168.294 265.031C168.093 265.566 168 266.136 168.02 266.707C168.04 267.278 168.173 267.84 168.411 268.36Z" fill="#A1A5C1"/>
<path d="M168.41 268.36C168.41 268.36 168.29 268.22 168.15 267.92C167.976 267.466 167.885 266.986 167.88 266.5C167.863 265.747 168.042 265.003 168.4 264.34C168.858 263.469 169.583 262.767 170.47 262.34L170.69 262.24L170.79 262.46C171.36 263.69 171.97 265.02 172.61 266.46C173.25 267.9 173.83 269.19 174.39 270.46L174.49 270.68L174.27 270.78C173.376 271.171 172.38 271.262 171.43 271.04C170.687 270.89 169.996 270.545 169.43 270.04C169.069 269.721 168.771 269.338 168.55 268.91C168.4 268.6 168.35 268.43 168.38 268.42C168.733 268.934 169.146 269.404 169.61 269.82C170.225 270.312 170.965 270.625 171.747 270.722C172.529 270.819 173.323 270.697 174.04 270.37L173.92 270.69L172.1 266.69C171.48 265.29 170.88 263.96 170.32 262.69L170.64 262.81C169.922 263.132 169.308 263.648 168.866 264.3C168.424 264.952 168.173 265.713 168.14 266.5C168.161 267.128 168.251 267.752 168.41 268.36Z" fill="#1A1B1E"/>
<path d="M169.94 266.4C169.514 266.694 169.18 267.102 168.976 267.579C168.773 268.055 168.708 268.579 168.79 269.09" fill="#A1A5C1"/>
<path d="M168.79 269.09C168.66 269.15 168.35 268.36 168.73 267.48C169.11 266.6 169.89 266.27 169.94 266.4C169.99 266.53 169.51 266.96 169.21 267.68C168.91 268.4 168.94 269.06 168.79 269.09Z" fill="#1A1B1E"/>
<path d="M174.79 268.1C174.312 267.426 173.928 266.689 173.65 265.91C173.218 265.201 172.882 264.437 172.65 263.64C173.873 264.824 174.632 266.405 174.79 268.1Z" fill="#1A1B1E"/>
<path d="M175.9 267.6C175.426 266.919 175.043 266.18 174.76 265.4C174.332 264.692 173.996 263.933 173.76 263.14C173.87 263.05 174.62 263.91 175.22 265.14C175.679 265.877 175.915 266.732 175.9 267.6Z" fill="#1A1B1E"/>
<path d="M176.999 267.09C176.523 266.414 176.139 265.678 175.859 264.9C175.427 264.191 175.091 263.427 174.859 262.63C176.082 263.814 176.841 265.395 176.999 267.09Z" fill="#1A1B1E"/>
<path d="M178.13 266.59C177.659 265.907 177.276 265.168 176.99 264.39C176.56 263.68 176.224 262.917 175.99 262.12C176.648 262.643 177.152 263.334 177.45 264.12C177.91 264.861 178.146 265.718 178.13 266.59Z" fill="#1A1B1E"/>
<path d="M179.249 266.08C178.771 265.402 178.388 264.662 178.109 263.88C177.678 263.174 177.342 262.414 177.109 261.62C178.332 262.804 179.091 264.385 179.249 266.08Z" fill="#1A1B1E"/>
<path d="M180.361 265.57C179.886 264.893 179.502 264.157 179.221 263.38C178.79 262.67 178.454 261.907 178.221 261.11C178.878 261.633 179.383 262.324 179.681 263.11C180.139 263.848 180.375 264.702 180.361 265.57Z" fill="#1A1B1E"/>
<path d="M181.48 265.07C180.676 263.629 179.961 262.139 179.34 260.61C179.45 260.52 180.21 261.38 180.81 262.61C181.26 263.351 181.492 264.203 181.48 265.07Z" fill="#1A1B1E"/>
<path d="M201.52 142.38C201.52 142.38 213.63 154.38 216.65 161.81C219.52 168.92 221.42 175.54 221.42 175.54C221.42 175.54 224.54 170.08 228.05 175.54C231.56 181 248.15 247.31 250.88 272.27H261.45C261.45 272.27 256.53 230.54 254.19 225.86C251.85 221.18 249.89 219.62 249.89 219.62C249.89 219.62 247.16 202.06 245.21 199.33C244.087 197.727 242.622 196.395 240.92 195.43C240.92 195.43 237.41 176.32 232.34 172.43C227.27 168.54 223.34 170.48 223.34 170.48C223.34 170.48 220.14 150 201.52 142.38Z" fill="#FE464B"/>
<path d="M300.67 231C298.286 231.638 295.948 232.433 293.67 233.38C291.456 234.483 289.315 235.725 287.26 237.1C287.716 236.522 288.263 236.023 288.88 235.62C291.724 233.469 295.009 231.977 298.5 231.25C299.206 231.057 299.938 230.973 300.67 231Z" fill="#455A64"/>
<path d="M300.261 228.86C297.853 229.781 295.497 230.829 293.201 232C289.471 234.06 286.921 236.45 286.811 236.32C287.265 235.704 287.803 235.155 288.411 234.69C289.817 233.496 291.337 232.444 292.951 231.55C294.561 230.651 296.26 229.921 298.021 229.37C298.738 229.091 299.493 228.92 300.261 228.86Z" fill="#455A64"/>
<path d="M298.21 234C298.21 234.16 296.01 234.19 293.42 234.94C290.83 235.69 288.93 236.79 288.85 236.66C291.52 234.62 294.865 233.669 298.21 234Z" fill="#455A64"/>
<path d="M274.88 272.17C273.11 258.17 277.71 241.75 288.88 233.89L291.54 236.06C291.54 236.06 277.63 244.34 278.65 272.27" fill="#1A1B1E"/>
<path d="M217.41 252C215.554 252.638 213.757 253.438 212.04 254.39C210.419 255.496 208.893 256.737 207.48 258.1C208.59 256.42 210.055 255.004 211.77 253.95C213.485 252.897 215.411 252.231 217.41 252Z" fill="#455A64"/>
<path d="M217.129 250.76C215.357 251.563 213.541 252.264 211.689 252.86C209.896 253.632 208.06 254.299 206.189 254.86C207.857 253.828 209.643 253.002 211.509 252.4C213.308 251.624 215.196 251.073 217.129 250.76Z" fill="#455A64"/>
<path d="M247.941 275.62L243.101 274.36C243.635 272.35 243.575 270.229 242.927 268.254C242.279 266.278 241.071 264.533 239.451 263.23C239.239 264.77 238.642 266.231 237.713 267.478C236.785 268.725 235.556 269.716 234.141 270.36C233.069 270.781 231.918 270.962 230.769 270.889C229.62 270.817 228.501 270.493 227.491 269.94C226.573 269.472 225.771 268.806 225.143 267.99C224.515 267.173 224.077 266.227 223.861 265.22C223.623 263.652 223.866 262.048 224.557 260.62C225.247 259.193 226.354 258.007 227.731 257.22C228.856 256.568 230.101 256.146 231.391 255.98C231.277 255.875 231.157 255.779 231.031 255.69C228.85 254.113 226.244 253.23 223.554 253.157C220.864 253.084 218.214 253.824 215.951 255.28L213.131 251.15C216.26 249.093 219.945 248.044 223.689 248.144C227.432 248.244 231.056 249.489 234.071 251.71C235.903 253.092 237.392 254.878 238.421 256.93C242.021 258.347 244.978 261.035 246.732 264.484C248.486 267.933 248.916 271.905 247.941 275.65V275.62ZM233.001 260.83C232.037 260.8 231.084 261.032 230.241 261.5C229.753 261.767 229.35 262.167 229.081 262.654C228.812 263.141 228.687 263.694 228.721 264.25C228.802 264.529 228.941 264.788 229.129 265.011C229.317 265.233 229.549 265.413 229.811 265.54C230.17 265.737 230.566 265.857 230.975 265.891C231.383 265.926 231.794 265.874 232.181 265.74C232.988 265.304 233.643 264.632 234.058 263.813C234.473 262.995 234.627 262.069 234.501 261.16V260.96C234.006 260.872 233.504 260.828 233.001 260.83Z" fill="#1A1B1E"/>
<path d="M207.34 182.76C207.808 182.953 208.257 183.191 208.68 183.47C209.53 183.95 210.68 184.71 212.16 185.7C213.839 186.878 215.458 188.139 217.01 189.48C220.805 192.772 224.187 196.512 227.08 200.62C228.26 202.291 229.352 204.024 230.35 205.81C231.2 207.34 231.84 208.6 232.23 209.5C232.465 209.947 232.656 210.416 232.8 210.9C232.509 210.488 232.258 210.049 232.05 209.59C231.6 208.72 230.92 207.49 230.05 206C229.18 204.51 228.05 202.76 226.71 200.89C223.794 196.865 220.44 193.176 216.71 189.89C215 188.33 213.35 187 212 186C210.65 185 209.44 184.17 208.62 183.64C208.168 183.386 207.739 183.091 207.34 182.76Z" fill="#FE464B"/>
<path d="M190.42 294.18H191.27V344.69H190.42C188.033 344.69 185.744 343.742 184.056 342.054C182.368 340.366 181.42 338.077 181.42 335.69V303.14C181.43 300.76 182.383 298.481 184.07 296.802C185.757 295.123 188.04 294.18 190.42 294.18Z" fill="#1A1B1E"/>
<path d="M335.871 294.18H336.811C339.166 294.18 341.425 295.115 343.09 296.781C344.756 298.446 345.691 300.705 345.691 303.06V335.82C345.691 338.175 344.756 340.434 343.09 342.099C341.425 343.764 339.166 344.7 336.811 344.7H335.871V294.18Z" fill="#1A1B1E"/>
<path d="M323.959 284.32H202.809C195.011 284.32 188.689 290.642 188.689 298.44V380.19C188.689 387.988 195.011 394.31 202.809 394.31H323.959C331.758 394.31 338.079 387.988 338.079 380.19V298.44C338.079 290.642 331.758 284.32 323.959 284.32Z" fill="#FE464B"/>
<path d="M282.39 296C273.312 296 264.605 299.606 258.186 306.026C251.767 312.445 248.16 321.152 248.16 330.23H316.63C316.63 325.734 315.744 321.282 314.024 317.128C312.303 312.975 309.78 309.201 306.601 306.022C303.421 302.844 299.647 300.322 295.492 298.603C291.338 296.883 286.886 295.999 282.39 296Z" fill="white"/>
<path d="M310.001 328.58C311.441 328.58 312.741 328.58 313.681 328.58C314.193 328.555 314.706 328.588 315.211 328.68C314.709 328.766 314.2 328.802 313.691 328.79C312.691 328.79 311.441 328.79 310.001 328.79H306.321H305.201C305.065 328.806 304.927 328.806 304.791 328.79C304.927 328.767 305.065 328.767 305.201 328.79L306.321 328.74L310.001 328.58Z" fill="#A1A5C1"/>
<path d="M307.581 318.23C310.181 316.99 312.341 316.12 312.411 316.23C312.481 316.34 310.411 317.47 307.791 318.64C306.233 319.427 304.619 320.095 302.961 320.64C304.439 319.723 305.983 318.917 307.581 318.23Z" fill="#A1A5C1"/>
<path d="M301.161 309.77C303.061 307.61 304.701 305.95 304.831 306.06C304.961 306.17 303.481 307.99 301.541 310.11C300.415 311.436 299.188 312.673 297.871 313.81C298.865 312.383 299.965 311.033 301.161 309.77Z" fill="#A1A5C1"/>
<path d="M292 304.36C292.5 302.691 293.187 301.084 294.05 299.57C294.21 299.63 293.51 301.85 292.48 304.57C291.911 306.215 291.223 307.816 290.42 309.36C290.818 307.655 291.346 305.984 292 304.36Z" fill="#A1A5C1"/>
<path d="M281.51 302.58C281.51 299.7 281.59 297.37 281.76 297.37C281.93 297.37 282.04 299.7 282.02 302.58C282.067 304.321 281.98 306.062 281.76 307.79C281.54 306.062 281.456 304.32 281.51 302.58Z" fill="#A1A5C1"/>
<path d="M271.051 304.54C270.051 301.85 269.311 299.63 269.471 299.54C269.631 299.45 270.551 301.62 271.471 304.33C272.132 305.951 272.66 307.623 273.051 309.33C272.267 307.785 271.598 306.184 271.051 304.54Z" fill="#A1A5C1"/>
<path d="M262.001 310.11C260.061 307.99 258.581 306.18 258.711 306.06C258.841 305.94 260.481 307.61 262.381 309.77C263.575 311.02 264.675 312.357 265.671 313.77C264.356 312.646 263.129 311.422 262.001 310.11Z" fill="#A1A5C1"/>
<path d="M255.729 318.7C253.099 317.52 251.029 316.44 251.099 316.28C251.169 316.12 253.339 317 255.939 318.28C257.537 318.968 259.081 319.773 260.559 320.69C258.902 320.148 257.287 319.483 255.729 318.7Z" fill="#A1A5C1"/>
<path d="M253.55 328.83C252.11 328.83 250.81 328.83 249.86 328.83C249.351 328.843 248.842 328.806 248.34 328.72C248.844 328.628 249.358 328.595 249.87 328.62C250.81 328.62 252.11 328.62 253.55 328.62L257.23 328.68L258.35 328.73C258.482 328.707 258.618 328.707 258.75 328.73C258.617 328.747 258.483 328.747 258.35 328.73H257.23L253.55 328.83Z" fill="#A1A5C1"/>
<path d="M225.311 302C225.313 302.9 225.048 303.781 224.549 304.531C224.05 305.28 223.34 305.865 222.509 306.211C221.678 306.557 220.763 306.648 219.879 306.474C218.996 306.299 218.184 305.867 217.547 305.231C216.91 304.595 216.475 303.784 216.299 302.901C216.123 302.018 216.212 301.103 216.556 300.271C216.9 299.439 217.484 298.728 218.232 298.227C218.981 297.727 219.861 297.46 220.761 297.46C221.966 297.46 223.122 297.938 223.975 298.789C224.828 299.64 225.308 300.795 225.311 302Z" fill="white"/>
<path d="M225.311 315.7C225.313 316.6 225.048 317.481 224.549 318.23C224.05 318.98 223.34 319.565 222.509 319.911C221.678 320.257 220.763 320.348 219.879 320.174C218.996 319.999 218.184 319.567 217.547 318.931C216.91 318.295 216.475 317.484 216.299 316.601C216.123 315.718 216.212 314.803 216.556 313.971C216.9 313.139 217.484 312.428 218.232 311.927C218.981 311.427 219.861 311.16 220.761 311.16C221.966 311.16 223.122 311.638 223.975 312.489C224.828 313.34 225.308 314.495 225.311 315.7Z" fill="#455A64"/>
<path d="M311.43 384.82C311.43 384.82 311.43 384.53 311.43 383.97C311.43 383.41 311.43 382.58 311.43 381.52C311.43 379.35 311.43 376.19 311.38 372.14C311.38 364.01 311.32 352.29 311.28 337.84L311.47 338.03L218.3 338.1L218.56 337.84C218.56 354.41 218.56 370.3 218.56 384.84L218.31 384.6L285.23 384.71L304.53 384.78H309.69H311.03H311.49H311.06H309.75H304.64L285.39 384.85L218.31 384.97H218V384.72C218 370.2 218 354.31 218 337.72V337.46H218.27L311.44 337.53H311.64V337.72C311.59 352.22 311.56 363.98 311.53 372.13C311.53 376.13 311.53 379.32 311.53 381.47C311.53 382.52 311.53 383.33 311.53 383.89C311.53 384.45 311.43 384.82 311.43 384.82Z" fill="#1A1B1E"/>
<path d="M204.1 394.09H322.67V394.68C322.67 395.498 322.508 396.308 322.195 397.064C321.882 397.82 321.423 398.507 320.845 399.085C320.266 399.664 319.58 400.123 318.824 400.436C318.068 400.749 317.258 400.91 316.44 400.91H210.34C208.687 400.91 207.103 400.253 205.934 399.085C204.766 397.917 204.11 396.332 204.11 394.68V394.09H204.1Z" fill="#1A1B1E"/>
<g opacity="0.3">
<path d="M301.47 344.43C301.395 345.076 301.546 345.728 301.898 346.276C302.25 346.823 302.781 347.231 303.4 347.43C304.024 347.602 304.686 347.574 305.293 347.352C305.901 347.13 306.424 346.724 306.79 346.19C307.131 345.639 307.311 345.003 307.311 344.355C307.311 343.707 307.131 343.071 306.79 342.52C306.827 343.372 306.549 344.209 306.01 344.87C305.735 345.192 305.385 345.441 304.991 345.595C304.596 345.748 304.17 345.802 303.75 345.75C303.331 345.691 302.942 345.5 302.638 345.205C302.334 344.91 302.132 344.527 302.06 344.11" fill="#1A1B1E"/>
</g>
<path d="M306.81 343.32C306.811 343.869 306.65 344.405 306.347 344.863C306.043 345.32 305.611 345.676 305.104 345.887C304.598 346.098 304.04 346.154 303.502 346.047C302.963 345.941 302.469 345.676 302.081 345.289C301.693 344.901 301.429 344.406 301.322 343.868C301.216 343.329 301.271 342.772 301.482 342.265C301.693 341.759 302.05 341.326 302.507 341.023C302.964 340.719 303.501 340.558 304.05 340.56C304.782 340.56 305.484 340.851 306.001 341.368C306.519 341.886 306.81 342.588 306.81 343.32Z" fill="#A1A5C1"/>
<path d="M306.81 343.32C306.736 343.107 306.676 342.89 306.63 342.67C306.453 342.109 306.103 341.619 305.63 341.27C305.283 341.023 304.881 340.865 304.46 340.81C304.038 340.754 303.609 340.802 303.21 340.95C302.727 341.13 302.311 341.454 302.017 341.878C301.723 342.301 301.565 342.804 301.565 343.32C301.565 343.835 301.723 344.339 302.017 344.762C302.311 345.186 302.727 345.51 303.21 345.69C303.609 345.838 304.038 345.886 304.46 345.83C304.881 345.775 305.283 345.616 305.63 345.37C306.103 345.021 306.453 344.531 306.63 343.97C306.678 343.75 306.738 343.533 306.81 343.32C306.81 343.32 306.9 343.57 306.81 344.02C306.689 344.671 306.333 345.254 305.81 345.66C305.422 345.973 304.959 346.182 304.467 346.266C303.976 346.35 303.47 346.307 303 346.14C302.421 345.93 301.92 345.546 301.567 345.042C301.213 344.537 301.023 343.936 301.023 343.32C301.023 342.704 301.213 342.103 301.567 341.598C301.92 341.094 302.421 340.71 303 340.5C303.47 340.333 303.976 340.29 304.467 340.374C304.959 340.458 305.422 340.666 305.81 340.98C306.333 341.386 306.689 341.969 306.81 342.62C306.9 343.07 306.84 343.32 306.81 343.32Z" fill="#1A1B1E"/>
<path d="M305.321 342.14C305.371 342.28 304.721 342.62 304.111 343.26C303.501 343.9 303.181 344.55 303.041 344.5C302.901 344.45 303.041 343.63 303.741 342.89C304.441 342.15 305.291 342 305.321 342.14Z" fill="#1A1B1E"/>
<path d="M305.321 344.18C305.201 344.26 304.741 343.76 304.061 343.31C303.381 342.86 302.741 342.61 302.771 342.46C302.801 342.31 303.581 342.35 304.351 342.88C305.121 343.41 305.441 344.12 305.321 344.18Z" fill="#1A1B1E"/>
<g opacity="0.3">
<path d="M302.761 378.63C302.69 379.277 302.844 379.928 303.198 380.475C303.551 381.021 304.082 381.429 304.701 381.63C305.325 381.802 305.987 381.774 306.594 381.552C307.202 381.33 307.725 380.924 308.091 380.39C308.437 379.844 308.625 379.213 308.634 378.567C308.643 377.921 308.472 377.285 308.141 376.73C308.177 377.581 307.896 378.415 307.351 379.07C307.078 379.391 306.729 379.64 306.337 379.793C305.944 379.947 305.52 380.001 305.101 379.95C304.682 379.893 304.291 379.705 303.986 379.412C303.68 379.119 303.475 378.737 303.401 378.32" fill="#1A1B1E"/>
</g>
<path d="M305.35 380.27C306.874 380.27 308.11 379.034 308.11 377.51C308.11 375.986 306.874 374.75 305.35 374.75C303.826 374.75 302.59 375.986 302.59 377.51C302.59 379.034 303.826 380.27 305.35 380.27Z" fill="#A1A5C1"/>
<path d="M308.111 377.51C308.061 377.51 308.051 377.27 307.921 376.86C307.746 376.298 307.396 375.807 306.921 375.46C306.574 375.214 306.172 375.057 305.75 375.001C305.329 374.945 304.9 374.993 304.501 375.14C304.165 375.272 303.861 375.473 303.609 375.732C303.358 375.99 303.164 376.299 303.041 376.638C302.918 376.977 302.869 377.339 302.896 377.698C302.924 378.058 303.027 378.408 303.201 378.724C303.374 379.041 303.613 379.316 303.901 379.533C304.189 379.75 304.52 379.903 304.872 379.983C305.224 380.062 305.589 380.065 305.942 379.992C306.295 379.919 306.629 379.772 306.921 379.56C307.398 379.215 307.749 378.723 307.921 378.16C308.051 377.76 308.061 377.51 308.111 377.51C308.161 377.51 308.201 377.76 308.111 378.21C307.988 378.863 307.633 379.449 307.111 379.86C306.721 380.171 306.258 380.377 305.767 380.459C305.275 380.542 304.77 380.497 304.301 380.33C303.722 380.12 303.221 379.736 302.868 379.232C302.514 378.727 302.324 378.126 302.324 377.51C302.324 376.894 302.514 376.293 302.868 375.788C303.221 375.284 303.722 374.9 304.301 374.69C304.772 374.531 305.276 374.491 305.766 374.575C306.257 374.659 306.719 374.863 307.111 375.17C307.634 375.576 307.99 376.159 308.111 376.81C308.201 377.27 308.141 377.52 308.111 377.51Z" fill="#1A1B1E"/>
<path d="M306.62 376.33C306.67 376.47 306.01 376.81 305.41 377.45C304.81 378.09 304.48 378.74 304.33 378.7C304.18 378.66 304.33 377.82 305.03 377.09C305.73 376.36 306.59 376.2 306.62 376.33Z" fill="#1A1B1E"/>
<path d="M306.619 378.37C306.489 378.46 306.029 377.95 305.349 377.5C304.669 377.05 304.039 376.8 304.069 376.65C304.099 376.5 304.869 376.54 305.649 377.07C306.429 377.6 306.739 378.31 306.619 378.37Z" fill="#1A1B1E"/>
<g opacity="0.3">
<path d="M222.38 344.39C222.309 345.037 222.464 345.688 222.817 346.235C223.17 346.781 223.701 347.189 224.32 347.39C224.945 347.559 225.607 347.53 226.214 347.306C226.822 347.082 227.345 346.674 227.71 346.14C228.049 345.59 228.228 344.956 228.228 344.31C228.228 343.664 228.049 343.03 227.71 342.48C227.747 343.334 227.466 344.172 226.92 344.83C226.647 345.151 226.299 345.4 225.906 345.553C225.513 345.707 225.089 345.761 224.67 345.71C224.249 345.652 223.858 345.463 223.552 345.168C223.246 344.873 223.043 344.488 222.97 344.07" fill="#1A1B1E"/>
</g>
<path d="M224.959 346.04C226.484 346.04 227.719 344.804 227.719 343.28C227.719 341.756 226.484 340.52 224.959 340.52C223.435 340.52 222.199 341.756 222.199 343.28C222.199 344.804 223.435 346.04 224.959 346.04Z" fill="#A1A5C1"/>
<path d="M227.73 343.28C227.73 343.28 227.67 343.03 227.54 342.63C227.37 342.066 227.018 341.573 226.54 341.23C226.195 340.983 225.795 340.825 225.374 340.769C224.954 340.714 224.527 340.762 224.13 340.91C223.647 341.09 223.23 341.414 222.936 341.837C222.643 342.261 222.485 342.764 222.485 343.28C222.485 343.795 222.643 344.299 222.936 344.722C223.23 345.146 223.647 345.469 224.13 345.65C224.529 345.797 224.958 345.845 225.379 345.789C225.801 345.733 226.202 345.576 226.55 345.33C227.027 344.985 227.378 344.493 227.55 343.93C227.68 343.53 227.69 343.28 227.74 343.28C227.809 343.508 227.809 343.752 227.74 343.98C227.614 344.629 227.259 345.211 226.74 345.62C226.351 345.932 225.889 346.141 225.397 346.225C224.905 346.309 224.4 346.266 223.93 346.1C223.35 345.89 222.85 345.506 222.496 345.002C222.143 344.497 221.953 343.896 221.953 343.28C221.953 342.664 222.143 342.063 222.496 341.558C222.85 341.053 223.35 340.67 223.93 340.46C224.4 340.294 224.905 340.251 225.397 340.335C225.889 340.419 226.351 340.627 226.74 340.94C227.259 341.349 227.614 341.931 227.74 342.58C227.805 342.809 227.802 343.053 227.73 343.28Z" fill="#1A1B1E"/>
<path d="M226.239 342.1C226.239 342.24 225.629 342.58 225.029 343.22C224.429 343.86 224.099 344.51 223.949 344.46C223.799 344.41 223.949 343.58 224.649 342.85C225.349 342.12 226.209 342 226.239 342.1Z" fill="#1A1B1E"/>
<path d="M226.24 344.14C226.11 344.22 225.65 343.72 224.97 343.27C224.29 342.82 223.66 342.57 223.69 342.42C223.72 342.27 224.49 342.31 225.27 342.83C226.05 343.35 226.36 344.07 226.24 344.14Z" fill="#1A1B1E"/>
<g opacity="0.3">
<path d="M221.801 378.29C221.724 378.936 221.874 379.589 222.226 380.137C222.579 380.685 223.111 381.092 223.731 381.29C224.355 381.462 225.017 381.434 225.624 381.212C226.232 380.99 226.755 380.584 227.121 380.05C227.462 379.5 227.643 378.867 227.643 378.22C227.643 377.573 227.462 376.939 227.121 376.39C227.156 377.239 226.879 378.072 226.341 378.73C226.067 379.053 225.717 379.303 225.323 379.459C224.928 379.614 224.502 379.669 224.081 379.62C223.662 379.56 223.273 379.37 222.969 379.075C222.665 378.78 222.463 378.397 222.391 377.98" fill="#1A1B1E"/>
</g>
<path d="M224.381 379.93C225.905 379.93 227.141 378.694 227.141 377.17C227.141 375.646 225.905 374.41 224.381 374.41C222.857 374.41 221.621 375.646 221.621 377.17C221.621 378.694 222.857 379.93 224.381 379.93Z" fill="#A1A5C1"/>
<path d="M227.14 377.17C227.14 377.17 227.14 376.93 226.96 376.52C226.778 375.962 226.429 375.473 225.96 375.12C225.613 374.873 225.212 374.715 224.79 374.659C224.368 374.604 223.939 374.652 223.54 374.8C223.204 374.932 222.901 375.133 222.649 375.392C222.397 375.65 222.203 375.959 222.08 376.298C221.957 376.637 221.908 376.999 221.936 377.358C221.963 377.718 222.067 378.068 222.24 378.384C222.413 378.7 222.652 378.976 222.94 379.193C223.228 379.41 223.559 379.563 223.911 379.642C224.263 379.722 224.628 379.725 224.981 379.652C225.335 379.579 225.668 379.432 225.96 379.22C226.433 378.871 226.783 378.38 226.96 377.82C227.008 377.6 227.068 377.383 227.14 377.17C227.14 377.17 227.23 377.42 227.14 377.87C227.02 378.524 226.664 379.11 226.14 379.52C225.748 379.827 225.286 380.031 224.796 380.115C224.305 380.199 223.802 380.159 223.33 380C222.748 379.792 222.244 379.408 221.887 378.903C221.531 378.397 221.34 377.793 221.34 377.175C221.34 376.556 221.531 375.953 221.887 375.447C222.244 374.941 222.748 374.558 223.33 374.35C223.802 374.19 224.305 374.151 224.796 374.235C225.286 374.319 225.748 374.523 226.14 374.83C226.664 375.239 227.02 375.826 227.14 376.48C227.23 376.93 227.17 377.18 227.14 377.17Z" fill="#1A1B1E"/>
<path d="M225.651 376C225.651 376.14 225.051 376.48 224.441 377.12C223.831 377.76 223.511 378.41 223.371 378.37C223.231 378.33 223.371 377.49 224.071 376.76C224.771 376.03 225.621 375.86 225.651 376Z" fill="#1A1B1E"/>
<path d="M225.651 378C225.531 378.08 225.071 377.57 224.391 377.12C223.711 376.67 223.071 376.42 223.101 376.27C223.131 376.12 223.911 376.16 224.681 376.69C225.451 377.22 225.771 378 225.651 378Z" fill="#1A1B1E"/>
<g opacity="0.3">
<path d="M218.25 385.08C229.07 387.43 241.71 387.52 253.4 386.95C259.02 386.67 265.19 386.32 269.69 389.71C270.69 390.45 271.83 391.42 272.99 390.99C274.67 390.36 274.73 387.28 276.53 387.22C277.43 387.22 278.12 388.05 278.41 388.9C278.594 389.779 278.869 390.637 279.23 391.46C279.69 392.24 280.78 392.76 281.5 392.21C282.64 391.34 281.32 389.47 281.75 388.1C282.18 386.73 284.22 386.57 285.6 387.1C286.98 387.63 288.32 388.64 289.79 388.42C290.819 388.126 291.78 387.634 292.62 386.97C295.25 385.36 298.5 385.27 301.62 385.21C304.87 385.16 308.22 384.85 311.47 384.79L218.25 385.08Z" fill="#1A1B1E"/>
</g>
<path d="M292.771 349.79C292.609 349.871 292.438 349.931 292.261 349.97C291.768 350.102 291.283 350.265 290.811 350.46C289.073 351.168 287.433 352.096 285.931 353.22C283.981 354.58 281.831 356.46 279.101 358.12C277.672 359.009 276.108 359.661 274.471 360.05C272.709 360.365 270.92 360.499 269.131 360.45C265.481 360.45 262.291 361.93 259.531 363.45C256.771 364.97 254.241 366.29 252.271 367.62C250.701 368.648 249.246 369.841 247.931 371.18C247.001 372.18 246.571 372.73 246.531 372.7C246.491 372.67 246.611 372.54 246.811 372.25C247.122 371.828 247.455 371.424 247.811 371.04C249.084 369.634 250.521 368.385 252.091 367.32C254.425 365.757 256.842 364.322 259.331 363.02C260.783 362.207 262.294 361.505 263.851 360.92C265.546 360.298 267.336 359.976 269.141 359.97C270.899 360.02 272.658 359.892 274.391 359.59C275.977 359.213 277.495 358.592 278.891 357.75C281.571 356.14 283.761 354.29 285.751 352.96C287.288 351.851 288.971 350.959 290.751 350.31C291.235 350.133 291.734 349.999 292.241 349.91C292.411 349.846 292.59 349.806 292.771 349.79Z" fill="#1A1B1E"/>
<path d="M269.061 357.71C268.08 357.67 267.107 357.519 266.161 357.26C263.851 356.745 261.587 356.043 259.391 355.16C257.194 354.284 255.073 353.227 253.051 352C252.183 351.534 251.374 350.967 250.641 350.31C251.53 350.717 252.394 351.174 253.231 351.68C257.344 353.927 261.707 355.682 266.231 356.91C267.192 357.11 268.137 357.378 269.061 357.71Z" fill="#1A1B1E"/>
<path d="M284.1 325.07C284.87 324.66 307.34 317.43 307.34 317.43L285.86 329.43L284.1 325.07Z" fill="#FE464B"/>
<path d="M281.76 322.64C280.762 322.64 279.774 322.836 278.852 323.218C277.93 323.6 277.092 324.16 276.386 324.866C275.68 325.572 275.121 326.409 274.739 327.331C274.357 328.254 274.16 329.242 274.16 330.24H289.36C289.36 329.242 289.164 328.254 288.782 327.331C288.4 326.409 287.84 325.572 287.134 324.866C286.428 324.16 285.591 323.6 284.669 323.218C283.746 322.836 282.758 322.64 281.76 322.64Z" fill="#1A1B1E"/>
<path d="M205.35 394.09C205.2 394.09 205.09 369.67 205.09 339.55C205.09 309.43 205.2 285 205.35 285C205.5 285 205.61 309.42 205.61 339.55C205.61 369.68 205.49 394.09 205.35 394.09Z" fill="#1A1B1E"/>
<path d="M324.199 394.09C324.049 394.09 323.939 369.67 323.939 339.55C323.939 309.43 324.049 285 324.199 285C324.349 285 324.459 309.42 324.459 339.55C324.459 369.68 324.339 394.09 324.199 394.09Z" fill="#1A1B1E"/>
<path d="M200.359 299.8C201.006 299.8 201.529 299.276 201.529 298.63C201.529 297.984 201.006 297.46 200.359 297.46C199.713 297.46 199.189 297.984 199.189 298.63C199.189 299.276 199.713 299.8 200.359 299.8Z" fill="#1A1B1E"/>
<path d="M200.359 321.68C201.006 321.68 201.529 321.156 201.529 320.51C201.529 319.864 201.006 319.34 200.359 319.34C199.713 319.34 199.189 319.864 199.189 320.51C199.189 321.156 199.713 321.68 200.359 321.68Z" fill="#1A1B1E"/>
<path d="M200.359 343.57C201.006 343.57 201.529 343.046 201.529 342.4C201.529 341.754 201.006 341.23 200.359 341.23C199.713 341.23 199.189 341.754 199.189 342.4C199.189 343.046 199.713 343.57 200.359 343.57Z" fill="#1A1B1E"/>
<path d="M200.359 365.46C201.006 365.46 201.529 364.936 201.529 364.29C201.529 363.644 201.006 363.12 200.359 363.12C199.713 363.12 199.189 363.644 199.189 364.29C199.189 364.936 199.713 365.46 200.359 365.46Z" fill="#1A1B1E"/>
<path d="M200.359 387.34C201.006 387.34 201.529 386.816 201.529 386.17C201.529 385.524 201.006 385 200.359 385C199.713 385 199.189 385.524 199.189 386.17C199.189 386.816 199.713 387.34 200.359 387.34Z" fill="#1A1B1E"/>
<path d="M330.311 299.8C330.957 299.8 331.481 299.276 331.481 298.63C331.481 297.984 330.957 297.46 330.311 297.46C329.664 297.46 329.141 297.984 329.141 298.63C329.141 299.276 329.664 299.8 330.311 299.8Z" fill="#1A1B1E"/>
<path d="M330.311 321.68C330.957 321.68 331.481 321.156 331.481 320.51C331.481 319.864 330.957 319.34 330.311 319.34C329.664 319.34 329.141 319.864 329.141 320.51C329.141 321.156 329.664 321.68 330.311 321.68Z" fill="#1A1B1E"/>
<path d="M330.311 343.57C330.957 343.57 331.481 343.046 331.481 342.4C331.481 341.754 330.957 341.23 330.311 341.23C329.664 341.23 329.141 341.754 329.141 342.4C329.141 343.046 329.664 343.57 330.311 343.57Z" fill="#1A1B1E"/>
<path d="M330.311 365.46C330.957 365.46 331.481 364.936 331.481 364.29C331.481 363.644 330.957 363.12 330.311 363.12C329.664 363.12 329.141 363.644 329.141 364.29C329.141 364.936 329.664 365.46 330.311 365.46Z" fill="#1A1B1E"/>
<path d="M330.311 387.34C330.957 387.34 331.481 386.816 331.481 386.17C331.481 385.524 330.957 385 330.311 385C329.664 385 329.141 385.524 329.141 386.17C329.141 386.816 329.664 387.34 330.311 387.34Z" fill="#1A1B1E"/>
<path d="M285.401 272.27H234.301V284.31H285.401V272.27Z" fill="#455A64"/>
<path d="M237.999 284.32C237.737 282.392 237.65 280.444 237.739 278.5C237.649 276.559 237.736 274.615 237.999 272.69C238.256 274.615 238.343 276.559 238.259 278.5C238.343 280.444 238.256 282.391 237.999 284.32Z" fill="#1A1B1E"/>
<path d="M243.23 284.32C242.974 282.391 242.887 280.444 242.97 278.5C242.886 276.559 242.973 274.615 243.23 272.69C243.493 274.615 243.58 276.559 243.49 278.5C243.58 280.444 243.493 282.392 243.23 284.32Z" fill="#1A1B1E"/>
<path d="M248.48 284.32C248.224 282.391 248.137 280.444 248.22 278.5C248.136 276.559 248.223 274.615 248.48 272.69C248.737 274.615 248.824 276.559 248.74 278.5C248.824 280.444 248.737 282.391 248.48 284.32Z" fill="#1A1B1E"/>
<path d="M253.73 284.32C253.467 282.392 253.38 280.444 253.47 278.5C253.38 276.559 253.467 274.615 253.73 272.69C253.987 274.615 254.074 276.559 253.99 278.5C254.074 280.444 253.987 282.391 253.73 284.32Z" fill="#1A1B1E"/>
<path d="M259 284.32C258.743 282.391 258.656 280.444 258.74 278.5C258.656 276.559 258.743 274.615 259 272.69C259.263 274.615 259.35 276.559 259.26 278.5C259.35 280.444 259.263 282.392 259 284.32Z" fill="#1A1B1E"/>
<path d="M264.221 284.32C263.964 282.391 263.877 280.444 263.961 278.5C263.877 276.559 263.964 274.615 264.221 272.69C264.478 274.615 264.565 276.559 264.481 278.5C264.564 280.444 264.477 282.391 264.221 284.32Z" fill="#1A1B1E"/>
<path d="M269.47 284.32C269.207 282.392 269.12 280.444 269.21 278.5C269.12 276.559 269.207 274.615 269.47 272.69C269.727 274.615 269.814 276.559 269.73 278.5C269.814 280.444 269.727 282.391 269.47 284.32Z" fill="#1A1B1E"/>
<path d="M274.711 284.32C274.454 282.391 274.367 280.444 274.451 278.5C274.367 276.559 274.454 274.615 274.711 272.69C274.974 274.615 275.061 276.559 274.971 278.5C275.061 280.444 274.974 282.392 274.711 284.32Z" fill="#1A1B1E"/>
<path d="M280 284.32C279.743 282.391 279.656 280.444 279.74 278.5C279.656 276.559 279.743 274.615 280 272.69C280.257 274.615 280.344 276.559 280.26 278.5C280.344 280.444 280.257 282.391 280 284.32Z" fill="#1A1B1E"/>
<g opacity="0.3">
<path d="M345.68 310.42C346.92 316.68 348.07 322.58 349.3 328.84C348.094 328.922 346.885 328.922 345.68 328.84C345.68 322.84 345.68 316.43 345.68 310.43" fill="#1A1B1E"/>
</g>
<path d="M192.151 296.05C192.291 296.05 192.151 314.73 191.801 337.76C191.451 360.79 191.091 379.46 190.941 379.46C190.791 379.46 190.941 360.79 191.281 337.75C191.621 314.71 192.001 296.05 192.151 296.05Z" fill="white"/>
<path d="M213.891 382C213.741 382 213.631 372.7 213.631 361.23C213.631 349.76 213.741 340.46 213.891 340.46C214.041 340.46 214.151 349.76 214.151 361.23C214.151 372.7 214.001 382 213.891 382Z" fill="white"/>
<path d="M312.099 287.68C312.099 287.83 289.169 287.94 260.899 287.94C232.629 287.94 209.699 287.83 209.699 287.68C209.699 287.53 232.619 287.42 260.899 287.42C289.179 287.42 312.099 287.54 312.099 287.68Z" fill="white"/>
<path d="M462.621 475.16C462.621 475.3 367.421 475.42 250.011 475.42C132.601 475.42 37.3809 475.3 37.3809 475.16C37.3809 475.02 132.561 474.9 250.011 474.9C367.461 474.9 462.621 475 462.621 475.16Z" fill="#1A1B1E"/>
</svg>
