<svg width="24" height="24" viewBox="0 0 24 24" fill="none" xmlns="http://www.w3.org/2000/svg">
<g clip-path="url(#clip0_1092_9301)">
<path d="M11.0651 2.74162L11.993 2.03863L12.921 2.74162H11.0651ZM8.67493 13.2161C8.52577 13.2161 8.38273 13.2754 8.27726 13.3809C8.17179 13.4863 8.11254 13.6294 8.11254 13.7785C8.11254 13.9277 8.17179 14.0707 8.27726 14.1762C8.38273 14.2817 8.52577 14.3409 8.67493 14.3409H15.3252C15.4743 14.3409 15.6174 14.2817 15.7229 14.1762C15.8283 14.0707 15.8876 13.9277 15.8876 13.7785C15.8876 13.6294 15.8283 13.4863 15.7229 13.3809C15.6174 13.2754 15.4743 13.2161 15.3252 13.2161H8.67493ZM8.67493 9.65901C8.52577 9.65901 8.38273 9.71827 8.27726 9.82374C8.17179 9.9292 8.11254 10.0723 8.11254 10.2214C8.11254 10.3706 8.17179 10.5136 8.27726 10.6191C8.38273 10.7245 8.52577 10.7838 8.67493 10.7838H15.3252C15.4743 10.7838 15.6174 10.7245 15.7229 10.6191C15.8283 10.5136 15.8876 10.3706 15.8876 10.2214C15.8876 10.0723 15.8283 9.9292 15.7229 9.82374C15.6174 9.71827 15.4743 9.65901 15.3252 9.65901H8.67493ZM8.67493 6.1019C8.52577 6.1019 8.38273 6.16115 8.27726 6.26662C8.17179 6.37209 8.11254 6.51513 8.11254 6.66429C8.11254 6.81344 8.17179 6.95649 8.27726 7.06196C8.38273 7.16743 8.52577 7.22668 8.67493 7.22668H15.3252C15.4743 7.22668 15.6174 7.16743 15.7229 7.06196C15.8283 6.95649 15.8876 6.81344 15.8876 6.66429C15.8876 6.51513 15.8283 6.37209 15.7229 6.26662C15.6174 6.16115 15.4743 6.1019 15.3252 6.1019H8.67493ZM14.7628 2.74162L12.3726 0.913848C12.2785 0.822195 12.1553 0.76639 12.0243 0.756117C11.8933 0.745844 11.7629 0.781752 11.6556 0.857609L9.22326 2.74162H5.69426C5.54511 2.74162 5.40206 2.80087 5.29659 2.90634C5.19112 3.01181 5.13187 3.15485 5.13187 3.30401V5.87694L0.253137 9.61684C0.174174 9.66882 0.109591 9.73988 0.0653565 9.82343C0.0211226 9.90698 -0.00133444 10.0003 6.13061e-05 10.0949V22.6643C6.13061e-05 22.9877 0.253137 23.2267 0.562451 23.2267H23.4377C23.5868 23.2267 23.7299 23.1674 23.8353 23.062C23.9408 22.9565 24.0001 22.8134 24.0001 22.6643V10.0949C24.0015 10.0003 23.979 9.90698 23.9348 9.82343C23.8905 9.73988 23.8259 9.66882 23.747 9.61684L18.8823 5.90506V3.30401C18.8823 3.23015 18.8678 3.15702 18.8395 3.08879C18.8112 3.02056 18.7698 2.95856 18.7176 2.90634C18.6654 2.85411 18.6034 2.81269 18.5351 2.78443C18.4669 2.75616 18.3938 2.74162 18.3199 2.74162H14.7628ZM11.6275 19.2759C11.7303 19.3668 11.8628 19.417 12.0001 19.417C12.1373 19.417 12.2698 19.3668 12.3726 19.2759L14.6222 17.5465L22.8753 11.2196V22.1019H1.12484V11.2196L11.6275 19.2759ZM6.25665 13.7363V3.8664H17.7575V13.7223L11.993 18.137L6.25665 13.7363ZM18.8823 12.8646V7.31104L22.5097 10.0949L18.8823 12.8646ZM5.13187 7.29698V12.8787L1.47634 10.0949L5.13187 7.29698Z" fill="black"/>
</g>
<defs>
<clipPath id="clip0_1092_9301">
<rect width="24" height="24" fill="white"/>
</clipPath>
</defs>
</svg>
