<svg width="14" height="14" viewBox="0 0 14 14" fill="none" xmlns="http://www.w3.org/2000/svg">
<g clip-path="url(#clip0_709_7970)">
<path d="M12.1085 9.31763C11.8077 7.4414 9.54308 4.51218 8.82377 3.6233C8.93864 3.52757 9.01249 3.38535 9.01249 3.22398C9.01249 3.10911 8.9742 3.00518 8.91129 2.92039C8.9742 2.83561 9.01249 2.72894 9.01249 2.6168C9.01249 2.43629 8.9195 2.27766 8.78001 2.1874C9.00155 1.28211 9.63607 0.56006 9.66616 0.52724C9.68804 0.502624 9.70172 0.475274 9.70992 0.445189C9.72907 0.379548 9.71266 0.305702 9.6689 0.251001C9.64154 0.218181 9.60599 0.193566 9.56496 0.182626C7.83916 -0.296005 6.42241 0.294762 6.01763 0.494419C5.68122 0.289292 5.34754 0.111515 4.92635 0.0513441C4.7896 0.0321988 4.65011 0.0239937 4.49695 0.0239937C4.46086 0.0239448 4.42537 0.0331462 4.39385 0.0507197C4.36233 0.0682932 4.33585 0.093652 4.31692 0.124375C4.29799 0.155098 4.28725 0.190161 4.28573 0.226214C4.28421 0.262268 4.29196 0.298109 4.30823 0.330317C4.30823 0.330317 4.32464 0.360403 4.33558 0.374078C4.34379 0.382283 5.06584 1.24108 5.29831 2.18467C5.15883 2.27766 5.06584 2.43629 5.06584 2.61407C5.06584 2.72894 5.10413 2.83287 5.16703 2.91766C5.10413 3.00244 5.06584 3.10911 5.06584 3.22125C5.06584 3.36073 5.12054 3.48654 5.21079 3.57954C4.5243 4.4274 2.19679 7.40858 1.8932 9.31763C1.86038 9.47626 1.4173 11.6944 2.52499 13.0318C3.05559 13.6745 3.85148 14 4.88806 14C4.92908 14 4.96737 14 5.0084 13.9973H8.99334C9.03437 13.9973 9.07539 14 9.11368 14C10.1503 14 10.9434 13.6745 11.4768 13.0318C12.5817 11.6944 12.1414 9.47626 12.1085 9.31763ZM5.56635 3.31424H5.56361C5.51985 3.30603 5.48977 3.26774 5.48977 3.22398C5.48977 3.17202 5.53079 3.13099 5.58276 3.13099H8.4983C8.55027 3.13099 8.59129 3.17202 8.59129 3.22398C8.59129 3.27595 8.55027 3.31697 8.4983 3.31697H5.58002C5.57455 3.31424 5.57182 3.31424 5.56635 3.31424ZM5.48703 2.61407C5.48703 2.56484 5.52806 2.52381 5.57729 2.52108H8.49557C8.5448 2.52108 8.58582 2.5621 8.58582 2.61407C8.58582 2.66603 8.5448 2.70706 8.49283 2.70706H5.58002C5.52806 2.70706 5.48703 2.66603 5.48703 2.61407ZM8.88668 0.469804C8.85659 0.488949 8.8265 0.508094 8.79915 0.52724C8.79915 0.52724 8.79642 0.529975 8.79368 0.529975C8.73078 0.571 8.67061 0.609291 8.6077 0.647581C8.34787 0.806213 8.08258 0.901939 7.80087 0.9457C7.49454 0.992195 7.17455 0.975785 6.87369 0.904674C6.74241 0.871854 6.6166 0.828093 6.48532 0.765187C6.47985 0.762452 6.47711 0.759717 6.47164 0.759717C6.93933 0.571 7.82822 0.316642 8.88668 0.469804ZM5.96566 0.959375L6.00122 0.981255C6.26652 1.14536 6.51267 1.25202 6.7725 1.31493C7.12532 1.39971 7.50275 1.41613 7.86104 1.36416C8.18924 1.31493 8.49283 1.20553 8.79368 1.03049C8.62411 1.33134 8.45728 1.69783 8.35881 2.09988H5.70857C5.55267 1.45989 5.19712 0.858179 4.94002 0.486214C5.31472 0.55459 5.61831 0.743307 5.96566 0.959375ZM11.1485 12.761C10.6836 13.3245 9.95881 13.598 9.00155 13.5733H5.0002C4.0402 13.5952 3.31815 13.3245 2.85319 12.761C1.86038 11.5658 2.30345 9.42156 2.30892 9.39968C2.30892 9.39695 2.31166 9.39148 2.31166 9.38874C2.60978 7.49884 5.16977 4.30158 5.62925 3.73817H8.37249C8.82377 4.28791 11.392 7.4961 11.6901 9.38874C11.6901 9.39148 11.6901 9.39695 11.6928 9.39968C11.6956 9.42156 12.1414 11.5604 11.1485 12.761ZM6.9995 6.36927C5.73865 6.36927 4.71302 7.39491 4.71302 8.65576C4.71302 9.9166 5.73865 10.9422 6.9995 10.9422C8.26035 10.9422 9.28599 9.9166 9.28599 8.65576C9.28873 7.39491 8.26035 6.36927 6.9995 6.36927ZM6.9995 10.5183C5.97113 10.5183 5.13695 9.68139 5.13695 8.65576C5.13695 7.63012 5.97387 6.7932 6.9995 6.7932C8.02514 6.7932 8.86206 7.62738 8.86206 8.65576C8.86206 9.68413 8.02788 10.5183 6.9995 10.5183ZM7.76805 9.05233C7.76805 9.3696 7.52189 9.63216 7.21284 9.65678V9.76618C7.21284 9.88378 7.11711 9.97951 6.9995 9.97951C6.8819 9.97951 6.78617 9.88378 6.78617 9.76618V9.65951H6.63574C6.51814 9.65951 6.42241 9.56379 6.42241 9.44618C6.42241 9.32857 6.51814 9.23285 6.63574 9.23285H7.15814C7.20674 9.23285 7.25335 9.21354 7.28771 9.17918C7.32208 9.14481 7.34138 9.0982 7.34138 9.0496C7.34138 9.001 7.32208 8.95439 7.28771 8.92002C7.25335 8.88566 7.20674 8.86635 7.15814 8.86635H6.83814C6.50173 8.86635 6.23096 8.59285 6.23096 8.25918C6.23096 7.94191 6.47711 7.67935 6.78617 7.65473V7.54533C6.78617 7.42773 6.8819 7.332 6.9995 7.332C7.11711 7.332 7.21284 7.42773 7.21284 7.54533V7.652H7.36326C7.48087 7.652 7.5766 7.74772 7.5766 7.86533C7.5766 7.98294 7.48087 8.07866 7.36326 8.07866H6.84087C6.79227 8.07866 6.74566 8.09797 6.7113 8.13234C6.67693 8.1667 6.65762 8.21331 6.65762 8.26191C6.65762 8.31051 6.67693 8.35712 6.7113 8.39149C6.74566 8.42585 6.79227 8.44516 6.84087 8.44516H7.16087C7.49454 8.44242 7.76805 8.71593 7.76805 9.05233Z" fill="white"/>
</g>
<defs>
<clipPath id="clip0_709_7970">
<rect width="14" height="14" fill="white"/>
</clipPath>
</defs>
</svg>
