<svg width="24" height="25" viewBox="0 0 24 25" fill="none" xmlns="http://www.w3.org/2000/svg">
<g clip-path="url(#clip0_2492_10201)">
<path d="M19.875 10.3983V1.54834H4.125V10.0233L2.2125 11.9358C1.9875 12.1608 1.875 12.4233 1.875 12.7233V22.9233C1.875 23.5608 2.3625 24.0483 3 24.0483H21C21.6375 24.0483 22.125 23.5608 22.125 22.9233V13.0983C22.125 12.7983 22.0125 12.4983 21.7875 12.3108L19.875 10.3983ZM21.1125 12.7233L19.875 13.3983V11.4858L21.1125 12.7233ZM19.125 2.29834V13.7733L12.1875 17.5233C12.075 17.5983 11.925 17.5983 11.8125 17.5233L4.875 13.5108V2.29834H19.125ZM4.125 13.0608L2.85 12.3483L4.125 11.0733V13.0608ZM21 23.2983H3C2.775 23.2983 2.625 23.1483 2.625 22.9233V13.0608L11.4375 18.1608C11.775 18.3483 12.1875 18.3483 12.525 18.1608L21.375 13.4358V22.9233C21.375 23.1483 21.225 23.2983 21 23.2983Z" fill="black"/>
<path d="M12 9.04834C13.65 9.04834 15 7.69834 15 6.04834H14.25C14.25 7.28584 13.2375 8.29834 12 8.29834C10.7625 8.29834 9.75 7.28584 9.75 6.04834C9.75 4.81084 10.7625 3.79834 12 3.79834C12.3375 3.79834 12.675 3.87334 12.975 4.02334L13.3125 3.34834C12.9 3.16084 12.45 3.04834 12 3.04834C10.35 3.04834 9 4.39834 9 6.04834C9 7.69834 10.35 9.04834 12 9.04834Z" fill="black"/>
<path d="M11.1375 5.41089L10.6125 5.93589L12 7.32339L14.8875 4.43589L14.3625 3.91089L12 6.27339L11.1375 5.41089Z" fill="black"/>
<path d="M18 9.79834H14.625V10.5483H18V9.79834Z" fill="black"/>
<path d="M9.375 11.2983H6V12.0483H9.375V11.2983Z" fill="black"/>
<path d="M18 12.7983H6V13.5483H18V12.7983Z" fill="black"/>
<path d="M15.375 14.2983H8.625V15.0483H15.375V14.2983Z" fill="black"/>
<path d="M6.75 21.0483H3.75V21.7983H6.75V21.0483Z" fill="black"/>
<path d="M18 11.2983H10.125V12.0483H18V11.2983Z" fill="black"/>
<path d="M13.875 9.79834H6V10.5483H13.875V9.79834Z" fill="black"/>
</g>
<defs>
<clipPath id="clip0_2492_10201">
<rect width="24" height="24" fill="white" transform="translate(0 0.79834)"/>
</clipPath>
</defs>
</svg>
