<?xml version="1.0" standalone="no"?>
<!DOCTYPE svg PUBLIC "-//W3C//DTD SVG 20010904//EN"
 "http://www.w3.org/TR/2001/REC-SVG-20010904/DTD/svg10.dtd">
<svg version="1.0" xmlns="http://www.w3.org/2000/svg"
 width="512.000000pt" height="512.000000pt" viewBox="0 0 512.000000 512.000000"
 preserveAspectRatio="xMidYMid meet">

<g transform="translate(0.000000,512.000000) scale(0.100000,-0.100000)"
fill="#000000" stroke="none">
<path d="M344 3701 c-17 -10 -42 -34 -55 -53 l-24 -33 -3 -1320 -2 -1320 22
-45 c13 -24 36 -53 51 -64 l28 -21 2130 -3 c2353 -2 2171 -8 2225 64 l29 37 0
1338 0 1338 -21 28 c-11 15 -36 38 -54 51 l-33 22 -2131 0 c-2075 0 -2132 -1
-2162 -19z m4246 -1421 l0 -1280 -2085 0 -2085 0 0 1280 0 1280 2085 0 2085 0
0 -1280z"/>
<path d="M659 3377 c-106 -70 -97 -222 17 -277 111 -54 232 31 222 155 -3 29
-13 63 -24 78 -49 66 -151 87 -215 44z"/>
<path d="M1702 3323 l3 -78 803 -3 802 -2 0 80 0 80 -805 0 -806 0 3 -77z"/>
<path d="M1280 2904 c-117 -43 -196 -140 -215 -265 -8 -54 14 -155 46 -206 12
-19 20 -35 18 -36 -2 -1 -38 -19 -80 -40 -132 -65 -249 -185 -286 -292 -24
-69 -22 -159 5 -211 24 -47 85 -105 141 -133 113 -58 317 -87 551 -77 305 12
472 77 539 211 32 64 27 165 -12 249 -40 86 -158 199 -262 251 -44 21 -82 41
-84 42 -2 2 9 26 24 55 23 43 30 69 33 134 4 73 1 89 -22 140 -55 120 -149
185 -276 191 -52 2 -89 -2 -120 -13z m184 -167 c48 -27 76 -77 76 -135 0 -52
-19 -91 -60 -125 -112 -95 -289 20 -250 162 28 105 140 152 234 98z m107 -489
c89 -33 148 -69 204 -124 57 -57 85 -111 85 -163 0 -32 -6 -44 -35 -70 -73
-63 -273 -98 -510 -88 -227 10 -369 53 -402 121 -51 108 134 295 341 342 90
20 234 12 317 -18z"/>
<path d="M2350 2840 l0 -80 880 0 880 0 0 80 0 80 -880 0 -880 0 0 -80z"/>
<path d="M2350 2520 l0 -80 480 0 480 0 0 80 0 80 -480 0 -480 0 0 -80z"/>
<path d="M2376 2259 c-34 -27 -36 -82 -4 -116 l21 -23 -21 -23 c-32 -34 -30
-89 4 -116 34 -26 64 -27 97 -1 14 11 28 20 32 20 4 0 18 -9 32 -20 33 -26 63
-25 97 1 34 27 36 82 4 116 l-21 23 21 23 c32 34 30 89 -4 116 -34 26 -64 27
-97 1 -14 -11 -28 -20 -32 -20 -4 0 -18 9 -32 20 -33 26 -63 25 -97 -1z"/>
<path d="M2855 2255 c-32 -31 -33 -80 -3 -112 l21 -23 -21 -23 c-30 -32 -29
-81 3 -112 29 -30 64 -32 98 -5 14 11 28 20 32 20 4 0 18 -9 32 -20 34 -26 66
-25 99 3 35 31 37 77 4 112 l-23 25 23 25 c33 35 31 81 -4 112 -33 28 -65 29
-99 3 -14 -11 -28 -20 -32 -20 -4 0 -18 9 -32 20 -34 27 -69 25 -98 -5z"/>
<path d="M3335 2255 c-31 -30 -32 -73 -4 -109 l20 -26 -20 -26 c-28 -36 -27
-79 4 -109 29 -30 64 -32 98 -5 14 11 28 20 32 20 4 0 18 -9 32 -20 34 -26 66
-25 99 3 34 29 36 75 6 116 l-20 28 20 21 c31 30 28 79 -6 109 -33 28 -65 29
-99 3 l-26 -20 -33 20 c-44 26 -74 25 -103 -5z"/>
<path d="M3815 2255 c-31 -30 -32 -73 -4 -109 l20 -26 -20 -26 c-28 -36 -27
-79 4 -109 29 -30 59 -31 103 -5 l33 20 26 -20 c36 -28 69 -25 104 9 34 35 36
54 9 99 -20 32 -20 32 0 65 27 44 25 63 -9 98 -35 34 -68 37 -105 8 l-26 -20
-29 20 c-39 28 -76 26 -106 -4z"/>
<path d="M2350 1560 l0 -80 80 0 80 0 0 80 0 80 -80 0 -80 0 0 -80z"/>
<path d="M2670 1560 l0 -80 80 0 80 0 0 80 0 80 -80 0 -80 0 0 -80z"/>
<path d="M3150 1560 l0 -80 80 0 80 0 0 80 0 80 -80 0 -80 0 0 -80z"/>
<path d="M3470 1560 l0 -80 80 0 80 0 0 80 0 80 -80 0 -80 0 0 -80z"/>
<path d="M3790 1560 l0 -80 80 0 80 0 0 80 0 80 -80 0 -80 0 0 -80z"/>
<path d="M4110 1560 l0 -80 80 0 80 0 0 80 0 80 -80 0 -80 0 0 -80z"/>
<path d="M740 1240 l0 -80 1765 0 1765 0 0 80 0 80 -1765 0 -1765 0 0 -80z"/>
</g>
</svg>
