<?xml version="1.0" standalone="no"?>
<!DOCTYPE svg PUBLIC "-//W3C//DTD SVG 20010904//EN"
 "http://www.w3.org/TR/2001/REC-SVG-20010904/DTD/svg10.dtd">
<svg version="1.0" xmlns="http://www.w3.org/2000/svg"
 width="512.000000pt" height="512.000000pt" viewBox="0 0 512.000000 512.000000"
 preserveAspectRatio="xMidYMid meet">

<g transform="translate(0.000000,512.000000) scale(0.100000,-0.100000)"
fill="#000000" stroke="none">
<path d="M695 4966 c-44 -20 -83 -60 -105 -108 -19 -42 -20 -91 -20 -2299 l0
-2255 25 -51 c16 -32 41 -61 67 -79 l41 -29 1767 0 1766 0 76 38 c81 40 152
107 189 179 51 101 49 -3 49 2198 0 2237 4 2101 -57 2212 -36 67 -110 133
-191 171 l-67 32 -1755 2 c-1446 2 -1760 0 -1785 -11z m3140 -151 c60 -29 119
-94 138 -150 16 -45 17 -217 17 -2105 0 -1888 -1 -2060 -17 -2105 -19 -56 -78
-121 -138 -150 -39 -20 -68 -20 -1562 -23 l-1521 -2 -21 26 -21 27 0 2227 0
2227 21 27 21 26 1521 -2 c1494 -3 1523 -3 1562 -23z m426 -7 c68 -36 120 -98
139 -166 14 -51 14 -4113 0 -4164 -19 -68 -71 -130 -139 -165 -55 -29 -72 -33
-142 -33 -43 0 -79 2 -79 5 0 2 11 20 25 40 13 20 34 62 47 93 l23 57 0 2085
0 2085 -23 57 c-13 31 -34 73 -47 93 -14 20 -25 38 -25 40 0 3 36 5 79 5 70 0
87 -4 142 -32z"/>
<path d="M2221 4259 c-520 -64 -927 -453 -1017 -969 -23 -134 -15 -340 19
-471 186 -716 965 -1084 1626 -769 726 347 894 1292 332 1868 -123 126 -304
238 -470 291 -144 47 -350 68 -490 50z m59 -324 l0 -175 -145 0 c-101 0 -145
3 -145 11 0 21 71 151 112 206 41 54 139 133 165 133 10 0 13 -36 13 -175z
m191 159 c42 -21 103 -78 143 -133 31 -42 106 -180 106 -195 0 -3 -67 -6 -150
-6 l-150 0 0 175 c0 116 4 175 10 175 6 0 25 -7 41 -16z m-521 -96 c-39 -59
-71 -121 -103 -200 l-16 -38 -132 0 -133 0 30 31 c53 58 116 114 168 150 48
34 202 118 218 119 4 0 -10 -28 -32 -62z m907 -3 c94 -53 273 -202 273 -227 0
-4 -57 -8 -127 -8 l-128 0 -44 95 c-24 52 -59 117 -77 145 -19 29 -34 54 -34
56 0 7 71 -25 137 -61z m-1071 -382 c-25 -85 -56 -305 -56 -395 0 -31 -5 -60
-10 -63 -6 -4 -96 -3 -201 1 l-191 7 6 63 c9 88 49 224 96 322 l39 82 161 0
c149 0 161 -1 156 -17z m494 -217 l0 -233 -82 -6 c-46 -4 -139 -7 -207 -7
l-124 0 6 113 c5 105 36 286 57 342 l10 25 170 0 170 0 0 -234z m500 197 c17
-61 48 -251 55 -345 l7 -88 -211 0 -211 0 0 228 c0 126 3 232 7 235 3 4 82 7
174 7 l168 0 11 -37z m498 -54 c42 -86 85 -230 94 -321 l6 -48 -123 0 c-67 0
-156 -3 -197 -6 l-76 -7 -7 89 c-5 74 -23 192 -52 357 l-5 28 158 -3 159 -3
43 -86z m91 -575 c-13 -104 -48 -217 -98 -317 l-46 -92 -157 -3 c-87 -1 -158
0 -158 2 0 2 9 42 19 88 20 83 34 181 46 316 l7 72 197 0 197 0 -7 -66z
m-1661 50 c18 -5 22 -13 22 -48 0 -66 20 -208 44 -316 l23 -100 -158 0 -157 0
-46 93 c-49 99 -89 228 -100 320 l-7 57 178 0 c98 0 188 -3 201 -6z m572 -229
l0 -235 -169 0 -168 0 -16 58 c-25 90 -47 219 -54 314 l-6 87 119 4 c65 1 158
4 207 5 l87 2 0 -235z m555 163 c-9 -106 -32 -243 -53 -323 l-18 -70 -172 -3
-172 -2 0 235 0 235 211 0 211 0 -7 -72z m-966 -595 c14 -31 46 -92 72 -134
l47 -78 -37 15 c-101 42 -240 135 -311 208 l-44 46 124 0 125 0 24 -57z m411
-103 c0 -88 -2 -160 -5 -160 -24 0 -91 49 -141 102 -48 52 -134 187 -134 212
0 3 63 6 140 6 l140 0 0 -160z m396 93 c-20 -38 -56 -94 -81 -125 -43 -55
-136 -128 -162 -128 -10 0 -13 38 -13 160 l0 160 146 0 145 0 -35 -67z m386
17 c-29 -28 -81 -70 -115 -94 -60 -43 -218 -128 -225 -121 -2 2 10 24 27 49
18 25 50 84 73 131 l40 85 127 0 126 -1 -53 -49z"/>
<path d="M1136 1428 c-21 -29 -20 -61 2 -87 l17 -21 1199 2 1199 3 19 26 c21
28 18 57 -8 84 -14 13 -160 15 -1214 15 l-1199 0 -15 -22z"/>
<path d="M1471 964 c-12 -15 -21 -30 -21 -35 0 -25 22 -57 47 -68 21 -8 243
-11 869 -9 812 3 843 4 863 22 27 24 27 70 1 96 -20 20 -33 20 -879 20 l-860
0 -20 -26z"/>
</g>
</svg>
