<svg width="24" height="25" viewBox="0 0 24 25" fill="none" xmlns="http://www.w3.org/2000/svg">
<g clip-path="url(#clip0_2493_10223)">
<path d="M20.25 1.17334H5.25C5.04262 1.17334 4.875 1.34134 4.875 1.54834V2.67334H3.75C3.54263 2.67334 3.375 2.84134 3.375 3.04834V24.0483C3.375 24.2553 3.54263 24.4233 3.75 24.4233H18.75C18.9574 24.4233 19.125 24.2553 19.125 24.0483V22.9233H20.25C20.4574 22.9233 20.625 22.7553 20.625 22.5483V1.54834C20.625 1.34134 20.4574 1.17334 20.25 1.17334ZM18.375 23.6733H4.125V3.42334H15.375V6.04834C15.375 6.25534 15.5426 6.42334 15.75 6.42334H18.375V23.6733ZM17.8447 5.67334H16.125V3.95359L17.8447 5.67334ZM19.875 22.1733H19.125V6.04834C19.125 5.94446 19.083 5.85071 19.0148 5.78284L16.0155 2.78359C15.9476 2.71534 15.8539 2.67334 15.75 2.67334H5.625V1.92334H19.875V22.1733Z" fill="black"/>
<path d="M15 19.1734H13.875V18.0484C13.875 17.8414 13.7074 17.6734 13.5 17.6734C12.8797 17.6734 12.375 17.1686 12.375 16.5484V16.2C12.375 15.7991 12.531 15.4226 12.8164 15.1376L12.8408 15.1129C13.266 14.688 13.5 14.1229 13.5 13.5218V12.4234C13.5 11.7908 13.2315 11.184 12.7631 10.7584C12.2951 10.3331 11.6599 10.1231 11.0302 10.1839C9.89175 10.2923 9 11.3115 9 12.504V13.5218C9 14.1233 9.234 14.688 9.65738 15.111L9.6855 15.1399C9.969 15.4226 10.125 15.7991 10.125 16.2V16.5484C10.125 17.1686 9.62025 17.6734 9 17.6734C8.79262 17.6734 8.625 17.8414 8.625 18.0484V19.1734H7.5C6.87975 19.1734 6.375 19.6781 6.375 20.2984V21.0484C6.375 21.2554 6.54263 21.4234 6.75 21.4234H7.125V22.5484C7.125 22.7554 7.29263 22.9234 7.5 22.9234H15C15.2074 22.9234 15.375 22.7554 15.375 22.5484V21.4234H15.75C15.9574 21.4234 16.125 21.2554 16.125 21.0484V20.2984C16.125 19.6781 15.6202 19.1734 15 19.1734ZM9.375 18.3855C10.2296 18.2115 10.875 17.4536 10.875 16.5484V16.2C10.875 15.5985 10.641 15.0338 10.2176 14.6108L10.1895 14.5819C9.906 14.2991 9.75 13.9226 9.75 13.5218V12.504C9.75 11.694 10.3436 11.0029 11.1015 10.9305C11.5283 10.8896 11.9422 11.0254 12.2587 11.3134C12.5707 11.5969 12.75 12.0015 12.75 12.4234V13.5218C12.75 13.9226 12.594 14.2991 12.3086 14.5841L12.2842 14.6089C11.859 15.0338 11.625 15.5989 11.625 16.2V16.5484C11.625 17.454 12.2704 18.2115 13.125 18.3855V19.1734H9.375V18.3855ZM14.625 22.1734H7.875V21.4234H14.625V22.1734ZM15.375 20.6734H15H7.5H7.125V20.2984C7.125 20.0918 7.293 19.9234 7.5 19.9234H15C15.207 19.9234 15.375 20.0918 15.375 20.2984V20.6734Z" fill="black"/>
<path d="M5.25 7.17334H14.25C14.4574 7.17334 14.625 7.00534 14.625 6.79834V4.54834C14.625 4.34134 14.4574 4.17334 14.25 4.17334H5.25C5.04263 4.17334 4.875 4.34134 4.875 4.54834V6.79834C4.875 7.00534 5.04263 7.17334 5.25 7.17334ZM5.625 4.92334H13.875V6.42334H5.625V4.92334Z" fill="black"/>
<path d="M17.625 7.92334H4.875V8.67334H17.625V7.92334Z" fill="black"/>
<path d="M17.625 9.42334H13.875V10.1733H17.625V9.42334Z" fill="black"/>
<path d="M8.625 9.42334H4.875V10.1733H8.625V9.42334Z" fill="black"/>
</g>
<defs>
<clipPath id="clip0_2493_10223">
<rect width="24" height="24" fill="white" transform="translate(0 0.79834)"/>
</clipPath>
</defs>
</svg>
