<svg width="24" height="24" viewBox="0 0 24 24" fill="none" xmlns="http://www.w3.org/2000/svg">
<path d="M4.125 6.225V20.4C4.125 21.5581 5.06685 22.5 6.225 22.5H17.775C18.9331 22.5 19.875 21.5581 19.875 20.4V6.225C19.875 5.06685 18.9331 4.125 17.775 4.125H16.2V3.6C16.2 3.3102 15.9648 3.075 15.675 3.075H14.0338C13.8002 2.17042 12.977 1.5 12 1.5C11.023 1.5 10.2003 2.17042 9.96615 3.075H8.325C8.0352 3.075 7.8 3.3102 7.8 3.6V4.125H6.225C5.06685 4.125 4.125 5.06685 4.125 6.225ZM8.85 4.125H10.425C10.7148 4.125 10.95 3.8898 10.95 3.6C10.95 3.02092 11.4209 2.55 12 2.55C12.5791 2.55 13.05 3.02092 13.05 3.6C13.05 3.8898 13.2852 4.125 13.575 4.125H15.15V5.7H8.85V4.125ZM5.175 6.225C5.175 5.64592 5.64592 5.175 6.225 5.175H7.8V6.225C7.8 6.5148 8.0352 6.75 8.325 6.75H15.675C15.9648 6.75 16.2 6.5148 16.2 6.225V5.175H17.775C18.3541 5.175 18.825 5.64592 18.825 6.225V20.4C18.825 20.9791 18.3541 21.45 17.775 21.45H6.225C5.64592 21.45 5.175 20.9791 5.175 20.4V6.225Z" fill="black"/>
<path d="M10.4249 9.9001H16.1999C16.4897 9.9001 16.7249 9.6649 16.7249 9.3751C16.7249 9.0853 16.4897 8.8501 16.1999 8.8501H10.4249C10.1351 8.8501 9.8999 9.0853 9.8999 9.3751C9.8999 9.6649 10.1351 9.9001 10.4249 9.9001Z" fill="black"/>
<path d="M10.4249 13.05H16.1999C16.4897 13.05 16.7249 12.8148 16.7249 12.525C16.7249 12.2352 16.4897 12 16.1999 12H10.4249C10.1351 12 9.8999 12.2352 9.8999 12.525C9.8999 12.8148 10.1351 13.05 10.4249 13.05Z" fill="black"/>
<path d="M10.4249 16.1999H16.1999C16.4897 16.1999 16.7249 15.9647 16.7249 15.6749C16.7249 15.3851 16.4897 15.1499 16.1999 15.1499H10.4249C10.1351 15.1499 9.8999 15.3851 9.8999 15.6749C9.8999 15.9647 10.1351 16.1999 10.4249 16.1999Z" fill="black"/>
<path d="M10.4249 19.35H16.1999C16.4897 19.35 16.7249 19.1148 16.7249 18.825C16.7249 18.5352 16.4897 18.3 16.1999 18.3H10.4249C10.1351 18.3 9.8999 18.5352 9.8999 18.825C9.8999 19.1148 10.1351 19.35 10.4249 19.35Z" fill="black"/>
<path d="M7.7999 9.9001H8.3249C8.6147 9.9001 8.8499 9.6649 8.8499 9.3751C8.8499 9.0853 8.6147 8.8501 8.3249 8.8501H7.7999C7.5101 8.8501 7.2749 9.0853 7.2749 9.3751C7.2749 9.6649 7.5101 9.9001 7.7999 9.9001Z" fill="black"/>
<path d="M7.7999 13.05H8.3249C8.6147 13.05 8.8499 12.8148 8.8499 12.525C8.8499 12.2352 8.6147 12 8.3249 12H7.7999C7.5101 12 7.2749 12.2352 7.2749 12.525C7.2749 12.8148 7.5101 13.05 7.7999 13.05Z" fill="black"/>
<path d="M7.7999 16.1999H8.3249C8.6147 16.1999 8.8499 15.9647 8.8499 15.6749C8.8499 15.3851 8.6147 15.1499 8.3249 15.1499H7.7999C7.5101 15.1499 7.2749 15.3851 7.2749 15.6749C7.2749 15.9647 7.5101 16.1999 7.7999 16.1999Z" fill="black"/>
<path d="M7.7999 19.35H8.3249C8.6147 19.35 8.8499 19.1148 8.8499 18.825C8.8499 18.5352 8.6147 18.3 8.3249 18.3H7.7999C7.5101 18.3 7.2749 18.5352 7.2749 18.825C7.2749 19.1148 7.5101 19.35 7.7999 19.35Z" fill="black"/>
</svg>
