<svg width="24" height="24" viewBox="0 0 24 24" fill="none" xmlns="http://www.w3.org/2000/svg">
<g clip-path="url(#clip0_2487_10140)">
<path d="M18.552 3.7681H17.04C16.8 1.9921 15.288 0.600098 13.44 0.600098C11.592 0.600098 10.08 1.9921 9.81601 3.7681H8.32801C7.46401 3.7681 6.74401 4.4881 6.74401 5.3521V6.6481H5.44801C4.56001 6.6481 3.86401 7.3681 3.86401 8.2321V21.8401C3.86401 22.7041 4.58401 23.4241 5.44801 23.4241H15.648C16.512 23.4241 17.232 22.7041 17.232 21.8401V20.5441H18.528C19.392 20.5441 20.112 19.8241 20.112 18.9601V5.3521C20.112 4.4641 19.416 3.7681 18.552 3.7681ZM13.44 1.6081C14.904 1.6081 16.104 2.8081 16.104 4.2721C16.104 5.7361 14.904 6.9361 13.44 6.9361C11.976 6.9361 10.776 5.7361 10.776 4.2721C10.776 2.8081 11.976 1.6081 13.44 1.6081ZM16.248 21.8161C16.248 22.1281 15.984 22.3921 15.672 22.3921H5.47201C5.13601 22.3921 4.87201 22.1281 4.87201 21.8161V8.2081C4.87201 7.8961 5.13601 7.6321 5.47201 7.6321H6.76801V18.9601C6.76801 19.8241 7.48801 20.5441 8.35201 20.5441H16.272V21.8161H16.248ZM19.128 18.9601C19.128 19.2721 18.864 19.5361 18.552 19.5361H8.32801C8.01601 19.5361 7.75201 19.2721 7.75201 18.9601V5.3521C7.75201 5.0401 8.01601 4.7521 8.32801 4.7521H9.81601C10.056 6.5281 11.592 7.9201 13.44 7.9201C15.288 7.9201 16.824 6.5281 17.064 4.7521H18.552C18.864 4.7521 19.128 5.0161 19.128 5.3521V18.9601Z" fill="black"/>
<path d="M16.728 14.1121H10.128C9.86402 14.1121 9.62402 14.3281 9.62402 14.6161C9.62402 14.8801 9.84002 15.1201 10.128 15.1201H16.728C16.992 15.1201 17.232 14.9041 17.232 14.6161C17.232 14.3281 17.016 14.1121 16.728 14.1121Z" fill="black"/>
<path d="M16.728 16.5601H10.128C9.86402 16.5601 9.62402 16.7761 9.62402 17.0641C9.62402 17.3281 9.84002 17.5681 10.128 17.5681H16.728C16.992 17.5681 17.232 17.3521 17.232 17.0641C17.232 16.7761 17.016 16.5601 16.728 16.5601Z" fill="black"/>
<path d="M16.728 11.6401H10.128C9.86402 11.6401 9.62402 11.8561 9.62402 12.1441C9.62402 12.4081 9.84002 12.6481 10.128 12.6481H16.728C16.992 12.6481 17.232 12.4321 17.232 12.1441C17.232 11.8801 17.016 11.6401 16.728 11.6401Z" fill="black"/>
<path d="M16.728 9.19214H10.128C9.86402 9.19214 9.62402 9.40814 9.62402 9.69614C9.62402 9.96014 9.84002 10.2001 10.128 10.2001H16.728C16.992 10.2001 17.232 9.98414 17.232 9.69614C17.232 9.40814 17.016 9.19214 16.728 9.19214Z" fill="black"/>
<path d="M12.6961 5.472C12.7921 5.568 12.9121 5.64 13.0561 5.64C13.2001 5.64 13.3201 5.592 13.4161 5.472L14.7841 4.008C14.9761 3.816 14.9521 3.48 14.7601 3.312C14.5681 3.12 14.2321 3.144 14.0641 3.336L13.0561 4.416L12.6961 4.032C12.5041 3.84 12.1921 3.816 12.0001 4.008C11.8081 4.2 11.7841 4.512 11.9761 4.704L12.6961 5.472Z" fill="black"/>
</g>
<defs>
<clipPath id="clip0_2487_10140">
<rect width="24" height="24" fill="white"/>
</clipPath>
</defs>
</svg>
