<svg width="24" height="24" viewBox="0 0 24 24" fill="none" xmlns="http://www.w3.org/2000/svg">
<path d="M6.53162 10.8234C8.33462 10.8234 9.80148 9.35846 9.80148 7.55795C9.80148 5.75495 8.33462 4.28809 6.53162 4.28809C4.72862 4.28809 3.26172 5.75495 3.26172 7.55795C3.26172 9.35846 4.72858 10.8234 6.53162 10.8234ZM6.53162 5.02009C7.93094 5.02009 9.06948 6.15863 9.06948 7.55795C9.06948 8.95491 7.93094 10.0914 6.53162 10.0914C5.13231 10.0914 3.99377 8.95491 3.99377 7.55795C3.99372 6.15863 5.13231 5.02009 6.53162 5.02009Z" fill="#1A1B1E" stroke="#1A1B1E" stroke-width="0.5"/>
<path d="M5.89089 8.50818C5.95953 8.57678 6.0526 8.61533 6.14964 8.61533C6.24668 8.61533 6.33976 8.57678 6.40839 8.50818L7.79556 7.12101C7.93853 6.97804 7.93853 6.74643 7.79556 6.60346C7.65259 6.46049 7.42098 6.46049 7.27802 6.60346L6.14964 7.73165L5.78523 7.36724C5.75126 7.33325 5.71092 7.30628 5.66652 7.28788C5.62211 7.26948 5.57452 7.26001 5.52646 7.26001C5.4784 7.26001 5.43081 7.26948 5.38641 7.28788C5.342 7.30628 5.30166 7.33325 5.26769 7.36724C5.23369 7.40122 5.20673 7.44156 5.18833 7.48596C5.16993 7.53036 5.16046 7.57795 5.16046 7.62601C5.16046 7.67408 5.16993 7.72167 5.18833 7.76607C5.20673 7.81047 5.23369 7.85081 5.26769 7.88479L5.89089 8.50818ZM11.7315 6.7259H20.3717C20.4688 6.7259 20.5619 6.68734 20.6306 6.6187C20.6992 6.55006 20.7378 6.45697 20.7378 6.3599C20.7378 6.26283 20.6992 6.16973 20.6306 6.1011C20.5619 6.03246 20.4688 5.9939 20.3717 5.9939H11.7315C11.6344 5.9939 11.5413 6.03246 11.4727 6.1011C11.404 6.16973 11.3655 6.26283 11.3655 6.3599C11.3655 6.45697 11.404 6.55006 11.4727 6.6187C11.5413 6.68734 11.6344 6.7259 11.7315 6.7259ZM11.7315 9.1176H17.3562C17.4533 9.1176 17.5464 9.07904 17.615 9.0104C17.6836 8.94176 17.7222 8.84867 17.7222 8.7516C17.7222 8.65453 17.6836 8.56144 17.615 8.4928C17.5464 8.42416 17.4533 8.3856 17.3562 8.3856H11.7315C11.6344 8.3856 11.5413 8.42416 11.4727 8.4928C11.404 8.56144 11.3655 8.65453 11.3655 8.7516C11.3655 8.84867 11.404 8.94176 11.4727 9.0104C11.5413 9.07904 11.6344 9.1176 11.7315 9.1176ZM6.53158 19.2678C8.33458 19.2678 9.80144 17.8029 9.80144 16.0022C9.80144 14.1992 8.33458 12.7323 6.53158 12.7323C4.72858 12.7323 3.26172 14.1992 3.26172 16.0022C3.26167 17.8029 4.72853 19.2678 6.53158 19.2678ZM6.53158 13.4644C7.93089 13.4644 9.06944 14.6029 9.06944 16.0022C9.06944 17.3992 7.93089 18.5358 6.53158 18.5358C5.13227 18.5358 3.99372 17.3992 3.99372 16.0022C3.99367 14.6029 5.13227 13.4644 6.53158 13.4644Z" fill="#1A1B1E" stroke="#1A1B1E" stroke-width="0.5"/>
<path d="M5.89059 16.9525C5.92452 16.9866 5.96485 17.0136 6.00926 17.032C6.05366 17.0504 6.10127 17.0598 6.14934 17.0598C6.1974 17.0598 6.24501 17.0504 6.28941 17.032C6.33382 17.0136 6.37415 16.9866 6.40809 16.9525L7.79526 15.5653C7.93823 15.4224 7.93823 15.1908 7.79526 15.0478C7.65229 14.9048 7.42068 14.9048 7.27771 15.0478L6.14934 16.1762L5.78493 15.8118C5.64196 15.6688 5.41035 15.6688 5.26738 15.8118C5.12441 15.9547 5.12441 16.1863 5.26738 16.3293L5.89059 16.9525ZM11.7312 15.1702H20.3714C20.4685 15.1702 20.5616 15.1317 20.6302 15.063C20.6989 14.9944 20.7374 14.9013 20.7374 14.8042C20.7374 14.7072 20.6989 14.6141 20.6302 14.5454C20.5616 14.4768 20.4685 14.4382 20.3714 14.4382H11.7312C11.6341 14.4382 11.541 14.4768 11.4724 14.5454C11.4037 14.6141 11.3652 14.7072 11.3652 14.8042C11.3652 14.9013 11.4037 14.9944 11.4724 15.063C11.541 15.1317 11.6341 15.1702 11.7312 15.1702ZM11.7312 17.5621H17.3559C17.453 17.5621 17.546 17.5235 17.6147 17.4549C17.6833 17.3862 17.7219 17.2931 17.7219 17.1961C17.7219 17.099 17.6833 17.0059 17.6147 16.9373C17.546 16.8686 17.453 16.8301 17.3559 16.8301H11.7312C11.6341 16.8301 11.541 16.8686 11.4724 16.9373C11.4037 17.0059 11.3652 17.099 11.3652 17.1961C11.3652 17.2931 11.4037 17.3862 11.4724 17.4549C11.541 17.5235 11.6341 17.5621 11.7312 17.5621Z" fill="#1A1B1E" stroke="#1A1B1E" stroke-width="0.5"/>
</svg>
