<svg width="24" height="25" viewBox="0 0 24 25" fill="none" xmlns="http://www.w3.org/2000/svg">
<path d="M21.0001 12.7983C21.081 12.4285 21.2311 12.0773 21.4426 11.7633C21.6828 11.453 21.8555 11.0958 21.9498 10.7149C22.0441 10.3339 22.0578 9.93742 21.9901 9.55084C21.8147 9.18938 21.5651 8.86897 21.2575 8.6105C20.95 8.35204 20.5913 8.16133 20.2051 8.05084C19.8715 7.93642 19.5596 7.76653 19.2826 7.54834C19.1407 7.21052 19.0619 6.84956 19.0501 6.48334C19.0627 6.08422 18.9911 5.68693 18.8399 5.31735C18.6887 4.94777 18.4613 4.61418 18.1726 4.33834C17.8233 4.1506 17.4382 4.03885 17.0427 4.01041C16.6472 3.98197 16.2501 4.0375 15.8776 4.17334C15.5224 4.27697 15.1504 4.3101 14.7826 4.27084C14.4907 4.08788 14.2362 3.85119 14.0326 3.57334C13.805 3.22754 13.5057 2.93472 13.155 2.71474C12.8043 2.49475 12.4105 2.35274 12.0001 2.29834C11.5981 2.3524 11.212 2.49054 10.867 2.70376C10.522 2.91698 10.2257 3.2005 9.99758 3.53584C9.79396 3.81369 9.53945 4.05038 9.24758 4.23334C8.87971 4.2726 8.50772 4.23947 8.15258 4.13584C7.78003 4 7.38296 3.94447 6.98743 3.97291C6.59191 4.00135 6.20687 4.1131 5.85758 4.30084C5.56342 4.57402 5.33047 4.90641 5.17405 5.27613C5.01763 5.64584 4.9413 6.04449 4.95008 6.44584C4.94291 6.82473 4.86402 7.19882 4.71758 7.54834C4.44326 7.77982 4.13122 7.96248 3.79508 8.08834C3.40882 8.19883 3.0502 8.38954 2.74263 8.648C2.43506 8.90647 2.18544 9.22688 2.01008 9.58834C1.94235 9.97492 1.95607 10.3714 2.05034 10.7524C2.14462 11.1333 2.31738 11.4905 2.55758 11.8008C2.76482 12.1035 2.9148 12.4416 3.00008 12.7983C2.9192 13.1682 2.76906 13.5193 2.55758 13.8333C2.31738 14.1437 2.14462 14.5008 2.05034 14.8818C1.95607 15.2628 1.94235 15.6593 2.01008 16.0458C2.18544 16.4073 2.43506 16.7277 2.74263 16.9862C3.0502 17.2446 3.40882 17.4353 3.79508 17.5458C4.13122 17.6717 4.44326 17.8544 4.71758 18.0858C4.85947 18.4237 4.93827 18.7846 4.95008 19.1508C4.93747 19.55 5.0091 19.9472 5.16029 20.3168C5.31149 20.6864 5.53885 21.02 5.82758 21.2958C6.17687 21.4836 6.56191 21.5953 6.95743 21.6238C7.35296 21.6522 7.75003 21.5967 8.12258 21.4608C8.47772 21.3572 8.84971 21.3241 9.21758 21.3633C9.50945 21.5463 9.76396 21.783 9.96758 22.0608C10.199 22.3997 10.5 22.6853 10.8504 22.8987C11.2009 23.1121 11.5928 23.2483 12.0001 23.2983C12.4021 23.2443 12.7881 23.1061 13.1332 22.8929C13.4782 22.6797 13.7744 22.3962 14.0026 22.0608C14.2062 21.783 14.4607 21.5463 14.7526 21.3633C15.1204 21.3241 15.4924 21.3572 15.8476 21.4608C16.2201 21.5967 16.6172 21.6522 17.0127 21.6238C17.4082 21.5953 17.7933 21.4836 18.1426 21.2958C18.4313 21.02 18.6587 20.6864 18.8099 20.3168C18.9611 19.9472 19.0327 19.55 19.0201 19.1508C19.0319 18.7846 19.1107 18.4237 19.2526 18.0858C19.5269 17.8544 19.8389 17.6717 20.1751 17.5458C20.5613 17.4353 20.92 17.2446 21.2275 16.9862C21.5351 16.7277 21.7847 16.4073 21.9601 16.0458C22.0278 15.6593 22.0141 15.2628 21.9198 14.8818C21.8255 14.5008 21.6528 14.1437 21.4126 13.8333C21.2117 13.5171 21.0717 13.1661 21.0001 12.7983ZM20.1376 14.5683C20.3026 14.8683 20.6176 15.4158 20.5651 15.5808C20.5126 15.7458 19.9501 16.0158 19.5901 16.1808C19.0116 16.3917 18.4957 16.7451 18.0901 17.2083C17.7685 17.7437 17.5927 18.3539 17.5801 18.9783C17.5351 19.3533 17.4676 19.9683 17.3101 20.0808C17.1526 20.1933 16.5601 20.0808 16.2001 19.9908C15.595 19.8149 14.9553 19.7942 14.3401 19.9308C13.7691 20.1719 13.2704 20.557 12.8926 21.0483C12.6226 21.3483 12.2101 21.7983 12.0001 21.7983C11.7901 21.7983 11.3776 21.3483 11.1076 21.0483C10.736 20.56 10.2454 20.1753 9.68258 19.9308C9.46357 19.8654 9.23614 19.8326 9.00758 19.8333C8.6085 19.8484 8.21173 19.9011 7.82258 19.9908C7.46258 20.0658 6.85508 20.1858 6.71258 20.0808C6.57008 19.9758 6.48758 19.3308 6.44258 18.9783C6.42999 18.3539 6.25416 17.7437 5.93258 17.2083C5.52696 16.7451 5.01104 16.3917 4.43258 16.1808C4.07258 16.0158 3.52508 15.7683 3.45758 15.5808C3.39008 15.3933 3.72008 14.8683 3.88508 14.5683C4.23656 14.0399 4.44816 13.4309 4.50008 12.7983C4.44143 12.1638 4.22203 11.5546 3.86258 11.0283C3.69758 10.7283 3.38258 10.1808 3.43508 10.0158C3.48758 9.85084 4.05008 9.58084 4.41008 9.41584C4.98854 9.20496 5.50446 8.85156 5.91008 8.38834C6.23166 7.85297 6.40749 7.24274 6.42008 6.61834C6.46508 6.24334 6.53258 5.62834 6.69008 5.51584C6.84758 5.40334 7.44008 5.51584 7.80008 5.60584C8.40519 5.78181 9.04489 5.80244 9.66008 5.66584C10.2311 5.42473 10.7298 5.03971 11.1076 4.54834C11.3776 4.24834 11.7901 3.79834 12.0001 3.79834C12.2101 3.79834 12.6226 4.24834 12.8926 4.54834C13.2641 5.03665 13.7548 5.42142 14.3176 5.66584C14.9328 5.80244 15.5725 5.78181 16.1776 5.60584C16.5362 5.49344 16.9155 5.46269 17.2876 5.51584C17.4451 5.62834 17.5126 6.26584 17.5576 6.61834C17.5702 7.24274 17.746 7.85297 18.0676 8.38834C18.4732 8.85156 18.9891 9.20496 19.5676 9.41584C19.9276 9.58084 20.4751 9.82834 20.5426 10.0158C20.6101 10.2033 20.2801 10.7658 20.1151 11.0283C19.7636 11.5568 19.552 12.1658 19.5001 12.7983C19.5587 13.4329 19.7781 14.0421 20.1376 14.5683Z" fill="#1A1B1E"/>
<path d="M14.8426 10.0157L10.8751 13.9907L9.53264 12.6407C9.46271 12.5708 9.37969 12.5153 9.28833 12.4775C9.19696 12.4396 9.09903 12.4202 9.00014 12.4202C8.90124 12.4202 8.80332 12.4396 8.71195 12.4775C8.62058 12.5153 8.53757 12.5708 8.46764 12.6407C8.39771 12.7107 8.34224 12.7937 8.30439 12.885C8.26655 12.9764 8.24707 13.0743 8.24707 13.1732C8.24707 13.2721 8.26655 13.3701 8.30439 13.4614C8.34224 13.5528 8.39771 13.6358 8.46764 13.7057L10.3426 15.5807C10.4124 15.651 10.4953 15.7068 10.5867 15.7449C10.6781 15.783 10.7761 15.8026 10.8751 15.8026C10.9741 15.8026 11.0722 15.783 11.1636 15.7449C11.255 15.7068 11.3379 15.651 11.4076 15.5807L15.9076 11.0807C15.9776 11.0108 16.033 10.9278 16.0709 10.8364C16.1087 10.7451 16.1282 10.6471 16.1282 10.5482C16.1282 10.4493 16.1087 10.3514 16.0709 10.26C16.033 10.1687 15.9776 10.0857 15.9076 10.0157C15.8377 9.94581 15.7547 9.89033 15.6633 9.85249C15.572 9.81464 15.474 9.79517 15.3751 9.79517C15.2762 9.79517 15.1783 9.81464 15.087 9.85249C14.9956 9.89033 14.9126 9.94581 14.8426 10.0157Z" fill="#1A1B1E"/>
</svg>
