<svg width="14" height="14" viewBox="0 0 14 14" fill="none" xmlns="http://www.w3.org/2000/svg">
<path d="M10.7923 11.375H8.45898" stroke="#FE464B" stroke-linecap="round" stroke-linejoin="round"/>
<path d="M9.625 12.5418V10.2085" stroke="#FE464B" stroke-linecap="round" stroke-linejoin="round"/>
<path d="M7.09351 6.34067C7.03518 6.33484 6.96518 6.33484 6.90101 6.34067C5.51268 6.294 4.41018 5.1565 4.41018 3.7565C4.40434 2.32734 5.56518 1.1665 6.99434 1.1665C8.42351 1.1665 9.58434 2.32734 9.58434 3.7565C9.58434 5.1565 8.47601 6.294 7.09351 6.34067Z" stroke="#FE464B" stroke-linecap="round" stroke-linejoin="round"/>
<path d="M6.99492 12.7226C5.93325 12.7226 4.87742 12.4543 4.07242 11.9176C2.66076 10.9726 2.66076 9.43264 4.07242 8.49348C5.67659 7.42014 8.30742 7.42014 9.91159 8.49348" stroke="#FE464B" stroke-linecap="round" stroke-linejoin="round"/>
</svg>
