<svg width="417" height="248" viewBox="0 0 417 248" fill="none" xmlns="http://www.w3.org/2000/svg">
<g clip-path="url(#clip0_2682_14243)">
<path d="M118.11 0H80.7793V51.1206H118.11V0Z" fill="#F5F5F5"/>
<path d="M108.655 6.42871H71.3242V57.5494H108.655V6.42871Z" fill="#E0E0E0"/>
<path d="M284.613 76.3409C284.613 76.3409 284.551 76.3409 284.366 76.3409C284.18 76.3409 283.933 76.3409 283.624 76.3409C283.006 76.3409 282.017 76.3409 280.781 76.3409C278.309 76.3409 274.724 76.3409 270.212 76.4027C261.189 76.4027 248.519 76.4645 233.809 76.4645H233.685V76.3409C232.944 73.7447 233.376 70.7776 235.107 68.4287C236.776 66.1415 239.681 64.658 242.647 64.7198L242.524 64.9052C242.276 64.1635 242.215 63.298 242.215 62.4326C242.338 59.5892 243.945 56.8693 246.355 55.633C248.766 54.3349 251.794 54.3968 254.081 55.6949L253.896 55.7567C255.194 52.5423 257.975 50.2552 260.942 49.2043C263.97 48.0917 267.307 48.2771 269.903 49.637C272.561 50.997 274.415 53.2841 275.466 55.6949C276.516 58.1056 276.702 60.7018 276.146 62.989L276.022 62.8653C277.505 62.6799 278.989 62.9272 280.225 63.4835C281.461 63.978 282.573 64.7816 283.377 65.647C283.809 66.0797 284.118 66.5742 284.366 67.0687C284.613 67.5633 284.798 68.0578 284.86 68.5523C285.107 69.5413 285.169 70.4685 285.231 71.2721C285.293 72.9411 285.107 74.2392 284.922 75.0428C284.798 75.4755 284.737 75.7846 284.675 75.97C284.675 76.2173 284.613 76.3409 284.613 76.3409Z" fill="#EBEBEB"/>
<path d="M381.709 52.0477C376.641 52.9131 373.242 57.6728 374.045 62.7416C374.911 67.8104 379.67 71.2102 384.738 70.4066C389.064 69.6648 392.216 66.0796 392.463 61.8762L394.997 61.4435L396.357 58.6L398.335 60.8872L401.549 60.3308L402.97 57.4874L404.948 59.7745L407.667 59.3418L408.471 57.611L409.707 59.0327L411.314 58.7855L413.044 56.4365L410.016 53.0985L391.103 56.2511C389.188 53.1604 385.479 51.4295 381.709 52.0477ZM376.517 62.3089C376.27 60.8254 377.259 59.4654 378.742 59.2182C380.226 58.9709 381.585 59.96 381.833 61.4435C382.08 62.9271 381.091 64.287 379.608 64.5342C378.124 64.7815 376.765 63.7925 376.517 62.3089Z" fill="#EBEBEB"/>
<path d="M372.254 123.134L373.428 144.213C373.49 144.955 374.108 145.573 374.85 145.573L412.798 145.82C413.602 145.82 414.22 145.202 414.22 144.399L414.343 128.018C414.343 127.214 413.725 126.596 412.922 126.596H389.621C389.25 126.596 388.88 126.472 388.632 126.163L384.615 122.145C384.368 121.898 383.997 121.713 383.626 121.713L373.799 121.651C372.872 121.651 372.192 122.331 372.254 123.134Z" fill="#EBEBEB"/>
<path d="M414.32 124.154L372.91 123.852L372.728 148.639L414.137 148.941L414.32 124.154Z" fill="#F5F5F5"/>
<path d="M369.596 126.04L372.562 151.878C372.624 152.311 372.995 152.682 373.489 152.682L413.848 152.991C414.343 152.991 414.714 152.62 414.775 152.125L417 126.349C417.062 125.792 416.63 125.36 416.073 125.36L370.523 125.051C369.967 124.989 369.534 125.483 369.596 126.04Z" fill="#EBEBEB"/>
<path d="M367.494 239.531C357.853 232.794 355.69 220.369 356.06 209.119C356.122 207.264 355.937 205.286 356.802 203.617C357.667 201.948 359.769 200.836 361.437 201.639C362.797 202.319 363.415 203.926 364.219 205.224C365.269 207.017 366.815 208.501 368.607 209.428C369.781 210.046 371.265 210.417 372.439 209.799C374.046 208.933 374.231 206.708 374.231 204.792C374.231 201.33 374.169 197.868 374.169 194.407C374.169 192.552 374.169 190.636 374.726 188.905C375.282 187.113 376.58 185.505 378.372 185.011C380.165 184.516 382.328 185.506 382.699 187.36C382.884 188.102 382.699 188.905 382.76 189.647C382.822 190.389 383.193 191.254 383.935 191.502C384.676 191.749 385.418 191.192 385.974 190.636C387.89 188.782 389.188 186.309 390.424 183.96C391.66 181.549 392.835 179.077 394.565 177.037C396.296 174.997 398.706 173.39 401.364 173.204C404.021 173.081 406.864 174.688 407.544 177.284C408.224 179.88 406.679 182.538 405.01 184.702C402.538 187.854 399.633 190.636 396.357 192.923C395.801 193.356 395.121 193.789 394.936 194.469C394.503 195.705 395.678 196.941 396.914 197.374C398.273 197.807 399.819 197.683 401.24 197.868C402.662 198.054 404.269 198.672 404.825 200.032C405.566 201.948 404.021 203.926 402.414 205.224C399.262 207.821 395.678 209.922 391.907 211.282C390.548 211.777 389.126 212.209 388.014 213.198C386.901 214.187 386.221 215.856 386.901 217.155C387.581 218.453 389.25 218.885 390.733 218.638C392.155 218.391 393.453 217.587 394.812 217.093C397.346 216.104 400.684 216.289 402.291 218.514C403.341 219.936 403.465 221.976 402.909 223.707C402.353 225.438 401.24 226.921 400.066 228.281C395.987 233.103 390.733 236.935 384.8 239.037C378.867 241.139 373.366 241.695 367.494 239.531Z" fill="#EBEBEB"/>
<path d="M367.309 247.815C367.741 243.364 368.668 238.11 370.337 232.485C372.006 226.86 374.293 220.802 376.95 214.559C377.63 213.013 378.248 211.468 378.928 209.922C379.608 208.439 380.226 206.894 380.968 205.472C382.389 202.628 383.996 199.97 385.603 197.498C387.21 195.025 388.817 192.738 390.3 190.636C391.845 188.535 393.267 186.557 394.688 184.826C397.47 181.364 400.065 178.892 401.92 177.223C402.847 176.419 403.588 175.801 404.083 175.368C404.33 175.183 404.515 174.997 404.639 174.874C404.763 174.75 404.824 174.75 404.824 174.75C404.824 174.75 404.763 174.812 404.639 174.935C404.515 175.059 404.33 175.245 404.083 175.43C403.588 175.863 402.847 176.481 401.981 177.346C400.189 179.015 397.655 181.55 394.874 185.011C393.514 186.742 392.031 188.658 390.547 190.822C389.064 192.923 387.457 195.211 385.85 197.683C384.243 200.156 382.698 202.814 381.277 205.657C380.535 207.079 379.917 208.563 379.237 210.108C378.619 211.653 377.939 213.137 377.259 214.744C374.602 220.987 372.315 226.983 370.646 232.67C368.977 238.295 367.988 243.488 367.556 247.938" fill="#E0E0E0"/>
<path d="M381.092 205.472C381.092 205.472 381.031 205.162 380.907 204.668C380.783 204.173 380.722 203.432 380.536 202.504C380.289 200.65 379.98 198.054 379.733 195.272C379.424 192.429 379.115 189.894 378.867 188.04C378.744 187.113 378.62 186.371 378.497 185.876C378.435 185.382 378.373 185.073 378.373 185.073C378.373 185.073 378.497 185.32 378.62 185.876C378.744 186.371 378.929 187.113 379.115 188.04C379.486 189.894 379.795 192.429 380.104 195.272C380.413 198.054 380.66 200.588 380.845 202.566C380.969 203.432 381.031 204.173 381.092 204.792C381.092 205.162 381.092 205.472 381.092 205.472Z" fill="#E0E0E0"/>
<path d="M405.01 201.021C405.01 201.021 404.701 201.083 404.083 201.145C403.465 201.207 402.6 201.268 401.488 201.392C399.324 201.639 396.296 202.072 392.958 202.69C389.683 203.308 386.716 203.988 384.553 204.606C383.502 204.854 382.637 205.101 382.019 205.286C381.401 205.472 381.092 205.534 381.092 205.534C381.092 205.534 381.401 205.41 381.957 205.163C382.513 204.977 383.379 204.668 384.429 204.359C386.531 203.741 389.497 202.999 392.835 202.381C396.172 201.763 399.201 201.33 401.364 201.207C402.476 201.083 403.342 201.083 403.96 201.083C404.64 200.959 405.01 200.959 405.01 201.021Z" fill="#E0E0E0"/>
<path d="M370.647 232.052C370.647 232.052 370.585 231.928 370.462 231.743C370.338 231.496 370.214 231.248 370.029 230.878C369.658 230.136 369.226 229.023 368.607 227.663C367.433 224.943 365.95 221.111 364.405 216.846C362.86 212.58 361.376 208.748 360.326 205.966C359.769 204.606 359.337 203.494 359.028 202.69C358.904 202.319 358.78 202.01 358.657 201.825C358.595 201.639 358.533 201.516 358.533 201.516C358.533 201.516 358.595 201.639 358.719 201.825C358.842 202.072 358.966 202.319 359.151 202.69C359.522 203.432 359.955 204.545 360.573 205.904C361.747 208.624 363.23 212.457 364.776 216.722C366.321 220.987 367.804 224.82 368.855 227.601C369.411 228.961 369.844 230.074 370.153 230.878C370.276 231.248 370.4 231.557 370.523 231.743C370.647 231.928 370.647 232.052 370.647 232.052Z" fill="#E0E0E0"/>
<path d="M402.477 221.791C402.477 221.791 402.353 221.852 402.168 221.914C401.921 221.976 401.612 222.1 401.241 222.223C400.376 222.47 399.263 222.903 397.842 223.336C394.998 224.263 391.043 225.623 386.655 227.107C382.267 228.59 378.311 229.888 375.406 230.754C373.985 231.186 372.81 231.557 371.945 231.743C371.574 231.866 371.265 231.928 371.018 231.99C370.833 232.052 370.709 232.052 370.709 232.052C370.709 232.052 370.833 231.99 371.018 231.928C371.265 231.866 371.574 231.743 371.945 231.619C372.81 231.372 373.923 231.001 375.344 230.506C378.187 229.579 382.143 228.219 386.531 226.736C390.919 225.252 394.875 223.954 397.78 223.089C399.201 222.656 400.376 222.285 401.241 222.1C401.612 221.976 401.921 221.914 402.168 221.852C402.353 221.852 402.415 221.791 402.477 221.791Z" fill="#E0E0E0"/>
<path d="M406.556 247.876C406.556 247.938 317.68 248.062 208.099 248.062C98.4567 248.062 9.64258 248 9.64258 247.876C9.64258 247.753 98.4567 247.691 208.099 247.691C317.742 247.691 406.556 247.753 406.556 247.876Z" fill="#263238"/>
<path d="M360.82 226.303C361.871 227.663 363.849 227.106 364.714 226.179C365.579 225.252 365.888 223.954 366.197 222.718C366.877 219.874 367.495 216.969 366.753 214.187C366.506 213.322 366.197 212.518 365.579 211.9C364.961 211.282 364.034 210.973 363.231 211.22C362.242 211.529 361.685 212.518 361.315 213.445C360.14 216.227 359.584 219.256 359.769 222.223C359.708 223.707 359.955 225.19 360.82 226.303Z" fill="#FE464B"/>
<g opacity="0.2">
<path d="M360.82 226.303C361.871 227.663 363.849 227.106 364.714 226.179C365.579 225.252 365.888 223.954 366.197 222.718C366.877 219.874 367.495 216.969 366.753 214.187C366.506 213.322 366.197 212.518 365.579 211.9C364.961 211.282 364.034 210.973 363.231 211.22C362.242 211.529 361.685 212.518 361.315 213.445C360.14 216.227 359.584 219.256 359.769 222.223C359.708 223.707 359.955 225.19 360.82 226.303Z" fill="black"/>
</g>
<path d="M364.96 233.35C366.567 232.423 368.483 232.237 370.337 232.423C371.326 232.546 372.377 232.793 373.056 233.473C373.736 234.153 373.984 235.451 373.242 236.131C372.809 236.502 372.191 236.626 371.573 236.626C370.152 236.688 368.545 236.502 367.432 237.43C366.814 237.924 366.381 238.789 365.64 239.098C364.898 239.346 364.033 238.975 363.538 238.295C363.106 237.615 363.044 236.75 363.168 236.008C363.229 236.008 363.353 234.339 364.96 233.35Z" fill="#FE464B"/>
<path d="M358.162 228.467C359.212 227.107 359.274 225.19 358.718 223.583C358.162 221.976 356.987 220.678 355.628 219.565C354.082 218.329 352.29 217.402 350.374 216.784C349.632 216.536 348.829 216.413 348.087 216.536C347.284 216.66 346.542 217.093 346.233 217.773C345.739 218.823 346.295 220.06 346.913 221.049C347.964 222.78 349.2 224.449 350.498 225.994C351.548 227.23 352.784 228.467 354.33 228.961C355.875 229.456 357.482 229.332 358.223 228.219" fill="#FE464B"/>
<path d="M361.807 248C361.807 248 361.869 247.753 361.869 247.32C361.869 246.825 361.931 246.269 361.931 245.527C361.993 244.786 362.054 243.858 362.178 242.869C362.363 241.88 362.611 240.829 362.981 239.717C363.352 238.604 363.847 237.615 364.403 236.811C364.959 236.008 365.639 235.39 366.319 235.081C366.999 234.71 367.555 234.524 367.988 234.462C368.42 234.401 368.606 234.339 368.606 234.339C368.606 234.339 368.359 234.339 367.926 234.339C367.493 234.401 366.875 234.524 366.195 234.895C365.516 235.266 364.774 235.822 364.156 236.688C363.538 237.491 363.043 238.542 362.672 239.593C362.302 240.706 362.054 241.757 361.869 242.807C361.745 243.796 361.684 244.724 361.684 245.465C361.684 246.207 361.684 246.825 361.684 247.258C361.807 247.753 361.807 248 361.807 248Z" fill="#263238"/>
<path d="M361.871 246.578C361.871 246.578 361.871 246.455 361.871 246.269C361.871 246.022 361.871 245.775 361.809 245.404C361.747 244.662 361.685 243.549 361.685 242.189C361.623 239.47 361.685 235.761 361.871 231.681C362.118 227.601 362.551 223.892 362.921 221.234C363.045 220.554 363.107 219.936 363.23 219.442C363.292 218.885 363.416 218.453 363.478 218.082C363.539 217.711 363.601 217.464 363.663 217.216C363.725 217.031 363.725 216.907 363.725 216.907C363.725 216.907 363.663 217.031 363.663 217.216C363.601 217.464 363.539 217.711 363.478 218.082C363.354 218.453 363.292 218.885 363.169 219.442C363.045 219.936 362.921 220.554 362.86 221.234C362.427 223.892 361.932 227.601 361.685 231.743C361.438 235.884 361.438 239.593 361.562 242.313C361.623 243.673 361.685 244.724 361.747 245.527C361.809 245.898 361.809 246.146 361.871 246.393C361.871 246.516 361.871 246.578 361.871 246.578Z" fill="#263238"/>
<path d="M361.56 239.407C361.56 239.407 361.56 239.098 361.498 238.48C361.436 237.924 361.313 237.058 361.127 236.069C360.88 235.08 360.571 233.844 360.138 232.546C359.706 231.248 359.149 229.826 358.408 228.404C357.048 225.499 355.194 223.212 353.649 221.79C353.278 221.419 352.907 221.172 352.536 220.863C352.351 220.739 352.227 220.616 352.104 220.492C351.98 220.43 351.795 220.307 351.671 220.245C351.177 219.936 350.868 219.75 350.868 219.812C350.806 219.874 351.98 220.492 353.463 221.914C354.947 223.336 356.739 225.685 358.099 228.528C358.779 229.95 359.397 231.371 359.829 232.67C360.262 233.968 360.633 235.142 360.88 236.193C361.127 237.182 361.251 238.047 361.374 238.604C361.436 239.098 361.498 239.407 361.56 239.407Z" fill="#263238"/>
<path d="M70.0873 109.103H0.185547V155.897H70.0873V109.103Z" fill="#FAFAFA"/>
<path d="M51.0517 137.476H49.1975V126.288C49.1975 123.568 47.0343 121.404 44.3149 121.404C41.5955 121.404 39.4323 123.568 39.4323 126.288V137.476H37.5781V126.288C37.5781 122.579 40.6066 119.55 44.3149 119.55C48.0232 119.55 51.0517 122.579 51.0517 126.288V137.476Z" fill="#263238"/>
<path d="M51.4221 144.338H37.2068C36.0325 144.338 35.1055 143.41 35.1055 142.236V134.571C35.1055 133.396 36.0325 132.469 37.2068 132.469H51.4221C52.5964 132.469 53.5234 133.396 53.5234 134.571V142.236C53.5234 143.41 52.5964 144.338 51.4221 144.338Z" fill="#263238"/>
<path d="M44.3147 138.403C43.4494 138.403 42.7695 137.723 42.7695 136.858C42.7695 135.992 43.4494 135.312 44.3147 135.312C45.1799 135.312 45.8598 135.992 45.8598 136.858C45.8598 137.723 45.1799 138.403 44.3147 138.403Z" fill="#455A64"/>
<path d="M44.7481 137.476H43.8828V140.629H44.7481V137.476Z" fill="#455A64"/>
<path d="M34.6118 137.352C37.2076 136.239 39.0617 133.581 39.0617 130.429C39.0617 126.287 35.9715 122.949 32.0777 122.949C28.2458 122.949 25.0938 126.287 25.0319 130.367C25.0319 133.52 26.8861 136.239 29.4819 137.352C18.7278 138.959 19.2223 150.704 19.2223 150.704L44.686 150.828C44.7478 150.766 45.3041 138.959 34.6118 137.352Z" fill="#FE464B"/>
<path d="M70.026 155.897C70.026 155.897 70.026 155.587 70.026 155.031C70.026 154.475 70.026 153.609 70.026 152.559C70.026 150.395 70.026 147.181 69.9642 143.163C69.9642 135.003 69.9024 123.32 69.9024 109.103L70.026 109.227C50.7428 109.227 26.4533 109.227 0.186111 109.288L0.371526 109.103C0.371526 125.793 0.371526 141.617 0.371526 155.897L0.186111 155.773C20.7673 155.773 38.1963 155.835 50.4956 155.835C56.6761 155.835 61.5587 155.835 64.8962 155.897C66.5649 155.897 67.8629 155.897 68.7281 155.897C67.8629 155.897 66.5649 155.897 64.958 155.897C61.6205 155.897 56.7379 155.897 50.6192 155.958C38.2581 155.958 20.7673 156.02 0.186111 156.02H0.0625V155.897C0.0625 141.617 0.0625 125.793 0.0625 109.103V108.917H0.247916C26.577 108.917 50.8664 108.917 70.0878 108.979H70.2115V109.103C70.2115 123.382 70.1497 135.065 70.1497 143.225C70.1497 147.304 70.1497 150.457 70.0878 152.62C70.0878 153.671 70.0878 154.537 70.0878 155.093C70.026 155.649 70.026 155.897 70.026 155.897Z" fill="#263238"/>
<path d="M70.0255 114.728C70.0255 114.79 54.3888 114.913 35.1055 114.913C15.8223 114.913 0.185547 114.852 0.185547 114.728C0.185547 114.666 15.8223 114.542 35.1055 114.542C54.3888 114.542 70.0255 114.604 70.0255 114.728Z" fill="#263238"/>
<path d="M4.76067 111.884C4.76067 112.255 4.45164 112.626 4.01901 112.626C3.58637 112.626 3.27734 112.317 3.27734 111.884C3.27734 111.513 3.58637 111.143 4.01901 111.143C4.45164 111.143 4.76067 111.513 4.76067 111.884Z" fill="#263238"/>
<path d="M7.10833 111.884C7.10833 112.255 6.7993 112.626 6.36666 112.626C5.99583 112.626 5.625 112.317 5.625 111.884C5.625 111.513 5.93403 111.143 6.36666 111.143C6.7993 111.204 7.10833 111.513 7.10833 111.884Z" fill="#263238"/>
<path d="M9.64348 111.884C9.64348 112.255 9.33446 112.626 8.90182 112.626C8.53099 112.626 8.16016 112.317 8.16016 111.884C8.16016 111.513 8.46918 111.143 8.90182 111.143C9.33446 111.204 9.64348 111.513 9.64348 111.884Z" fill="#263238"/>
<path d="M70.026 155.897C70.026 155.897 70.026 155.587 70.026 155.031C70.026 154.475 70.026 153.609 70.026 152.559C70.026 150.395 70.026 147.181 69.9642 143.163C69.9642 135.003 69.9024 123.32 69.9024 109.103L70.026 109.227C50.7428 109.227 26.4533 109.227 0.186111 109.288L0.371526 109.103C0.371526 125.793 0.371526 141.617 0.371526 155.897L0.186111 155.773C20.7673 155.773 38.1963 155.835 50.4956 155.835C56.6761 155.835 61.5587 155.835 64.8962 155.897C66.5649 155.897 67.8629 155.897 68.7281 155.897C67.8629 155.897 66.5649 155.897 64.958 155.897C61.6205 155.897 56.7379 155.897 50.6192 155.958C38.2581 155.958 20.7673 156.02 0.186111 156.02H0.0625V155.897C0.0625 141.617 0.0625 125.793 0.0625 109.103V108.917H0.247916C26.577 108.917 50.8664 108.917 70.0878 108.979H70.2115V109.103C70.2115 123.382 70.1497 135.065 70.1497 143.225C70.1497 147.304 70.1497 150.457 70.0878 152.62C70.0878 153.671 70.0878 154.537 70.0878 155.093C70.026 155.649 70.026 155.897 70.026 155.897Z" fill="#263238"/>
<path d="M34.6737 157.442C34.6119 157.442 34.4883 157.071 34.4883 156.7C34.4883 156.267 34.5501 155.958 34.6737 155.958C34.7355 155.958 34.8591 156.329 34.8591 156.7C34.7973 157.132 34.7355 157.442 34.6737 157.442Z" fill="#263238"/>
<path d="M34.6737 164.241C34.6119 164.241 34.4883 163.5 34.4883 162.572C34.4883 161.645 34.5501 160.903 34.6737 160.903C34.7355 160.903 34.8591 161.645 34.8591 162.572C34.7973 163.438 34.7355 164.241 34.6737 164.241Z" fill="#263238"/>
<path d="M34.6737 170.979C34.6119 170.979 34.4883 170.237 34.4883 169.31C34.4883 168.383 34.5501 167.641 34.6737 167.641C34.7355 167.641 34.8591 168.383 34.8591 169.31C34.7973 170.237 34.7355 170.979 34.6737 170.979Z" fill="#263238"/>
<path d="M34.6737 177.717C34.6119 177.717 34.4883 176.975 34.4883 176.048C34.4883 175.121 34.5501 174.379 34.6737 174.379C34.7355 174.379 34.8591 175.121 34.8591 176.048C34.7973 176.975 34.7355 177.717 34.6737 177.717Z" fill="#263238"/>
<path d="M34.6737 184.516C34.6119 184.516 34.4883 183.774 34.4883 182.847C34.4883 181.92 34.5501 181.178 34.6737 181.178C34.7355 181.178 34.8591 181.92 34.8591 182.847C34.7973 183.774 34.7355 184.516 34.6737 184.516Z" fill="#263238"/>
<path d="M36.2188 189.4C36.2188 189.461 35.539 189.585 34.6737 189.585C34.3647 189.276 34.6119 189.523 34.4883 189.4V189.338V189.276V189.152C34.4883 189.09 34.4883 188.967 34.4883 188.843C34.4883 188.658 34.4883 188.472 34.5501 188.349C34.5501 188.04 34.6119 187.916 34.6737 187.916C34.7355 187.916 34.7355 188.101 34.7973 188.349C34.7973 188.472 34.7973 188.658 34.8591 188.843C34.8591 188.967 34.8591 189.029 34.8591 189.152V189.276V189.338V189.4C34.7973 189.338 35.0445 189.585 34.6737 189.214C35.4772 189.276 36.2188 189.338 36.2188 189.4Z" fill="#263238"/>
<path d="M42.2758 189.4C42.2758 189.462 41.596 189.585 40.7307 189.585C39.8654 189.585 39.1855 189.523 39.1855 189.4C39.1855 189.276 39.8654 189.214 40.7307 189.214C41.596 189.276 42.2758 189.338 42.2758 189.4Z" fill="#263238"/>
<path d="M48.3324 189.4C48.3324 189.462 47.6526 189.585 46.7873 189.585C45.922 189.585 45.2422 189.523 45.2422 189.4C45.2422 189.276 45.922 189.214 46.7873 189.214C47.6526 189.276 48.3324 189.338 48.3324 189.4Z" fill="#263238"/>
<path d="M54.3891 189.4C54.3891 189.462 53.7092 189.585 52.844 189.585C51.9787 189.585 51.2988 189.523 51.2988 189.4C51.2988 189.276 51.9787 189.214 52.844 189.214C53.7092 189.276 54.3891 189.338 54.3891 189.4Z" fill="#263238"/>
<path d="M60.5082 189.4C60.5082 189.462 59.8284 189.585 58.9631 189.585C58.0978 189.585 57.418 189.523 57.418 189.4C57.418 189.276 58.0978 189.214 58.9631 189.214C59.8284 189.276 60.5082 189.338 60.5082 189.4Z" fill="#263238"/>
<path d="M66.5649 189.4C66.5649 189.462 65.885 189.585 65.0197 189.585C64.1545 189.585 63.4746 189.523 63.4746 189.4C63.4746 189.276 64.1545 189.214 65.0197 189.214C65.885 189.276 66.5649 189.338 66.5649 189.4Z" fill="#263238"/>
<path d="M72.6215 189.4C72.6215 189.462 71.9417 189.585 71.0764 189.585C70.2111 189.585 69.5312 189.523 69.5312 189.4C69.5312 189.276 70.2111 189.214 71.0764 189.214C71.9417 189.276 72.6215 189.338 72.6215 189.4Z" fill="#263238"/>
<path d="M78.6782 189.4C78.6782 189.462 77.9983 189.585 77.133 189.585C76.2677 189.585 75.5879 189.523 75.5879 189.4C75.5879 189.276 76.2677 189.214 77.133 189.214C77.9983 189.276 78.6782 189.338 78.6782 189.4Z" fill="#263238"/>
<path d="M84.7973 189.4C84.7973 189.462 84.1174 189.585 83.2522 189.585C82.3869 189.585 81.707 189.523 81.707 189.4C81.707 189.276 82.3869 189.214 83.2522 189.214C84.1174 189.276 84.7973 189.338 84.7973 189.4Z" fill="#263238"/>
<path d="M90.8539 189.4C90.8539 189.462 90.1741 189.585 89.3088 189.585C88.4435 189.585 87.7637 189.523 87.7637 189.4C87.7637 189.276 88.4435 189.214 89.3088 189.214C90.1741 189.276 90.8539 189.338 90.8539 189.4Z" fill="#263238"/>
<path d="M96.9125 189.4C96.9125 189.462 96.2327 189.585 95.3674 189.585C94.5021 189.585 93.8223 189.523 93.8223 189.4C93.8223 189.276 94.5021 189.214 95.3674 189.214C96.2327 189.276 96.9125 189.338 96.9125 189.4Z" fill="#263238"/>
<path d="M101.485 189.4C101.485 189.462 101.114 189.585 100.743 189.585C100.31 189.585 99.9395 189.523 99.9395 189.4C99.9395 189.276 100.31 189.214 100.743 189.214C101.176 189.276 101.485 189.338 101.485 189.4Z" fill="#263238"/>
<path d="M102.227 14.2793H64.8965V65.3999H102.227V14.2793Z" fill="white"/>
<path d="M102.226 65.4C102.226 65.4 102.226 65.3382 102.226 65.1528C102.226 64.9673 102.226 64.7201 102.226 64.411C102.226 63.7928 102.226 62.8038 102.226 61.6293C102.226 59.1568 102.226 55.6333 102.164 51.1209C102.164 42.0959 102.102 29.3621 102.041 14.2794L102.226 14.4648C90.9775 14.4648 78.3074 14.4648 64.8957 14.5266L65.0811 14.3412C65.0811 33.4419 65.0811 51.1209 65.0811 65.4618L64.9575 65.3382C76.2678 65.3382 85.5386 65.4 92.09 65.4C95.3656 65.4 97.8997 65.4 99.6302 65.4618C100.495 65.4618 101.175 65.4618 101.608 65.4618C102.041 65.4 102.226 65.4 102.226 65.4C102.226 65.4 101.979 65.4 101.546 65.4C101.114 65.4 100.434 65.4 99.5684 65.4C97.8379 65.4 95.3038 65.4 92.0282 65.4618C85.4768 65.4618 76.1442 65.5237 64.8339 65.5855H64.7102V65.4618C64.7102 51.1209 64.6484 33.4419 64.6484 14.3412V14.1558H64.8339C78.2456 14.1558 90.9157 14.1558 102.164 14.1558H102.35V14.3412C102.35 29.4858 102.288 42.2814 102.288 51.3063C102.288 55.757 102.288 59.3422 102.226 61.753C102.226 62.9274 102.226 63.8547 102.226 64.5346C102.226 64.8437 102.226 65.091 102.226 65.2146C102.288 65.3382 102.288 65.4 102.226 65.4Z" fill="#263238"/>
<path d="M87.702 24.5404C87.702 24.6641 83.6228 24.7259 78.6166 24.7259C73.6104 24.7259 69.5312 24.6641 69.5312 24.5404C69.5312 24.4168 73.6104 24.355 78.6166 24.355C83.6847 24.355 87.702 24.4786 87.702 24.5404Z" fill="#263238"/>
<path d="M97.5297 28.9911C97.5297 29.1147 91.2874 29.1766 83.5617 29.1766C75.8361 29.1766 69.5938 29.1147 69.5938 28.9911C69.5938 28.8675 75.8361 28.8057 83.5617 28.8057C91.2874 28.8057 97.5297 28.8675 97.5297 28.9911Z" fill="#263238"/>
<path d="M97.5297 33.6273C97.5297 33.751 91.2874 33.8128 83.5617 33.8128C75.8361 33.8128 69.5938 33.751 69.5938 33.6273C69.5938 33.5037 75.8361 33.4419 83.5617 33.4419C91.2874 33.4419 97.5297 33.5037 97.5297 33.6273Z" fill="#263238"/>
<path d="M97.5297 38.2636C97.5297 38.3872 91.2874 38.449 83.5617 38.449C75.8361 38.449 69.5938 38.3872 69.5938 38.2636C69.5938 38.1399 75.8361 38.0781 83.5617 38.0781C91.2874 38.0781 97.5297 38.1399 97.5297 38.2636Z" fill="#263238"/>
<path d="M97.5297 42.8993C97.5297 43.0229 91.2874 43.0848 83.5617 43.0848C75.8361 43.0848 69.5938 43.0229 69.5938 42.8993C69.5938 42.7757 75.8361 42.7139 83.5617 42.7139C91.2874 42.7139 97.5297 42.7757 97.5297 42.8993Z" fill="#263238"/>
<path d="M97.5297 47.5355C97.5297 47.6592 91.2874 47.721 83.5617 47.721C75.8361 47.721 69.5938 47.6592 69.5938 47.5355C69.5938 47.4119 75.8361 47.3501 83.5617 47.3501C91.2874 47.3501 97.5297 47.4119 97.5297 47.5355Z" fill="#263238"/>
<path d="M97.5297 52.1718C97.5297 52.2954 91.2874 52.3572 83.5617 52.3572C75.8361 52.3572 69.5938 52.2954 69.5938 52.1718C69.5938 52.0481 75.8361 51.9863 83.5617 51.9863C91.2874 51.9863 97.5297 52.0481 97.5297 52.1718Z" fill="#263238"/>
<path d="M84.6117 56.808C84.6117 56.9316 81.2742 56.9934 77.0715 56.9934C72.9305 56.9934 69.5312 56.9316 69.5312 56.808C69.5312 56.6844 72.8687 56.6226 77.0715 56.6226C81.2742 56.6226 84.6117 56.6844 84.6117 56.808Z" fill="#263238"/>
<path d="M99.0122 69.1087C103.211 69.1087 106.614 65.7047 106.614 61.5055C106.614 57.3064 103.211 53.9023 99.0122 53.9023C94.8137 53.9023 91.4102 57.3064 91.4102 61.5055C91.4102 65.7047 94.8137 69.1087 99.0122 69.1087Z" fill="#FE464B"/>
<path d="M103.339 58.6C103.648 58.9091 102.165 61.0108 100.001 63.3598C99.6306 63.7306 99.3215 64.1015 99.0125 64.4106L98.5181 64.9051L98.0236 64.4724C96.1077 62.8652 94.9334 61.5053 95.1188 61.2581C95.366 60.949 96.9729 61.8144 98.9507 63.2979L97.9 63.3598C98.209 62.9889 98.5181 62.618 98.8889 62.2471C100.99 59.8981 103.03 58.291 103.339 58.6Z" fill="#E0E0E0"/>
<path d="M80.7186 68.1815C80.6568 68.1815 80.5332 67.5016 80.5332 66.6362C80.5332 65.7708 80.595 65.0908 80.7186 65.0908C80.8422 65.0908 80.904 65.7708 80.904 66.6362C80.904 67.5016 80.8422 68.1815 80.7186 68.1815Z" fill="#263238"/>
<path d="M80.7186 74.3632C80.6568 74.3632 80.5332 73.6832 80.5332 72.8178C80.5332 71.9524 80.595 71.2725 80.7186 71.2725C80.8422 71.2725 80.904 71.9524 80.904 72.8178C80.904 73.6832 80.8422 74.3632 80.7186 74.3632Z" fill="#263238"/>
<path d="M80.7186 80.5443C80.6568 80.5443 80.5332 79.8644 80.5332 78.999C80.5332 78.1336 80.595 77.4536 80.7186 77.4536C80.8422 77.4536 80.904 78.1336 80.904 78.999C80.904 79.8644 80.8422 80.5443 80.7186 80.5443Z" fill="#263238"/>
<path d="M80.7186 86.726C80.6568 86.726 80.5332 86.046 80.5332 85.1806C80.5332 84.3152 80.595 83.6353 80.7186 83.6353C80.8422 83.6353 80.904 84.3152 80.904 85.1806C80.904 86.046 80.8422 86.726 80.7186 86.726Z" fill="#263238"/>
<path d="M80.7186 92.9071C80.6568 92.9071 80.5332 92.2272 80.5332 91.3618C80.5332 90.4964 80.595 89.8164 80.7186 89.8164C80.8422 89.8164 80.904 90.4964 80.904 91.3618C80.904 92.2272 80.8422 92.9071 80.7186 92.9071Z" fill="#263238"/>
<path d="M80.7186 99.0888C80.6568 99.0888 80.5332 98.4088 80.5332 97.5434C80.5332 96.678 80.595 95.998 80.7186 95.998C80.8422 95.998 80.904 96.678 80.904 97.5434C80.904 98.4088 80.8422 99.0888 80.7186 99.0888Z" fill="#263238"/>
<path d="M80.7186 105.27C80.6568 105.27 80.5332 104.59 80.5332 103.725C80.5332 102.86 80.595 102.18 80.7186 102.18C80.8422 102.18 80.904 102.86 80.904 103.725C80.904 104.59 80.8422 105.27 80.7186 105.27Z" fill="#263238"/>
<path d="M80.7186 111.452C80.6568 111.452 80.5332 110.772 80.5332 109.906C80.5332 109.041 80.595 108.361 80.7186 108.361C80.8422 108.361 80.904 109.041 80.904 109.906C80.904 110.772 80.8422 111.452 80.7186 111.452Z" fill="#263238"/>
<path d="M83.7472 114.666C83.7472 114.728 83.0673 114.851 82.2021 114.851C81.5222 114.851 80.966 114.79 80.7805 114.728H80.7188V114.666C80.7188 114.604 80.7805 114.542 80.7805 114.542C80.7805 114.542 80.8424 114.604 80.8424 114.666L80.7805 114.604C81.0278 114.542 81.584 114.48 82.2021 114.48C83.0055 114.48 83.7472 114.542 83.7472 114.666Z" fill="#263238"/>
<path d="M89.9282 114.666C89.9282 114.728 89.2483 114.851 88.383 114.851C87.5177 114.851 86.8379 114.79 86.8379 114.666C86.8379 114.604 87.5177 114.48 88.383 114.48C89.1865 114.48 89.9282 114.542 89.9282 114.666Z" fill="#263238"/>
<path d="M96.1078 114.666C96.1078 114.728 95.428 114.851 94.5627 114.851C93.6974 114.851 93.0176 114.79 93.0176 114.666C93.0176 114.604 93.6974 114.48 94.5627 114.48C95.3662 114.48 96.1078 114.542 96.1078 114.666Z" fill="#263238"/>
<path d="M102.289 114.666C102.289 114.728 101.61 114.851 100.744 114.851C99.8791 114.851 99.1992 114.79 99.1992 114.666C99.1992 114.604 99.8791 114.48 100.744 114.48C101.548 114.48 102.289 114.542 102.289 114.666Z" fill="#263238"/>
<path d="M108.469 114.666C108.469 114.728 107.789 114.851 106.924 114.851C106.059 114.851 105.379 114.79 105.379 114.666C105.379 114.604 106.059 114.48 106.924 114.48C107.728 114.48 108.469 114.542 108.469 114.666Z" fill="#263238"/>
<path d="M211.375 58.724C211.313 58.724 211.189 58.0441 211.189 57.1787C211.189 56.3133 211.251 55.6333 211.375 55.6333C211.498 55.6333 211.56 56.3133 211.56 57.1787C211.56 58.0441 211.498 58.724 211.375 58.724Z" fill="#263238"/>
<path d="M211.375 64.9057C211.313 64.9057 211.189 64.2257 211.189 63.3603C211.189 62.4949 211.251 61.8149 211.375 61.8149C211.498 61.8149 211.56 62.4949 211.56 63.3603C211.56 64.2257 211.498 64.9057 211.375 64.9057Z" fill="#263238"/>
<path d="M211.375 71.0868C211.313 71.0868 211.189 70.4069 211.189 69.5415C211.189 68.6761 211.251 67.9961 211.375 67.9961C211.498 67.9961 211.56 68.6761 211.56 69.5415C211.56 70.4069 211.498 71.0868 211.375 71.0868Z" fill="#263238"/>
<path d="M211.375 77.2685C211.313 77.2685 211.189 76.5885 211.189 75.7231C211.189 74.8577 211.251 74.1777 211.375 74.1777C211.498 74.1777 211.56 74.8577 211.56 75.7231C211.56 76.5885 211.498 77.2685 211.375 77.2685Z" fill="#263238"/>
<path d="M211.375 83.4496C211.313 83.4496 211.189 82.7697 211.189 81.9043C211.189 81.0388 211.251 80.3589 211.375 80.3589C211.498 80.3589 211.56 81.0388 211.56 81.9043C211.56 82.7697 211.498 83.4496 211.375 83.4496Z" fill="#263238"/>
<path d="M211.375 89.6313C211.313 89.6313 211.189 88.9513 211.189 88.0859C211.189 87.2205 211.251 86.5405 211.375 86.5405C211.498 86.5405 211.56 87.2205 211.56 88.0859C211.56 88.9513 211.498 89.6313 211.375 89.6313Z" fill="#263238"/>
<path d="M211.375 95.8129C211.313 95.8129 211.189 95.1329 211.189 94.2675C211.189 93.4021 211.251 92.7222 211.375 92.7222C211.498 92.7222 211.56 93.4021 211.56 94.2675C211.56 95.1329 211.498 95.8129 211.375 95.8129Z" fill="#263238"/>
<path d="M211.375 101.994C211.313 101.994 211.189 101.314 211.189 100.449C211.189 99.5833 211.251 98.9033 211.375 98.9033C211.498 98.9033 211.56 99.5833 211.56 100.449C211.56 101.314 211.498 101.994 211.375 101.994Z" fill="#263238"/>
<path d="M253.34 62.6799C253.34 62.6799 253.216 62.6799 252.969 62.6799C252.722 62.6799 252.351 62.6799 251.857 62.6799C250.868 62.6799 249.446 62.6799 247.592 62.6799C243.822 62.6799 238.445 62.7417 231.646 62.7417C217.987 62.7417 198.766 62.8035 176.516 62.8035H176.392L176.331 62.6799C175.218 58.7856 175.898 54.2113 178.432 50.7497C180.966 47.2881 185.354 45.0628 189.866 45.1864L189.68 45.4336C189.371 44.321 189.186 43.0229 189.248 41.7248C189.433 37.4596 191.844 33.318 195.552 31.4636C199.198 29.5473 203.772 29.6091 207.233 31.5254L206.924 31.649C208.902 26.8275 213.105 23.304 217.616 21.6969C222.19 20.0279 227.196 20.2751 231.152 22.315C235.169 24.3549 237.95 27.8165 239.557 31.4636C241.164 35.1106 241.411 39.0667 240.608 42.4665L240.484 42.2811C242.771 42.0338 244.996 42.4047 246.85 43.2083C248.766 44.0119 250.373 45.1246 251.609 46.4227C252.227 47.1026 252.722 47.7826 253.093 48.5862C253.463 49.328 253.711 50.1315 253.896 50.8733C254.267 52.3569 254.391 53.7786 254.452 55.0149C254.514 57.5493 254.205 59.4655 253.958 60.7637C253.834 61.3818 253.711 61.8763 253.587 62.1854C253.402 62.5563 253.34 62.6799 253.34 62.6799Z" fill="#FE464B"/>
<path d="M246.356 41.5392H243.946V27.1982C243.946 23.7366 241.165 20.9549 237.704 20.9549C234.242 20.9549 231.461 23.7366 231.461 27.1982V41.5392H229.051V27.1982C229.051 22.4385 232.945 18.606 237.642 18.606C242.401 18.606 246.233 22.5003 246.233 27.1982V41.5392H246.356Z" fill="#E0E0E0"/>
<path d="M247.407 50.2551H228.062C226.888 50.2551 225.961 49.3279 225.961 48.1534V37.2741C225.961 36.0996 226.888 35.1724 228.062 35.1724H247.407C248.582 35.1724 249.509 36.0996 249.509 37.2741V48.2152C249.509 49.3279 248.582 50.2551 247.407 50.2551Z" fill="#E0E0E0"/>
<path d="M237.765 42.7135C236.652 42.7135 235.787 41.8481 235.787 40.7354C235.787 39.6227 236.652 38.7573 237.765 38.7573C238.877 38.7573 239.743 39.6227 239.743 40.7354C239.743 41.8481 238.816 42.7135 237.765 42.7135Z" fill="#455A64"/>
<path d="M238.26 41.5391H237.209V45.6188H238.26V41.5391Z" fill="#455A64"/>
<path d="M382.638 36.78C387.83 31.8966 388.139 23.7371 383.256 18.5447C378.373 13.3523 370.215 13.0432 365.023 17.9266C360.573 22.0681 359.708 28.6205 362.613 33.6893L360.017 36.1618L360.635 40.4889L356.556 39.3762L353.28 42.4669L353.898 46.794L349.819 45.6813L346.976 48.3393L347.347 50.9973L344.875 50.3174L343.206 51.8627L342.959 55.8807L348.954 57.3642L368.485 39.1289C373.12 41.1688 378.682 40.4271 382.638 36.78ZM380.722 20.9555C382.143 22.439 382.02 24.788 380.537 26.2097C379.053 27.6314 376.705 27.5078 375.283 26.0243C373.862 24.5407 373.985 22.1918 375.469 20.77C376.952 19.3483 379.3 19.4101 380.722 20.9555Z" fill="#263238"/>
<path d="M380.721 20.9555C380.721 20.9555 380.474 20.7083 379.979 20.3992C379.485 20.0901 378.681 19.781 377.631 19.9047C376.642 20.0283 375.406 20.6464 374.85 21.8827C374.231 23.0572 374.355 24.788 375.406 25.9007C376.456 27.0752 378.187 27.2606 379.361 26.7661C380.597 26.2716 381.339 25.0971 381.525 24.1081C381.71 23.119 381.463 22.2536 381.154 21.7591C380.906 21.2028 380.659 20.9555 380.721 20.9555C380.721 20.9555 380.783 21.0173 380.906 21.141C381.03 21.2646 381.154 21.45 381.339 21.6973C381.648 22.1918 381.957 23.0572 381.772 24.1699C381.648 25.2207 380.845 26.457 379.547 27.0751C378.867 27.3842 378.125 27.446 377.322 27.3224C376.518 27.1988 375.777 26.7661 375.22 26.1479C374.664 25.5298 374.293 24.7262 374.231 23.9844C374.108 23.1808 374.293 22.4391 374.664 21.7591C375.344 20.461 376.642 19.781 377.693 19.7192C378.805 19.6574 379.609 20.0283 380.103 20.3374C380.35 20.5228 380.536 20.6464 380.597 20.7701C380.659 20.8319 380.721 20.8937 380.721 20.9555Z" fill="#263238"/>
<path d="M382.638 36.7799C382.638 36.7799 382.576 36.8417 382.453 36.9653C382.329 37.089 382.144 37.2744 381.896 37.4599C381.34 37.8926 380.598 38.5107 379.424 39.067C378.25 39.6234 376.705 40.1179 374.85 40.3033C372.996 40.427 370.771 40.1797 368.546 39.2525H368.67C363.664 43.9504 356.927 50.2555 349.201 57.4878L349.14 57.5496H349.078C347.162 57.0551 345.122 56.5606 343.083 56.066H342.959V55.9424C343.021 54.7061 343.144 53.2844 343.206 51.9245V51.8627L343.268 51.8008C343.762 51.3063 344.319 50.8118 344.937 50.2555L344.875 50.07H344.937C345.678 50.2555 346.544 50.5027 347.409 50.75L347.224 50.9354C347.1 50.1318 346.976 49.2046 346.853 48.2774V48.2156L346.914 48.1538C347.78 47.3502 348.769 46.423 349.758 45.4958L349.819 45.4339H349.881C351.179 45.8048 352.539 46.1757 353.96 46.5466L353.775 46.732C353.589 45.3721 353.342 43.8886 353.157 42.405V42.3432L353.219 42.2814C353.466 42.0341 353.775 41.7251 354.084 41.4778C354.887 40.736 355.691 39.9943 356.494 39.2525L356.556 39.1907H356.618C357.978 39.5616 359.337 39.9324 360.697 40.3033L360.512 40.4888C360.326 39.0052 360.079 37.5835 359.894 36.1618V36.0999L359.955 36.0381C360.821 35.2345 361.686 34.3691 362.551 33.5655V33.751C361.562 31.8965 360.944 29.9185 360.883 27.8786C360.821 26.8896 360.882 25.8387 361.068 24.9115C361.253 23.9225 361.562 22.9953 361.933 22.1299C363.478 18.5446 366.569 15.9484 369.968 14.9594C373.305 13.9085 376.89 14.3412 379.609 15.7011C382.391 17.0611 384.368 19.3482 385.543 21.6353C386.655 23.9843 387.026 26.3951 386.841 28.3731C386.655 30.413 386.037 32.082 385.419 33.3183C385.357 33.5037 385.234 33.6274 385.172 33.751C385.11 33.8746 384.987 33.9982 384.925 34.1837C384.739 34.4309 384.616 34.6782 384.43 34.9255C384.059 35.3582 383.812 35.7291 383.565 35.9763C383.318 36.2236 383.132 36.409 382.947 36.5945C382.7 36.7181 382.638 36.7799 382.638 36.7799C382.638 36.7799 382.7 36.7181 382.823 36.5945C382.947 36.4708 383.132 36.2236 383.38 35.9763C383.627 35.7291 383.874 35.3582 384.245 34.9255C384.43 34.74 384.554 34.4309 384.739 34.1837C384.801 34.0601 384.925 33.9364 384.987 33.751C385.048 33.6274 385.11 33.4419 385.234 33.3183C385.852 32.082 386.47 30.413 386.593 28.3731C386.779 26.3951 386.408 23.9843 385.296 21.6971C384.121 19.41 382.205 17.1847 379.424 15.8866C376.705 14.5267 373.244 14.1558 369.968 15.2066C366.692 16.2575 363.664 18.7301 362.119 22.2535C361.748 23.1189 361.439 24.0461 361.315 24.9733C361.13 25.9005 361.068 26.8896 361.13 27.8786C361.192 29.8567 361.81 31.8347 362.798 33.6274L362.86 33.751L362.798 33.8128C361.933 34.6164 361.068 35.42 360.203 36.2854L360.264 36.1618C360.45 37.5835 360.697 39.067 360.883 40.4888L360.944 40.736L360.697 40.6742C359.337 40.3033 357.978 39.9324 356.618 39.5616L356.742 39.4997C355.938 40.2415 355.135 40.9833 354.331 41.7251C354.022 41.9723 353.713 42.2814 353.466 42.5287L353.528 42.405C353.713 43.8886 353.96 45.3721 354.146 46.732L354.208 46.9793L353.96 46.9175C352.539 46.5466 351.179 46.1139 349.881 45.8048L350.005 45.743C349.016 46.6702 348.089 47.5356 347.162 48.401L347.224 48.2774C347.347 49.2046 347.471 50.1318 347.594 50.9354L347.656 51.1827L347.409 51.1209C346.544 50.8736 345.678 50.6264 344.937 50.4409L345.06 50.3791C344.504 50.9354 343.948 51.4299 343.392 51.9245L343.453 51.8008C343.392 53.2226 343.268 54.5825 343.206 55.8188L343.083 55.6333C345.184 56.1897 347.224 56.6842 349.078 57.1787L348.954 57.2405C356.742 50.0082 363.478 43.7649 368.485 39.067L368.546 39.0052H368.608C370.771 39.9943 372.935 40.2415 374.789 40.1179C376.643 39.9943 378.188 39.4997 379.362 38.9434C380.537 38.3871 381.34 37.8307 381.896 37.398C382.144 37.2126 382.329 37.0272 382.453 36.9035C382.514 36.8417 382.638 36.7799 382.638 36.7799Z" fill="#263238"/>
<path d="M382.204 35.2961C387.396 30.4128 387.705 22.2532 382.822 17.0608C377.94 11.8684 369.782 11.5593 364.59 16.4427C360.14 20.5842 359.275 27.1366 362.179 32.2054L359.584 34.678L360.202 39.005L356.123 37.8923L352.847 40.983L353.465 45.3101L349.386 44.1974L346.543 46.8554L346.914 49.5135L344.441 48.8335L342.773 50.3789L342.525 54.3968L348.521 55.8804L368.051 37.6451C372.686 39.6849 378.249 38.9432 382.204 35.2961ZM380.288 19.4716C381.71 20.9551 381.586 23.3041 380.103 24.7258C378.62 26.1476 376.271 26.0239 374.85 24.5404C373.428 23.0568 373.552 20.7079 375.035 19.2861C376.518 17.8644 378.867 17.988 380.288 19.4716Z" fill="#E0E0E0"/>
<path d="M380.287 19.4716C380.287 19.4716 380.04 19.2244 379.546 18.9153C379.051 18.6062 378.248 18.2971 377.197 18.4208C376.208 18.5444 374.972 19.1625 374.416 20.3988C373.798 21.5733 373.922 23.3041 374.972 24.4168C376.023 25.5913 377.753 25.7767 378.928 25.2822C380.164 24.7877 380.905 23.6132 381.091 22.6242C381.276 21.6351 381.029 20.7697 380.72 20.2752C380.473 19.7189 380.226 19.4716 380.287 19.4716C380.287 19.4716 380.349 19.5334 380.473 19.6571C380.596 19.7807 380.72 19.9661 380.906 20.2134C381.215 20.7079 381.524 21.5733 381.338 22.686C381.215 23.7368 380.411 24.9731 379.113 25.5913C378.433 25.9003 377.692 25.9622 376.888 25.8385C376.085 25.7149 375.343 25.2822 374.787 24.664C374.231 24.0459 373.86 23.2423 373.798 22.5005C373.674 21.6969 373.86 20.9552 374.231 20.2752C374.91 18.9771 376.208 18.2971 377.259 18.2353C378.372 18.1735 379.175 18.5444 379.669 18.8535C379.917 19.0389 380.102 19.1625 380.164 19.2862C380.226 19.4098 380.287 19.4716 380.287 19.4716Z" fill="#263238"/>
<path d="M382.204 35.2959C382.204 35.2959 382.143 35.3577 382.019 35.4814C381.895 35.605 381.71 35.7904 381.463 35.9759C380.906 36.4086 380.165 37.0267 378.99 37.5831C377.816 38.1394 376.271 38.6339 374.417 38.8193C372.563 38.943 370.338 38.6957 368.113 37.7685H368.236C363.23 42.4664 356.493 48.7715 348.768 56.0038L348.706 56.0656H348.644C346.728 55.5711 344.689 55.0766 342.649 54.5821H342.525V54.4584C342.587 53.2221 342.711 51.8004 342.773 50.4405V50.3787L342.834 50.3169C343.329 49.8223 343.885 49.3278 344.503 48.7715L344.565 48.7097H344.627C345.368 48.8951 346.234 49.1424 347.099 49.3896L346.914 49.5751C346.79 48.7715 346.666 47.8443 346.543 46.9171V46.8552L346.605 46.7934C347.47 45.9898 348.459 45.0626 349.448 44.1354L349.509 44.0736H349.571C350.869 44.4445 352.229 44.8154 353.65 45.1862L353.465 45.3717C353.28 44.0118 353.032 42.5282 352.847 41.0447V40.9829L352.909 40.921C353.156 40.6738 353.465 40.3647 353.774 40.1175C354.577 39.3757 355.381 38.6339 356.184 37.8921L356.246 37.8303H356.308C357.668 38.2012 359.027 38.5721 360.387 38.943L360.202 39.1284C360.016 37.6449 359.769 36.2231 359.584 34.8014V34.7396L359.645 34.6778C360.511 33.8742 361.376 33.0088 362.241 32.2052V32.3906C361.252 30.5362 360.634 28.5581 360.573 26.5183C360.511 25.5292 360.573 24.4784 360.758 23.5512C360.943 22.5621 361.252 21.6349 361.623 20.7695C363.168 17.1843 366.259 14.588 369.658 13.599C372.995 12.5482 376.58 12.9809 379.3 14.3408C382.081 15.7007 384.058 17.9878 385.233 20.275C386.345 22.6239 386.716 25.0347 386.531 27.0128C386.345 29.0526 385.727 30.7216 385.109 31.9579C385.047 32.1434 384.924 32.267 384.862 32.3906C384.8 32.5143 384.677 32.6379 384.615 32.8233C384.429 33.0706 384.306 33.3179 384.12 33.5651C383.749 33.9978 383.502 34.3687 383.255 34.616C383.008 34.8632 382.822 35.0487 382.637 35.2341C382.266 35.2341 382.204 35.2959 382.204 35.2959C382.204 35.2959 382.266 35.2341 382.39 35.1105C382.513 34.9868 382.699 34.7396 382.946 34.4923C383.193 34.2451 383.44 33.8742 383.811 33.4415C383.997 33.256 384.12 32.947 384.306 32.6997C384.368 32.5761 384.491 32.4525 384.553 32.267C384.615 32.1434 384.677 31.9579 384.8 31.8343C385.418 30.598 386.036 28.929 386.16 26.8891C386.345 24.9111 385.974 22.5003 384.862 20.2132C383.688 17.926 381.772 15.7007 378.99 14.4026C376.271 13.0427 372.81 12.6718 369.534 13.7226C366.259 14.7735 363.23 17.2461 361.685 20.7695C361.314 21.6349 361.005 22.5621 360.882 23.4893C360.696 24.4166 360.634 25.4056 360.696 26.3946C360.758 28.3727 361.376 30.3508 362.365 32.1434L362.427 32.267L362.365 32.3288C361.5 33.1324 360.634 33.936 359.769 34.8014L359.831 34.6778C360.016 36.0995 360.263 37.5831 360.449 39.0048L360.511 39.252L360.264 39.1902C358.904 38.8193 357.544 38.4485 356.184 38.0776L356.308 38.0158C355.504 38.7575 354.701 39.4993 353.898 40.2411C353.589 40.4883 353.28 40.7974 353.032 41.0447L353.094 40.921C353.279 42.4046 353.527 43.8881 353.712 45.2481L353.774 45.4953L353.527 45.4335C352.105 45.0626 350.745 44.6299 349.448 44.3208L349.571 44.259C348.582 45.1862 347.655 46.0517 346.728 46.9171L346.79 46.7934C346.914 47.7206 347.037 48.6479 347.161 49.4515L347.223 49.6987L346.975 49.6369C346.11 49.3896 345.245 49.1424 344.503 48.9569L344.627 48.8951C344.07 49.4514 343.514 49.946 342.958 50.4405L343.02 50.3169C342.958 51.7386 342.834 53.0985 342.773 54.3348L342.649 54.1494C344.75 54.7057 346.79 55.2002 348.644 55.6947L348.521 55.7565C356.308 48.5242 363.045 42.281 368.051 37.5831L368.113 37.5212H368.175C370.338 38.5103 372.501 38.7575 374.355 38.6339C376.209 38.5103 377.754 38.0158 378.929 37.4594C380.103 36.9031 380.906 36.3468 381.463 35.9141C381.71 35.7286 381.895 35.5432 382.019 35.4195C382.081 35.3577 382.204 35.2959 382.204 35.2959Z" fill="#263238"/>
<path d="M380.969 34.3071C380.907 34.2453 381.71 33.6272 382.699 32.1436C383.194 31.4018 383.688 30.4128 383.997 29.1765C384.368 27.9402 384.553 26.5185 384.368 24.9113C384.183 23.3041 383.688 21.6351 382.699 20.028C381.649 18.4826 380.227 16.999 378.311 16.0718C377.384 15.5773 376.333 15.2064 375.283 15.021C374.726 14.8973 374.17 14.8973 373.614 14.8355C373.058 14.8355 372.501 14.8355 371.945 14.8973C369.658 15.1446 367.433 16.1955 365.641 17.8026C363.911 19.4716 362.674 21.6351 362.304 23.9223C362.18 24.4786 362.18 25.0349 362.118 25.5913C362.118 26.1476 362.118 26.7039 362.18 27.2603C362.304 28.3729 362.551 29.4238 362.983 30.351C363.787 32.3291 365.147 33.8744 366.63 34.9871C368.113 36.0997 369.844 36.7179 371.389 37.027C372.934 37.2742 374.417 37.2124 375.654 36.9651C376.89 36.7179 377.94 36.2852 378.682 35.8525C380.289 34.9871 380.969 34.2453 380.969 34.3071C380.969 34.3071 380.907 34.3689 380.845 34.4307C380.722 34.5544 380.598 34.6162 380.413 34.8016C380.227 34.9871 380.042 35.1725 379.733 35.358C379.424 35.5434 379.115 35.7907 378.744 35.9761C377.94 36.4706 376.951 36.8415 375.654 37.1506C374.417 37.4597 372.872 37.5215 371.265 37.2742C369.658 37.027 367.928 36.4088 366.383 35.2343C364.838 34.0599 363.416 32.5145 362.613 30.4746C362.18 29.4856 361.871 28.3729 361.747 27.2603C361.686 26.7039 361.686 26.1476 361.686 25.5295C361.747 24.9731 361.747 24.355 361.871 23.7986C362.304 21.4497 363.478 19.2244 365.332 17.4936C367.186 15.8246 369.473 14.7119 371.822 14.4646C372.378 14.4028 372.996 14.4028 373.552 14.4028C374.108 14.4646 374.726 14.4646 375.283 14.5883C376.395 14.7737 377.446 15.1446 378.435 15.6391C380.351 16.6282 381.834 18.1117 382.885 19.7189C383.935 21.3261 384.43 23.1187 384.615 24.7259C384.801 26.333 384.553 27.8166 384.183 29.0529C383.812 30.2892 383.317 31.2782 382.761 32.02C382.514 32.3909 382.267 32.6999 382.019 33.009C381.834 33.2563 381.587 33.5035 381.401 33.689C381.216 33.8744 381.092 33.998 381.031 34.0599C381.031 34.2453 381.031 34.3071 380.969 34.3071Z" fill="#263238"/>
<path d="M380.474 25.1587C380.474 25.1587 380.721 24.9114 381.092 24.2933C381.463 23.7369 381.833 22.7479 381.71 21.5734C381.648 20.9553 381.463 20.3371 381.092 19.719C380.721 19.1626 380.165 18.6063 379.423 18.2354C378.743 17.8645 377.878 17.6791 377.013 17.8027C376.147 17.8645 375.344 18.2972 374.664 18.9154C373.984 19.5335 373.552 20.3371 373.428 21.2025C373.243 22.0679 373.366 22.8715 373.675 23.6133C373.984 24.3551 374.479 24.9114 375.035 25.3441C375.591 25.7768 376.209 26.0241 376.827 26.1477C378.002 26.3331 378.99 26.0241 379.608 25.715C380.165 25.4059 380.474 25.1587 380.474 25.1587C380.474 25.1587 380.412 25.2205 380.288 25.3441C380.165 25.4677 379.917 25.6532 379.67 25.8386C379.052 26.2095 378.063 26.5804 376.827 26.395C376.209 26.2713 375.529 26.0859 374.911 25.5914C374.293 25.1587 373.737 24.5405 373.428 23.7369C373.119 22.9952 372.933 22.0679 373.119 21.1407C373.304 20.2135 373.737 19.3481 374.479 18.6681C375.22 17.9882 376.086 17.6173 377.013 17.4937C377.94 17.37 378.805 17.5555 379.547 17.9882C380.288 18.3591 380.906 18.9772 381.277 19.5953C381.648 20.2135 381.895 20.8935 381.957 21.5734C382.081 22.8715 381.648 23.8606 381.215 24.4169C381.03 24.726 380.845 24.9114 380.721 25.035C380.536 25.0968 380.474 25.1587 380.474 25.1587Z" fill="#263238"/>
<path d="M347.038 55.1388C346.976 55.077 351.364 50.8736 356.865 45.743C362.365 40.6124 366.815 36.5326 366.877 36.5944C366.939 36.6563 362.551 40.8596 357.05 45.9903C351.55 51.1209 347.1 55.2006 347.038 55.1388Z" fill="#263238"/>
<path d="M328.063 110.957C328.063 111.019 327.383 111.142 326.518 111.142C325.653 111.142 324.973 111.081 324.973 110.957C324.973 110.895 325.653 110.771 326.518 110.771C327.321 110.833 328.063 110.895 328.063 110.957Z" fill="#263238"/>
<path d="M334.243 110.957C334.243 111.019 333.563 111.142 332.697 111.142C331.832 111.142 331.152 111.081 331.152 110.957C331.152 110.895 331.832 110.771 332.697 110.771C333.501 110.833 334.243 110.895 334.243 110.957Z" fill="#263238"/>
<path d="M340.424 110.957C340.424 111.019 339.744 111.142 338.879 111.142C338.014 111.142 337.334 111.081 337.334 110.957C337.334 110.895 338.014 110.771 338.879 110.771C339.683 110.833 340.424 110.895 340.424 110.957Z" fill="#263238"/>
<path d="M346.604 110.957C346.604 111.019 345.924 111.142 345.059 111.142C344.194 111.142 343.514 111.081 343.514 110.957C343.514 110.895 344.194 110.771 345.059 110.771C345.862 110.833 346.604 110.895 346.604 110.957Z" fill="#263238"/>
<path d="M352.786 110.957C352.786 111.019 352.106 111.142 351.24 111.142C350.375 111.142 349.695 111.081 349.695 110.957C349.695 110.895 350.375 110.771 351.24 110.771C352.044 110.833 352.786 110.895 352.786 110.957Z" fill="#263238"/>
<path d="M358.965 110.957C358.965 111.019 358.285 111.142 357.42 111.142C356.555 111.142 355.875 111.081 355.875 110.957C355.875 110.895 356.555 110.771 357.42 110.771C358.224 110.833 358.965 110.895 358.965 110.957Z" fill="#263238"/>
<path d="M364.157 110.03C364.219 110.03 364.281 110.401 364.281 110.957V111.081H364.157C363.972 111.081 363.786 111.081 363.539 111.081C362.674 111.081 361.994 111.019 361.994 110.895C361.994 110.833 362.674 110.71 363.539 110.71C363.725 110.71 363.972 110.71 364.157 110.71L364.034 110.833C364.034 110.462 364.096 110.03 364.157 110.03Z" fill="#263238"/>
<path d="M364.158 103.849C364.22 103.849 364.343 104.529 364.343 105.394C364.343 106.259 364.282 106.939 364.158 106.939C364.034 106.939 363.973 106.259 363.973 105.394C364.034 104.59 364.096 103.849 364.158 103.849Z" fill="#263238"/>
<path d="M364.158 97.667C364.22 97.667 364.343 98.347 364.343 99.2124C364.343 100.078 364.282 100.758 364.158 100.758C364.034 100.758 363.973 100.078 363.973 99.2124C364.034 98.4088 364.096 97.667 364.158 97.667Z" fill="#263238"/>
<path d="M364.158 91.4854C364.22 91.4854 364.343 92.1653 364.343 93.0307C364.343 93.8961 364.282 94.5761 364.158 94.5761C364.034 94.5761 363.973 93.8961 363.973 93.0307C364.034 92.2271 364.096 91.4854 364.158 91.4854Z" fill="#263238"/>
<path d="M364.158 85.3042C364.22 85.3042 364.343 85.9842 364.343 86.8496C364.343 87.715 364.282 88.3949 364.158 88.3949C364.034 88.3949 363.973 87.715 363.973 86.8496C364.034 86.046 364.096 85.3042 364.158 85.3042Z" fill="#263238"/>
<path d="M364.158 79.1226C364.22 79.1226 364.343 79.8025 364.343 80.6679C364.343 81.5333 364.282 82.2133 364.158 82.2133C364.034 82.2133 363.973 81.5333 363.973 80.6679C364.034 79.8643 364.096 79.1226 364.158 79.1226Z" fill="#263238"/>
<path d="M364.158 72.9409C364.22 72.9409 364.343 73.6209 364.343 74.4863C364.343 75.3517 364.282 76.0316 364.158 76.0316C364.034 76.0316 363.973 75.3517 363.973 74.4863C364.034 73.6827 364.096 72.9409 364.158 72.9409Z" fill="#263238"/>
<path d="M364.158 66.7598C364.22 66.7598 364.343 67.4397 364.343 68.3051C364.343 69.1705 364.282 69.8505 364.158 69.8505C364.034 69.8505 363.973 69.1705 363.973 68.3051C364.034 67.5015 364.096 66.7598 364.158 66.7598Z" fill="#263238"/>
<path d="M364.158 60.5781C364.22 60.5781 364.343 61.2581 364.343 62.1235C364.343 62.9889 364.282 63.6689 364.158 63.6689C364.034 63.6689 363.973 62.9889 363.973 62.1235C364.034 61.3199 364.096 60.5781 364.158 60.5781Z" fill="#263238"/>
<path d="M364.158 54.397C364.22 54.397 364.343 55.0769 364.343 55.9423C364.343 56.8077 364.282 57.4877 364.158 57.4877C364.034 57.4877 363.973 56.8077 363.973 55.9423C364.034 55.1387 364.096 54.397 364.158 54.397Z" fill="#263238"/>
<path d="M364.158 48.2153C364.22 48.2153 364.343 48.8953 364.343 49.7607C364.343 50.6261 364.282 51.3061 364.158 51.3061C364.034 51.3061 363.973 50.6261 363.973 49.7607C364.034 48.9571 364.096 48.2153 364.158 48.2153Z" fill="#263238"/>
<path d="M317.864 172.586C317.864 172.648 317.184 172.771 316.319 172.771C315.453 172.771 314.773 172.709 314.773 172.586C314.773 172.462 315.453 172.4 316.319 172.4C317.122 172.462 317.864 172.524 317.864 172.586Z" fill="#263238"/>
<path d="M324.043 172.586C324.043 172.648 323.364 172.771 322.498 172.771C321.633 172.771 320.953 172.709 320.953 172.586C320.953 172.462 321.633 172.4 322.498 172.4C323.302 172.462 324.043 172.524 324.043 172.586Z" fill="#263238"/>
<path d="M330.225 172.586C330.225 172.648 329.545 172.771 328.68 172.771C327.815 172.771 327.135 172.709 327.135 172.586C327.135 172.462 327.815 172.4 328.68 172.4C329.483 172.462 330.225 172.524 330.225 172.586Z" fill="#263238"/>
<path d="M336.405 172.586C336.405 172.648 335.725 172.771 334.86 172.771C333.994 172.771 333.314 172.709 333.314 172.586C333.314 172.462 333.994 172.4 334.86 172.4C335.663 172.462 336.405 172.524 336.405 172.586Z" fill="#263238"/>
<path d="M342.586 172.586C342.586 172.648 341.906 172.771 341.041 172.771C340.176 172.771 339.496 172.709 339.496 172.586C339.496 172.462 340.176 172.4 341.041 172.4C341.845 172.462 342.586 172.524 342.586 172.586Z" fill="#263238"/>
<path d="M348.766 172.586C348.766 172.648 348.086 172.771 347.221 172.771C346.356 172.771 345.676 172.709 345.676 172.586C345.676 172.462 346.356 172.4 347.221 172.4C348.024 172.462 348.766 172.524 348.766 172.586Z" fill="#263238"/>
<path d="M354.948 172.586C354.948 172.648 354.268 172.771 353.403 172.771C352.537 172.771 351.857 172.709 351.857 172.586C351.857 172.462 352.537 172.4 353.403 172.4C354.206 172.462 354.948 172.524 354.948 172.586Z" fill="#263238"/>
<path d="M361.127 172.586C361.127 172.648 360.448 172.771 359.582 172.771C358.717 172.771 358.037 172.709 358.037 172.586C358.037 172.462 358.717 172.4 359.582 172.4C360.386 172.462 361.127 172.524 361.127 172.586Z" fill="#263238"/>
<path d="M367.307 172.586C367.307 172.648 366.627 172.771 365.762 172.771C364.897 172.771 364.217 172.709 364.217 172.586C364.217 172.462 364.897 172.4 365.762 172.4C366.565 172.462 367.307 172.524 367.307 172.586Z" fill="#263238"/>
<path d="M373.489 172.586C373.489 172.648 372.809 172.771 371.944 172.771C371.078 172.771 370.398 172.709 370.398 172.586C370.398 172.462 371.078 172.4 371.944 172.4C372.747 172.462 373.489 172.524 373.489 172.586Z" fill="#263238"/>
<path d="M379.052 172.03C379.113 172.03 379.175 172.277 379.175 172.586V172.71H379.052C378.804 172.71 378.434 172.772 378.063 172.772C377.197 172.772 376.518 172.71 376.518 172.586C376.518 172.463 377.197 172.401 378.063 172.401C378.434 172.401 378.743 172.401 379.052 172.462L378.928 172.586C378.99 172.215 379.052 172.03 379.052 172.03Z" fill="#263238"/>
<path d="M379.113 165.848C379.175 165.848 379.237 166.528 379.237 167.394C379.237 168.259 379.175 168.939 379.051 168.939C378.99 168.939 378.928 168.259 378.928 167.394C378.99 166.528 379.051 165.848 379.113 165.848Z" fill="#263238"/>
<path d="M379.174 159.667C379.235 159.667 379.297 160.347 379.297 161.212C379.297 162.078 379.236 162.758 379.112 162.758C379.05 162.758 378.988 162.078 378.988 161.212C379.05 160.347 379.112 159.667 379.174 159.667Z" fill="#263238"/>
<path d="M379.236 153.485C379.298 153.485 379.36 154.165 379.36 155.031C379.36 155.896 379.298 156.576 379.174 156.576C379.113 156.576 379.051 155.896 379.051 155.031C379.113 154.165 379.174 153.485 379.236 153.485Z" fill="#263238"/>
<path d="M358.779 134.076L359.892 154.969C359.954 155.711 360.572 156.267 361.313 156.329L398.891 156.576C399.694 156.576 400.312 155.958 400.312 155.154L400.436 138.897C400.436 138.094 399.818 137.475 399.014 137.475H375.899C375.529 137.475 375.158 137.352 374.91 137.043L370.893 133.025C370.646 132.778 370.275 132.592 369.904 132.592L360.139 132.53C359.397 132.592 358.779 133.272 358.779 134.076Z" fill="#FE464B"/>
<path d="M400.472 135.094L359.434 134.794L359.253 159.335L400.292 159.634L400.472 135.094Z" fill="#F5F5F5"/>
<path d="M356.121 136.919L359.088 162.572C359.15 163.005 359.52 163.376 359.953 163.376L400.003 163.685C400.497 163.685 400.868 163.314 400.93 162.881L403.155 137.29C403.217 136.734 402.784 136.301 402.228 136.301L357.048 135.992C356.492 135.93 356.059 136.425 356.121 136.919Z" fill="#FE464B"/>
<path d="M322.624 245.837H115.762C110.817 245.837 106.738 241.819 106.738 236.812V106.136C106.738 101.191 110.756 97.1108 115.762 97.1108H322.624C327.568 97.1108 331.648 101.129 331.648 106.136V236.874C331.586 241.819 327.568 245.837 322.624 245.837Z" fill="#263238"/>
<path d="M329.979 247.876H108.345C102.288 247.876 97.3438 242.931 97.3438 236.873V234.833H340.98V236.873C340.98 242.931 336.036 247.876 329.979 247.876Z" fill="#263238"/>
<path d="M324.972 103.045H112.795V228.652H324.972V103.045Z" fill="#455A64"/>
<path d="M197.035 234.833L200.002 239.655H242.586L245.367 234.833H197.035Z" fill="#455A64"/>
<path d="M318.977 228.22H119.161C118.048 228.22 117.121 227.292 117.121 226.18V109.288C117.121 108.176 118.048 107.249 119.161 107.249H318.977C320.09 107.249 321.017 108.176 321.017 109.288V226.18C321.017 227.292 320.09 228.22 318.977 228.22Z" fill="#EBEBEB"/>
<path d="M320.955 116.15H117.121V228.22H320.955V116.15Z" fill="#FAFAFA"/>
<path d="M133.87 111.947C133.87 112.874 133.128 113.554 132.263 113.554C131.336 113.554 130.656 112.812 130.656 111.947C130.656 111.081 131.398 110.339 132.263 110.339C133.128 110.339 133.87 111.081 133.87 111.947Z" fill="#263238"/>
<path d="M123.981 111.947C123.981 112.874 123.24 113.554 122.375 113.554C121.447 113.554 120.768 112.812 120.768 111.947C120.768 111.081 121.509 110.339 122.375 110.339C123.302 110.339 123.981 111.081 123.981 111.947Z" fill="#263238"/>
<path d="M128.741 111.947C128.741 112.874 128 113.554 127.134 113.554C126.207 113.554 125.527 112.812 125.527 111.947C125.527 111.081 126.269 110.339 127.134 110.339C128 110.339 128.741 111.081 128.741 111.947Z" fill="#263238"/>
<path d="M329.67 234.833C329.67 234.895 279.731 234.956 218.235 234.956C156.677 234.956 106.738 234.895 106.738 234.833C106.738 234.772 156.615 234.71 218.235 234.71C279.793 234.71 329.67 234.772 329.67 234.833Z" fill="#455A64"/>
<path d="M177.815 172.586H131.275V175.677H177.815V172.586Z" fill="#E0E0E0"/>
<path d="M237.889 129.378H191.35V132.469H237.889V129.378Z" fill="#E0E0E0"/>
<path d="M307.049 140.999C307.049 141.061 281.153 141.123 249.199 141.123C217.246 141.123 191.35 141.061 191.35 140.999C191.35 140.937 217.246 140.875 249.199 140.875C281.153 140.814 307.049 140.875 307.049 140.999Z" fill="#E0E0E0"/>
<path d="M307.049 147.799C307.049 147.861 281.153 147.922 249.199 147.922C217.246 147.922 191.35 147.861 191.35 147.799C191.35 147.737 217.246 147.675 249.199 147.675C281.153 147.613 307.049 147.675 307.049 147.799Z" fill="#E0E0E0"/>
<path d="M307.049 154.598C307.049 154.66 281.153 154.722 249.199 154.722C217.246 154.722 191.35 154.66 191.35 154.598C191.35 154.536 217.246 154.474 249.199 154.474C281.153 154.413 307.049 154.474 307.049 154.598Z" fill="#E0E0E0"/>
<path d="M307.049 161.398C307.049 161.46 281.153 161.522 249.199 161.522C217.246 161.522 191.35 161.46 191.35 161.398C191.35 161.336 217.246 161.274 249.199 161.274C281.153 161.212 307.049 161.274 307.049 161.398Z" fill="#E0E0E0"/>
<path d="M307.049 168.135C307.049 168.197 281.153 168.258 249.199 168.258C217.246 168.258 191.35 168.197 191.35 168.135C191.35 168.074 217.246 168.012 249.199 168.012C281.153 168.012 307.049 168.074 307.049 168.135Z" fill="#E0E0E0"/>
<path d="M236.53 174.935C236.53 174.996 226.394 175.058 213.971 175.058C201.486 175.058 191.412 174.996 191.412 174.935C191.412 174.873 201.548 174.812 213.971 174.812C226.394 174.812 236.53 174.873 236.53 174.935Z" fill="#E0E0E0"/>
<path d="M306.247 188.163C306.247 188.225 289.251 188.287 268.237 188.287C247.223 188.287 230.227 188.225 230.227 188.163C230.227 188.102 247.223 188.04 268.237 188.04C289.189 187.978 306.247 188.102 306.247 188.163Z" fill="#E0E0E0"/>
<path d="M306.247 195.396C306.247 195.458 289.251 195.52 268.237 195.52C247.223 195.52 230.227 195.458 230.227 195.396C230.227 195.334 247.223 195.272 268.237 195.272C289.189 195.21 306.247 195.272 306.247 195.396Z" fill="#E0E0E0"/>
<path d="M306.247 202.566C306.247 202.628 289.251 202.689 268.237 202.689C247.223 202.689 230.227 202.628 230.227 202.566C230.227 202.504 247.223 202.443 268.237 202.443C289.189 202.443 306.247 202.504 306.247 202.566Z" fill="#E0E0E0"/>
<path d="M306.247 209.798C306.247 209.859 289.251 209.921 268.237 209.921C247.223 209.921 230.227 209.859 230.227 209.798C230.227 209.736 247.223 209.675 268.237 209.675C289.189 209.675 306.247 209.736 306.247 209.798Z" fill="#E0E0E0"/>
<path d="M177.939 187.484C177.939 187.546 167.803 187.607 155.257 187.607C142.71 187.607 132.574 187.546 132.574 187.484C132.574 187.422 142.71 187.36 155.257 187.36C167.741 187.298 177.939 187.36 177.939 187.484Z" fill="#E0E0E0"/>
<path d="M177.939 193.108C177.939 193.17 167.803 193.232 155.257 193.232C142.71 193.232 132.574 193.17 132.574 193.108C132.574 193.047 142.71 192.985 155.257 192.985C167.741 192.985 177.939 193.047 177.939 193.108Z" fill="#E0E0E0"/>
<path d="M177.939 198.795C177.939 198.857 167.803 198.918 155.257 198.918C142.71 198.918 132.574 198.857 132.574 198.795C132.574 198.733 142.71 198.672 155.257 198.672C167.741 198.672 177.939 198.733 177.939 198.795Z" fill="#E0E0E0"/>
<path d="M177.939 204.483C177.939 204.545 167.803 204.606 155.257 204.606C142.71 204.606 132.574 204.545 132.574 204.483C132.574 204.421 142.71 204.359 155.257 204.359C167.741 204.297 177.939 204.359 177.939 204.483Z" fill="#E0E0E0"/>
<path d="M177.939 210.107C177.939 210.169 167.803 210.23 155.257 210.23C142.71 210.23 132.574 210.169 132.574 210.107C132.574 210.045 142.71 209.984 155.257 209.984C167.741 209.984 177.939 210.045 177.939 210.107Z" fill="#E0E0E0"/>
<path d="M224.354 184.702H191.35V216.66H224.354V184.702Z" fill="#F5F5F5"/>
<path d="M193.883 213.94L203.03 197.498L210.508 208.006L215.02 202.381L221.757 213.94H193.883Z" fill="#EBEBEB"/>
<path d="M213.662 194.284C213.662 195.582 212.611 196.632 211.313 196.632C210.016 196.632 208.965 195.582 208.965 194.284C208.965 192.985 210.016 191.935 211.313 191.935C212.611 191.935 213.662 192.985 213.662 194.284Z" fill="#EBEBEB"/>
<path d="M221.759 214.002C221.759 214.002 221.759 213.941 221.759 213.879C221.759 213.755 221.759 213.631 221.759 213.508C221.759 213.199 221.759 212.704 221.759 212.086C221.759 210.85 221.759 208.995 221.697 206.646C221.697 202.01 221.635 195.334 221.635 187.36L221.759 187.484C213.662 187.484 204.082 187.484 193.885 187.484C193.823 187.546 194.194 187.175 194.008 187.36V187.422V187.546V187.793V188.226V189.153C194.008 189.771 194.008 190.327 194.008 190.945C194.008 192.12 194.008 193.356 194.008 194.531C194.008 196.88 194.008 199.167 194.008 201.392C194.008 205.843 194.008 210.108 194.008 214.002L193.885 213.879C202.228 213.879 209.15 213.941 214.033 213.941C216.443 213.941 218.421 213.941 219.719 214.002C220.399 214.002 220.893 214.002 221.202 214.002C221.388 214.002 221.511 214.002 221.573 214.002C221.759 214.002 221.759 214.002 221.759 214.002C221.759 214.002 221.697 214.002 221.635 214.002C221.511 214.002 221.388 214.002 221.264 214.002C220.893 214.002 220.399 214.002 219.781 214.002C218.483 214.002 216.567 214.002 214.095 214.064C209.212 214.064 202.228 214.126 193.823 214.126H193.699V214.002C193.699 210.108 193.699 205.905 193.699 201.392C193.699 199.167 193.699 196.88 193.699 194.531C193.699 193.356 193.699 192.182 193.699 190.945C193.699 190.327 193.699 189.771 193.699 189.153V188.226V187.793V187.546V187.422V187.36C193.575 187.484 193.885 187.175 193.885 187.175C204.144 187.175 213.724 187.175 221.759 187.175H221.882V187.298C221.882 195.334 221.82 202.01 221.82 206.646C221.82 208.934 221.82 210.788 221.759 212.024C221.759 212.642 221.759 213.075 221.759 213.446C221.759 213.57 221.759 213.693 221.759 213.817C221.82 213.941 221.759 214.002 221.759 214.002Z" fill="#EBEBEB"/>
<path d="M176.888 124.062H132.141V167.394H176.888V124.062Z" fill="#F5F5F5"/>
<path d="M135.602 163.685L148.024 141.37L158.16 155.649L164.279 148.046L173.426 163.685H135.602Z" fill="#E0E0E0"/>
<path d="M162.426 137.043C162.426 138.836 161.004 140.257 159.212 140.257C157.42 140.257 155.998 138.836 155.998 137.043C155.998 135.25 157.42 133.829 159.212 133.829C161.004 133.829 162.426 135.25 162.426 137.043Z" fill="#E0E0E0"/>
<path d="M173.426 163.809C173.426 163.809 173.426 163.747 173.426 163.623C173.426 163.5 173.426 163.314 173.426 163.129C173.426 162.696 173.426 162.016 173.426 161.151C173.426 159.42 173.426 156.947 173.364 153.795C173.364 147.49 173.302 138.465 173.24 127.647L173.426 127.833C162.486 127.833 149.507 127.833 135.601 127.833C135.539 127.894 135.972 127.462 135.786 127.647V127.709V127.771V127.956V128.265V128.883V130.12C135.786 130.923 135.786 131.727 135.786 132.592C135.786 134.199 135.786 135.807 135.786 137.414C135.786 140.566 135.786 143.719 135.786 146.748C135.786 152.806 135.786 158.554 135.786 163.809L135.601 163.623C146.911 163.685 156.306 163.685 162.919 163.747C166.194 163.747 168.852 163.809 170.644 163.809C171.51 163.809 172.189 163.809 172.684 163.809C172.931 163.809 173.055 163.809 173.24 163.809C173.117 163.809 172.931 163.809 172.746 163.809C172.251 163.809 171.571 163.809 170.706 163.809C168.914 163.809 166.318 163.809 163.042 163.87C156.367 163.87 146.911 163.932 135.601 163.994H135.415V163.809C135.415 158.554 135.415 152.806 135.415 146.748C135.415 143.719 135.415 140.566 135.415 137.414C135.415 135.807 135.415 134.199 135.415 132.592C135.415 131.789 135.415 130.985 135.415 130.12V128.883V128.265V127.956V127.771V127.709V127.647C135.23 127.833 135.663 127.4 135.663 127.4C149.569 127.4 162.548 127.4 173.487 127.4H173.673V127.585C173.611 138.465 173.611 147.49 173.549 153.857C173.549 157.009 173.487 159.482 173.487 161.151C173.487 161.954 173.487 162.634 173.487 163.067C173.487 163.252 173.487 163.438 173.487 163.561C173.487 163.747 173.426 163.809 173.426 163.809Z" fill="#E0E0E0"/>
<path d="M182.943 140.566L185.106 145.017L190.05 145.759L186.528 149.22L187.331 154.166L182.943 151.817L178.493 154.166L179.358 149.22L175.773 145.759L180.718 145.017L182.943 140.566Z" fill="#FE464B"/>
<path d="M198.519 124.927L200.682 129.44L205.627 130.181L202.104 133.643L202.907 138.588L198.519 136.239L194.069 138.588L194.934 133.643L191.35 130.181L196.294 129.44L198.519 124.927Z" fill="#FE464B"/>
<path d="M219.285 118.87L221.51 123.32L226.455 124.062L222.87 127.524L223.735 132.469L219.285 130.12L214.897 132.469L215.762 127.524L212.178 124.062L217.122 123.32L219.285 118.87Z" fill="#FE464B"/>
<path d="M240.855 125.113L243.08 129.563L248.024 130.305L244.44 133.767L245.305 138.712L240.855 136.363L236.405 138.712L237.27 133.767L233.686 130.305L238.63 129.563L240.855 125.113Z" fill="#FE464B"/>
<path d="M255.689 139.948L257.914 144.461L262.858 145.141L259.274 148.664L260.139 153.547L255.689 151.26L251.301 153.547L252.104 148.664L248.52 145.141L253.526 144.461L255.689 139.948Z" fill="#FE464B"/>
<path d="M261.065 161.521L263.29 165.972L268.234 166.714L264.649 170.176L265.515 175.121L261.065 172.772L256.676 175.121L257.542 170.176L253.957 166.714L258.901 165.972L261.065 161.521Z" fill="#FE464B"/>
<path d="M255.874 182.91L258.038 187.36L262.982 188.102L259.459 191.564L260.263 196.509L255.874 194.222L251.425 196.509L252.29 191.564L248.705 188.102L253.649 187.36L255.874 182.91Z" fill="#FE464B"/>
<path d="M240.051 197.745L242.276 202.258L247.22 202.938L243.636 206.461L244.501 211.344L240.051 209.057L235.663 211.344L236.528 206.461L232.943 202.938L237.888 202.258L240.051 197.745Z" fill="#FE464B"/>
<path d="M218.914 203.865L221.077 208.377L226.021 209.057L222.498 212.581L223.302 217.464L218.914 215.177L214.464 217.464L215.329 212.581L211.744 209.057L216.689 208.377L218.914 203.865Z" fill="#FE464B"/>
<path d="M198.643 197.745L200.868 202.258L205.812 202.938L202.227 206.461L203.093 211.406L198.643 209.057L194.255 211.406L195.058 206.461L191.535 202.938L196.48 202.258L198.643 197.745Z" fill="#FE464B"/>
<path d="M182.634 182.539L184.859 186.989L189.804 187.731L186.219 191.193L187.084 196.138L182.634 193.789L178.246 196.138L179.05 191.193L175.465 187.731L180.409 186.989L182.634 182.539Z" fill="#FE464B"/>
<path d="M177.257 161.521L179.482 166.034L184.427 166.714L180.842 170.237L181.707 175.121L177.257 172.834L172.807 175.121L173.673 170.237L170.088 166.714L175.032 166.034L177.257 161.521Z" fill="#FE464B"/>
<path d="M234.551 176.914H230.225V153.362C230.225 147.799 225.713 143.286 220.151 143.286C214.588 143.286 210.076 147.799 210.076 153.362V176.914H205.75V153.362C205.75 145.45 212.178 138.959 220.151 138.959C228.062 138.959 234.551 145.388 234.551 153.362V176.914Z" fill="#263238"/>
<path d="M235.972 191.317H204.389C202.412 191.317 200.805 189.709 200.805 187.731V169.991C200.805 168.012 202.412 166.405 204.389 166.405H235.972C237.95 166.405 239.557 168.012 239.557 169.991V187.669C239.557 189.709 237.95 191.317 235.972 191.317Z" fill="#FE464B"/>
<path d="M223.426 175.616C223.426 177.408 222.004 178.83 220.212 178.83C218.42 178.83 216.998 177.408 216.998 175.616C216.998 173.823 218.42 172.401 220.212 172.401C222.004 172.401 223.426 173.823 223.426 175.616Z" fill="#263238"/>
<path d="M221.078 176.914H219.285V183.59H221.078V176.914Z" fill="#263238"/>
<path d="M202.906 188.906C202.844 188.906 202.721 184.764 202.721 179.634C202.721 174.503 202.783 170.361 202.906 170.361C202.968 170.361 203.092 174.503 203.092 179.634C203.03 184.764 202.968 188.906 202.906 188.906Z" fill="#FAFAFA"/>
<path d="M217.678 179.757C217.678 179.757 217.555 179.695 217.308 179.572C217.06 179.386 216.751 179.139 216.442 178.706C215.824 177.903 215.268 176.481 215.639 174.935C216.01 173.39 217.184 172.339 218.049 171.907C218.482 171.659 218.915 171.536 219.162 171.536C219.409 171.474 219.594 171.474 219.594 171.536C219.594 171.597 218.976 171.659 218.111 172.154C217.308 172.648 216.257 173.637 215.886 175.059C215.577 176.481 216.01 177.841 216.566 178.644C217.184 179.386 217.678 179.695 217.678 179.757Z" fill="#FAFAFA"/>
<path d="M83.8694 155.402C83.375 156.762 83.4986 158.307 83.9931 159.729C84.4257 161.151 85.2292 162.387 85.9708 163.685C86.9597 161.213 87.8868 158.678 88.6285 156.144C88.7521 155.588 88.8757 154.908 88.5048 154.475C88.1958 154.166 87.7014 154.104 87.2687 154.104C85.9708 154.166 84.6729 154.722 83.7458 155.588" fill="#263238"/>
<path d="M29.3575 224.696L19.2832 247.815H33.1894L43.0782 224.511L29.3575 224.696Z" fill="#263238"/>
<path d="M89.4944 247.567C103.153 243.055 93.7589 225.005 93.7589 225.005L34.1169 230.63C29.3579 230.568 25.4023 234.463 25.4023 239.284C25.4023 244.044 29.2343 247.938 34.0551 247.938L89.4944 247.567Z" fill="#455A64"/>
<path d="M103.092 247.876C116.38 243.364 107.603 225.005 107.603 225.005L49.5064 230.506C43.8203 230.568 41.0391 233.35 41.0391 239.099C41.0391 243.858 42.8314 247.876 49.4446 247.753L103.092 247.876Z" fill="#455A64"/>
<path d="M89.9881 228.034C89.9881 228.034 89.9263 228.034 89.8027 228.034C89.6791 228.034 89.4937 228.034 89.3083 228.034C88.8756 228.034 88.2576 228.096 87.4541 228.096C85.8472 228.157 83.4986 228.281 80.5937 228.405C74.784 228.714 66.8112 229.146 58.0348 229.641C56.9223 229.703 55.8716 229.764 54.7591 229.826C53.7084 229.826 52.5959 229.888 51.6071 229.95C50.5564 230.012 49.5675 230.074 48.5786 230.197C47.5897 230.321 46.6008 230.444 45.6738 230.815C44.7467 231.186 43.9432 231.681 43.2634 232.361C42.5835 233.041 42.0891 233.844 41.78 234.71C41.471 235.575 41.2856 236.44 41.162 237.244C41.0384 238.048 40.9766 238.851 40.9766 239.655C40.9766 241.2 41.2238 242.56 41.7182 243.673C42.2127 244.785 42.8925 245.589 43.5106 246.145C44.1286 246.702 44.7467 246.949 45.1793 247.073C45.612 247.196 45.612 247.134 45.1793 247.011C44.8085 246.887 44.1904 246.578 43.5724 246.022C42.9543 245.465 42.2745 244.662 41.8418 243.611C41.3474 242.498 41.1002 241.138 41.162 239.655C41.162 238.913 41.2238 238.109 41.3474 237.306C41.471 236.502 41.6564 235.637 41.9654 234.833C42.2745 234.03 42.7071 233.226 43.387 232.608C44.005 231.99 44.8085 231.495 45.7356 231.124C46.6008 230.754 47.5897 230.692 48.5786 230.568C49.5675 230.444 50.6182 230.383 51.6071 230.321C52.6578 230.259 53.7084 230.197 54.7591 230.197C55.8098 230.197 56.9223 230.074 58.0348 230.012C66.8112 229.517 74.784 229.023 80.5937 228.714C83.4368 228.528 85.7854 228.405 87.4541 228.281C88.2576 228.219 88.8756 228.157 89.3083 228.157C89.4937 228.157 89.6791 228.096 89.8027 228.096C89.9263 228.034 89.9881 228.034 89.9881 228.034Z" fill="#263238"/>
<path d="M103.091 233.721C103.091 233.721 102.967 233.845 102.597 233.968C102.288 234.092 101.793 234.215 101.175 234.277C100.001 234.401 98.1466 233.968 96.7868 232.608C95.4271 231.248 95.1181 229.394 95.2417 228.219C95.3035 227.601 95.4271 227.107 95.5507 226.798C95.6743 226.489 95.798 226.303 95.798 226.303C95.8598 226.303 95.4889 226.983 95.4271 228.158C95.3653 229.332 95.7361 231.063 96.9723 232.361C98.2084 233.659 99.9389 234.03 101.113 234.03C102.411 234.03 103.091 233.659 103.091 233.721Z" fill="#263238"/>
<path d="M73.548 197.188L67.9856 216.042L47.5898 218.267V221.852L77.5654 222.285L81.6445 197.683L73.548 197.188Z" fill="#FFBE9D"/>
<path d="M100.125 177.469C103.772 177.469 113.537 179.324 114.402 185.938C115.206 191.934 116.318 198.672 116.318 198.672L103.401 199.043L107.789 200.217L109.643 228.096L76.2068 226.921L77.9991 212.58L79.4825 198.239L72.1895 197.621C72.1895 197.621 74.6617 185.134 79.0498 181.302C79.0498 181.302 83.0672 177.779 88.6915 177.408C94.3775 177.099 100.125 177.469 100.125 177.469Z" fill="#FE464B"/>
<path d="M80.7795 188.967C80.8413 188.967 80.3468 194.036 79.667 200.218C78.9871 206.399 78.3073 211.468 78.2455 211.468C78.1836 211.468 78.6781 206.399 79.3579 200.218C80.0378 194.036 80.7177 188.967 80.7795 188.967Z" fill="#263238"/>
<path d="M101.112 177.532C101.112 177.532 101.112 177.594 101.174 177.779C101.174 177.903 101.174 178.15 101.236 178.459C101.236 179.015 101.174 179.943 100.865 180.932C100.556 181.921 100 183.157 98.9493 184.146C98.4548 184.64 97.775 185.073 97.0333 185.32C96.2917 185.568 95.4264 185.691 94.6229 185.691C93.7576 185.691 92.9542 185.691 92.1507 185.506C91.3472 185.382 90.6056 185.073 90.0493 184.64C88.875 183.775 88.3188 182.539 88.0097 181.488C87.7625 180.437 87.7007 179.572 87.7625 179.015C87.7625 178.706 87.8243 178.521 87.8243 178.335C87.8243 178.212 87.8861 178.088 87.8861 178.088C87.8861 178.088 87.8861 178.397 87.8861 179.015C87.8861 179.572 87.9479 180.437 88.257 181.426C88.5042 182.415 89.1222 183.59 90.2347 184.393C90.791 184.826 91.4708 185.073 92.2743 185.197C93.016 185.32 93.8194 185.382 94.6847 185.382C95.4882 185.382 96.2917 185.259 97.0333 185.011C97.775 184.764 98.393 184.331 98.8875 183.899C99.9382 182.971 100.433 181.797 100.803 180.808C101.174 179.819 101.236 178.953 101.236 178.397C101.112 177.841 101.112 177.532 101.112 177.532Z" fill="#263238"/>
<g opacity="0.2">
<path d="M102.905 188.967C101.669 194.901 100.062 200.959 98.8262 206.894C98.579 208.13 98.27 209.428 97.5283 210.479C97.0339 211.097 96.4158 211.591 95.736 212.086C93.3256 213.94 90.7298 215.609 87.8867 216.66C92.0277 216.289 96.1068 215.609 100.124 214.497C100.804 214.311 101.546 214.126 101.978 213.569C102.349 213.075 102.473 212.457 102.535 211.839C103.462 204.297 103.153 196.632 102.905 188.967Z" fill="black"/>
</g>
<path d="M116.565 198.796C116.565 198.796 116.194 198.858 115.576 198.858C114.896 198.858 114.031 198.919 112.918 198.981C110.694 199.043 107.603 199.105 104.204 199.167C103.833 199.167 103.462 199.167 103.091 199.167H102.968V199.043C102.844 195.89 102.906 193.047 102.968 191.007C103.03 190.018 103.03 189.153 103.091 188.596C103.153 188.04 103.153 187.731 103.153 187.731C103.153 187.731 103.153 188.04 103.153 188.596C103.153 189.215 103.153 190.018 103.153 191.007C103.153 193.047 103.091 195.829 103.277 198.981L103.153 198.858C103.524 198.858 103.895 198.858 104.266 198.858C107.665 198.796 110.755 198.734 112.98 198.734C114.093 198.734 114.958 198.734 115.638 198.734C116.256 198.734 116.565 198.734 116.565 198.796Z" fill="#263238"/>
<path d="M22.0035 200.156L33.4375 222.533H69.4081L67.9248 219.627L57.4797 219.318L49.0124 200.403C48.4561 199.229 47.3436 198.487 46.0457 198.487H23.0542C22.1889 198.487 21.6327 199.352 22.0035 200.156Z" fill="#E0E0E0"/>
<path d="M38.6292 211.53C39.3802 211.53 39.989 210.921 39.989 210.17C39.989 209.419 39.3802 208.81 38.6292 208.81C37.8783 208.81 37.2695 209.419 37.2695 210.17C37.2695 210.921 37.8783 211.53 38.6292 211.53Z" fill="#263238"/>
<path d="M101.299 160.594L100.001 178.83C99.8153 181.797 97.3431 184.146 94.3146 184.146C91.0389 184.146 88.4431 181.364 88.6285 178.088C88.7521 176.357 88.8758 174.935 88.8758 174.935C88.8758 174.935 84.4876 174.255 84.4258 169.805C84.4258 167.703 84.673 163.623 84.982 159.729C85.3529 155.216 89.123 151.755 93.6348 151.755C98.2702 152.002 101.731 155.958 101.299 160.594Z" fill="#FFBE9D"/>
<path d="M88.875 175.121C88.875 175.121 91.6562 175.368 94.6229 173.514C94.6229 173.514 93.2632 176.666 88.875 176.295V175.121Z" fill="#EB996E"/>
<path d="M86.3418 162.572C86.3418 162.882 86.589 163.191 86.9598 163.191C87.3307 163.191 87.5779 162.943 87.6397 162.634C87.6397 162.325 87.3925 162.016 87.0217 162.016C86.6508 162.016 86.4036 162.263 86.3418 162.572Z" fill="#263238"/>
<path d="M85.9712 161.707C86.033 161.769 86.5274 161.46 87.2073 161.46C87.8871 161.46 88.3816 161.83 88.4434 161.707C88.5052 161.645 88.3816 161.521 88.1961 161.336C88.0107 161.15 87.6399 161.027 87.2073 161.027C86.7746 161.027 86.4038 161.212 86.2184 161.336C86.033 161.521 85.9094 161.645 85.9712 161.707Z" fill="#263238"/>
<path d="M92.7715 162.757C92.7715 163.067 93.0187 163.376 93.3895 163.376C93.7604 163.376 94.0076 163.128 94.0694 162.819C94.0694 162.51 93.8222 162.201 93.4513 162.201C93.0805 162.201 92.7715 162.448 92.7715 162.757Z" fill="#263238"/>
<path d="M92.6469 161.83C92.7087 161.892 93.2032 161.583 93.883 161.583C94.5629 161.583 95.0573 161.954 95.1191 161.83C95.181 161.769 95.0573 161.645 94.8719 161.459C94.6865 161.274 94.3157 161.15 93.883 161.15C93.4504 161.15 93.0796 161.336 92.8942 161.459C92.7087 161.645 92.5851 161.83 92.6469 161.83Z" fill="#263238"/>
<path d="M90.1748 166.899C90.1748 166.837 89.7421 166.775 89.0623 166.714C88.8769 166.714 88.7532 166.652 88.6914 166.528C88.6296 166.405 88.7532 166.219 88.815 166.034C89.0005 165.601 89.1241 165.168 89.3095 164.736C90.0511 162.881 90.5456 161.336 90.4838 161.274C90.422 161.274 89.7421 162.757 89.0623 164.612C88.8769 165.045 88.7532 165.539 88.5678 165.91C88.506 166.095 88.3824 166.343 88.506 166.59C88.5678 166.714 88.6914 166.837 88.815 166.837C88.9387 166.899 89.0005 166.899 89.1241 166.899C89.7421 166.899 90.1748 166.899 90.1748 166.899Z" fill="#263238"/>
<path d="M92.1515 167.332C92.0279 167.332 92.0278 168.074 91.4098 168.568C90.7917 169.063 89.9883 169.001 89.9883 169.125C89.9883 169.186 90.1737 169.248 90.4827 169.248C90.7917 169.248 91.2862 169.125 91.657 168.816C92.0279 168.507 92.2133 168.074 92.2133 167.765C92.3369 167.517 92.2133 167.332 92.1515 167.332Z" fill="#263238"/>
<path d="M92.4609 159.173C92.5227 159.358 93.2026 159.296 94.0061 159.358C94.8095 159.42 95.4276 159.667 95.5512 159.482C95.613 159.42 95.4894 159.234 95.2422 159.049C94.995 158.863 94.5623 158.678 94.0679 158.678C93.5734 158.616 93.1408 158.678 92.8318 158.802C92.5845 158.925 92.4609 159.111 92.4609 159.173Z" fill="#263238"/>
<path d="M86.2176 159.729C86.3412 159.852 86.7738 159.729 87.3919 159.729C87.9481 159.729 88.4426 159.852 88.5662 159.667C88.628 159.605 88.5662 159.42 88.319 159.296C88.1336 159.172 87.7627 159.049 87.3919 159.049C87.0211 159.049 86.6502 159.172 86.4648 159.358C86.2176 159.482 86.1558 159.667 86.2176 159.729Z" fill="#263238"/>
<path d="M99.8159 164.179C99.8777 164.118 102.844 163.252 102.783 166.281C102.659 169.31 99.6923 168.568 99.6923 168.506C99.6305 168.383 99.8159 164.179 99.8159 164.179Z" fill="#FFBE9D"/>
<path d="M100.619 167.393C100.619 167.393 100.681 167.455 100.743 167.455C100.805 167.517 100.99 167.517 101.114 167.455C101.423 167.332 101.732 166.837 101.732 166.281C101.732 166.034 101.67 165.724 101.608 165.539C101.546 165.292 101.361 165.168 101.237 165.106C101.052 165.045 100.99 165.168 100.928 165.23C100.866 165.292 100.928 165.354 100.866 165.354C100.866 165.354 100.805 165.292 100.805 165.168C100.805 165.106 100.866 165.045 100.928 164.983C100.99 164.921 101.114 164.921 101.237 164.921C101.484 164.921 101.67 165.168 101.793 165.415C101.917 165.663 101.979 165.972 101.979 166.281C101.917 166.899 101.608 167.455 101.175 167.579C100.99 167.641 100.805 167.579 100.681 167.455C100.619 167.455 100.619 167.393 100.619 167.393Z" fill="#EB996E"/>
<path d="M73.1779 222.594H29.2344V224.758H73.1779V222.594Z" fill="#263238"/>
<path d="M59.7031 223.645L73.0531 247.876H85.0433L73.2385 224.758L59.7031 223.645Z" fill="#263238"/>
<path d="M73.2397 224.758C73.2397 224.82 63.4127 224.943 51.237 225.005C39.0614 225.067 29.2344 225.067 29.2344 224.943C29.2344 224.881 39.0614 224.758 51.237 224.696C63.3509 224.634 73.2397 224.634 73.2397 224.758Z" fill="#455A64"/>
<path d="M83.7461 157.751C84.5496 158.06 85.4767 157.998 86.2184 157.565C85.9093 157.813 86.0329 158.369 86.342 158.616C86.651 158.864 87.0836 158.864 87.5163 158.864C89.6795 158.802 91.8426 157.874 93.3878 156.329C93.3878 157.071 94.0058 157.751 94.7475 157.998C95.4891 158.245 96.2926 158.184 97.0343 157.998C96.8489 159.111 96.6634 160.285 96.9107 161.398C97.1579 162.511 98.0232 163.561 99.1356 163.747C99.3829 164.303 99.2593 164.921 99.2593 165.539C99.3211 166.158 99.6301 166.838 100.248 166.838C100.804 166.838 101.175 166.281 101.237 165.787C101.299 165.292 100.99 164.18 101.361 163.314C101.793 162.387 101.608 162.572 102.041 161.645C102.473 160.718 102.659 159.42 102.968 158.493C103.277 157.504 103.4 156.453 103.029 155.526C102.659 154.598 101.731 153.795 100.743 153.918C101.113 152.991 100.804 151.817 100.001 151.137C99.1975 150.519 98.0232 150.395 97.1579 150.951C97.1579 150.951 93.6968 148.602 89.9267 149.9C86.1566 151.199 85.5385 154.66 84.735 154.722C83.9316 154.846 81.3975 153.486 81.8302 154.351C82.2628 155.216 83.0045 156.02 83.3135 156.082C83.6843 156.144 80.4705 154.784 81.583 155.958C82.6955 157.256 83.7461 157.751 83.7461 157.751Z" fill="#263238"/>
<path d="M114.093 187.175C114.032 187.236 113.784 186.68 112.919 186C112.054 185.382 110.57 184.702 108.655 184.764C106.739 184.764 104.575 185.567 102.412 186.927C100.249 188.225 98.0858 190.018 95.3046 191.193C93.9449 191.811 92.5234 192.12 91.1018 192.12C89.6803 192.12 88.3206 191.934 87.1463 191.44C85.9102 191.007 84.8595 190.327 83.9942 189.647C83.0671 188.967 82.3255 188.225 81.522 187.669C79.9769 186.495 78.4936 186 77.4429 186C76.3922 185.938 75.8359 186.247 75.8359 186.247C75.8359 186.247 75.8977 186.247 75.9596 186.186C76.0214 186.186 76.145 186.124 76.2686 186.062C76.5158 186 76.9484 185.877 77.5047 185.877C78.6172 185.877 80.1623 186.309 81.7692 187.484C83.3762 188.596 84.9831 190.327 87.3317 191.131C89.6803 191.996 92.647 191.996 95.3046 190.822C97.9622 189.647 100.187 187.855 102.35 186.556C104.514 185.258 106.8 184.393 108.778 184.455C110.756 184.455 112.239 185.135 113.105 185.815C113.537 186.124 113.784 186.495 113.97 186.68C113.97 187.051 114.093 187.175 114.093 187.175Z" fill="#FAFAFA"/>
<path d="M103.091 203.432C103.091 203.432 102.782 203.246 102.225 202.937C101.669 202.628 100.804 202.196 99.7532 201.948C98.6407 201.701 97.2809 201.639 95.7976 202.01C94.3143 202.381 92.831 203.123 91.224 203.741C90.4206 204.05 89.5553 204.297 88.69 204.359C87.8865 204.483 87.0213 204.483 86.2796 204.421C84.7345 204.297 83.4366 203.865 82.3859 203.37C81.3352 202.876 80.5935 202.319 80.0991 201.887C79.8519 201.701 79.6664 201.516 79.5428 201.392C79.4192 201.268 79.3574 201.207 79.3574 201.207C79.3574 201.207 79.6664 201.454 80.1609 201.825C80.6553 202.196 81.4588 202.752 82.4477 203.185C83.4984 203.617 84.7963 204.05 86.2796 204.174C87.7629 204.297 89.4317 204.112 91.0386 203.494C92.6456 202.876 94.1907 202.134 95.674 201.763C97.1573 201.392 98.5789 201.454 99.7532 201.763C100.866 202.01 101.731 202.505 102.287 202.814C102.534 202.999 102.782 203.123 102.905 203.246C103.029 203.308 103.091 203.37 103.091 203.432Z" fill="#FAFAFA"/>
<path d="M107.913 213.817C107.913 213.879 107.48 213.631 106.738 213.446C105.935 213.26 104.761 213.322 103.401 213.755C102.721 214.002 101.979 214.311 101.238 214.682C100.496 215.053 99.6925 215.548 98.8272 215.98C97.962 216.413 97.0349 216.908 96.046 217.155C94.9953 217.464 93.8828 217.526 92.7703 217.278C90.5453 216.784 88.753 215.486 87.1461 214.497C85.5391 213.508 83.9322 212.766 82.5107 212.642C81.0891 212.519 79.9148 212.89 79.235 213.322C78.5551 213.755 78.3079 214.126 78.2461 214.126C78.2461 214.126 78.3079 214.002 78.4315 213.879C78.5551 213.693 78.8023 213.508 79.1114 213.26C79.7912 212.766 80.9655 212.333 82.4488 212.457C83.9322 212.519 85.6009 213.26 87.2697 214.25C88.9384 215.239 90.6689 216.475 92.8321 216.969C93.8828 217.217 94.9953 217.093 95.9842 216.846C96.9731 216.598 97.9002 216.104 98.7036 215.671C99.5689 215.239 100.311 214.744 101.114 214.373C101.856 214.002 102.659 213.693 103.339 213.446C104.761 213.013 105.997 213.013 106.8 213.26C107.171 213.384 107.48 213.508 107.665 213.57C107.851 213.755 107.913 213.817 107.913 213.817Z" fill="#FAFAFA"/>
<path d="M109.519 225.623C109.519 225.623 109.396 225.685 109.21 225.747C109.025 225.809 108.654 225.871 108.221 225.932C107.356 225.994 106.12 225.747 104.76 225.191C104.08 224.943 103.277 224.634 102.473 224.449C101.608 224.263 100.681 224.202 99.7539 224.263C97.7762 224.449 95.7366 225.191 93.5734 225.809C92.4609 226.118 91.3484 226.365 90.2977 226.489C89.1852 226.612 88.1345 226.551 87.1457 226.427C85.1679 226.18 83.4373 225.623 82.0776 225.067C80.6561 224.511 79.6054 223.954 78.8638 223.583C78.4929 223.398 78.1839 223.213 77.9985 223.151C77.8131 223.027 77.6895 222.965 77.6895 222.965C77.6895 222.965 77.8131 223.027 77.9985 223.089C78.2457 223.213 78.4929 223.336 78.8638 223.46C79.6054 223.831 80.7179 224.325 82.1394 224.82C83.5609 225.314 85.2297 225.871 87.2075 226.118C88.1964 226.241 89.1852 226.241 90.2977 226.118C91.3484 225.994 92.4609 225.747 93.5116 225.438C95.6748 224.82 97.7762 224.078 99.7539 223.893C100.743 223.831 101.732 223.893 102.597 224.078C103.462 224.263 104.204 224.634 104.946 224.882C106.305 225.438 107.48 225.747 108.345 225.685C109.087 225.747 109.519 225.562 109.519 225.623Z" fill="#FAFAFA"/>
<path d="M115.822 195.643C115.822 195.643 115.699 195.829 115.452 196.014C115.204 196.261 114.772 196.571 114.154 196.818C113.597 197.065 112.794 197.251 111.99 197.251C111.125 197.251 110.198 197.003 109.333 196.571C108.468 196.138 107.664 195.705 106.922 195.458C106.181 195.211 105.439 195.149 104.821 195.211C104.203 195.272 103.77 195.52 103.523 195.767C103.276 196.014 103.152 196.138 103.152 196.138C103.152 196.138 103.214 195.952 103.461 195.705C103.709 195.458 104.141 195.149 104.821 195.025C105.439 194.902 106.243 194.963 107.046 195.211C107.85 195.458 108.653 195.952 109.518 196.323C110.384 196.756 111.187 197.003 111.99 197.003C112.794 197.065 113.536 196.88 114.092 196.694C115.266 196.2 115.822 195.582 115.822 195.643Z" fill="#FAFAFA"/>
<path d="M79.9752 195.334C79.9752 195.334 79.9134 195.458 79.7898 195.519C79.6044 195.643 79.3571 195.705 78.9863 195.705C78.6155 195.705 78.2446 195.581 77.8738 195.396C77.503 195.21 77.1321 194.901 76.6995 194.592C75.896 194.036 74.969 194.036 74.4127 194.098C73.7947 194.221 73.4238 194.469 73.4238 194.407C73.4238 194.407 73.7329 194.098 74.3509 193.912C74.969 193.727 76.0196 193.727 76.8849 194.345C77.3176 194.592 77.6884 194.901 77.9974 195.149C78.3682 195.396 78.6773 195.458 78.9863 195.519C79.6044 195.581 79.9134 195.272 79.9752 195.334Z" fill="#FAFAFA"/>
<path d="M63.1638 215.3L72.1874 214.25L78.5533 218.391L102.781 212.581L103.461 199.043L114.339 198.796L114.091 214.682C113.968 219.813 109.765 223.831 104.635 223.707L69.1589 222.718L67.6756 219.689L60.0117 219.442L63.1638 215.3Z" fill="#FFBE9D"/>
<path d="M102.411 212.581C102.411 212.581 102.225 212.642 101.978 212.704C101.669 212.766 101.236 212.89 100.68 213.075C99.5057 213.384 97.837 213.755 95.7974 214.311C91.6564 215.3 85.9704 216.66 79.728 218.206C79.2336 218.329 78.7391 218.453 78.2447 218.577H78.1829L78.1211 218.515C75.8961 217.031 73.7329 215.609 71.817 214.373H71.8788C68.2941 214.806 65.2656 215.115 62.8552 215.424L62.917 215.362C61.9281 216.66 61.1246 217.649 60.5684 218.391C60.3212 218.7 60.074 219.009 59.9503 219.195C59.8267 219.38 59.7031 219.442 59.7031 219.442C59.7031 219.442 59.7649 219.318 59.8885 219.133C60.0122 218.947 60.2594 218.638 60.5066 218.329C61.0628 217.588 61.8663 216.537 62.7934 215.239H62.8552C65.2038 214.93 68.2941 214.559 71.817 214.126H71.8788H71.9406C73.9183 215.424 76.0197 216.784 78.3065 218.268H78.1829C78.6773 218.144 79.1718 218.02 79.6662 217.897C85.9085 216.413 91.5946 215.053 95.7356 214.064C97.7752 213.57 99.4439 213.199 100.618 212.951C101.174 212.828 101.607 212.704 101.978 212.642C102.225 212.581 102.411 212.581 102.411 212.581Z" fill="#EB996E"/>
<path d="M68.1091 217.897C68.1091 217.958 66.564 218.02 64.5862 218.02C64.339 218.02 64.1536 218.02 63.9681 218.02L64.0299 217.958C62.7938 219.009 61.805 219.751 61.7432 219.689C61.6813 219.627 62.6084 218.824 63.8445 217.711L63.9063 217.649H63.9681C64.1536 217.649 64.4008 217.649 64.5862 217.649C66.5022 217.711 68.1091 217.835 68.1091 217.897Z" fill="#EB996E"/>
<path d="M106.861 215.301C106.799 215.362 106.305 214.188 105.069 213.446C103.832 212.643 102.658 212.766 102.658 212.643C102.658 212.581 102.967 212.519 103.462 212.581C103.956 212.643 104.636 212.828 105.254 213.199C105.872 213.57 106.367 214.126 106.614 214.559C106.861 214.992 106.923 215.301 106.861 215.301Z" fill="#EB996E"/>
</g>
<defs>
<clipPath id="clip0_2682_14243">
<rect width="417" height="248" fill="white"/>
</clipPath>
</defs>
</svg>
