<svg width="24" height="24" viewBox="0 0 24 24" fill="none" xmlns="http://www.w3.org/2000/svg">
<g clip-path="url(#clip0_1092_9297)">
<path d="M23.1797 14.6323C23.17 14.6081 23.1555 14.5887 23.141 14.5694C22.5168 13.8 21.3894 13.6839 20.6152 14.3081C19.6475 15.0968 18.2394 16.2339 17.3249 16.9742C16.6809 17.4922 15.8864 17.7876 15.0604 17.8161L12.5829 17.8984C12.4813 17.9032 12.3894 17.85 12.3362 17.7677L12.0604 17.2935C12.012 17.2161 12.0071 17.1242 12.0459 17.0419C12.0846 16.9597 12.1571 16.9016 12.2442 16.8871L14.8039 16.4032C15.7039 16.2339 16.3329 15.3823 16.2313 14.4581C16.1346 13.5677 15.3797 12.9 14.4894 12.9H14.4023L10.9813 12.7597C9.61682 12.7113 8.44585 12.9726 7.0765 13.6355L5.28618 14.5016C5.03456 13.979 4.50714 13.6452 3.9265 13.6452H1.94747C1.12005 13.6403 0.447466 14.3081 0.442627 15.1355V22.5048C0.447466 23.3323 1.12005 24 1.94747 24H3.9265C4.75392 24 5.42166 23.3323 5.4265 22.5048V22.0065L7.32811 21.6581C7.94263 21.5661 8.32972 21.5323 8.98295 21.5613L14.1846 21.8032C16.0571 21.8855 17.891 21.2661 19.3281 20.0661L22.9329 17.0758L22.9378 17.071C23.6588 16.4565 23.7652 15.3774 23.1797 14.6323ZM4.45876 22.5048C4.45876 22.7952 4.22166 23.0323 3.93134 23.0323H1.93779C1.64747 23.0323 1.41037 22.7952 1.41037 22.5048V15.1403C1.41037 14.85 1.64747 14.6129 1.93779 14.6129H3.93134C4.22166 14.6129 4.45876 14.85 4.45876 15.1403V22.5048ZM22.3136 16.3306L18.7136 19.3161C17.4604 20.3613 15.8588 20.8984 14.2281 20.8306L9.0265 20.5887C8.29585 20.5548 7.85069 20.5984 7.17811 20.6952C7.17327 20.6952 7.16843 20.6952 7.16359 20.7L5.4265 21.0194V15.5032L7.49747 14.5016C8.71682 13.9113 9.74747 13.679 10.9426 13.7226L14.3878 13.8629H14.4894C14.8862 13.8677 15.2249 14.1629 15.2733 14.5597C15.3217 14.9758 15.041 15.3629 14.6297 15.4452L12.07 15.929C11.3975 16.0548 10.9571 16.7081 11.0829 17.3806C11.112 17.521 11.1604 17.6565 11.2329 17.7774L11.5088 18.2468C11.741 18.6387 12.1668 18.871 12.6217 18.8565L15.0991 18.7742C16.1346 18.7355 17.1313 18.3629 17.9394 17.7194C18.8539 16.979 20.2668 15.8419 21.2346 15.0532C21.5829 14.7823 22.0813 14.8258 22.3765 15.1548C22.3862 15.1742 22.4007 15.1935 22.4152 15.2129C22.691 15.5468 22.6475 16.05 22.3136 16.3306ZM15.8442 0C12.3555 0 9.51521 2.84032 9.51521 6.32903C9.51521 9.81774 12.3555 12.6629 15.8442 12.6629C19.3329 12.6629 22.1733 9.82258 22.1733 6.33387C22.1733 2.84516 19.3329 0 15.8442 0ZM15.8491 11.6952C12.8878 11.6952 10.4829 9.29516 10.4829 6.33387V6.32903C10.4878 3.37258 12.8829 0.972581 15.8442 0.967742C18.8055 0.967742 21.2104 3.36774 21.2104 6.32903C21.2104 9.29032 18.8104 11.6952 15.8491 11.6952Z" fill="black"/>
<path d="M17.7361 4.83876H17.0877C17.0345 4.59683 16.9425 4.36941 16.8071 4.16135H17.7361C18.0022 4.16135 18.22 3.9436 18.22 3.67747C18.22 3.41135 18.0022 3.1936 17.7361 3.1936H13.9522C13.6861 3.1936 13.4683 3.41135 13.4683 3.67747C13.4683 3.9436 13.6861 4.16135 13.9522 4.16135H15.0361C15.4909 4.16135 15.8877 4.45167 16.0667 4.83876H13.9522C13.6861 4.83876 13.4683 5.05651 13.4683 5.32264C13.4683 5.58876 13.6861 5.80651 13.9522 5.80651H16.0667C16.0038 5.9178 15.9312 6.01941 15.8441 6.11135C15.6264 6.32425 15.3361 6.44038 15.0361 6.43554H13.9522C13.6812 6.44038 13.4635 6.65812 13.4683 6.92909C13.4683 7.05973 13.5264 7.18554 13.6183 7.27747L16.3232 9.83715C16.5167 10.021 16.8216 10.0113 17.0054 9.8178C17.1893 9.62425 17.1796 9.31941 16.9861 9.13554L15.1619 7.40812C15.6748 7.37909 16.1587 7.16618 16.5216 6.80328C16.7974 6.52747 16.9909 6.18393 17.0877 5.80651H17.7361C18.0022 5.80651 18.22 5.58876 18.22 5.32264C18.22 5.05651 18.0022 4.83876 17.7361 4.83876Z" fill="black"/>
</g>
<defs>
<clipPath id="clip0_1092_9297">
<rect width="24" height="24" fill="white"/>
</clipPath>
</defs>
</svg>
