<svg width="24" height="24" viewBox="0 0 24 24" fill="none" xmlns="http://www.w3.org/2000/svg">
<g clip-path="url(#clip0_1092_9255)">
<path d="M23.6618 20.0398L19.1808 15.6916C18.9674 15.4843 18.6858 15.3729 18.3862 15.3772C18.2003 15.38 18.0222 15.4276 17.8643 15.5145L15.7507 13.4636C16.5856 12.1451 17.0698 10.5834 17.0698 8.91064C17.0698 4.20448 13.241 0.375732 8.53491 0.375732C3.82875 0.375732 0 4.20443 0 8.91059C0 13.6167 3.82875 17.4454 8.53491 17.4454C10.556 17.4454 12.4148 16.7389 13.8785 15.5603L15.8816 17.504C15.7403 17.698 15.6658 17.9319 15.6694 18.177C15.6739 18.476 15.794 18.7546 16.0074 18.9618L20.4885 23.31C20.7052 23.5202 20.9857 23.6248 21.2661 23.6248C21.5577 23.6248 21.8491 23.5115 22.0677 23.2863L23.6856 21.619C24.1143 21.1771 24.1037 20.4687 23.6618 20.0398ZM0.75 8.91059C0.75 4.61801 4.24228 1.12573 8.53491 1.12573C12.8275 1.12573 16.3198 4.61801 16.3198 8.91064C16.3198 13.2032 12.8275 16.6955 8.53491 16.6955C4.24228 16.6954 0.75 13.2032 0.75 8.91059ZM15.316 14.0869L17.307 16.0188L16.3958 16.9579L14.4435 15.0635C14.7587 14.7606 15.0504 14.4341 15.316 14.0869ZM23.1473 21.0967L21.5295 22.764C21.3886 22.9092 21.1559 22.9126 21.0108 22.7718L16.5297 18.4235C16.46 18.3559 16.4208 18.2643 16.4193 18.1658C16.4178 18.0672 16.4543 17.9746 16.5219 17.9049L18.1398 16.2376C18.2074 16.1679 18.299 16.1286 18.3975 16.1272L18.4034 16.1271C18.4997 16.1271 18.5902 16.1634 18.6585 16.2298L23.1395 20.578C23.2846 20.7189 23.2882 20.9516 23.1473 21.0967ZM8.53486 2.2294C4.85086 2.2294 1.85367 5.22659 1.85367 8.91064C1.85367 12.5946 4.85086 15.5918 8.53486 15.5918C12.2189 15.5918 15.2161 12.5947 15.2161 8.91064C15.2161 5.22659 12.2189 2.2294 8.53486 2.2294ZM8.53486 14.8418C5.26439 14.8418 2.60367 12.1811 2.60367 8.91059C2.60367 5.64008 5.26439 2.97936 8.53486 2.97936C11.8054 2.97936 14.4661 5.64008 14.4661 8.91059C14.4661 12.1811 11.8054 14.8418 8.53486 14.8418ZM10.381 7.93911C10.0954 7.86832 9.80608 7.81339 9.51441 7.77458C9.97669 7.38251 10.281 6.72144 10.281 5.97336C10.281 4.87883 9.59555 4.17158 8.53486 4.17158C7.47417 4.17158 6.78877 4.87883 6.78877 5.97336C6.78877 6.71975 7.09167 7.37942 7.55222 7.77181C7.26029 7.81052 6.97093 7.86664 6.68569 7.93986C5.68627 8.19683 5.11303 8.77878 5.11303 9.53656V11.8679C5.11303 12.3153 5.47706 12.6793 5.92448 12.6793H11.1453C11.5927 12.6793 11.9568 12.3153 11.9568 11.8679V9.53656C11.9567 8.76973 11.3824 8.1875 10.381 7.93911ZM8.53486 4.92158C8.98927 4.92158 9.53095 5.10406 9.53095 5.97336C9.53095 6.74689 9.07481 7.40042 8.53486 7.40042C7.99491 7.40042 7.53877 6.74694 7.53877 5.97336C7.53877 5.10406 8.08041 4.92158 8.53486 4.92158ZM11.2067 11.8679C11.2065 11.8841 11.1999 11.8996 11.1885 11.9111C11.177 11.9226 11.1615 11.9291 11.1452 11.9293H10.5722V10.1728C10.5722 10.0734 10.5327 9.978 10.4624 9.90768C10.392 9.83735 10.2966 9.79784 10.1972 9.79784C10.0977 9.79784 10.0023 9.83735 9.93202 9.90768C9.8617 9.978 9.82219 10.0734 9.82219 10.1728V11.9293H7.24748V10.1728C7.24748 10.0734 7.20798 9.978 7.13765 9.90768C7.06732 9.83735 6.97194 9.79784 6.87248 9.79784C6.77303 9.79784 6.67765 9.83735 6.60732 9.90768C6.53699 9.978 6.49748 10.0734 6.49748 10.1728V11.9293H5.92444C5.90821 11.9291 5.89271 11.9226 5.88124 11.9111C5.86976 11.8996 5.86321 11.8841 5.86298 11.8679V9.53656C5.86298 9.03172 6.41189 8.78464 6.87239 8.66623C7.41033 8.52756 7.96363 8.45742 8.51916 8.4575C9.07561 8.4575 9.63741 8.52734 10.2004 8.66698C10.5762 8.76022 11.2067 8.99712 11.2067 9.53651L11.2067 11.8679Z" fill="black"/>
</g>
<defs>
<clipPath id="clip0_1092_9255">
<rect width="24" height="24" fill="white"/>
</clipPath>
</defs>
</svg>
