<svg width="22" height="22" viewBox="0 0 22 22" fill="none" xmlns="http://www.w3.org/2000/svg">
<path d="M19.4612 8.46161V14.3847C19.4612 18.6155 17.7689 20.3078 13.5381 20.3078H8.46116C4.23039 20.3078 2.53809 18.6155 2.53809 14.3847V7.61546C2.53809 3.38469 4.23039 1.69238 8.46116 1.69238H12.6919" stroke="#292D32" stroke-linecap="round" stroke-linejoin="round"/>
<path d="M19.4606 8.46161L12.6914 1.69238" stroke="#292D32" stroke-linecap="round" stroke-linejoin="round"/>
<path d="M10.823 15.019C12.6728 15.019 14.1724 13.5195 14.1724 11.6697C14.1724 9.81987 12.6728 8.32031 10.823 8.32031C8.97319 8.32031 7.47363 9.81987 7.47363 11.6697C7.47363 13.5195 8.97319 15.019 10.823 15.019Z" stroke="#292D32" stroke-linecap="round" stroke-linejoin="round"/>
<path d="M14.5254 15.3721L13.8203 14.667" stroke="#292D32" stroke-linecap="round" stroke-linejoin="round"/>
</svg>
