<svg width="496" height="496" viewBox="0 0 496 496" fill="none" xmlns="http://www.w3.org/2000/svg">
<rect width="496" height="496" fill="#F45757"/>
<path d="M119.464 221.3C120.064 223.2 120.964 225 121.864 226.7C122.264 227.4 122.664 228.1 122.964 228.8C123.464 229.8 123.964 230.8 124.364 231.8V221.3C122.664 221.5 121.064 221.5 119.464 221.3ZM223.064 93H134.464C124.064 93 115.664 101.9 115.664 112.9V320.7C115.664 321 115.664 321.4 115.664 321.7C115.664 321.8 115.664 321.9 115.664 321.9C115.664 322.1 115.664 322.2 115.664 322.3C115.664 322.4 115.664 322.5 115.664 322.7C115.664 322.7 115.664 322.7 115.664 322.8C115.664 323.1 115.764 323.4 115.764 323.8C115.764 324 115.864 324.3 115.864 324.5C115.864 324.7 115.964 325 115.964 325.2V325.3C115.964 325.5 116.064 325.7 116.064 325.9C116.164 326.2 116.164 326.4 116.264 326.7C116.364 326.9 116.364 327.2 116.464 327.4C116.464 327.5 116.564 327.6 116.564 327.7C116.664 327.9 116.764 328.2 116.764 328.4C117.164 329.4 117.664 330.4 118.164 331.3C118.464 331.8 118.764 332.3 119.064 332.7C119.764 333.7 120.464 334.6 121.364 335.4C121.564 335.6 121.764 335.8 121.964 336C122.164 336.2 122.364 336.4 122.664 336.6C123.064 336.9 123.464 337.2 123.764 337.5C123.964 337.6 124.064 337.7 124.264 337.8C124.464 337.9 124.664 338.1 124.864 338.2C125.064 338.3 125.264 338.4 125.464 338.6C125.664 338.7 125.964 338.9 126.164 339H126.264C126.464 339.1 126.764 339.2 126.964 339.3C127.164 339.4 127.364 339.5 127.564 339.5C127.764 339.6 127.964 339.6 128.164 339.7C128.364 339.8 128.564 339.8 128.664 339.9C128.964 340 129.264 340.1 129.664 340.2C129.964 340.3 130.164 340.3 130.464 340.4C131.064 340.5 131.664 340.6 132.264 340.7C132.864 340.8 133.464 340.8 134.064 340.8H222.664C232.564 340.8 240.664 332.7 241.464 322.4C241.464 322.2 241.464 322.1 241.464 321.9C241.464 321.6 241.464 321.2 241.464 320.9V208.9V112.9C241.864 101.9 233.464 93 223.064 93ZM233.264 308.8H124.364V124.9H233.264V308.8ZM119.464 221.3C120.064 223.2 120.964 225 121.864 226.7C122.264 227.4 122.664 228.1 122.964 228.8C123.464 229.8 123.964 230.8 124.364 231.8V221.3C122.664 221.5 121.064 221.5 119.464 221.3Z" fill="#333333"/>
<path d="M239.166 124.9H119.266V308.8H239.166V124.9Z" fill="url(#paint0_linear_4756_1111)"/>
<path d="M324.866 357.6L211.766 420.9C211.466 420.5 211.266 420 210.966 419.5C210.766 419.2 210.566 418.9 210.366 418.6C207.466 413.7 204.566 409.2 200.466 403.4C199.266 401.6 197.966 399.8 196.466 397.8C182.466 388.4 177.766 385.3 164.066 373.3C154.766 365.2 144.566 351.6 138.566 340.9H223.066C233.466 340.9 241.866 332 241.866 321V238.8C244.766 240.8 246.566 242.9 248.966 245.3C248.366 242.5 248.666 239 248.466 236C248.366 233 247.666 230.3 247.266 227.3C246.766 223.7 247.966 220.3 246.066 217C244.766 214.4 242.866 211.5 241.966 208.5V209C236.866 198.8 237.166 163.8 241.866 157.9C241.866 157.8 241.966 157.8 241.966 157.7C243.466 155.6 245.366 154.3 247.566 154.1C250.166 153.7 252.366 154 254.166 155C258.866 157.4 261.066 163.7 262.666 170.5C264.566 178.2 265.566 186.6 268.266 190.8C273.966 199.1 280.666 205.5 282.966 215.5C284.666 223.8 287.266 231.2 290.566 239.2C292.566 244.8 293.266 250.2 296.266 255.2C298.966 259.5 299.066 265 299.766 270C300.766 278.7 301.666 289.7 301.666 294.9C301.366 301 302.866 307.1 304.066 313C304.266 314.3 304.566 315.6 304.866 316.8V316.9C308.466 331.6 316.566 345.3 324.866 357.6Z" fill="#FAD9B7"/>
<path d="M416 495.9H224.365L190.965 418.3L204.965 410.1H205.065L317.065 345.4L332.265 336.6L416 495.9Z" fill="white"/>
<path d="M221.866 109.2C221.866 111.9 219.666 114 217.066 114C214.366 114 212.266 111.8 212.266 109.2C212.266 106.5 214.466 104.4 217.066 104.4C219.666 104.4 221.866 106.5 221.866 109.2Z" fill="#999999"/>
<path d="M239.166 262.6V308.8H119.266V262.6L124.466 260.9H124.566L119.266 262.7L127.966 259.7L154.866 249.7L160.766 254L161.466 254.5L161.766 254.7L162.166 255L163.766 256.2L169.766 260.6L171.666 258.1L174.466 254.5L174.766 254.1L175.766 252.8L176.766 251.4L178.066 249.6L179.466 251.4L180.766 253.2L181.866 254.5L182.566 255.5L186.266 260.4L186.466 260.7L186.566 260.6L193.966 255.2L194.766 254.6L195.966 253.7L201.466 249.8L239.166 262.6Z" fill="white"/>
<path d="M182.667 255.2H174.867V308.8H182.667V255.2Z" fill="#E5E5E5"/>
<path d="M196.266 230H160.766V249.5H196.266V230Z" fill="#FAD9B7"/>
<path d="M149.664 206.6C148.764 206.8 147.864 206.6 146.964 206C144.564 204.6 142.564 200.9 141.864 196.3C140.964 190 142.964 184.4 146.264 183.8C146.564 183.7 146.864 183.7 147.164 183.8C147.364 183.8 147.564 183.8 147.664 183.9C148.364 184.1 149.064 184.5 149.764 185.1C151.764 186.8 153.364 190.2 153.964 194.2C154.964 200.4 153.064 205.9 149.664 206.6Z" fill="#FAD9B7"/>
<g opacity="0.2">
<path d="M196.366 230.5L179.366 248.9L178.266 249.4H160.766V230.7C166.066 234.6 172.366 236.8 179.066 236.8C185.266 236.8 191.266 233.9 196.366 230.5Z" fill="#4D4D4D"/>
</g>
<path d="M210.766 195.2C210.766 199.1 210.366 202.9 209.566 206.5C205.766 224.6 193.166 237.8 178.166 237.8C163.066 237.8 150.266 224.3 146.666 206C145.966 202.5 145.566 198.9 145.566 195.2C145.566 191.2 145.966 187.4 146.766 183.8C146.866 183.4 146.866 183.1 146.966 182.7C147.066 183.1 147.166 183.5 147.266 183.8C147.966 184 148.666 184.4 149.366 185C148.366 181 151.366 173.8 153.666 170.4C156.866 165.5 162.266 164.6 167.666 163.4C174.766 162.2 181.166 161.3 188.266 161.3C193.166 161.3 195.166 162 199.166 164.8C197.466 171.1 202.566 180.7 207.466 185.3C208.166 184.6 208.866 184.2 209.566 183.9C209.766 184.7 209.866 185.4 209.966 186.2C210.566 189.1 210.766 192.1 210.766 195.2Z" fill="#FAD9B7"/>
<path d="M211.466 183.8H211.366C210.766 183.7 210.166 183.7 209.666 183.9C208.966 184.1 208.266 184.6 207.566 185.3C202.666 180.6 197.566 171 199.266 164.8C195.166 162 193.266 161.3 188.366 161.3C181.266 161.3 174.866 162.2 167.766 163.4C162.366 164.6 157.066 165.5 153.766 170.4C151.366 173.8 148.466 181 149.466 185C148.766 184.4 147.066 184 146.266 183.8C146.166 183.4 146.566 181.9 146.366 181.2C145.866 178.8 146.166 179.2 146.166 177.8C146.166 174.8 146.066 174.8 146.066 172.4C146.166 169.6 146.866 167.8 147.966 166C155.066 154.8 164.066 147.3 176.666 147.3C186.966 147.3 200.266 153.3 200.266 161.9C203.666 160.8 205.666 162.3 207.366 164.3C210.266 167.8 210.666 168.6 211.366 171.7C211.966 178 212.166 179.2 211.466 183.8Z" fill="#333333"/>
<path d="M178.266 249.5L174.566 254.4L169.866 260.5L161.466 254.4L160.766 253.8L154.866 249.5H154.766L158.966 240.8H160.766L178.266 249.5Z" fill="white"/>
<path d="M201.666 249.5L196.166 253.5L194.966 254.4L186.566 260.5L181.966 254.4L178.266 249.5L195.766 240.8H197.466L201.666 249.5Z" fill="white"/>
<g opacity="0.14">
<path d="M162.167 254.9L144.667 257.6L127.867 260.3L124.467 260.8H124.367C124.367 260.8 124.467 260.7 124.567 260.7L127.867 259.5L154.767 249.5L160.667 253.8L161.367 254.4L162.167 254.9Z" fill="#4D4D4D"/>
</g>
<g opacity="0.14">
<path d="M175.866 248.3L162.166 254.9L161.466 254.4L160.766 253.8L154.866 249.5H154.766L158.966 240.8H160.766L175.866 248.3Z" fill="#4D4D4D"/>
</g>
<path d="M181.066 257.5C178.666 256.2 178.666 254.2 181.066 252.9C183.466 251.6 187.366 249.6 189.766 248.3C192.166 247 194.166 248.1 194.166 250.6C194.166 253.1 194.166 257.2 194.166 259.7C194.166 262.2 192.166 263.2 189.766 262C187.466 260.8 183.466 258.7 181.066 257.5Z" fill="#E56024"/>
<path d="M176.467 252.9C178.767 254.2 178.767 256.2 176.467 257.4C174.167 258.7 170.367 260.7 168.067 262C165.767 263.3 163.867 262.2 163.867 259.7C163.867 257.2 163.867 253.1 163.867 250.6C163.867 248.1 165.767 247.1 168.067 248.3C170.367 249.6 174.167 251.7 176.467 252.9Z" fill="#E56024"/>
<path d="M181.669 251.3C182.269 251.3 182.669 251.8 182.669 252.4V258C182.669 258.6 182.169 259.1 181.669 259.1H175.969C175.369 259.1 174.969 258.6 174.969 258V252.4C174.969 251.8 175.469 251.3 175.969 251.3H181.669Z" fill="#E56024"/>
<path d="M216.066 196.3C215.266 201.5 212.766 205.6 209.966 206.5C209.366 206.7 208.866 206.7 208.266 206.6C204.966 206 202.966 200.4 203.966 194.1C204.566 190.3 206.066 187.1 207.866 185.3C208.566 184.6 209.266 184.2 209.966 183.9C210.566 183.7 211.166 183.7 211.766 183.8H211.866C215.166 184.5 217.066 190 216.066 196.3Z" fill="#FAD9B7"/>
<path opacity="0.23" d="M163.564 93L162.264 124.9L154.664 308.8L153.364 340.7H134.464C124.064 340.7 115.664 331.8 115.664 320.8V112.9C115.664 101.9 124.064 93 134.464 93H163.564Z" fill="white"/>
<path d="M137.066 202.8C134.966 211.3 126.366 216.5 117.866 214.4L93.0658 208.3C84.5658 206.1 79.3658 197.5 81.4657 189C83.5657 180.5 92.1658 175.3 100.666 177.4L125.466 183.5C134.066 185.6 139.266 194.3 137.066 202.8Z" fill="#FAD9B7"/>
<path d="M121.465 234C123.965 239.7 121.065 246.5 114.965 249.2L114.065 249.6C107.865 252.4 100.865 250 98.3654 244.3L91.5654 229.1C89.0654 223.4 91.9654 216.6 98.0654 213.8L98.9654 213.4C105.165 210.6 112.165 213 114.665 218.7L121.465 234Z" fill="#FAD9B7"/>
<path d="M116.267 289.9C116.167 289.9 116.167 290 116.067 290L115.667 289.3V290.2C113.467 291.2 111.267 291.7 109.067 291.7C104.467 291.7 100.367 289.5 98.2671 285.7L97.7671 284.7L89.9671 269.7C88.9671 267.8 88.6671 265.7 88.8671 263.6C88.8671 263.4 88.8671 263.2 88.9671 263C88.9671 262.8 89.0671 262.6 89.0671 262.4C89.0671 262.3 89.0671 262.3 89.0671 262.2C89.1671 261.9 89.1671 261.7 89.2671 261.4C89.3671 261.2 89.3671 261 89.4671 260.9C89.5671 260.7 89.5671 260.5 89.6671 260.4C89.9671 259.5 90.4671 258.7 90.9671 257.9C92.3671 255.8 94.3671 253.9 96.8671 252.6C99.0671 251.5 101.367 250.9 103.667 250.8C103.967 250.8 104.267 250.9 104.567 250.9C104.767 250.9 104.867 250.9 105.067 250.9C109.167 251.2 112.867 253.3 114.767 256.9L115.767 258.8L123.167 272.9C126.167 278.7 123.067 286.4 116.267 289.9Z" fill="#FAD9B7"/>
<path d="M115.667 315.5C115.567 315.6 115.467 315.6 115.367 315.6C113.167 316.7 110.867 317.3 108.667 317.3C104.767 317.3 101.267 315.5 99.5673 312.3L92.4673 298.7C91.3673 296.5 91.2673 294 91.9673 291.6C91.9673 291.5 92.0673 291.3 92.0673 291.2C92.1673 290.9 92.2673 290.6 92.4673 290.4C92.5673 290.2 92.6673 290 92.7673 289.9C92.8673 289.7 92.9673 289.5 93.0673 289.3C94.0673 287.5 95.6673 285.9 97.5673 284.7L98.0673 285.7C100.067 289.6 104.267 291.7 108.867 291.7C111.067 291.7 113.367 291.2 115.467 290.2V289.3L115.867 290L121.567 300.9C124.267 305.8 121.567 312.3 115.667 315.5Z" fill="#FAD9B7"/>
<path d="M209.464 211.8C209.464 211.1 209.264 210.6 209.064 210.1C208.864 209.7 209.164 208.7 209.164 208.3C209.164 207.5 209.264 207 209.364 206.6C209.464 206.1 209.564 205.6 209.264 204.6L208.764 203.9C208.164 203.7 208.264 203.4 207.564 203.6C206.764 203.7 206.064 204 205.564 204.4C204.064 205.4 203.064 207.4 202.164 209.2C200.464 212.1 198.164 216.8 193.764 215.5C191.264 214.5 189.964 211.3 187.264 210.2C185.564 209.4 183.464 209.4 181.464 209.2C177.864 209 171.364 208.2 167.864 210C165.364 211.3 165.564 214.6 162.164 215C160.964 215.1 159.764 214.8 158.664 214.2C157.764 213.7 157.064 213.2 156.464 212.5C154.364 210.7 153.264 207.9 152.164 205.3C151.864 204.6 151.664 203.9 151.364 203.2C148.964 203.7 147.864 204.8 147.564 206.3C147.364 207 147.364 207.8 147.464 208.6C147.564 210.7 148.264 213.2 148.364 215.4C150.464 218.9 150.864 224 154.064 226.7C154.864 223.5 156.964 227.6 157.664 228.8C157.764 229 157.964 229.3 158.164 229.5C158.964 230.7 159.864 231.9 160.864 232.9L160.964 233C161.764 233.8 162.764 234.5 163.764 235.1C165.464 236.1 167.364 235.9 169.064 236.6C171.364 237.7 174.064 239.5 176.164 240.8C176.164 240.4 176.364 240 176.364 239.5C179.764 239.1 179.964 242.7 183.664 239.9C185.464 238.6 186.864 237.3 188.764 236.3C189.264 236 189.764 235.8 190.364 235.5C191.064 235.2 192.064 234.7 193.364 234.2C194.364 233.8 195.364 233.3 196.364 232.7C196.364 232.7 196.364 232.7 196.464 232.7C199.864 230.8 203.064 228.3 201.864 225.6C205.064 221.8 207.564 219.8 209.064 214.7C209.064 213.5 209.464 212.8 209.464 211.8ZM169.264 218.4C170.364 217.4 171.964 217.1 173.564 216.8C176.264 215.7 177.364 215.7 180.464 216.3C182.264 216.8 184.364 216.3 185.864 217.2C187.564 218 189.564 220.5 189.364 222.5C189.264 224.3 185.964 227.5 183.964 226.6C182.164 226 180.964 222.7 178.564 222.9C176.664 223.1 176.864 225.7 175.864 226.9C175.764 227.1 175.564 227.1 175.364 227.2C174.964 227.3 174.564 227.3 174.064 227.2C172.864 227 171.564 226.4 171.064 226C168.764 224.6 166.464 220.8 169.264 218.4Z" fill="#333333"/>
<path d="M181.065 269.2C181.065 270.5 180.065 271.5 178.765 271.5C177.465 271.5 176.465 270.5 176.465 269.2C176.465 267.9 177.465 266.9 178.765 266.9C180.065 266.9 181.065 267.9 181.065 269.2Z" fill="white"/>
<path d="M181.065 286.4C181.065 287.7 180.065 288.7 178.765 288.7C177.465 288.7 176.465 287.7 176.465 286.4C176.465 285.1 177.465 284.1 178.765 284.1C180.065 284.1 181.065 285.1 181.065 286.4Z" fill="white"/>
<path d="M181.065 303.6C181.065 304.9 180.065 305.9 178.765 305.9C177.465 305.9 176.465 304.9 176.465 303.6C176.465 302.3 177.465 301.3 178.765 301.3C180.065 301.3 181.065 302.3 181.065 303.6Z" fill="white"/>
<path d="M201.764 109.2C201.764 110.5 200.764 111.5 199.464 111.5H158.964C157.664 111.5 156.664 110.5 156.664 109.2C156.664 107.9 157.664 106.9 158.964 106.9H199.464C200.664 106.9 201.764 107.9 201.764 109.2Z" fill="#CCCCCC"/>
<path opacity="0.25" d="M252.664 322.4C249.664 336.7 247.264 338 241.964 344C225.964 362 160.464 351.3 142.964 348C141.364 345.6 139.864 343.2 138.664 340.9H223.164C232.664 340.9 240.564 333.4 241.764 323.7C241.764 323.4 241.864 323.1 241.864 322.8C241.864 322.5 241.864 322.1 241.964 321.8C241.964 321.5 241.964 321.3 241.964 321V238.8C243.564 239.9 244.764 241 245.964 242.2C245.864 242.1 254.664 312.8 252.664 322.4Z" fill="#8A8A8A"/>
<g opacity="0.38">
<path d="M239.166 167.5C238.066 175.9 237.966 187.8 239.166 197.1C239.766 201.9 240.666 206.1 241.966 208.7V214.3C240.966 213.3 239.966 212.2 239.166 210.9C235.666 205.9 233.966 199.3 233.266 192.4V179.9C234.066 170.6 236.466 162.2 239.166 157.9C240.066 156.5 240.966 155.5 241.966 155.1V157.9C240.666 159.4 239.766 162.9 239.166 167.5Z" fill="#728184"/>
</g>
<g opacity="0.29">
<path d="M139.164 214.2C135.964 218.9 130.164 221 124.364 221.4C122.664 221.5 121.064 221.5 119.464 221.4C120.764 225.3 122.864 228.4 124.364 232C125.264 234 125.864 236.2 125.964 238.7C126.064 241 125.464 243 124.364 244.6C123.164 246.5 121.264 248 119.264 249.1C118.164 249.8 116.964 250.3 115.664 250.8V248.9C117.064 248.2 118.264 247.2 119.264 246.2C122.264 242.9 123.364 238.2 121.464 234L119.264 229L115.664 221V213.8L117.864 214.3C118.364 214.4 118.764 214.5 119.264 214.6C120.964 214.9 122.764 214.9 124.364 214.6C130.364 213.6 135.564 209.1 137.064 202.7C137.664 200.2 137.664 197.7 137.064 195.4C141.464 200 142.364 209.2 139.164 214.2Z" fill="#728184"/>
</g>
<g opacity="0.29">
<path d="M124.365 287.7C124.165 288.1 123.965 288.5 123.665 289C122.565 291 120.965 292.3 119.165 293.4C118.765 293.6 118.465 293.8 118.065 294.1L115.965 290.1C116.065 290.1 116.065 290 116.165 290C117.265 289.4 118.265 288.7 119.165 288C121.865 285.7 123.565 282.6 124.065 279.5C124.165 279.7 124.265 279.9 124.265 280C125.365 282.4 125.665 284.9 124.365 287.7Z" fill="#728184"/>
</g>
<g opacity="0.29">
<path d="M115.764 322.4C115.764 321.9 115.664 321.3 115.664 320.8V315.6C118.664 314 120.764 311.5 121.864 308.9H122.364C124.164 313.9 120.564 319.2 115.764 322.4Z" fill="#728184"/>
</g>
<g opacity="0.25">
<path d="M317.066 345.4L204.966 410.2C204.066 408.9 203.166 407.5 202.266 406.1C212.366 397.4 223.266 389.4 233.866 381.6C249.966 369.7 266.366 360.9 284.366 352.1C292.566 348.2 303.966 344.2 313.166 338.5C314.466 340.8 315.766 343.1 317.066 345.4Z" fill="#8A8A8A"/>
</g>
<defs>
<linearGradient id="paint0_linear_4756_1111" x1="179.186" y1="308.774" x2="179.186" y2="124.898" gradientUnits="userSpaceOnUse">
<stop stop-color="#00A0C6"/>
<stop offset="0.2386" stop-color="#34B3C8"/>
<stop offset="0.4837" stop-color="#63C4CA"/>
<stop offset="0.7014" stop-color="#85D1CB"/>
<stop offset="0.8809" stop-color="#99D8CC"/>
<stop offset="1" stop-color="#A1DBCC"/>
</linearGradient>
</defs>
</svg>
