<svg width="128" height="128" viewBox="0 0 128 128" fill="none" xmlns="http://www.w3.org/2000/svg">
<g clip-path="url(#clip0_2733_10203)">
<path d="M50.2994 124C50.6994 124 50.9994 123.9 51.0994 123.6L69.0994 95.4002L106.999 108.1C107.099 108.1 107.199 108.2 107.299 108.2C107.499 108.2 107.599 108.2 107.799 108.1C107.999 108 108.199 107.7 108.299 107.4L128.199 5.7002L49.9994 92.1002V123C49.9994 123.5 49.8994 123.8 50.2994 124Z" fill="black"/>
<path d="M0 71.6C0 72 0.3 72.3 0.7 72.5L47.4 88.2L124 4L0.5 70.6C0.2 70.8 0 71.2 0 71.6Z" fill="black"/>
</g>
<defs>
<clipPath id="clip0_2733_10203">
<rect width="128" height="128" fill="white"/>
</clipPath>
</defs>
</svg>
