<svg width="24" height="24" viewBox="0 0 24 24" fill="none" xmlns="http://www.w3.org/2000/svg">
<path d="M8.94563 9.39252C8.29091 8.72691 7.38641 8.31187 6.38449 8.30926V8.30925H6.375V8.30926C5.37308 8.31187 4.46858 8.72691 3.81386 9.39252C3.15714 10.0602 2.75 10.9815 2.75 12C2.75 13.0185 3.15714 13.9398 3.81386 14.6075C4.47065 15.2752 5.3788 15.6908 6.38449 15.6908C7.38978 15.6908 8.29759 15.2755 8.95431 14.6083C9.16338 14.3997 9.3466 14.1628 9.49939 13.9052L14.2497 16.1695C14.0754 16.5986 13.981 17.0702 13.981 17.5592C13.981 18.5778 14.3882 19.4991 15.0449 20.1667C15.7017 20.8344 16.6098 21.25 17.6155 21.25C18.6212 21.25 19.5294 20.8344 20.1861 20.1667C20.8429 19.4991 21.25 18.5778 21.25 17.5592C21.25 16.5407 20.8429 15.6194 20.1861 14.9518C19.5294 14.2841 18.6212 13.8685 17.6155 13.8685C16.6098 13.8685 15.7017 14.2841 15.0449 14.9518C15.0262 14.9707 15.008 14.9897 14.99 15.0087L9.96455 12.6146C9.9969 12.4146 10.0142 12.2103 10.0142 12C10.0142 11.6341 9.96041 11.2782 9.86081 10.9435L14.8463 8.83464C14.9084 8.90879 14.9733 8.98033 15.0401 9.04824C15.6969 9.71594 16.6051 10.1315 17.6108 10.1315C18.6165 10.1315 19.5246 9.71594 20.1814 9.04824C20.8381 8.3806 21.2453 7.45928 21.2453 6.44075C21.2453 5.42222 20.8381 4.5009 20.1814 3.83327C19.5246 3.16556 18.6165 2.75 17.6108 2.75C16.6051 2.75 15.6969 3.16556 15.0401 3.83327C14.3834 4.5009 13.9763 5.42222 13.9763 6.44075C13.9763 6.85443 14.0422 7.25522 14.1689 7.63106L9.2315 9.71916C9.14205 9.60421 9.04625 9.49481 8.94563 9.39252ZM17.606 4.12346C18.233 4.12346 18.8012 4.38336 19.2126 4.80159C19.624 5.21987 19.8813 5.79941 19.8813 6.44075C19.8813 7.08209 19.624 7.66163 19.2126 8.07991C18.8012 8.49814 18.233 8.75804 17.606 8.75804C16.979 8.75804 16.4108 8.49814 15.9994 8.07991C15.588 7.66163 15.3307 7.08209 15.3307 6.44075C15.3307 5.79941 15.588 5.21987 15.9994 4.80159C16.4108 4.38336 16.979 4.12346 17.606 4.12346ZM17.606 15.2371C18.233 15.2371 18.8012 15.497 19.2126 15.9153C19.624 16.3335 19.8813 16.9131 19.8813 17.5544C19.8813 18.1958 19.624 18.7753 19.2126 19.1936C18.8012 19.6118 18.233 19.8717 17.606 19.8717C16.979 19.8717 16.4108 19.6118 15.9994 19.1936C15.588 18.7753 15.3307 18.1958 15.3307 17.5544C15.3307 16.9131 15.588 16.3335 15.9994 15.9153C16.4108 15.497 16.979 15.2371 17.606 15.2371ZM6.375 9.67788C7.00203 9.67788 7.5702 9.93779 7.98158 10.356C8.39303 10.7743 8.65032 11.3538 8.65032 11.9952C8.65032 12.6365 8.39303 13.2161 7.98158 13.6343C7.5702 14.0526 7.00203 14.3125 6.375 14.3125C5.74797 14.3125 5.1798 14.0526 4.76842 13.6343C4.35697 13.2161 4.09968 12.6365 4.09968 11.9952C4.09968 11.3538 4.35697 10.7743 4.76842 10.356C5.1798 9.93779 5.74797 9.67788 6.375 9.67788Z" fill="#1A1B1E" stroke="#1A1B1E" stroke-width="0.5"/>
</svg>
