<svg width="68" height="64" viewBox="0 0 68 64" fill="none" xmlns="http://www.w3.org/2000/svg">
<path d="M27.1448 43.3475C27.4374 43.6067 27.8778 43.6119 28.1766 43.3527C34.6938 37.6995 40.6343 31.7684 47.7221 25.7842C48.3332 25.2678 48.6976 24.5463 48.7486 23.7499C48.9048 21.2762 45.9585 19.6563 43.9564 21.3127C37.8931 26.3203 32.8511 30.8626 28.1484 35.558C27.224 34.6345 25.9882 33.3144 24.463 31.6195C23.2824 30.3098 21.1544 30.0829 19.7229 31.4977C19.1179 32.0895 18.7656 32.8925 18.7398 33.7384C18.714 34.5842 19.0167 35.4072 19.5844 36.0348C22.4328 39.1789 24.2204 40.7468 27.1448 43.3475Z" fill="#FE464B"/>
<path d="M11.841 57.4012C21.8282 65.1626 36.9387 65.7727 47.4027 58.6672C56.3936 52.5622 61.6678 40.8228 60.7142 29.9413C60.1457 13.7658 49.6348 3.69526 32.3485 2.9082C27.2637 2.66666 22.3227 3.92431 17.9668 6.48332C10.6895 9.90852 4.67197 16.0978 1.95679 23.6885C-2.30338 35.5986 1.85268 49.6399 11.841 57.4012ZM8.3689 19.2388C13.2537 10.1001 21.9677 3.99198 32.2766 4.46776C49.3735 5.2465 59.1785 15.039 59.1785 31.3353C59.1785 46.1501 47.1268 58.2029 32.312 58.2029C11.8993 58.2029 -0.727158 36.2566 8.3689 19.2388Z" fill="#FE464B"/>
<path d="M53.9498 0.846909C52.9876 3.14125 52.3404 5.55525 52.0258 8.02318C51.9996 8.22875 52.0561 8.43632 52.1829 8.60023C52.3097 8.76413 52.4964 8.87095 52.702 8.89718C52.9076 8.92341 53.1151 8.86691 53.2791 8.7401C53.443 8.61329 53.5498 8.42656 53.576 8.22099C53.8723 5.89275 54.4824 3.61533 55.3896 1.45074C55.4317 1.35579 55.4544 1.2534 55.4564 1.14956C55.4585 1.04572 55.4397 0.942513 55.4014 0.845993C55.363 0.749473 55.3058 0.661575 55.2331 0.587445C55.1603 0.513314 55.0735 0.454442 54.9777 0.414274C54.882 0.374106 54.7791 0.35345 54.6753 0.353516C54.5714 0.353581 54.4686 0.374367 54.3729 0.414655C54.2771 0.454944 54.1904 0.513926 54.1178 0.588148C54.0451 0.66237 53.988 0.75034 53.9498 0.846909ZM63.759 5.97222C63.6964 5.89093 63.6183 5.82281 63.5293 5.77178C63.4403 5.72074 63.3421 5.68779 63.2404 5.67483C63.1386 5.66187 63.0352 5.66914 62.9363 5.69624C62.8373 5.72333 62.7447 5.76971 62.6637 5.83272L57.4239 9.88987C57.3386 9.95105 57.2665 10.0288 57.212 10.1185C57.1574 10.2081 57.1215 10.3079 57.1064 10.4117C57.0912 10.5156 57.0972 10.6214 57.1239 10.723C57.1506 10.8245 57.1975 10.9195 57.2618 11.0025C57.326 11.0855 57.4064 11.1547 57.498 11.2059C57.5896 11.2571 57.6906 11.2893 57.795 11.3006C57.8993 11.3119 58.0049 11.3021 58.1053 11.2716C58.2058 11.2412 58.2991 11.1909 58.3796 11.1236L63.6195 7.06746C63.7832 6.9407 63.8898 6.75411 63.916 6.54873C63.9422 6.34334 63.8857 6.13597 63.759 5.97222ZM67.6683 15.0537C67.6367 14.9561 67.5861 14.8656 67.5194 14.7876C67.4527 14.7096 67.3713 14.6455 67.2798 14.5991C67.1882 14.5526 67.0884 14.5247 66.9861 14.517C66.8837 14.5092 66.7809 14.5218 66.6834 14.554C64.926 15.1266 63.1041 15.4046 61.2437 15.3608C60.8377 15.3754 60.4566 15.694 60.4472 16.126C60.4452 16.2286 60.4633 16.3305 60.5007 16.4261C60.538 16.5216 60.5938 16.6088 60.6649 16.6828C60.7359 16.7567 60.8208 16.816 60.9148 16.8571C61.0088 16.8982 61.1099 16.9204 61.2125 16.9225C63.233 16.9634 65.2461 16.6642 67.1675 16.0375C67.3642 15.9732 67.5272 15.8335 67.6209 15.649C67.7146 15.4646 67.7323 15.2504 67.6683 15.0537Z" fill="#FE464B"/>
</svg>
