<?xml version="1.0" standalone="no"?>
<!DOCTYPE svg PUBLIC "-//W3C//DTD SVG 20010904//EN"
 "http://www.w3.org/TR/2001/REC-SVG-20010904/DTD/svg10.dtd">
<svg version="1.0" xmlns="http://www.w3.org/2000/svg"
 width="512.000000pt" height="512.000000pt" viewBox="0 0 512.000000 512.000000"
 preserveAspectRatio="xMidYMid meet">

<g transform="translate(0.000000,512.000000) scale(0.100000,-0.100000)"
fill="#000000" stroke="none">
<path d="M2285 4675 c-811 -106 -1495 -672 -1749 -1446 -75 -229 -106 -422
-106 -669 0 -335 70 -639 214 -934 111 -228 228 -390 415 -577 179 -178 345
-297 566 -405 474 -231 1024 -279 1532 -132 l73 21 57 -54 c330 -311 822 -353
1194 -102 295 200 461 557 419 903 -26 214 -112 397 -259 552 l-54 58 26 92
c55 199 77 360 77 571 0 176 -13 301 -46 457 -191 891 -943 1571 -1846 1669
-128 14 -388 12 -513 -4z m465 -205 c581 -61 1098 -374 1416 -861 278 -423
374 -934 273 -1439 -12 -57 -25 -114 -29 -126 l-9 -22 -81 35 c-157 68 -381
92 -552 59 -81 -16 -222 -65 -273 -95 -33 -19 -33 -19 -117 5 -405 119 -996
138 -1438 48 -395 -81 -716 -235 -957 -458 l-62 -57 -25 43 c-51 87 -126 256
-160 358 -269 824 46 1727 769 2203 113 74 322 177 441 216 255 85 546 118
804 91z m61 -2561 c131 -10 325 -39 401 -60 l38 -10 -55 -71 c-139 -177 -205
-370 -205 -596 0 -132 26 -263 73 -372 l35 -81 -22 -9 c-40 -15 -229 -50 -326
-60 -512 -53 -1036 112 -1438 452 -83 71 -205 196 -243 250 l-21 29 78 75
c350 337 988 509 1685 453z m1344 -19 c242 -76 422 -250 501 -485 39 -115 45
-286 15 -405 -35 -144 -91 -240 -201 -350 -110 -110 -206 -166 -350 -201 -119
-30 -290 -24 -405 15 -407 137 -616 578 -464 977 90 235 299 412 548 465 94
19 266 12 356 -16z"/>
<path d="M2385 4036 c-313 -74 -545 -286 -640 -586 -35 -109 -45 -305 -22
-415 37 -172 112 -311 236 -436 179 -178 378 -255 636 -246 113 3 143 8 225
36 139 47 230 102 330 201 178 175 260 367 260 610 0 121 -16 203 -59 315 -43
112 -101 196 -201 295 -100 99 -191 154 -330 201 -86 29 -109 33 -235 35 -96
3 -159 -1 -200 -10z m310 -211 c287 -60 505 -329 505 -625 0 -297 -218 -565
-510 -626 -277 -58 -575 85 -699 337 -126 255 -80 541 118 740 156 155 370
219 586 174z"/>
<path d="M3905 1700 c-11 -4 -111 -100 -222 -212 -199 -200 -203 -205 -203
-246 0 -32 7 -49 29 -74 25 -28 36 -33 75 -33 45 0 48 2 150 104 l105 105 3
-321 3 -321 24 -26 c48 -51 142 -40 170 20 7 17 11 128 11 337 l0 312 98 -97
c53 -53 107 -101 119 -107 80 -40 175 48 140 130 -11 26 -365 392 -412 425
-22 15 -59 17 -90 4z"/>
</g>
</svg>
