<svg width="42" height="42" viewBox="0 0 42 42" fill="none" xmlns="http://www.w3.org/2000/svg">
<rect width="42" height="42" rx="5" fill="#FFB8B8"/>
<path d="M22.135 14.75C21.726 14.75 21.343 14.55 21.109 14.215L20.212 12.928C19.9587 12.5644 19.6213 12.2674 19.2285 12.0623C18.8357 11.8572 18.3991 11.7501 17.956 11.75H13C12.2707 11.75 11.5712 12.0397 11.0555 12.5555C10.5397 13.0712 10.25 13.7707 10.25 14.5V27.5C10.25 28.229 10.54 28.929 11.055 29.445C11.5712 29.9602 12.2707 30.2497 13 30.25H29C29.729 30.25 30.429 29.96 30.945 29.445C31.4602 28.9288 31.7497 28.2293 31.75 27.5V17.5C31.75 16.771 31.46 16.071 30.945 15.555C30.4288 15.0398 29.7293 14.7503 29 14.75H22.135ZM22.135 16.25H29C29.3314 16.2505 29.649 16.3824 29.8833 16.6167C30.1176 16.851 30.2495 17.1686 30.25 17.5V27.5C30.2495 27.8314 30.1176 28.149 29.8833 28.3833C29.649 28.6176 29.3314 28.7495 29 28.75H13C12.6686 28.7495 12.351 28.6176 12.1167 28.3833C11.8824 28.149 11.7505 27.8314 11.75 27.5V14.5C11.75 13.81 12.31 13.25 13 13.25H17.956C18.365 13.25 18.748 13.45 18.982 13.785L19.879 15.072C20.1322 15.4356 20.4697 15.7327 20.8625 15.9378C21.2553 16.1429 21.6919 16.25 22.135 16.25Z" fill="#FE464B"/>
<path d="M20.25 17.75C18.18 17.75 16.5 19.43 16.5 21.5C16.5 23.57 18.18 25.25 20.25 25.25C22.32 25.25 24 23.57 24 21.5C24 19.43 22.32 17.75 20.25 17.75ZM20.25 19.25C20.5456 19.2501 20.8383 19.3085 21.1113 19.4217C21.3844 19.535 21.6325 19.7009 21.8414 19.91C22.0503 20.1191 22.216 20.3673 22.329 20.6405C22.442 20.9137 22.5001 21.2064 22.5 21.502C22.4999 21.7976 22.4415 22.0903 22.3283 22.3633C22.215 22.6364 22.0491 22.8845 21.84 23.0934C21.6309 23.3023 21.3827 23.468 21.1095 23.581C20.8363 23.694 20.5436 23.7521 20.248 23.752C19.651 23.7517 19.0786 23.5143 18.6566 23.092C18.2346 22.6697 17.9977 22.097 17.998 21.5C17.9983 20.903 18.2357 20.3306 18.658 19.9086C19.0803 19.4866 19.653 19.2497 20.25 19.25Z" fill="#FE464B"/>
<path d="M25.2798 25.4698L22.9048 23.0938C22.8351 23.0241 22.7524 22.9688 22.6614 22.9311C22.5703 22.8934 22.4728 22.874 22.3743 22.874C22.2757 22.874 22.1782 22.8934 22.0872 22.9311C21.9961 22.9688 21.9134 23.0241 21.8438 23.0938C21.7741 23.1634 21.7188 23.2461 21.6811 23.3372C21.6434 23.4282 21.624 23.5257 21.624 23.6243C21.624 23.7228 21.6434 23.8203 21.6811 23.9114C21.7188 24.0024 21.7741 24.0851 21.8438 24.1548L24.2198 26.5298C24.2894 26.5994 24.372 26.6546 24.4629 26.6922C24.5539 26.7299 24.6513 26.7493 24.7498 26.7493C24.8482 26.7493 24.9457 26.7299 25.0366 26.6922C25.1275 26.6546 25.2102 26.5994 25.2798 26.5298C25.3494 26.4602 25.4046 26.3775 25.4422 26.2866C25.4799 26.1957 25.4993 26.0982 25.4993 25.9998C25.4993 25.9013 25.4799 25.8039 25.4422 25.7129C25.4046 25.622 25.3494 25.5394 25.2798 25.4698Z" fill="#FE464B"/>
</svg>
