<?xml version="1.0" standalone="no"?>
<!DOCTYPE svg PUBLIC "-//W3C//DTD SVG 20010904//EN"
 "http://www.w3.org/TR/2001/REC-SVG-20010904/DTD/svg10.dtd">
<svg version="1.0" xmlns="http://www.w3.org/2000/svg"
 width="256.000000pt" height="256.000000pt" viewBox="0 0 256.000000 256.000000"
 preserveAspectRatio="xMidYMid meet">

<g transform="translate(0.000000,256.000000) scale(0.100000,-0.100000)"
fill="#000000" stroke="none">
<path d="M531 2386 c-52 -29 -50 16 -51 -1104 0 -1133 -2 -1084 55 -1110 37
-17 1453 -17 1490 0 57 26 55 -23 55 1108 0 1131 2 1082 -55 1108 -40 18
-1461 16 -1494 -2z m1489 -46 c20 -20 20 -33 20 -1060 0 -1027 0 -1040 -20
-1060 -20 -20 -33 -20 -740 -20 -707 0 -720 0 -740 20 -20 20 -20 33 -20 1060
0 1027 0 1040 20 1060 20 20 33 20 740 20 707 0 720 0 740 -20z"/>
<path d="M1242 2263 c-9 -10 -29 -23 -44 -30 -15 -7 -30 -23 -34 -37 -6 -25
10 -66 26 -66 18 0 10 -50 -10 -70 -11 -11 -20 -29 -20 -40 0 -11 9 -29 20
-40 17 -17 33 -20 100 -20 67 0 83 3 100 20 11 11 20 29 20 40 0 11 -9 29 -20
40 -20 20 -28 70 -10 70 16 0 32 41 26 66 -4 14 -19 30 -34 37 -15 7 -35 20
-44 30 -10 9 -27 17 -38 17 -11 0 -28 -8 -38 -17z m58 -43 c6 -11 19 -20 30
-20 29 0 36 -22 12 -38 -18 -11 -22 -24 -22 -62 0 -38 4 -51 22 -62 36 -24 13
-38 -62 -38 -75 0 -98 14 -62 38 18 11 22 24 22 62 0 38 -4 51 -22 62 -24 16
-17 38 12 38 11 0 24 9 30 20 6 11 15 20 20 20 5 0 14 -9 20 -20z"/>
<path d="M625 1855 c-16 -15 -25 -36 -25 -55 0 -19 9 -40 25 -55 l24 -25 631
0 631 0 24 25 c16 15 25 36 25 55 0 19 -9 40 -25 55 l-24 25 -631 0 -631 0
-24 -25z m1289 -37 c8 -13 8 -23 0 -35 -10 -17 -53 -18 -629 -21 -448 -1 -622
1 -631 9 -17 14 -18 41 -2 57 9 9 158 12 631 10 578 -3 621 -4 631 -20z"/>
<path d="M705 1615 c-16 -15 -25 -36 -25 -55 0 -19 9 -40 25 -55 23 -24 28
-25 175 -25 147 0 152 1 175 25 16 15 25 36 25 55 0 19 -9 40 -25 55 -23 24
-28 25 -175 25 -147 0 -152 -1 -175 -25z m329 -37 c8 -13 8 -23 0 -35 -10 -16
-30 -18 -149 -21 -141 -3 -165 3 -165 37 0 37 20 42 164 39 119 -3 140 -5 150
-20z"/>
<path d="M1313 1633 c-12 -2 -34 -18 -48 -34 l-25 -31 0 -255 0 -255 29 -29
29 -29 262 0 262 0 29 29 29 29 0 256 0 256 -29 32 -29 33 -244 1 c-133 1
-253 0 -265 -3z m501 -54 c25 -20 26 -23 26 -135 0 -69 -4 -114 -10 -114 -5 0
-10 4 -10 10 0 5 -18 22 -40 36 -54 36 -90 28 -152 -33 l-48 -47 -47 46 c-77
75 -112 74 -197 -6 -28 -25 -51 -46 -53 -46 -2 0 -3 60 -3 134 0 187 -17 176
280 176 215 0 229 -1 254 -21z m-28 -271 l56 -53 -4 -91 c-2 -58 -8 -97 -17
-107 -12 -15 -41 -17 -230 -17 l-216 0 150 151 c134 135 171 166 198 168 5 1
33 -23 63 -51z m-281 2 l39 -40 -104 -107 c-58 -60 -108 -112 -112 -117 -4 -6
-16 -2 -28 9 -17 15 -20 31 -20 90 l0 73 68 66 c81 80 101 83 157 26z"/>
<path d="M1525 1535 c-50 -49 -15 -135 55 -135 19 0 40 9 55 25 16 15 25 36
25 55 0 19 -9 40 -25 55 -15 16 -36 25 -55 25 -19 0 -40 -9 -55 -25z m85 -30
c26 -32 -13 -81 -47 -59 -35 22 -23 74 17 74 10 0 23 -7 30 -15z"/>
<path d="M1004 835 c-9 -23 10 -40 25 -22 9 11 8 17 -4 27 -12 10 -16 9 -21
-5z"/>
<path d="M685 829 c-15 -23 15 -30 121 -27 89 2 109 6 109 18 0 12 -20 16
-112 18 -74 2 -114 -1 -118 -9z"/>
<path d="M1125 829 c-4 -6 -3 -15 2 -20 5 -5 162 -8 379 -7 320 3 369 5 369
18 0 13 -49 15 -372 18 -262 1 -374 -1 -378 -9z"/>
<path d="M1125 709 c-16 -25 20 -29 241 -27 196 3 229 5 229 18 0 13 -34 15
-232 18 -161 2 -234 -1 -238 -9z"/>
<path d="M685 589 c-15 -23 15 -30 121 -27 89 2 109 6 109 18 0 12 -20 16
-112 18 -74 2 -114 -1 -118 -9z"/>
<path d="M1000 580 c0 -13 7 -20 20 -20 13 0 20 7 20 20 0 13 -7 20 -20 20
-13 0 -20 -7 -20 -20z"/>
<path d="M1125 589 c-4 -6 -3 -15 2 -20 5 -5 162 -8 379 -7 320 3 369 5 369
18 0 13 -49 15 -372 18 -262 1 -374 -1 -378 -9z"/>
<path d="M685 469 c-15 -23 15 -30 121 -27 89 2 109 6 109 18 0 12 -20 16
-112 18 -74 2 -114 -1 -118 -9z"/>
<path d="M1000 460 c0 -15 5 -20 18 -18 9 2 17 10 17 18 0 8 -8 16 -17 18 -13
2 -18 -3 -18 -18z"/>
<path d="M1125 469 c-16 -25 19 -29 221 -27 178 3 209 5 209 18 0 13 -31 15
-212 18 -147 2 -214 -1 -218 -9z"/>
<path d="M1003 354 c-7 -19 11 -39 26 -30 16 10 13 33 -4 40 -9 3 -18 -1 -22
-10z"/>
<path d="M685 349 c-15 -23 15 -30 121 -27 89 2 109 6 109 18 0 12 -20 16
-112 18 -74 2 -114 -1 -118 -9z"/>
<path d="M1125 349 c-16 -25 19 -29 221 -27 178 3 209 5 209 18 0 13 -31 15
-212 18 -147 2 -214 -1 -218 -9z"/>
</g>
</svg>
