<?xml version="1.0" standalone="no"?>
<!DOCTYPE svg PUBLIC "-//W3C//DTD SVG 20010904//EN"
 "http://www.w3.org/TR/2001/REC-SVG-20010904/DTD/svg10.dtd">
<svg version="1.0" xmlns="http://www.w3.org/2000/svg"
 width="512.000000pt" height="512.000000pt" viewBox="0 0 512.000000 512.000000"
 preserveAspectRatio="xMidYMid meet">

<g transform="translate(0.000000,512.000000) scale(0.100000,-0.100000)"
fill="#000000" stroke="none">
<path d="M830 5104 c-42 -18 -86 -58 -108 -99 -15 -27 -17 -109 -20 -871 l-3
-842 -92 -4 c-112 -5 -179 -32 -235 -92 -81 -88 -77 -39 -77 -946 0 -801 0
-805 21 -851 54 -116 140 -169 291 -177 l92 -5 3 -536 c3 -588 1 -562 65 -623
65 -62 -61 -58 1793 -58 1854 0 1728 -4 1793 58 64 61 62 35 65 623 l3 536 92
5 c151 8 237 61 291 177 21 46 21 50 21 851 0 907 4 858 -77 946 -56 60 -123
87 -235 92 l-93 4 -1 302 c-1 165 -4 312 -8 326 -8 30 -994 1160 -1033 1184
-24 15 -138 16 -1270 16 -1088 -1 -1247 -3 -1278 -16z m2400 -714 l0 -530 29
-32 29 -33 466 -3 466 -3 0 -249 0 -250 -1660 0 -1660 0 0 815 0 815 1165 0
1165 0 0 -530z m-2179 -1480 c21 -41 70 -146 110 -233 40 -87 75 -154 79 -150
3 5 19 40 35 78 39 98 156 357 168 373 7 9 55 12 178 12 93 0 169 -2 169 -4 0
-2 -85 -151 -189 -331 l-188 -327 189 -326 c105 -180 194 -335 199 -344 9 -17
-2 -18 -166 -18 l-175 0 -122 243 -121 242 -21 -50 c-12 -27 -60 -135 -107
-240 l-87 -190 -175 -3 -176 -2 195 340 195 341 -186 328 c-102 181 -185 331
-185 335 0 4 77 5 172 4 l172 -3 37 -75z m1393 63 c131 -449 180 -629 217
-805 12 -59 25 -105 29 -103 4 3 11 20 14 39 16 86 104 395 178 629 l82 257
197 0 197 0 6 -82 c10 -129 66 -1167 66 -1220 l0 -48 -144 0 -145 0 -5 53 c-9
84 -26 637 -26 831 0 108 -4 176 -9 170 -5 -5 -21 -54 -35 -109 -14 -55 -83
-286 -153 -513 l-128 -413 -120 3 -119 3 -63 225 c-88 318 -130 483 -168 655
-22 100 -34 142 -38 125 -3 -14 -13 -209 -22 -435 -9 -225 -19 -452 -22 -502
l-6 -93 -139 0 c-136 0 -138 0 -138 23 0 46 81 1303 85 1315 3 9 53 12 204 12
182 0 200 -2 205 -17z m1534 -535 l2 -548 265 0 265 0 0 -125 0 -125 -420 0
-420 0 0 675 0 676 153 -3 152 -3 3 -547z m242 -1698 l0 -480 -1660 0 -1660 0
0 480 0 480 1660 0 1660 0 0 -480z"/>
</g>
</svg>
