<?xml version="1.0" standalone="no"?>
<!DOCTYPE svg PUBLIC "-//W3C//DTD SVG 20010904//EN"
 "http://www.w3.org/TR/2001/REC-SVG-20010904/DTD/svg10.dtd">
<svg version="1.0" xmlns="http://www.w3.org/2000/svg"
 width="512.000000pt" height="512.000000pt" viewBox="0 0 512.000000 512.000000"
 preserveAspectRatio="xMidYMid meet">

<g transform="translate(0.000000,512.000000) scale(0.100000,-0.100000)"
fill="#000000" stroke="none">
<path d="M830 5104 c-42 -18 -86 -58 -108 -99 -15 -27 -17 -109 -20 -871 l-3
-842 -92 -4 c-112 -5 -179 -32 -235 -92 -81 -88 -77 -39 -77 -946 0 -801 0
-805 21 -851 54 -116 140 -169 291 -177 l92 -5 3 -536 c3 -588 1 -562 65 -623
65 -62 -61 -58 1793 -58 1854 0 1728 -4 1793 58 64 61 62 35 65 623 l3 536 92
5 c151 8 237 61 291 177 21 46 21 50 21 851 0 907 4 858 -77 946 -56 60 -123
87 -235 92 l-93 4 -1 302 c-1 165 -4 312 -8 326 -8 30 -994 1160 -1033 1184
-24 15 -138 16 -1270 16 -1088 -1 -1247 -3 -1278 -16z m2400 -714 l0 -530 29
-32 29 -33 466 -3 466 -3 0 -249 0 -250 -1660 0 -1660 0 0 815 0 815 1165 0
1165 0 0 -530z m763 -1369 c121 -25 198 -62 267 -131 95 -95 138 -219 126
-359 -28 -301 -232 -459 -603 -464 l-133 -2 0 -267 0 -268 -170 0 -170 0 0
740 c0 407 1 740 3 741 44 11 267 27 404 28 142 1 201 -3 276 -18z m-1543 -91
l0 -100 -345 -501 c-190 -275 -345 -505 -345 -510 0 -5 147 -9 350 -9 l350 0
0 -140 0 -140 -580 0 -580 0 0 93 0 92 355 511 c195 282 355 515 355 518 0 3
-144 6 -320 6 l-320 0 0 140 0 140 540 0 540 0 0 -100z m570 -650 l0 -750
-170 0 -170 0 0 750 0 750 170 0 170 0 0 -750z m1200 -1540 l0 -480 -1660 0
-1660 0 0 480 0 480 1660 0 1660 0 0 -480z"/>
<path d="M3705 2781 l-50 -6 -3 -222 -2 -222 45 -7 c102 -15 228 17 289 74 89
84 88 267 -2 331 -67 47 -167 66 -277 52z"/>
</g>
</svg>
